<?xml version="1.0" standalone="no"?>
 <!DOCTYPE svg PUBLIC "-//W3C//DTD SVG 1.1//EN" 
 "http://www.w3.org/Graphics/SVG/1.1/DTD/svg11.dtd"> 
<svg xmlns="http://www.w3.org/2000/svg" version="1.1" 
    width="29.7002cm" height="21.0007cm" viewBox="0 0 116930 82680 ">
<title>SVG Picture created as 0002-ATX-B_SilkS.svg date 2021/02/20 20:08:05 </title>
  <desc>Picture generated by PCBNEW </desc>
<g style="fill:#000000; fill-opacity:1;stroke:#000000; stroke-opacity:1;
stroke-linecap:round; stroke-linejoin:round; "
 transform="translate(0 0) scale(1 1)">
</g>
<g style="fill:#000000; fill-opacity:0.0; 
stroke:#000000; stroke-width:-0.000393701; stroke-opacity:1; 
stroke-linecap:round; stroke-linejoin:round;">
</g>
<g style="fill:#000000; fill-opacity:0.0; 
stroke:#000000; stroke-width:39.3701; stroke-opacity:1; 
stroke-linecap:round; stroke-linejoin:round;">
</g>
<g style="fill:#000000; fill-opacity:0.0; 
stroke:#000000; stroke-width:59.0551; stroke-opacity:1; 
stroke-linecap:round; stroke-linejoin:round;">
<rect x="69685.9" y="65357.2" width="42519.7" height="12598.4" rx="0" />
</g>
<g style="fill:#000000; fill-opacity:0.0; 
stroke:#000000; stroke-width:39.3701; stroke-opacity:1; 
stroke-linecap:round; stroke-linejoin:round;">
</g>
<g style="fill:#000000; fill-opacity:0.0; 
stroke:#000000; stroke-width:59.0551; stroke-opacity:1; 
stroke-linecap:round; stroke-linejoin:round;">
<rect x="3937.01" y="3937.01" width="109056" height="74806" rx="0" />
</g>
<g style="fill:#000000; fill-opacity:0.0; 
stroke:#000000; stroke-width:39.3701; stroke-opacity:1; 
stroke-linecap:round; stroke-linejoin:round;">
</g>
<g style="fill:#000000; fill-opacity:0.0; 
stroke:#000000; stroke-width:59.0551; stroke-opacity:1; 
stroke-linecap:round; stroke-linejoin:round;">
<rect x="4724.41" y="4724.41" width="107481" height="73231.2" rx="0" />
</g>
<g style="fill:#000000; fill-opacity:0.0; 
stroke:#000000; stroke-width:39.3701; stroke-opacity:1; 
stroke-linecap:round; stroke-linejoin:round;">
</g>
<g style="fill:#000000; fill-opacity:0.0; 
stroke:#000000; stroke-width:59.0551; stroke-opacity:1; 
stroke-linecap:round; stroke-linejoin:round;">
<path d="M23622 4724
L23622 3937
" />
</g>
<g style="fill:#000000; fill-opacity:0.0; 
stroke:#000000; stroke-width:39.3701; stroke-opacity:1; 
stroke-linecap:round; stroke-linejoin:round;">
</g>
<g style="fill:#000000; fill-opacity:0.0; 
stroke:#000000; stroke-width:59.0551; stroke-opacity:1; 
stroke-linecap:round; stroke-linejoin:round;">
<path d="M43307 4724
L43307 3937
" />
</g>
<g style="fill:#000000; fill-opacity:0.0; 
stroke:#000000; stroke-width:39.3701; stroke-opacity:1; 
stroke-linecap:round; stroke-linejoin:round;">
</g>
<g style="fill:#000000; fill-opacity:0.0; 
stroke:#000000; stroke-width:59.0551; stroke-opacity:1; 
stroke-linecap:round; stroke-linejoin:round;">
<path d="M62992 4724
L62992 3937
" />
</g>
<g style="fill:#000000; fill-opacity:0.0; 
stroke:#000000; stroke-width:39.3701; stroke-opacity:1; 
stroke-linecap:round; stroke-linejoin:round;">
</g>
<g style="fill:#000000; fill-opacity:0.0; 
stroke:#000000; stroke-width:59.0551; stroke-opacity:1; 
stroke-linecap:round; stroke-linejoin:round;">
<path d="M82677 4724
L82677 3937
" />
</g>
<g style="fill:#000000; fill-opacity:0.0; 
stroke:#000000; stroke-width:39.3701; stroke-opacity:1; 
stroke-linecap:round; stroke-linejoin:round;">
</g>
<g style="fill:#000000; fill-opacity:0.0; 
stroke:#000000; stroke-width:59.0551; stroke-opacity:1; 
stroke-linecap:round; stroke-linejoin:round;">
<path d="M102362 4724
L102362 3937
" />
</g>
<g style="fill:#000000; fill-opacity:0.0; 
stroke:#000000; stroke-width:39.3701; stroke-opacity:1; 
stroke-linecap:round; stroke-linejoin:round;">
</g>
<g style="fill:#000000; fill-opacity:0.0; 
stroke:#000000; stroke-width:59.0551; stroke-opacity:1; 
stroke-linecap:round; stroke-linejoin:round;">
<text x="13779.5" y="4586.61"
textLength="564.211" font-size="682.415" lengthAdjust="spacingAndGlyphs"
text-anchor="start" opacity="0">1</text>
<path d="M14199 4562
L13906 4562
" />
<path d="M14052 4562
L14052 4050
L14004 4123
L13955 4172
L13906 4196
" />
</g>
<g style="fill:#000000; fill-opacity:0.0; 
stroke:#000000; stroke-width:39.3701; stroke-opacity:1; 
stroke-linecap:round; stroke-linejoin:round;">
</g>
<g style="fill:#000000; fill-opacity:0.0; 
stroke:#000000; stroke-width:59.0551; stroke-opacity:1; 
stroke-linecap:round; stroke-linejoin:round;">
<text x="33464.6" y="4586.61"
textLength="546.494" font-size="682.415" lengthAdjust="spacingAndGlyphs"
text-anchor="start" opacity="0">2</text>
<path d="M33591 4099
L33615 4074
L33664 4050
L33786 4050
L33835 4074
L33859 4099
L33884 4147
L33884 4196
L33859 4269
L33567 4562
L33884 4562
" />
</g>
<g style="fill:#000000; fill-opacity:0.0; 
stroke:#000000; stroke-width:39.3701; stroke-opacity:1; 
stroke-linecap:round; stroke-linejoin:round;">
</g>
<g style="fill:#000000; fill-opacity:0.0; 
stroke:#000000; stroke-width:59.0551; stroke-opacity:1; 
stroke-linecap:round; stroke-linejoin:round;">
<text x="53149.6" y="4586.61"
textLength="546.494" font-size="682.415" lengthAdjust="spacingAndGlyphs"
text-anchor="start" opacity="0">3</text>
<path d="M53252 4050
L53569 4050
L53398 4245
L53471 4245
L53520 4269
L53544 4294
L53569 4342
L53569 4464
L53544 4513
L53520 4537
L53471 4562
L53325 4562
L53276 4537
L53252 4513
" />
</g>
<g style="fill:#000000; fill-opacity:0.0; 
stroke:#000000; stroke-width:39.3701; stroke-opacity:1; 
stroke-linecap:round; stroke-linejoin:round;">
</g>
<g style="fill:#000000; fill-opacity:0.0; 
stroke:#000000; stroke-width:59.0551; stroke-opacity:1; 
stroke-linecap:round; stroke-linejoin:round;">
<text x="72834.6" y="4586.61"
textLength="546.494" font-size="682.415" lengthAdjust="spacingAndGlyphs"
text-anchor="start" opacity="0">4</text>
<path d="M73205 4221
L73205 4562
" />
<path d="M73083 4026
L72961 4391
L73278 4391
" />
</g>
<g style="fill:#000000; fill-opacity:0.0; 
stroke:#000000; stroke-width:39.3701; stroke-opacity:1; 
stroke-linecap:round; stroke-linejoin:round;">
</g>
<g style="fill:#000000; fill-opacity:0.0; 
stroke:#000000; stroke-width:59.0551; stroke-opacity:1; 
stroke-linecap:round; stroke-linejoin:round;">
<text x="92519.7" y="4586.61"
textLength="546.494" font-size="682.415" lengthAdjust="spacingAndGlyphs"
text-anchor="start" opacity="0">5</text>
<path d="M92914 4050
L92671 4050
L92646 4294
L92671 4269
L92719 4245
L92841 4245
L92890 4269
L92914 4294
L92939 4342
L92939 4464
L92914 4513
L92890 4537
L92841 4562
L92719 4562
L92671 4537
L92646 4513
" />
</g>
<g style="fill:#000000; fill-opacity:0.0; 
stroke:#000000; stroke-width:39.3701; stroke-opacity:1; 
stroke-linecap:round; stroke-linejoin:round;">
</g>
<g style="fill:#000000; fill-opacity:0.0; 
stroke:#000000; stroke-width:59.0551; stroke-opacity:1; 
stroke-linecap:round; stroke-linejoin:round;">
<text x="112205" y="4586.61"
textLength="546.494" font-size="682.415" lengthAdjust="spacingAndGlyphs"
text-anchor="start" opacity="0">6</text>
<path d="M112575 4050
L112477 4050
L112429 4074
L112404 4099
L112356 4172
L112331 4269
L112331 4464
L112356 4513
L112380 4537
L112429 4562
L112526 4562
L112575 4537
L112599 4513
L112624 4464
L112624 4342
L112599 4294
L112575 4269
L112526 4245
L112429 4245
L112380 4269
L112356 4294
L112331 4342
" />
</g>
<g style="fill:#000000; fill-opacity:0.0; 
stroke:#000000; stroke-width:39.3701; stroke-opacity:1; 
stroke-linecap:round; stroke-linejoin:round;">
</g>
<g style="fill:#000000; fill-opacity:0.0; 
stroke:#000000; stroke-width:59.0551; stroke-opacity:1; 
stroke-linecap:round; stroke-linejoin:round;">
<path d="M23622 77955
L23622 78742
" />
</g>
<g style="fill:#000000; fill-opacity:0.0; 
stroke:#000000; stroke-width:39.3701; stroke-opacity:1; 
stroke-linecap:round; stroke-linejoin:round;">
</g>
<g style="fill:#000000; fill-opacity:0.0; 
stroke:#000000; stroke-width:59.0551; stroke-opacity:1; 
stroke-linecap:round; stroke-linejoin:round;">
<path d="M43307 77955
L43307 78742
" />
</g>
<g style="fill:#000000; fill-opacity:0.0; 
stroke:#000000; stroke-width:39.3701; stroke-opacity:1; 
stroke-linecap:round; stroke-linejoin:round;">
</g>
<g style="fill:#000000; fill-opacity:0.0; 
stroke:#000000; stroke-width:59.0551; stroke-opacity:1; 
stroke-linecap:round; stroke-linejoin:round;">
<path d="M62992 77955
L62992 78742
" />
</g>
<g style="fill:#000000; fill-opacity:0.0; 
stroke:#000000; stroke-width:39.3701; stroke-opacity:1; 
stroke-linecap:round; stroke-linejoin:round;">
</g>
<g style="fill:#000000; fill-opacity:0.0; 
stroke:#000000; stroke-width:59.0551; stroke-opacity:1; 
stroke-linecap:round; stroke-linejoin:round;">
<path d="M82677 77955
L82677 78742
" />
</g>
<g style="fill:#000000; fill-opacity:0.0; 
stroke:#000000; stroke-width:39.3701; stroke-opacity:1; 
stroke-linecap:round; stroke-linejoin:round;">
</g>
<g style="fill:#000000; fill-opacity:0.0; 
stroke:#000000; stroke-width:59.0551; stroke-opacity:1; 
stroke-linecap:round; stroke-linejoin:round;">
<path d="M102362 77955
L102362 78742
" />
</g>
<g style="fill:#000000; fill-opacity:0.0; 
stroke:#000000; stroke-width:39.3701; stroke-opacity:1; 
stroke-linecap:round; stroke-linejoin:round;">
</g>
<g style="fill:#000000; fill-opacity:0.0; 
stroke:#000000; stroke-width:59.0551; stroke-opacity:1; 
stroke-linecap:round; stroke-linejoin:round;">
<text x="13779.5" y="78605.2"
textLength="546.494" font-size="682.415" lengthAdjust="spacingAndGlyphs"
text-anchor="start" opacity="0">1</text>
<path d="M14199 78580
L13906 78580
" />
<path d="M14052 78580
L14052 78069
L14004 78142
L13955 78190
L13906 78215
" />
</g>
<g style="fill:#000000; fill-opacity:0.0; 
stroke:#000000; stroke-width:39.3701; stroke-opacity:1; 
stroke-linecap:round; stroke-linejoin:round;">
</g>
<g style="fill:#000000; fill-opacity:0.0; 
stroke:#000000; stroke-width:59.0551; stroke-opacity:1; 
stroke-linecap:round; stroke-linejoin:round;">
<text x="33464.6" y="78605.2"
textLength="546.494" font-size="682.415" lengthAdjust="spacingAndGlyphs"
text-anchor="start" opacity="0">2</text>
<path d="M33591 78117
L33615 78093
L33664 78069
L33786 78069
L33835 78093
L33859 78117
L33884 78166
L33884 78215
L33859 78288
L33567 78580
L33884 78580
" />
</g>
<g style="fill:#000000; fill-opacity:0.0; 
stroke:#000000; stroke-width:39.3701; stroke-opacity:1; 
stroke-linecap:round; stroke-linejoin:round;">
</g>
<g style="fill:#000000; fill-opacity:0.0; 
stroke:#000000; stroke-width:59.0551; stroke-opacity:1; 
stroke-linecap:round; stroke-linejoin:round;">
<text x="53149.6" y="78605.2"
textLength="546.494" font-size="682.415" lengthAdjust="spacingAndGlyphs"
text-anchor="start" opacity="0">3</text>
<path d="M53252 78069
L53569 78069
L53398 78263
L53471 78263
L53520 78288
L53544 78312
L53569 78361
L53569 78483
L53544 78532
L53520 78556
L53471 78580
L53325 78580
L53276 78556
L53252 78532
" />
</g>
<g style="fill:#000000; fill-opacity:0.0; 
stroke:#000000; stroke-width:39.3701; stroke-opacity:1; 
stroke-linecap:round; stroke-linejoin:round;">
</g>
<g style="fill:#000000; fill-opacity:0.0; 
stroke:#000000; stroke-width:59.0551; stroke-opacity:1; 
stroke-linecap:round; stroke-linejoin:round;">
<text x="72834.6" y="78605.2"
textLength="546.494" font-size="682.415" lengthAdjust="spacingAndGlyphs"
text-anchor="start" opacity="0">4</text>
<path d="M73205 78239
L73205 78580
" />
<path d="M73083 78044
L72961 78410
L73278 78410
" />
</g>
<g style="fill:#000000; fill-opacity:0.0; 
stroke:#000000; stroke-width:39.3701; stroke-opacity:1; 
stroke-linecap:round; stroke-linejoin:round;">
</g>
<g style="fill:#000000; fill-opacity:0.0; 
stroke:#000000; stroke-width:59.0551; stroke-opacity:1; 
stroke-linecap:round; stroke-linejoin:round;">
<text x="92519.7" y="78605.2"
textLength="546.494" font-size="682.415" lengthAdjust="spacingAndGlyphs"
text-anchor="start" opacity="0">5</text>
<path d="M92914 78069
L92671 78069
L92646 78312
L92671 78288
L92719 78263
L92841 78263
L92890 78288
L92914 78312
L92939 78361
L92939 78483
L92914 78532
L92890 78556
L92841 78580
L92719 78580
L92671 78556
L92646 78532
" />
</g>
<g style="fill:#000000; fill-opacity:0.0; 
stroke:#000000; stroke-width:39.3701; stroke-opacity:1; 
stroke-linecap:round; stroke-linejoin:round;">
</g>
<g style="fill:#000000; fill-opacity:0.0; 
stroke:#000000; stroke-width:59.0551; stroke-opacity:1; 
stroke-linecap:round; stroke-linejoin:round;">
<text x="112205" y="78605.2"
textLength="546.494" font-size="682.415" lengthAdjust="spacingAndGlyphs"
text-anchor="start" opacity="0">6</text>
<path d="M112575 78069
L112477 78069
L112429 78093
L112404 78117
L112356 78190
L112331 78288
L112331 78483
L112356 78532
L112380 78556
L112429 78580
L112526 78580
L112575 78556
L112599 78532
L112624 78483
L112624 78361
L112599 78312
L112575 78288
L112526 78263
L112429 78263
L112380 78288
L112356 78312
L112331 78361
" />
</g>
<g style="fill:#000000; fill-opacity:0.0; 
stroke:#000000; stroke-width:39.3701; stroke-opacity:1; 
stroke-linecap:round; stroke-linejoin:round;">
</g>
<g style="fill:#000000; fill-opacity:0.0; 
stroke:#000000; stroke-width:59.0551; stroke-opacity:1; 
stroke-linecap:round; stroke-linejoin:round;">
<path d="M3937 23622
L4724 23622
" />
</g>
<g style="fill:#000000; fill-opacity:0.0; 
stroke:#000000; stroke-width:39.3701; stroke-opacity:1; 
stroke-linecap:round; stroke-linejoin:round;">
</g>
<g style="fill:#000000; fill-opacity:0.0; 
stroke:#000000; stroke-width:59.0551; stroke-opacity:1; 
stroke-linecap:round; stroke-linejoin:round;">
<path d="M3937 43307
L4724 43307
" />
</g>
<g style="fill:#000000; fill-opacity:0.0; 
stroke:#000000; stroke-width:39.3701; stroke-opacity:1; 
stroke-linecap:round; stroke-linejoin:round;">
</g>
<g style="fill:#000000; fill-opacity:0.0; 
stroke:#000000; stroke-width:59.0551; stroke-opacity:1; 
stroke-linecap:round; stroke-linejoin:round;">
<path d="M3937 62992
L4724 62992
" />
</g>
<g style="fill:#000000; fill-opacity:0.0; 
stroke:#000000; stroke-width:39.3701; stroke-opacity:1; 
stroke-linecap:round; stroke-linejoin:round;">
</g>
<g style="fill:#000000; fill-opacity:0.0; 
stroke:#000000; stroke-width:59.0551; stroke-opacity:1; 
stroke-linecap:round; stroke-linejoin:round;">
<text x="4330.71" y="14035.4"
textLength="497.75" font-size="682.415" lengthAdjust="spacingAndGlyphs"
text-anchor="middle" opacity="0">A</text>
<path d="M4208 13864
L4452 13864
" />
<path d="M4160 14011
L4330 13499
L4501 14011
" />
</g>
<g style="fill:#000000; fill-opacity:0.0; 
stroke:#000000; stroke-width:39.3701; stroke-opacity:1; 
stroke-linecap:round; stroke-linejoin:round;">
</g>
<g style="fill:#000000; fill-opacity:0.0; 
stroke:#000000; stroke-width:59.0551; stroke-opacity:1; 
stroke-linecap:round; stroke-linejoin:round;">
<text x="4330.71" y="33720.5"
textLength="570.866" font-size="682.415" lengthAdjust="spacingAndGlyphs"
text-anchor="middle" opacity="0">B</text>
<path d="M4367 33428
L4440 33452
L4464 33476
L4489 33525
L4489 33598
L4464 33647
L4440 33671
L4391 33696
L4196 33696
L4196 33184
L4367 33184
L4416 33208
L4440 33233
L4464 33281
L4464 33330
L4440 33379
L4416 33403
L4367 33428
L4196 33428
" />
</g>
<g style="fill:#000000; fill-opacity:0.0; 
stroke:#000000; stroke-width:39.3701; stroke-opacity:1; 
stroke-linecap:round; stroke-linejoin:round;">
</g>
<g style="fill:#000000; fill-opacity:0.0; 
stroke:#000000; stroke-width:59.0551; stroke-opacity:1; 
stroke-linecap:round; stroke-linejoin:round;">
<text x="4330.71" y="53405.5"
textLength="570.866" font-size="682.415" lengthAdjust="spacingAndGlyphs"
text-anchor="middle" opacity="0">C</text>
<path d="M4489 53332
L4464 53356
L4391 53381
L4342 53381
L4269 53356
L4221 53308
L4196 53259
L4172 53161
L4172 53088
L4196 52991
L4221 52942
L4269 52893
L4342 52869
L4391 52869
L4464 52893
L4489 52918
" />
</g>
<g style="fill:#000000; fill-opacity:0.0; 
stroke:#000000; stroke-width:39.3701; stroke-opacity:1; 
stroke-linecap:round; stroke-linejoin:round;">
</g>
<g style="fill:#000000; fill-opacity:0.0; 
stroke:#000000; stroke-width:59.0551; stroke-opacity:1; 
stroke-linecap:round; stroke-linejoin:round;">
<text x="4330.71" y="73090.6"
textLength="570.866" font-size="682.415" lengthAdjust="spacingAndGlyphs"
text-anchor="middle" opacity="0">D</text>
<path d="M4196 73066
L4196 72554
L4318 72554
L4391 72578
L4440 72627
L4464 72676
L4489 72773
L4489 72846
L4464 72944
L4440 72993
L4391 73041
L4318 73066
L4196 73066
" />
</g>
<g style="fill:#000000; fill-opacity:0.0; 
stroke:#000000; stroke-width:39.3701; stroke-opacity:1; 
stroke-linecap:round; stroke-linejoin:round;">
</g>
<g style="fill:#000000; fill-opacity:0.0; 
stroke:#000000; stroke-width:59.0551; stroke-opacity:1; 
stroke-linecap:round; stroke-linejoin:round;">
<path d="M112992 23622
L112205 23622
" />
</g>
<g style="fill:#000000; fill-opacity:0.0; 
stroke:#000000; stroke-width:39.3701; stroke-opacity:1; 
stroke-linecap:round; stroke-linejoin:round;">
</g>
<g style="fill:#000000; fill-opacity:0.0; 
stroke:#000000; stroke-width:59.0551; stroke-opacity:1; 
stroke-linecap:round; stroke-linejoin:round;">
<path d="M112992 43307
L112205 43307
" />
</g>
<g style="fill:#000000; fill-opacity:0.0; 
stroke:#000000; stroke-width:39.3701; stroke-opacity:1; 
stroke-linecap:round; stroke-linejoin:round;">
</g>
<g style="fill:#000000; fill-opacity:0.0; 
stroke:#000000; stroke-width:59.0551; stroke-opacity:1; 
stroke-linecap:round; stroke-linejoin:round;">
<path d="M112992 62992
L112205 62992
" />
</g>
<g style="fill:#000000; fill-opacity:0.0; 
stroke:#000000; stroke-width:39.3701; stroke-opacity:1; 
stroke-linecap:round; stroke-linejoin:round;">
</g>
<g style="fill:#000000; fill-opacity:0.0; 
stroke:#000000; stroke-width:59.0551; stroke-opacity:1; 
stroke-linecap:round; stroke-linejoin:round;">
<text x="112599" y="14035.4"
textLength="497.75" font-size="682.415" lengthAdjust="spacingAndGlyphs"
text-anchor="middle" opacity="0">A</text>
<path d="M112477 13864
L112721 13864
" />
<path d="M112428 14011
L112599 13499
L112769 14011
" />
</g>
<g style="fill:#000000; fill-opacity:0.0; 
stroke:#000000; stroke-width:39.3701; stroke-opacity:1; 
stroke-linecap:round; stroke-linejoin:round;">
</g>
<g style="fill:#000000; fill-opacity:0.0; 
stroke:#000000; stroke-width:59.0551; stroke-opacity:1; 
stroke-linecap:round; stroke-linejoin:round;">
<text x="112599" y="33720.5"
textLength="570.866" font-size="682.415" lengthAdjust="spacingAndGlyphs"
text-anchor="middle" opacity="0">B</text>
<path d="M112635 33428
L112708 33452
L112733 33476
L112757 33525
L112757 33598
L112733 33647
L112708 33671
L112660 33696
L112465 33696
L112465 33184
L112635 33184
L112684 33208
L112708 33233
L112733 33281
L112733 33330
L112708 33379
L112684 33403
L112635 33428
L112465 33428
" />
</g>
<g style="fill:#000000; fill-opacity:0.0; 
stroke:#000000; stroke-width:39.3701; stroke-opacity:1; 
stroke-linecap:round; stroke-linejoin:round;">
</g>
<g style="fill:#000000; fill-opacity:0.0; 
stroke:#000000; stroke-width:59.0551; stroke-opacity:1; 
stroke-linecap:round; stroke-linejoin:round;">
<text x="112599" y="53405.5"
textLength="570.866" font-size="682.415" lengthAdjust="spacingAndGlyphs"
text-anchor="middle" opacity="0">C</text>
<path d="M112757 53332
L112733 53356
L112660 53381
L112611 53381
L112538 53356
L112489 53308
L112465 53259
L112440 53161
L112440 53088
L112465 52991
L112489 52942
L112538 52893
L112611 52869
L112660 52869
L112733 52893
L112757 52918
" />
</g>
<g style="fill:#000000; fill-opacity:0.0; 
stroke:#000000; stroke-width:39.3701; stroke-opacity:1; 
stroke-linecap:round; stroke-linejoin:round;">
</g>
<g style="fill:#000000; fill-opacity:0.0; 
stroke:#000000; stroke-width:59.0551; stroke-opacity:1; 
stroke-linecap:round; stroke-linejoin:round;">
<text x="112599" y="73090.6"
textLength="570.866" font-size="682.415" lengthAdjust="spacingAndGlyphs"
text-anchor="middle" opacity="0">D</text>
<path d="M112465 73066
L112465 72554
L112587 72554
L112660 72578
L112708 72627
L112733 72676
L112757 72773
L112757 72846
L112733 72944
L112708 72993
L112660 73041
L112587 73066
L112465 73066
" />
</g>
<g style="fill:#000000; fill-opacity:0.0; 
stroke:#000000; stroke-width:39.3701; stroke-opacity:1; 
stroke-linecap:round; stroke-linejoin:round;">
</g>
<g style="fill:#000000; fill-opacity:0.0; 
stroke:#000000; stroke-width:59.0551; stroke-opacity:1; 
stroke-linecap:round; stroke-linejoin:round;">
<text x="78741" y="76321.7"
textLength="8720.47" font-size="787.402" lengthAdjust="spacingAndGlyphs"
text-anchor="start" opacity="0">Date: 2018-08-03</text>
<path d="M78911 76293
L78911 75703
L79051 75703
L79136 75731
L79192 75787
L79220 75843
L79248 75956
L79248 76040
L79220 76153
L79192 76209
L79136 76265
L79051 76293
L78911 76293
" />
<path d="M79754 76293
L79754 75984
L79726 75928
L79670 75899
L79557 75899
L79501 75928
" />
<path d="M79754 76265
L79698 76293
L79557 76293
L79501 76265
L79473 76209
L79473 76153
L79501 76096
L79557 76068
L79698 76068
L79754 76040
" />
<path d="M79951 75899
L80176 75899
" />
<path d="M80036 75703
L80036 76209
L80064 76265
L80120 76293
L80176 76293
" />
<path d="M80598 76265
L80542 76293
L80429 76293
L80373 76265
L80345 76209
L80345 75984
L80373 75928
L80429 75899
L80542 75899
L80598 75928
L80626 75984
L80626 76040
L80345 76096
" />
<path d="M80879 76237
L80907 76265
L80879 76293
L80851 76265
L80879 76237
L80879 76293
" />
<path d="M80879 75928
L80907 75956
L80879 75984
L80851 75956
L80879 75928
L80879 75984
" />
<path d="M81582 75759
L81610 75731
L81667 75703
L81807 75703
L81863 75731
L81892 75759
L81920 75815
L81920 75871
L81892 75956
L81554 76293
L81920 76293
" />
<path d="M82285 75703
L82341 75703
L82398 75731
L82426 75759
L82454 75815
L82482 75928
L82482 76068
L82454 76181
L82426 76237
L82398 76265
L82341 76293
L82285 76293
L82229 76265
L82201 76237
L82173 76181
L82145 76068
L82145 75928
L82173 75815
L82201 75759
L82229 75731
L82285 75703
" />
<path d="M83045 76293
L82707 76293
" />
<path d="M82876 76293
L82876 75703
L82820 75787
L82763 75843
L82707 75871
" />
<path d="M83382 75956
L83326 75928
L83298 75899
L83269 75843
L83269 75815
L83298 75759
L83326 75731
L83382 75703
L83494 75703
L83551 75731
L83579 75759
L83607 75815
L83607 75843
L83579 75899
L83551 75928
L83494 75956
L83382 75956
L83326 75984
L83298 76012
L83269 76068
L83269 76181
L83298 76237
L83326 76265
L83382 76293
L83494 76293
L83551 76265
L83579 76237
L83607 76181
L83607 76068
L83579 76012
L83551 75984
L83494 75956
" />
<path d="M83860 76068
L84310 76068
" />
<path d="M84704 75703
L84760 75703
L84816 75731
L84844 75759
L84872 75815
L84901 75928
L84901 76068
L84872 76181
L84844 76237
L84816 76265
L84760 76293
L84704 76293
L84647 76265
L84619 76237
L84591 76181
L84563 76068
L84563 75928
L84591 75815
L84619 75759
L84647 75731
L84704 75703
" />
<path d="M85238 75956
L85182 75928
L85154 75899
L85126 75843
L85126 75815
L85154 75759
L85182 75731
L85238 75703
L85350 75703
L85407 75731
L85435 75759
L85463 75815
L85463 75843
L85435 75899
L85407 75928
L85350 75956
L85238 75956
L85182 75984
L85154 76012
L85126 76068
L85126 76181
L85154 76237
L85182 76265
L85238 76293
L85350 76293
L85407 76265
L85435 76237
L85463 76181
L85463 76068
L85435 76012
L85407 75984
L85350 75956
" />
<path d="M85716 76068
L86166 76068
" />
<path d="M86560 75703
L86616 75703
L86672 75731
L86700 75759
L86728 75815
L86757 75928
L86757 76068
L86728 76181
L86700 76237
L86672 76265
L86616 76293
L86560 76293
L86503 76265
L86475 76237
L86447 76181
L86419 76068
L86419 75928
L86447 75815
L86475 75759
L86503 75731
L86560 75703
" />
<path d="M86953 75703
L87319 75703
L87122 75928
L87206 75928
L87263 75956
L87291 75984
L87319 76040
L87319 76181
L87291 76237
L87263 76265
L87206 76293
L87038 76293
L86982 76265
L86953 76237
" />
</g>
<g style="fill:#000000; fill-opacity:0.0; 
stroke:#000000; stroke-width:39.3701; stroke-opacity:1; 
stroke-linecap:round; stroke-linejoin:round;">
</g>
<g style="fill:#000000; fill-opacity:0.0; 
stroke:#000000; stroke-width:59.0551; stroke-opacity:1; 
stroke-linecap:round; stroke-linejoin:round;">
<path d="M69685 76577
L112205 76577
" />
</g>
<g style="fill:#000000; fill-opacity:0.0; 
stroke:#000000; stroke-width:39.3701; stroke-opacity:1; 
stroke-linecap:round; stroke-linejoin:round;">
</g>
<g style="fill:#000000; fill-opacity:0.0; 
stroke:#000000; stroke-width:59.0551; stroke-opacity:1; 
stroke-linecap:round; stroke-linejoin:round;">
<text x="70079.6" y="77424.1"
textLength="18675.5" font-size="787.402" lengthAdjust="spacingAndGlyphs"
text-anchor="start" opacity="0">KiCad E.D.A.  kicad 5.1.5+dfsg1-2build2</text>
<path d="M70249 77395
L70249 76805
" />
<path d="M70587 77395
L70334 77058
" />
<path d="M70587 76805
L70249 77142
" />
<path d="M70840 77395
L70840 77002
" />
<path d="M70840 76805
L70812 76833
L70840 76861
L70868 76833
L70840 76805
L70840 76861
" />
<path d="M71458 77339
L71430 77367
L71346 77395
L71290 77395
L71205 77367
L71149 77311
L71121 77255
L71093 77142
L71093 77058
L71121 76946
L71149 76889
L71205 76833
L71290 76805
L71346 76805
L71430 76833
L71458 76861
" />
<path d="M71965 77395
L71965 77086
L71937 77030
L71880 77002
L71768 77002
L71712 77030
" />
<path d="M71965 77367
L71908 77395
L71768 77395
L71712 77367
L71683 77311
L71683 77255
L71712 77199
L71768 77171
L71908 77171
L71965 77142
" />
<path d="M72499 77395
L72499 76805
" />
<path d="M72499 77367
L72443 77395
L72330 77395
L72274 77367
L72246 77339
L72218 77283
L72218 77114
L72246 77058
L72274 77030
L72330 77002
L72443 77002
L72499 77030
" />
<path d="M73230 77086
L73427 77086
" />
<path d="M73511 77395
L73230 77395
L73230 76805
L73511 76805
" />
<path d="M73764 77339
L73793 77367
L73764 77395
L73736 77367
L73764 77339
L73764 77395
" />
<path d="M74046 77395
L74046 76805
L74186 76805
L74271 76833
L74327 76889
L74355 76946
L74383 77058
L74383 77142
L74355 77255
L74327 77311
L74271 77367
L74186 77395
L74046 77395
" />
<path d="M74636 77339
L74664 77367
L74636 77395
L74608 77367
L74636 77339
L74636 77395
" />
<path d="M74889 77227
L75171 77227
" />
<path d="M74833 77395
L75030 76805
L75227 77395
" />
<path d="M75424 77339
L75452 77367
L75424 77395
L75395 77367
L75424 77339
L75424 77395
" />
<path d="M76605 77395
L76605 76805
" />
<path d="M76661 77171
L76830 77395
" />
<path d="M76830 77002
L76605 77227
" />
<path d="M77083 77395
L77083 77002
" />
<path d="M77083 76805
L77055 76833
L77083 76861
L77111 76833
L77083 76805
L77083 76861
" />
<path d="M77617 77367
L77561 77395
L77448 77395
L77392 77367
L77364 77339
L77336 77283
L77336 77114
L77364 77058
L77392 77030
L77448 77002
L77561 77002
L77617 77030
" />
<path d="M78123 77395
L78123 77086
L78095 77030
L78039 77002
L77926 77002
L77870 77030
" />
<path d="M78123 77367
L78067 77395
L77926 77395
L77870 77367
L77842 77311
L77842 77255
L77870 77199
L77926 77171
L78067 77171
L78123 77142
" />
<path d="M78658 77395
L78658 76805
" />
<path d="M78658 77367
L78601 77395
L78489 77395
L78433 77367
L78404 77339
L78376 77283
L78376 77114
L78404 77058
L78433 77030
L78489 77002
L78601 77002
L78658 77030
" />
<path d="M79670 76805
L79389 76805
L79361 77086
L79389 77058
L79445 77030
L79586 77030
L79642 77058
L79670 77086
L79698 77142
L79698 77283
L79670 77339
L79642 77367
L79586 77395
L79445 77395
L79389 77367
L79361 77339
" />
<path d="M79951 77339
L79979 77367
L79951 77395
L79923 77367
L79951 77339
L79951 77395
" />
<path d="M80542 77395
L80204 77395
" />
<path d="M80373 77395
L80373 76805
L80317 76889
L80260 76946
L80204 76974
" />
<path d="M80795 77339
L80823 77367
L80795 77395
L80767 77367
L80795 77339
L80795 77395
" />
<path d="M81357 76805
L81076 76805
L81048 77086
L81076 77058
L81132 77030
L81273 77030
L81329 77058
L81357 77086
L81385 77142
L81385 77283
L81357 77339
L81329 77367
L81273 77395
L81132 77395
L81076 77367
L81048 77339
" />
<path d="M81638 77171
L82088 77171
" />
<path d="M81863 77395
L81863 76946
" />
<path d="M82623 77395
L82623 76805
" />
<path d="M82623 77367
L82566 77395
L82454 77395
L82398 77367
L82370 77339
L82341 77283
L82341 77114
L82370 77058
L82398 77030
L82454 77002
L82566 77002
L82623 77030
" />
<path d="M82820 77002
L83045 77002
" />
<path d="M82904 77395
L82904 76889
L82932 76833
L82988 76805
L83045 76805
" />
<path d="M83213 77367
L83269 77395
L83382 77395
L83438 77367
L83466 77311
L83466 77283
L83438 77227
L83382 77199
L83298 77199
L83241 77171
L83213 77114
L83213 77086
L83241 77030
L83298 77002
L83382 77002
L83438 77030
" />
<path d="M83973 77002
L83973 77480
L83944 77536
L83916 77564
L83860 77592
L83776 77592
L83719 77564
" />
<path d="M83973 77367
L83916 77395
L83804 77395
L83748 77367
L83719 77339
L83691 77283
L83691 77114
L83719 77058
L83748 77030
L83804 77002
L83916 77002
L83973 77030
" />
<path d="M84563 77395
L84226 77395
" />
<path d="M84394 77395
L84394 76805
L84338 76889
L84282 76946
L84226 76974
" />
<path d="M84816 77171
L85266 77171
" />
<path d="M85519 76861
L85547 76833
L85604 76805
L85744 76805
L85800 76833
L85829 76861
L85857 76917
L85857 76974
L85829 77058
L85491 77395
L85857 77395
" />
<path d="M86110 77395
L86110 76805
" />
<path d="M86110 77030
L86166 77002
L86278 77002
L86335 77030
L86363 77058
L86391 77114
L86391 77283
L86363 77339
L86335 77367
L86278 77395
L86166 77395
L86110 77367
" />
<path d="M86897 77002
L86897 77395
" />
<path d="M86644 77002
L86644 77311
L86672 77367
L86728 77395
L86813 77395
L86869 77367
L86897 77339
" />
<path d="M87178 77395
L87178 77002
" />
<path d="M87178 76805
L87150 76833
L87178 76861
L87206 76833
L87178 76805
L87178 76861
" />
<path d="M87544 77395
L87488 77367
L87460 77311
L87460 76805
" />
<path d="M88022 77395
L88022 76805
" />
<path d="M88022 77367
L87966 77395
L87853 77395
L87797 77367
L87769 77339
L87741 77283
L87741 77114
L87769 77058
L87797 77030
L87853 77002
L87966 77002
L88022 77030
" />
<path d="M88275 76861
L88303 76833
L88359 76805
L88500 76805
L88556 76833
L88584 76861
L88613 76917
L88613 76974
L88584 77058
L88247 77395
L88613 77395
" />
</g>
<g style="fill:#000000; fill-opacity:0.0; 
stroke:#000000; stroke-width:39.3701; stroke-opacity:1; 
stroke-linecap:round; stroke-linejoin:round;">
</g>
<g style="fill:#000000; fill-opacity:0.0; 
stroke:#000000; stroke-width:59.0551; stroke-opacity:1; 
stroke-linecap:round; stroke-linejoin:round;">
<path d="M69685 75396
L112205 75396
" />
</g>
<g style="fill:#000000; fill-opacity:0.0; 
stroke:#000000; stroke-width:39.3701; stroke-opacity:1; 
stroke-linecap:round; stroke-linejoin:round;">
</g>
<g style="fill:#000000; fill-opacity:0.0; 
stroke:#000000; stroke-width:118.11; stroke-opacity:1; 
stroke-linecap:round; stroke-linejoin:round;">
<text x="103544" y="76321.7"
textLength="4586.61" font-size="787.402" lengthAdjust="spacingAndGlyphs"
text-anchor="start" opacity="0">Rev: 0000</text>
<path d="M104099 76293
L103902 76012
" />
<path d="M103761 76293
L103761 75703
L103986 75703
L104042 75731
L104070 75759
L104099 75815
L104099 75899
L104070 75956
L104042 75984
L103986 76012
L103761 76012
" />
<path d="M104577 76265
L104520 76293
L104408 76293
L104352 76265
L104323 76209
L104323 75984
L104352 75928
L104408 75899
L104520 75899
L104577 75928
L104605 75984
L104605 76040
L104323 76096
" />
<path d="M104802 75899
L104942 76293
L105083 75899
" />
<path d="M105308 76237
L105336 76265
L105308 76293
L105280 76265
L105308 76237
L105308 76293
" />
<path d="M105308 75928
L105336 75956
L105308 75984
L105280 75956
L105308 75928
L105308 75984
" />
<path d="M106151 75703
L106208 75703
L106264 75731
L106292 75759
L106320 75815
L106348 75928
L106348 76068
L106320 76181
L106292 76237
L106264 76265
L106208 76293
L106151 76293
L106095 76265
L106067 76237
L106039 76181
L106011 76068
L106011 75928
L106039 75815
L106067 75759
L106095 75731
L106151 75703
" />
<path d="M106714 75703
L106770 75703
L106826 75731
L106854 75759
L106883 75815
L106911 75928
L106911 76068
L106883 76181
L106854 76237
L106826 76265
L106770 76293
L106714 76293
L106658 76265
L106629 76237
L106601 76181
L106573 76068
L106573 75928
L106601 75815
L106629 75759
L106658 75731
L106714 75703
" />
<path d="M107276 75703
L107332 75703
L107389 75731
L107417 75759
L107445 75815
L107473 75928
L107473 76068
L107445 76181
L107417 76237
L107389 76265
L107332 76293
L107276 76293
L107220 76265
L107192 76237
L107164 76181
L107136 76068
L107136 75928
L107164 75815
L107192 75759
L107220 75731
L107276 75703
" />
<path d="M107839 75703
L107895 75703
L107951 75731
L107979 75759
L108007 75815
L108036 75928
L108036 76068
L108007 76181
L107979 76237
L107951 76265
L107895 76293
L107839 76293
L107782 76265
L107754 76237
L107726 76181
L107698 76068
L107698 75928
L107726 75815
L107754 75759
L107782 75731
L107839 75703
" />
</g>
<g style="fill:#000000; fill-opacity:0.0; 
stroke:#000000; stroke-width:39.3701; stroke-opacity:1; 
stroke-linecap:round; stroke-linejoin:round;">
</g>
<g style="fill:#000000; fill-opacity:0.0; 
stroke:#000000; stroke-width:59.0551; stroke-opacity:1; 
stroke-linecap:round; stroke-linejoin:round;">
<text x="70079.6" y="76321.7"
textLength="3781.21" font-size="787.402" lengthAdjust="spacingAndGlyphs"
text-anchor="start" opacity="0">Size: A4</text>
<path d="M70221 76265
L70305 76293
L70446 76293
L70502 76265
L70530 76237
L70559 76181
L70559 76124
L70530 76068
L70502 76040
L70446 76012
L70334 75984
L70277 75956
L70249 75928
L70221 75871
L70221 75815
L70249 75759
L70277 75731
L70334 75703
L70474 75703
L70559 75731
" />
<path d="M70812 76293
L70812 75899
" />
<path d="M70812 75703
L70784 75731
L70812 75759
L70840 75731
L70812 75703
L70812 75759
" />
<path d="M71037 75899
L71346 75899
L71037 76293
L71346 76293
" />
<path d="M71796 76265
L71740 76293
L71627 76293
L71571 76265
L71543 76209
L71543 75984
L71571 75928
L71627 75899
L71740 75899
L71796 75928
L71824 75984
L71824 76040
L71543 76096
" />
<path d="M72077 76237
L72105 76265
L72077 76293
L72049 76265
L72077 76237
L72077 76293
" />
<path d="M72077 75928
L72105 75956
L72077 75984
L72049 75956
L72077 75928
L72077 75984
" />
<path d="M72780 76124
L73061 76124
" />
<path d="M72724 76293
L72921 75703
L73118 76293
" />
<path d="M73568 75899
L73568 76293
" />
<path d="M73427 75674
L73286 76096
L73652 76096
" />
</g>
<g style="fill:#000000; fill-opacity:0.0; 
stroke:#000000; stroke-width:39.3701; stroke-opacity:1; 
stroke-linecap:round; stroke-linejoin:round;">
</g>
<g style="fill:#000000; fill-opacity:0.0; 
stroke:#000000; stroke-width:59.0551; stroke-opacity:1; 
stroke-linecap:round; stroke-linejoin:round;">
<text x="103544" y="77424.1"
textLength="3349.27" font-size="787.402" lengthAdjust="spacingAndGlyphs"
text-anchor="start" opacity="0">Id: 1/1</text>
<path d="M103714 77395
L103714 76805
" />
<path d="M104248 77395
L104248 76805
" />
<path d="M104248 77367
L104192 77395
L104079 77395
L104023 77367
L103995 77339
L103967 77283
L103967 77114
L103995 77058
L104023 77030
L104079 77002
L104192 77002
L104248 77030
" />
<path d="M104529 77339
L104557 77367
L104529 77395
L104501 77367
L104529 77339
L104529 77395
" />
<path d="M104529 77030
L104557 77058
L104529 77086
L104501 77058
L104529 77030
L104529 77086
" />
<path d="M105570 77395
L105232 77395
" />
<path d="M105401 77395
L105401 76805
L105345 76889
L105289 76946
L105232 76974
" />
<path d="M106245 76777
L105739 77536
" />
<path d="M106751 77395
L106413 77395
" />
<path d="M106582 77395
L106582 76805
L106526 76889
L106470 76946
L106413 76974
" />
</g>
<g style="fill:#000000; fill-opacity:0.0; 
stroke:#000000; stroke-width:39.3701; stroke-opacity:1; 
stroke-linecap:round; stroke-linejoin:round;">
</g>
<g style="fill:#000000; fill-opacity:0.0; 
stroke:#000000; stroke-width:59.0551; stroke-opacity:1; 
stroke-linecap:round; stroke-linejoin:round;">
<path d="M69685 73821
L112205 73821
" />
</g>
<g style="fill:#000000; fill-opacity:0.0; 
stroke:#000000; stroke-width:39.3701; stroke-opacity:1; 
stroke-linecap:round; stroke-linejoin:round;">
</g>
<g style="fill:#000000; fill-opacity:0.0; 
stroke:#000000; stroke-width:157.48; stroke-opacity:1; 
stroke-linecap:round; stroke-linejoin:round;">
<text x="70079.6" y="74924.1"
textLength="11200.2" font-size="1049.87" lengthAdjust="spacingAndGlyphs"
text-anchor="start" opacity="0">Title: CRPS to ATX</text>
<path d="M70360 74099
L70810 74099
" />
<path d="M70486 74886
L70585 74099
" />
<path d="M70974 74886
L71039 74361
" />
<path d="M71072 74099
L71030 74136
L71063 74174
L71105 74136
L71072 74099
L71063 74174
" />
<path d="M71302 74361
L71602 74361
" />
<path d="M71447 74099
L71363 74774
L71391 74849
L71461 74886
L71536 74886
" />
<path d="M71911 74886
L71841 74849
L71813 74774
L71897 74099
" />
<path d="M72516 74849
L72436 74886
L72286 74886
L72216 74849
L72187 74774
L72225 74474
L72272 74399
L72352 74361
L72501 74361
L72572 74399
L72600 74474
L72591 74549
L72206 74624
" />
<path d="M72895 74811
L72928 74849
L72886 74886
L72853 74849
L72895 74811
L72886 74886
" />
<path d="M72947 74399
L72980 74436
L72937 74474
L72905 74436
L72947 74399
L72937 74474
" />
<path d="M74320 74811
L74278 74849
L74161 74886
L74086 74886
L73978 74849
L73912 74774
L73884 74699
L73865 74549
L73879 74436
L73936 74286
L73983 74211
L74067 74136
L74184 74099
L74259 74099
L74367 74136
L74400 74174
" />
<path d="M75098 74886
L74882 74511
" />
<path d="M74648 74886
L74747 74099
L75046 74099
L75117 74136
L75150 74174
L75178 74249
L75164 74361
L75117 74436
L75075 74474
L74995 74511
L74695 74511
" />
<path d="M75435 74886
L75534 74099
L75834 74099
L75904 74136
L75937 74174
L75965 74249
L75951 74361
L75904 74436
L75862 74474
L75782 74511
L75482 74511
" />
<path d="M76190 74849
L76298 74886
L76485 74886
L76565 74849
L76607 74811
L76654 74736
L76663 74661
L76635 74586
L76603 74549
L76532 74511
L76387 74474
L76317 74436
L76284 74399
L76256 74324
L76265 74249
L76312 74174
L76354 74136
L76434 74099
L76621 74099
L76729 74136
" />
<path d="M77526 74361
L77826 74361
" />
<path d="M77671 74099
L77587 74774
L77615 74849
L77685 74886
L77760 74886
" />
<path d="M78135 74886
L78065 74849
L78032 74811
L78004 74736
L78032 74511
L78079 74436
L78121 74399
L78201 74361
L78313 74361
L78384 74399
L78416 74436
L78444 74511
L78416 74736
L78370 74811
L78327 74849
L78248 74886
L78135 74886
" />
<path d="M79326 74661
L79701 74661
" />
<path d="M79223 74886
L79583 74099
L79747 74886
" />
<path d="M79996 74099
L80446 74099
" />
<path d="M80122 74886
L80221 74099
" />
<path d="M80633 74099
L81060 74886
" />
<path d="M81158 74099
L80535 74886
" />
</g>
<g style="fill:#000000; fill-opacity:0.0; 
stroke:#000000; stroke-width:39.3701; stroke-opacity:1; 
stroke-linecap:round; stroke-linejoin:round;">
</g>
<g style="fill:#000000; fill-opacity:0.0; 
stroke:#000000; stroke-width:59.0551; stroke-opacity:1; 
stroke-linecap:round; stroke-linejoin:round;">
<text x="70079.6" y="73408.3"
textLength="11678.3" font-size="787.402" lengthAdjust="spacingAndGlyphs"
text-anchor="start" opacity="0">File: 0002-ATX.kicad_pcb</text>
<path d="M70446 73070
L70249 73070
" />
<path d="M70249 73380
L70249 72789
L70530 72789
" />
<path d="M70755 73380
L70755 72986
" />
<path d="M70755 72789
L70727 72817
L70755 72845
L70784 72817
L70755 72789
L70755 72845
" />
<path d="M71121 73380
L71065 73352
L71037 73295
L71037 72789
" />
<path d="M71571 73352
L71515 73380
L71402 73380
L71346 73352
L71318 73295
L71318 73070
L71346 73014
L71402 72986
L71515 72986
L71571 73014
L71599 73070
L71599 73127
L71318 73183
" />
<path d="M71852 73323
L71880 73352
L71852 73380
L71824 73352
L71852 73323
L71852 73380
" />
<path d="M71852 73014
L71880 73042
L71852 73070
L71824 73042
L71852 73014
L71852 73070
" />
<path d="M72696 72789
L72752 72789
L72808 72817
L72836 72845
L72865 72902
L72893 73014
L72893 73155
L72865 73267
L72836 73323
L72808 73352
L72752 73380
L72696 73380
L72640 73352
L72611 73323
L72583 73267
L72555 73155
L72555 73014
L72583 72902
L72611 72845
L72640 72817
L72696 72789
" />
<path d="M73258 72789
L73314 72789
L73371 72817
L73399 72845
L73427 72902
L73455 73014
L73455 73155
L73427 73267
L73399 73323
L73371 73352
L73314 73380
L73258 73380
L73202 73352
L73174 73323
L73146 73267
L73118 73155
L73118 73014
L73146 72902
L73174 72845
L73202 72817
L73258 72789
" />
<path d="M73821 72789
L73877 72789
L73933 72817
L73961 72845
L73989 72902
L74018 73014
L74018 73155
L73989 73267
L73961 73323
L73933 73352
L73877 73380
L73821 73380
L73764 73352
L73736 73323
L73708 73267
L73680 73155
L73680 73014
L73708 72902
L73736 72845
L73764 72817
L73821 72789
" />
<path d="M74242 72845
L74271 72817
L74327 72789
L74467 72789
L74524 72817
L74552 72845
L74580 72902
L74580 72958
L74552 73042
L74214 73380
L74580 73380
" />
<path d="M74833 73155
L75283 73155
" />
<path d="M75536 73211
L75817 73211
" />
<path d="M75480 73380
L75677 72789
L75874 73380
" />
<path d="M75986 72789
L76323 72789
" />
<path d="M76155 73380
L76155 72789
" />
<path d="M76464 72789
L76858 73380
" />
<path d="M76858 72789
L76464 73380
" />
<path d="M77083 73323
L77111 73352
L77083 73380
L77055 73352
L77083 73323
L77083 73380
" />
<path d="M77364 73380
L77364 72789
" />
<path d="M77420 73155
L77589 73380
" />
<path d="M77589 72986
L77364 73211
" />
<path d="M77842 73380
L77842 72986
" />
<path d="M77842 72789
L77814 72817
L77842 72845
L77870 72817
L77842 72789
L77842 72845
" />
<path d="M78376 73352
L78320 73380
L78208 73380
L78151 73352
L78123 73323
L78095 73267
L78095 73099
L78123 73042
L78151 73014
L78208 72986
L78320 72986
L78376 73014
" />
<path d="M78883 73380
L78883 73070
L78854 73014
L78798 72986
L78686 72986
L78629 73014
" />
<path d="M78883 73352
L78826 73380
L78686 73380
L78629 73352
L78601 73295
L78601 73239
L78629 73183
L78686 73155
L78826 73155
L78883 73127
" />
<path d="M79417 73380
L79417 72789
" />
<path d="M79417 73352
L79361 73380
L79248 73380
L79192 73352
L79164 73323
L79136 73267
L79136 73099
L79164 73042
L79192 73014
L79248 72986
L79361 72986
L79417 73014
" />
<path d="M79557 73436
L80007 73436
" />
<path d="M80148 72986
L80148 73577
" />
<path d="M80148 73014
L80204 72986
L80317 72986
L80373 73014
L80401 73042
L80429 73099
L80429 73267
L80401 73323
L80373 73352
L80317 73380
L80204 73380
L80148 73352
" />
<path d="M80935 73352
L80879 73380
L80767 73380
L80710 73352
L80682 73323
L80654 73267
L80654 73099
L80682 73042
L80710 73014
L80767 72986
L80879 72986
L80935 73014
" />
<path d="M81188 73380
L81188 72789
" />
<path d="M81188 73014
L81245 72986
L81357 72986
L81413 73014
L81442 73042
L81470 73099
L81470 73267
L81442 73323
L81413 73352
L81357 73380
L81245 73380
L81188 73352
" />
</g>
<g style="fill:#000000; fill-opacity:0.0; 
stroke:#000000; stroke-width:39.3701; stroke-opacity:1; 
stroke-linecap:round; stroke-linejoin:round;">
</g>
<g style="fill:#000000; fill-opacity:0.0; 
stroke:#000000; stroke-width:59.0551; stroke-opacity:1; 
stroke-linecap:round; stroke-linejoin:round;">
<path d="M69685 71459
L112205 71459
" />
</g>
<g style="fill:#000000; fill-opacity:0.0; 
stroke:#000000; stroke-width:39.3701; stroke-opacity:1; 
stroke-linecap:round; stroke-linejoin:round;">
</g>
<g style="fill:#000000; fill-opacity:0.0; 
stroke:#000000; stroke-width:59.0551; stroke-opacity:1; 
stroke-linecap:round; stroke-linejoin:round;">
<text x="70079.6" y="72345.4"
textLength="3236.78" font-size="787.402" lengthAdjust="spacingAndGlyphs"
text-anchor="start" opacity="0">Sheet: </text>
<path d="M70221 72289
L70305 72317
L70446 72317
L70502 72289
L70530 72260
L70559 72204
L70559 72148
L70530 72092
L70502 72064
L70446 72036
L70334 72007
L70277 71979
L70249 71951
L70221 71895
L70221 71839
L70249 71782
L70277 71754
L70334 71726
L70474 71726
L70559 71754
" />
<path d="M70812 72317
L70812 71726
" />
<path d="M71065 72317
L71065 72007
L71037 71951
L70980 71923
L70896 71923
L70840 71951
L70812 71979
" />
<path d="M71571 72289
L71515 72317
L71402 72317
L71346 72289
L71318 72232
L71318 72007
L71346 71951
L71402 71923
L71515 71923
L71571 71951
L71599 72007
L71599 72064
L71318 72120
" />
<path d="M72077 72289
L72021 72317
L71908 72317
L71852 72289
L71824 72232
L71824 72007
L71852 71951
L71908 71923
L72021 71923
L72077 71951
L72105 72007
L72105 72064
L71824 72120
" />
<path d="M72274 71923
L72499 71923
" />
<path d="M72358 71726
L72358 72232
L72386 72289
L72443 72317
L72499 72317
" />
<path d="M72696 72260
L72724 72289
L72696 72317
L72668 72289
L72696 72260
L72696 72317
" />
<path d="M72696 71951
L72724 71979
L72696 72007
L72668 71979
L72696 71951
L72696 72007
" />
</g>
<g style="fill:#000000; fill-opacity:0.0; 
stroke:#000000; stroke-width:39.3701; stroke-opacity:1; 
stroke-linecap:round; stroke-linejoin:round;">
</g>
<g style="fill:#000000; fill-opacity:0.0; 
stroke:#000000; stroke-width:118.11; stroke-opacity:1; 
stroke-linecap:round; stroke-linejoin:round;">
<text x="70079.6" y="71164.3"
textLength="14316.6" font-size="787.402" lengthAdjust="spacingAndGlyphs"
text-anchor="start" opacity="0">Artesyn Embedded Technologies</text>
<path d="M70268 70967
L70550 70967
" />
<path d="M70212 71136
L70409 70545
L70606 71136
" />
<path d="M70803 71136
L70803 70742
" />
<path d="M70803 70854
L70831 70798
L70859 70770
L70915 70742
L70971 70742
" />
<path d="M71084 70742
L71309 70742
" />
<path d="M71168 70545
L71168 71051
L71196 71108
L71253 71136
L71309 71136
" />
<path d="M71731 71108
L71674 71136
L71562 71136
L71506 71108
L71478 71051
L71478 70826
L71506 70770
L71562 70742
L71674 70742
L71731 70770
L71759 70826
L71759 70883
L71478 70939
" />
<path d="M71984 71108
L72040 71136
L72153 71136
L72209 71108
L72237 71051
L72237 71023
L72209 70967
L72153 70939
L72068 70939
L72012 70911
L71984 70854
L71984 70826
L72012 70770
L72068 70742
L72153 70742
L72209 70770
" />
<path d="M72434 70742
L72574 71136
" />
<path d="M72715 70742
L72574 71136
L72518 71276
L72490 71304
L72434 71332
" />
<path d="M72940 70742
L72940 71136
" />
<path d="M72940 70798
L72968 70770
L73024 70742
L73109 70742
L73165 70770
L73193 70826
L73193 71136
" />
<path d="M73924 70826
L74121 70826
" />
<path d="M74205 71136
L73924 71136
L73924 70545
L74205 70545
" />
<path d="M74458 71136
L74458 70742
" />
<path d="M74458 70798
L74487 70770
L74543 70742
L74627 70742
L74683 70770
L74712 70826
L74712 71136
" />
<path d="M74712 70826
L74740 70770
L74796 70742
L74880 70742
L74937 70770
L74965 70826
L74965 71136
" />
<path d="M75246 71136
L75246 70545
" />
<path d="M75246 70770
L75302 70742
L75415 70742
L75471 70770
L75499 70798
L75527 70854
L75527 71023
L75499 71079
L75471 71108
L75415 71136
L75302 71136
L75246 71108
" />
<path d="M76005 71108
L75949 71136
L75836 71136
L75780 71108
L75752 71051
L75752 70826
L75780 70770
L75836 70742
L75949 70742
L76005 70770
L76033 70826
L76033 70883
L75752 70939
" />
<path d="M76539 71136
L76539 70545
" />
<path d="M76539 71108
L76483 71136
L76371 71136
L76314 71108
L76286 71079
L76258 71023
L76258 70854
L76286 70798
L76314 70770
L76371 70742
L76483 70742
L76539 70770
" />
<path d="M77074 71136
L77074 70545
" />
<path d="M77074 71108
L77018 71136
L76905 71136
L76849 71108
L76821 71079
L76793 71023
L76793 70854
L76821 70798
L76849 70770
L76905 70742
L77018 70742
L77074 70770
" />
<path d="M77580 71108
L77524 71136
L77411 71136
L77355 71108
L77327 71051
L77327 70826
L77355 70770
L77411 70742
L77524 70742
L77580 70770
L77608 70826
L77608 70883
L77327 70939
" />
<path d="M78114 71136
L78114 70545
" />
<path d="M78114 71108
L78058 71136
L77946 71136
L77889 71108
L77861 71079
L77833 71023
L77833 70854
L77861 70798
L77889 70770
L77946 70742
L78058 70742
L78114 70770
" />
<path d="M78761 70545
L79099 70545
" />
<path d="M78930 71136
L78930 70545
" />
<path d="M79520 71108
L79464 71136
L79352 71136
L79295 71108
L79267 71051
L79267 70826
L79295 70770
L79352 70742
L79464 70742
L79520 70770
L79548 70826
L79548 70883
L79267 70939
" />
<path d="M80055 71108
L79998 71136
L79886 71136
L79830 71108
L79802 71079
L79773 71023
L79773 70854
L79802 70798
L79830 70770
L79886 70742
L79998 70742
L80055 70770
" />
<path d="M80308 71136
L80308 70545
" />
<path d="M80561 71136
L80561 70826
L80533 70770
L80476 70742
L80392 70742
L80336 70770
L80308 70798
" />
<path d="M80842 70742
L80842 71136
" />
<path d="M80842 70798
L80870 70770
L80926 70742
L81011 70742
L81067 70770
L81095 70826
L81095 71136
" />
<path d="M81461 71136
L81404 71108
L81376 71079
L81348 71023
L81348 70854
L81376 70798
L81404 70770
L81461 70742
L81545 70742
L81601 70770
L81629 70798
L81658 70854
L81658 71023
L81629 71079
L81601 71108
L81545 71136
L81461 71136
" />
<path d="M81995 71136
L81939 71108
L81911 71051
L81911 70545
" />
<path d="M82304 71136
L82248 71108
L82220 71079
L82192 71023
L82192 70854
L82220 70798
L82248 70770
L82304 70742
L82389 70742
L82445 70770
L82473 70798
L82501 70854
L82501 71023
L82473 71079
L82445 71108
L82389 71136
L82304 71136
" />
<path d="M83007 70742
L83007 71220
L82979 71276
L82951 71304
L82895 71332
L82811 71332
L82754 71304
" />
<path d="M83007 71108
L82951 71136
L82839 71136
L82782 71108
L82754 71079
L82726 71023
L82726 70854
L82754 70798
L82782 70770
L82839 70742
L82951 70742
L83007 70770
" />
<path d="M83289 71136
L83289 70742
" />
<path d="M83289 70545
L83260 70573
L83289 70601
L83317 70573
L83289 70545
L83289 70601
" />
<path d="M83795 71108
L83739 71136
L83626 71136
L83570 71108
L83542 71051
L83542 70826
L83570 70770
L83626 70742
L83739 70742
L83795 70770
L83823 70826
L83823 70883
L83542 70939
" />
<path d="M84048 71108
L84104 71136
L84217 71136
L84273 71108
L84301 71051
L84301 71023
L84273 70967
L84217 70939
L84132 70939
L84076 70911
L84048 70854
L84048 70826
L84076 70770
L84132 70742
L84217 70742
L84273 70770
" />
</g>
<g style="fill:#000000; fill-opacity:0.0; 
stroke:#000000; stroke-width:39.3701; stroke-opacity:1; 
stroke-linecap:round; stroke-linejoin:round;">
</g>
<g style="fill:#000000; fill-opacity:0.0; 
stroke:#000000; stroke-width:59.0551; stroke-opacity:1; 
stroke-linecap:round; stroke-linejoin:round;">
<path d="M77559 75396
L77559 76577
" />
</g>
<g style="fill:#000000; fill-opacity:0.0; 
stroke:#000000; stroke-width:39.3701; stroke-opacity:1; 
stroke-linecap:round; stroke-linejoin:round;">
</g>
<g style="fill:#000000; fill-opacity:0.0; 
stroke:#000000; stroke-width:59.0551; stroke-opacity:1; 
stroke-linecap:round; stroke-linejoin:round;">
<path d="M102756 75396
L102756 77955
" />
</g>
<g style="fill:#840084; fill-opacity:0.0; 
stroke:#840084; stroke-width:59.0551; stroke-opacity:1; 
stroke-linecap:round; stroke-linejoin:round;">
</g>
<g style="fill:#840084; fill-opacity:0.0; 
stroke:#840084; stroke-width:47.2441; stroke-opacity:1; 
stroke-linecap:round; stroke-linejoin:round;">
<path d="M49881 42401
L49881 43582
" />
<path d="M54842 42401
L49881 42401
" />
<path d="M54842 43582
L54842 42401
" />
<path d="M54842 47362
L54842 46181
" />
<path d="M49881 47362
L54842 47362
" />
<path d="M49881 46181
L49881 47362
" />
<circle cx="48031.5" cy="43208.7" r="1287.4" /> 
<circle cx="48031.5" cy="46555.1" r="1287.4" /> 
<path d="M78578 29785
L78997 29366
" />
<path d="M78578 31632
L78997 32051
" />
<path d="M78578 31632
L78578 31125
" />
<path d="M78578 29785
L78578 30291
" />
<path d="M78997 29366
L81263 29366
" />
<path d="M78997 32051
L81263 32051
" />
<path d="M81263 32051
L81263 31125
" />
<path d="M81263 29366
L81263 30291
" />
<path d="M78578 43564
L78997 43145
" />
<path d="M78578 45411
L78997 45830
" />
<path d="M78578 45411
L78578 44905
" />
<path d="M78578 43564
L78578 44070
" />
<path d="M78997 43145
L81263 43145
" />
<path d="M78997 45830
L81263 45830
" />
<path d="M81263 45830
L81263 44905
" />
<path d="M81263 43145
L81263 44070
" />
<path d="M78578 36478
L78997 36059
" />
<path d="M78578 38325
L78997 38744
" />
<path d="M78578 38325
L78578 37818
" />
<path d="M78578 36478
L78578 36984
" />
<path d="M78997 36059
L81263 36059
" />
<path d="M78997 38744
L81263 38744
" />
<path d="M81263 38744
L81263 37818
" />
<path d="M81263 36059
L81263 36984
" />
<path d="M42401 24530
L42401 25200
" />
<path d="M45000 24530
L42401 24530
" />
<path d="M45000 25200
L45000 24530
" />
<path d="M45000 27050
L45000 26381
" />
<path d="M42401 27050
L45000 27050
" />
<path d="M42401 26381
L42401 27050
" />
<circle cx="48008.3" cy="32102" r="1287.4" /> 
<circle cx="48008.3" cy="28755.5" r="1287.4" /> 
<path d="M49858 31727
L49858 32909
" />
<path d="M49858 32909
L54819 32909
" />
<path d="M54819 32909
L54819 31727
" />
<path d="M54819 29129
L54819 27948
" />
<path d="M54819 27948
L49858 27948
" />
<path d="M49858 27948
L49858 29129
" />
</g>
<g style="fill:#840084; fill-opacity:0.0; 
stroke:#840084; stroke-width:59.0551; stroke-opacity:1; 
stroke-linecap:round; stroke-linejoin:round;">
<text x="52362.2" y="42165.4"
textLength="-1290.03" font-size="-524.934" lengthAdjust="spacingAndGlyphs"
text-anchor="middle" opacity="0">L102</text>
<path d="M52802 42146
L52990 42146
L52990 41752
" />
<path d="M52465 42146
L52690 42146
" />
<path d="M52577 42146
L52577 41752
L52615 41809
L52652 41846
L52690 41865
" />
<path d="M52221 41752
L52184 41752
L52146 41771
L52127 41790
L52109 41827
L52090 41902
L52090 41996
L52109 42071
L52127 42109
L52146 42127
L52184 42146
L52221 42146
L52259 42127
L52277 42109
L52296 42071
L52315 41996
L52315 41902
L52296 41827
L52277 41790
L52259 41771
L52221 41752
" />
<path d="M51940 41790
L51921 41771
L51884 41752
L51790 41752
L51752 41771
L51734 41790
L51715 41827
L51715 41865
L51734 41921
L51959 42146
L51715 42146
" />
<g transform="rotate(-90 49763.8 43208.7)">
<text x="49763.8" y="43405.5"
textLength="-1441.79" font-size="-524.934" lengthAdjust="spacingAndGlyphs"
text-anchor="middle" opacity="0">C118</text>
</g>
<path d="M49904 42768
L49923 42749
L49941 42693
L49941 42655
L49923 42599
L49885 42561
L49848 42543
L49773 42524
L49716 42524
L49641 42543
L49604 42561
L49566 42599
L49548 42655
L49548 42693
L49566 42749
L49585 42768
" />
<path d="M49941 43143
L49941 42918
" />
<path d="M49941 43030
L49548 43030
L49604 42993
L49641 42955
L49660 42918
" />
<path d="M49941 43517
L49941 43293
" />
<path d="M49941 43405
L49548 43405
L49604 43368
L49641 43330
L49660 43293
" />
<path d="M49716 43742
L49698 43705
L49679 43686
L49641 43667
L49623 43667
L49585 43686
L49566 43705
L49548 43742
L49548 43817
L49566 43855
L49585 43874
L49623 43892
L49641 43892
L49679 43874
L49698 43855
L49716 43817
L49716 43742
L49735 43705
L49754 43686
L49791 43667
L49866 43667
L49904 43686
L49923 43705
L49941 43742
L49941 43817
L49923 43855
L49904 43874
L49866 43892
L49791 43892
L49754 43874
L49735 43855
L49716 43817
" />
<g transform="rotate(-90 46299.2 46555.1)">
<text x="46299.2" y="46752"
textLength="-1441.79" font-size="-524.934" lengthAdjust="spacingAndGlyphs"
text-anchor="middle" opacity="0">C117</text>
</g>
<path d="M46439 46114
L46458 46095
L46477 46039
L46477 46002
L46458 45945
L46421 45908
L46383 45889
L46308 45870
L46252 45870
L46177 45889
L46139 45908
L46102 45945
L46083 46002
L46083 46039
L46102 46095
L46121 46114
" />
<path d="M46477 46489
L46477 46264
" />
<path d="M46477 46377
L46083 46377
L46139 46339
L46177 46302
L46196 46264
" />
<path d="M46477 46864
L46477 46639
" />
<path d="M46477 46751
L46083 46751
L46139 46714
L46177 46676
L46196 46639
" />
<path d="M46083 46995
L46083 47258
L46477 47089
" />
<text x="79921.3" y="32618.1"
textLength="-1441.79" font-size="-524.934" lengthAdjust="spacingAndGlyphs"
text-anchor="middle" opacity="0">C103</text>
<path d="M80361 32561
L80380 32580
L80436 32599
L80474 32599
L80530 32580
L80568 32543
L80586 32505
L80605 32430
L80605 32374
L80586 32299
L80568 32261
L80530 32224
L80474 32205
L80436 32205
L80380 32224
L80361 32243
" />
<path d="M79986 32599
L80211 32599
" />
<path d="M80099 32599
L80099 32205
L80136 32261
L80174 32299
L80211 32318
" />
<path d="M79743 32205
L79705 32205
L79668 32224
L79649 32243
L79630 32280
L79611 32355
L79611 32449
L79630 32524
L79649 32561
L79668 32580
L79705 32599
L79743 32599
L79780 32580
L79799 32561
L79818 32524
L79836 32449
L79836 32355
L79818 32280
L79799 32243
L79780 32224
L79743 32205
" />
<path d="M79480 32205
L79236 32205
L79368 32355
L79311 32355
L79274 32374
L79255 32393
L79236 32430
L79236 32524
L79255 32561
L79274 32580
L79311 32599
L79424 32599
L79461 32580
L79480 32561
" />
<text x="79921.3" y="46397.6"
textLength="-1441.79" font-size="-524.934" lengthAdjust="spacingAndGlyphs"
text-anchor="middle" opacity="0">C102</text>
<path d="M80361 46341
L80380 46360
L80436 46378
L80474 46378
L80530 46360
L80568 46322
L80586 46285
L80605 46210
L80605 46153
L80586 46078
L80568 46041
L80530 46003
L80474 45985
L80436 45985
L80380 46003
L80361 46022
" />
<path d="M79986 46378
L80211 46378
" />
<path d="M80099 46378
L80099 45985
L80136 46041
L80174 46078
L80211 46097
" />
<path d="M79743 45985
L79705 45985
L79668 46003
L79649 46022
L79630 46060
L79611 46135
L79611 46228
L79630 46303
L79649 46341
L79668 46360
L79705 46378
L79743 46378
L79780 46360
L79799 46341
L79818 46303
L79836 46228
L79836 46135
L79818 46060
L79799 46022
L79780 46003
L79743 45985
" />
<path d="M79461 46022
L79443 46003
L79405 45985
L79311 45985
L79274 46003
L79255 46022
L79236 46060
L79236 46097
L79255 46153
L79480 46378
L79236 46378
" />
<text x="79921.3" y="39311"
textLength="-1441.79" font-size="-524.934" lengthAdjust="spacingAndGlyphs"
text-anchor="middle" opacity="0">C101</text>
<path d="M80361 39254
L80380 39273
L80436 39292
L80474 39292
L80530 39273
L80568 39236
L80586 39198
L80605 39123
L80605 39067
L80586 38992
L80568 38954
L80530 38917
L80474 38898
L80436 38898
L80380 38917
L80361 38936
" />
<path d="M79986 39292
L80211 39292
" />
<path d="M80099 39292
L80099 38898
L80136 38954
L80174 38992
L80211 39011
" />
<path d="M79743 38898
L79705 38898
L79668 38917
L79649 38936
L79630 38973
L79611 39048
L79611 39142
L79630 39217
L79649 39254
L79668 39273
L79705 39292
L79743 39292
L79780 39273
L79799 39254
L79818 39217
L79836 39142
L79836 39048
L79818 38973
L79799 38936
L79780 38917
L79743 38898
" />
<path d="M79236 39292
L79461 39292
" />
<path d="M79349 39292
L79349 38898
L79386 38954
L79424 38992
L79461 39011
" />
<text x="43700.8" y="24235.4"
textLength="-1366.8" font-size="-524.934" lengthAdjust="spacingAndGlyphs"
text-anchor="middle" opacity="0">L101</text>
<path d="M44141 24216
L44328 24216
L44328 23822
" />
<path d="M43803 24216
L44028 24216
" />
<path d="M43916 24216
L43916 23822
L43953 23879
L43991 23916
L44028 23935
" />
<path d="M43560 23822
L43522 23822
L43485 23841
L43466 23860
L43447 23897
L43428 23972
L43428 24066
L43447 24141
L43466 24179
L43485 24197
L43522 24216
L43560 24216
L43597 24197
L43616 24179
L43635 24141
L43653 24066
L43653 23972
L43635 23897
L43616 23860
L43597 23841
L43560 23822
" />
<path d="M43053 24216
L43278 24216
" />
<path d="M43166 24216
L43166 23822
L43203 23879
L43241 23916
L43278 23935
" />
<text x="56106.3" y="49005.9"
textLength="-1835.49" font-size="-524.934" lengthAdjust="spacingAndGlyphs"
text-anchor="middle" opacity="0">HS104</text>
<path d="M56968 48987
L56968 48593
" />
<path d="M56968 48780
L56743 48780
" />
<path d="M56743 48987
L56743 48593
" />
<path d="M56574 48968
L56518 48987
L56425 48987
L56387 48968
L56368 48949
L56350 48912
L56350 48874
L56368 48837
L56387 48818
L56425 48799
L56500 48780
L56537 48762
L56556 48743
L56574 48705
L56574 48668
L56556 48630
L56537 48612
L56500 48593
L56406 48593
L56350 48612
" />
<path d="M55975 48987
L56200 48987
" />
<path d="M56087 48987
L56087 48593
L56125 48649
L56162 48687
L56200 48705
" />
<path d="M55731 48593
L55693 48593
L55656 48612
L55637 48630
L55618 48668
L55600 48743
L55600 48837
L55618 48912
L55637 48949
L55656 48968
L55693 48987
L55731 48987
L55768 48968
L55787 48949
L55806 48912
L55825 48837
L55825 48743
L55806 48668
L55787 48630
L55768 48612
L55731 48593
" />
<path d="M55262 48724
L55262 48987
" />
<path d="M55356 48574
L55450 48855
L55206 48855
" />
<text x="58527.6" y="49005.9"
textLength="-1835.49" font-size="-524.934" lengthAdjust="spacingAndGlyphs"
text-anchor="middle" opacity="0">HS103</text>
<path d="M59389 48987
L59389 48593
" />
<path d="M59389 48780
L59164 48780
" />
<path d="M59164 48987
L59164 48593
" />
<path d="M58996 48968
L58940 48987
L58846 48987
L58808 48968
L58790 48949
L58771 48912
L58771 48874
L58790 48837
L58808 48818
L58846 48799
L58921 48780
L58958 48762
L58977 48743
L58996 48705
L58996 48668
L58977 48630
L58958 48612
L58921 48593
L58827 48593
L58771 48612
" />
<path d="M58396 48987
L58621 48987
" />
<path d="M58508 48987
L58508 48593
L58546 48649
L58583 48687
L58621 48705
" />
<path d="M58152 48593
L58115 48593
L58077 48612
L58058 48630
L58040 48668
L58021 48743
L58021 48837
L58040 48912
L58058 48949
L58077 48968
L58115 48987
L58152 48987
L58190 48968
L58208 48949
L58227 48912
L58246 48837
L58246 48743
L58227 48668
L58208 48630
L58190 48612
L58152 48593
" />
<path d="M57890 48593
L57646 48593
L57777 48743
L57721 48743
L57683 48762
L57665 48780
L57646 48818
L57646 48912
L57665 48949
L57683 48968
L57721 48987
L57833 48987
L57871 48968
L57890 48949
" />
<text x="56106.3" y="45797.2"
textLength="-1835.49" font-size="-524.934" lengthAdjust="spacingAndGlyphs"
text-anchor="middle" opacity="0">HS102</text>
<path d="M56968 45778
L56968 45384
" />
<path d="M56968 45572
L56743 45572
" />
<path d="M56743 45778
L56743 45384
" />
<path d="M56574 45759
L56518 45778
L56425 45778
L56387 45759
L56368 45741
L56350 45703
L56350 45666
L56368 45628
L56387 45609
L56425 45591
L56500 45572
L56537 45553
L56556 45534
L56574 45497
L56574 45459
L56556 45422
L56537 45403
L56500 45384
L56406 45384
L56350 45403
" />
<path d="M55975 45778
L56200 45778
" />
<path d="M56087 45778
L56087 45384
L56125 45441
L56162 45478
L56200 45497
" />
<path d="M55731 45384
L55693 45384
L55656 45403
L55637 45422
L55618 45459
L55600 45534
L55600 45628
L55618 45703
L55637 45741
L55656 45759
L55693 45778
L55731 45778
L55768 45759
L55787 45741
L55806 45703
L55825 45628
L55825 45534
L55806 45459
L55787 45422
L55768 45403
L55731 45384
" />
<path d="M55450 45422
L55431 45403
L55393 45384
L55300 45384
L55262 45403
L55243 45422
L55225 45459
L55225 45497
L55243 45553
L55468 45778
L55225 45778
" />
<text x="58527.6" y="45797.2"
textLength="-1835.49" font-size="-524.934" lengthAdjust="spacingAndGlyphs"
text-anchor="middle" opacity="0">HS101</text>
<path d="M59389 45778
L59389 45384
" />
<path d="M59389 45572
L59164 45572
" />
<path d="M59164 45778
L59164 45384
" />
<path d="M58996 45759
L58940 45778
L58846 45778
L58808 45759
L58790 45741
L58771 45703
L58771 45666
L58790 45628
L58808 45609
L58846 45591
L58921 45572
L58958 45553
L58977 45534
L58996 45497
L58996 45459
L58977 45422
L58958 45403
L58921 45384
L58827 45384
L58771 45403
" />
<path d="M58396 45778
L58621 45778
" />
<path d="M58508 45778
L58508 45384
L58546 45441
L58583 45478
L58621 45497
" />
<path d="M58152 45384
L58115 45384
L58077 45403
L58058 45422
L58040 45459
L58021 45534
L58021 45628
L58040 45703
L58058 45741
L58077 45759
L58115 45778
L58152 45778
L58190 45759
L58208 45741
L58227 45703
L58246 45628
L58246 45534
L58227 45459
L58208 45422
L58190 45403
L58152 45384
" />
<path d="M57646 45778
L57871 45778
" />
<path d="M57758 45778
L57758 45384
L57796 45441
L57833 45478
L57871 45497
" />
<g transform="rotate(-90 46276 32102)">
<text x="46276" y="32298.8"
textLength="-691.882" font-size="-524.934" lengthAdjust="spacingAndGlyphs"
text-anchor="middle" opacity="0">C9</text>
</g>
<path d="M46416 32036
L46435 32017
L46454 31961
L46454 31923
L46435 31867
L46397 31830
L46360 31811
L46285 31792
L46229 31792
L46154 31811
L46116 31830
L46079 31867
L46060 31923
L46060 31961
L46079 32017
L46097 32036
" />
<path d="M46454 32223
L46454 32298
L46435 32336
L46416 32355
L46360 32392
L46285 32411
L46135 32411
L46097 32392
L46079 32373
L46060 32336
L46060 32261
L46079 32223
L46097 32205
L46135 32186
L46229 32186
L46266 32205
L46285 32223
L46304 32261
L46304 32336
L46285 32373
L46266 32392
L46229 32411
" />
<g transform="rotate(-90 49740.6 28755.5)">
<text x="49740.6" y="28952.4"
textLength="-1066.84" font-size="-524.934" lengthAdjust="spacingAndGlyphs"
text-anchor="middle" opacity="0">C10</text>
</g>
<path d="M49881 28502
L49899 28483
L49918 28427
L49918 28389
L49899 28333
L49862 28296
L49824 28277
L49749 28258
L49693 28258
L49618 28277
L49581 28296
L49543 28333
L49524 28389
L49524 28427
L49543 28483
L49562 28502
" />
<path d="M49918 28877
L49918 28652
" />
<path d="M49918 28764
L49524 28764
L49581 28727
L49618 28689
L49637 28652
" />
<path d="M49524 29121
L49524 29158
L49543 29196
L49562 29214
L49599 29233
L49674 29252
L49768 29252
L49843 29233
L49881 29214
L49899 29196
L49918 29158
L49918 29121
L49899 29083
L49881 29064
L49843 29046
L49768 29027
L49674 29027
L49599 29046
L49562 29064
L49543 29083
L49524 29121
" />
<text x="58504.3" y="31344.1"
textLength="-1085.58" font-size="-524.934" lengthAdjust="spacingAndGlyphs"
text-anchor="middle" opacity="0">HS1</text>
<path d="M58991 31325
L58991 30931
" />
<path d="M58991 31119
L58766 31119
" />
<path d="M58766 31325
L58766 30931
" />
<path d="M58598 31306
L58541 31325
L58448 31325
L58410 31306
L58391 31287
L58373 31250
L58373 31212
L58391 31175
L58410 31156
L58448 31137
L58523 31119
L58560 31100
L58579 31081
L58598 31044
L58598 31006
L58579 30969
L58560 30950
L58523 30931
L58429 30931
L58373 30950
" />
<path d="M57998 31325
L58223 31325
" />
<path d="M58110 31325
L58110 30931
L58148 30987
L58185 31025
L58223 31044
" />
<text x="56083.1" y="31344.1"
textLength="-1085.58" font-size="-524.934" lengthAdjust="spacingAndGlyphs"
text-anchor="middle" opacity="0">HS2</text>
<path d="M56570 31325
L56570 30931
" />
<path d="M56570 31119
L56345 31119
" />
<path d="M56345 31325
L56345 30931
" />
<path d="M56176 31306
L56120 31325
L56026 31325
L55989 31306
L55970 31287
L55951 31250
L55951 31212
L55970 31175
L55989 31156
L56026 31137
L56101 31119
L56139 31100
L56158 31081
L56176 31044
L56176 31006
L56158 30969
L56139 30950
L56101 30931
L56008 30931
L55951 30950
" />
<path d="M55801 30969
L55783 30950
L55745 30931
L55651 30931
L55614 30950
L55595 30969
L55576 31006
L55576 31044
L55595 31100
L55820 31325
L55576 31325
" />
<text x="58504.3" y="34552.8"
textLength="-1085.58" font-size="-524.934" lengthAdjust="spacingAndGlyphs"
text-anchor="middle" opacity="0">HS3</text>
<path d="M58991 34534
L58991 34140
" />
<path d="M58991 34327
L58766 34327
" />
<path d="M58766 34534
L58766 34140
" />
<path d="M58598 34515
L58541 34534
L58448 34534
L58410 34515
L58391 34496
L58373 34459
L58373 34421
L58391 34384
L58410 34365
L58448 34346
L58523 34327
L58560 34309
L58579 34290
L58598 34252
L58598 34215
L58579 34177
L58560 34159
L58523 34140
L58429 34140
L58373 34159
" />
<path d="M58241 34140
L57998 34140
L58129 34290
L58073 34290
L58035 34309
L58016 34327
L57998 34365
L57998 34459
L58016 34496
L58035 34515
L58073 34534
L58185 34534
L58223 34515
L58241 34496
" />
<text x="56083.1" y="34552.8"
textLength="-1085.58" font-size="-524.934" lengthAdjust="spacingAndGlyphs"
text-anchor="middle" opacity="0">HS4</text>
<path d="M56570 34534
L56570 34140
" />
<path d="M56570 34327
L56345 34327
" />
<path d="M56345 34534
L56345 34140
" />
<path d="M56176 34515
L56120 34534
L56026 34534
L55989 34515
L55970 34496
L55951 34459
L55951 34421
L55970 34384
L55989 34365
L56026 34346
L56101 34327
L56139 34309
L56158 34290
L56176 34252
L56176 34215
L56158 34177
L56139 34159
L56101 34140
L56008 34140
L55951 34159
" />
<path d="M55614 34271
L55614 34534
" />
<path d="M55708 34121
L55801 34402
L55558 34402
" />
<text x="52339" y="27712.2"
textLength="-616.892" font-size="-524.934" lengthAdjust="spacingAndGlyphs"
text-anchor="middle" opacity="0">L1</text>
<path d="M52404 27693
L52592 27693
L52592 27299
" />
<path d="M52067 27693
L52292 27693
" />
<path d="M52179 27693
L52179 27299
L52217 27355
L52254 27393
L52292 27412
" />
<g >
</g>
</g>
<g style="fill:#000000; fill-opacity:0.0; 
stroke:#000000; stroke-width:59.0551; stroke-opacity:1; 
stroke-linecap:round; stroke-linejoin:round;">
</g>
<g style="fill:#C2C200; fill-opacity:0.0; 
stroke:#C2C200; stroke-width:59.0551; stroke-opacity:1; 
stroke-linecap:round; stroke-linejoin:round;">
</g>
<g style="fill:#C2C200; fill-opacity:0.0; 
stroke:#C2C200; stroke-width:78.7402; stroke-opacity:1; 
stroke-linecap:round; stroke-linejoin:round;">
<path d="M81496 53937
L81496 23622
" />
<path d="M81496 23622
L35433 23622
" />
<path d="M35433 53937
L81496 53937
" />
<path d="M35433 23622
L35433 53937
" />
<g >
</g>
<g >
</g>
<g >
</g>
<g >
</g>
<g >
</g>
<g >
</g>
<g >
</g>
<g >
</g>
<g >
</g>
<g >
</g>
<g >
</g>
<g >
</g>
<g >
</g>
<g >
</g>
<g >
</g>
<g >
</g>
<g >
</g>
<g >
</g>
<g >
</g>
<g >
</g>
<g >
</g>
<g >
</g>
<g >
</g>
<g >
</g>
<g >
</g>
<g >
</g>
<g >
</g>
<g >
</g>
<g >
</g>
<g >
</g>
<g >
</g>
<g >
</g>
<g >
</g>
<g >
</g>
<g >
</g>
<g >
</g>
<g >
</g>
<g >
</g>
<g >
</g>
<g >
</g>
<g >
</g>
<g >
</g>
<g >
</g>
<g >
</g>
<g >
</g>
<g >
</g>
<g >
</g>
<g >
</g>
<g >
</g>
<g >
</g>
<g >
</g>
<g >
</g>
<g >
</g>
<g >
</g>
<g >
</g>
<g >
</g>
<g >
</g>
<g >
</g>
<g >
</g>
<g >
</g>
<g >
</g>
<g >
</g>
<g >
</g>
<g >
</g>
<g >
</g>
<g >
</g>
<g >
</g>
<g >
</g>
<g >
</g>
<g >
</g>
<g >
</g>
<g >
</g>
<g >
</g>
<g >
</g>
<g >
</g>
<g >
</g>
<g >
</g>
<g >
</g>
<g >
</g>
<g >
</g>
<g >
</g>
<g >
</g>
<g >
</g>
<g >
</g>
<g >
</g>
<g >
</g>
<g >
</g>
<g >
</g>
<g >
</g>
<g >
</g>
<g >
</g>
<g >
</g>
</g> 
</svg>
