G04 #@! TF.GenerationSoftware,KiCad,Pcbnew,(5.0.0)*
G04 #@! TF.CreationDate,2018-12-05T00:13:44-06:00*
G04 #@! TF.ProjectId,0002-ATX,303030322D4154582E6B696361645F70,0000*
G04 #@! TF.SameCoordinates,Original*
G04 #@! TF.FileFunction,Soldermask,Top*
G04 #@! TF.FilePolarity,Negative*
%FSLAX46Y46*%
G04 Gerber Fmt 4.6, Leading zero omitted, Abs format (unit mm)*
G04 Created by KiCad (PCBNEW (5.0.0)) date 12/05/18 00:13:44*
%MOMM*%
%LPD*%
G01*
G04 APERTURE LIST*
%ADD10C,3.200000*%
%ADD11R,3.200000X3.200000*%
%ADD12R,2.000000X2.000000*%
%ADD13C,2.000000*%
%ADD14R,5.800000X3.300000*%
%ADD15R,3.900000X2.000000*%
%ADD16R,0.890000X0.950000*%
%ADD17R,1.250000X1.750000*%
%ADD18R,1.960000X1.050000*%
%ADD19R,0.950000X0.890000*%
%ADD20R,0.650000X1.150000*%
%ADD21R,1.543000X0.908000*%
%ADD22R,1.200000X2.300000*%
%ADD23R,4.900000X4.900000*%
%ADD24R,1.750000X1.250000*%
%ADD25R,0.900000X0.900000*%
%ADD26C,1.390600*%
%ADD27C,1.187400*%
%ADD28C,3.400000*%
%ADD29C,1.800000*%
%ADD30R,1.800000X1.800000*%
%ADD31R,2.350000X1.000000*%
%ADD32C,1.900000*%
%ADD33R,2.100000X2.100000*%
%ADD34O,2.100000X2.100000*%
%ADD35C,11.000000*%
%ADD36C,1.100000*%
%ADD37R,1.900000X2.800000*%
G04 APERTURE END LIST*
D10*
G04 #@! TO.C,J21*
X119888000Y-93790000D03*
X119888000Y-97990000D03*
X119888000Y-102190000D03*
X125388000Y-93790000D03*
X125388000Y-97990000D03*
D11*
X125388000Y-102190000D03*
G04 #@! TD*
D12*
G04 #@! TO.C,C15*
X138049000Y-88773000D03*
D13*
X140549000Y-88773000D03*
G04 #@! TD*
D14*
G04 #@! TO.C,L3*
X169088000Y-94240000D03*
X169088000Y-104140000D03*
G04 #@! TD*
D10*
G04 #@! TO.C,J15*
X169200000Y-76796000D03*
X165000000Y-76796000D03*
X160800000Y-76796000D03*
X156600000Y-76796000D03*
X152400000Y-76796000D03*
X148200000Y-76796000D03*
X144000000Y-76796000D03*
X139800000Y-76796000D03*
X135600000Y-76796000D03*
X169200000Y-82296000D03*
X165000000Y-82296000D03*
X160800000Y-82296000D03*
X156600000Y-82296000D03*
X152400000Y-82296000D03*
X148200000Y-82296000D03*
X144000000Y-82296000D03*
X139800000Y-82296000D03*
D11*
X135600000Y-82296000D03*
G04 #@! TD*
D15*
G04 #@! TO.C,C29*
X134206000Y-136970000D03*
X139606000Y-136970000D03*
G04 #@! TD*
D16*
G04 #@! TO.C,C3*
X127770000Y-68402200D03*
X128720000Y-68402200D03*
G04 #@! TD*
D17*
G04 #@! TO.C,C4*
X129499000Y-67005200D03*
X131309000Y-67005200D03*
G04 #@! TD*
G04 #@! TO.C,C5*
X131309000Y-65227200D03*
X129499000Y-65227200D03*
G04 #@! TD*
G04 #@! TO.C,C6*
X129499000Y-63449200D03*
X131309000Y-63449200D03*
G04 #@! TD*
D16*
G04 #@! TO.C,R2*
X127770000Y-72085200D03*
X128720000Y-72085200D03*
G04 #@! TD*
G04 #@! TO.C,R3*
X126688000Y-72085200D03*
X125738000Y-72085200D03*
G04 #@! TD*
D18*
G04 #@! TO.C,U1*
X126166000Y-69672200D03*
X126166000Y-68722200D03*
X126166000Y-70622200D03*
X123466000Y-70622200D03*
X123466000Y-69672200D03*
X123466000Y-68722200D03*
G04 #@! TD*
D17*
G04 #@! TO.C,R1*
X127975000Y-70307200D03*
X129785000Y-70307200D03*
G04 #@! TD*
D19*
G04 #@! TO.C,C8*
X147269000Y-115639000D03*
X147269000Y-114689000D03*
G04 #@! TD*
D16*
G04 #@! TO.C,C9*
X149101000Y-112458000D03*
X150051000Y-112458000D03*
G04 #@! TD*
G04 #@! TO.C,C10*
X149098000Y-110680000D03*
X150048000Y-110680000D03*
G04 #@! TD*
G04 #@! TO.C,C11*
X145636000Y-108268000D03*
X144686000Y-108268000D03*
G04 #@! TD*
G04 #@! TO.C,R16*
X155605000Y-114808000D03*
X154655000Y-114808000D03*
G04 #@! TD*
D13*
G04 #@! TO.C,C25*
X164378000Y-88773000D03*
D12*
X166878000Y-88773000D03*
G04 #@! TD*
G04 #@! TO.C,C26*
X171386000Y-88773000D03*
D13*
X173886000Y-88773000D03*
G04 #@! TD*
D19*
G04 #@! TO.C,C27*
X154686000Y-116583000D03*
X154686000Y-115633000D03*
G04 #@! TD*
D16*
G04 #@! TO.C,R10*
X155605000Y-109538000D03*
X154655000Y-109538000D03*
G04 #@! TD*
G04 #@! TO.C,R11*
X155605000Y-112204000D03*
X154655000Y-112204000D03*
G04 #@! TD*
D19*
G04 #@! TO.C,R12*
X155576000Y-113029000D03*
X155576000Y-113979000D03*
G04 #@! TD*
D16*
G04 #@! TO.C,R13*
X156975000Y-115570000D03*
X157925000Y-115570000D03*
G04 #@! TD*
D19*
G04 #@! TO.C,R15*
X155576000Y-115633000D03*
X155576000Y-116583000D03*
G04 #@! TD*
G04 #@! TO.C,R17*
X154686000Y-113029000D03*
X154686000Y-113979000D03*
G04 #@! TD*
D16*
G04 #@! TO.C,TH2*
X155605000Y-108648000D03*
X154655000Y-108648000D03*
G04 #@! TD*
D15*
G04 #@! TO.C,C32*
X165130000Y-137096000D03*
X170530000Y-137096000D03*
G04 #@! TD*
D20*
G04 #@! TO.C,U3*
X158500000Y-113628000D03*
X158000000Y-113628000D03*
X157500000Y-113628000D03*
X157500000Y-110528000D03*
X158000000Y-110528000D03*
X158500000Y-110528000D03*
X159000000Y-110528000D03*
X159500000Y-110528000D03*
X159000000Y-113628000D03*
X159500000Y-113628000D03*
G04 #@! TD*
D21*
G04 #@! TO.C,U4*
X119278000Y-66040000D03*
X119278000Y-60960000D03*
X119278000Y-62230000D03*
X119278000Y-63500000D03*
X119278000Y-64770000D03*
X119278000Y-67310000D03*
X119278000Y-68580000D03*
X112928000Y-68580000D03*
X112928000Y-67310000D03*
X112928000Y-66040000D03*
X112928000Y-64770000D03*
X112928000Y-63500000D03*
X112928000Y-62230000D03*
X112928000Y-60960000D03*
G04 #@! TD*
D22*
G04 #@! TO.C,Q5*
X119024000Y-71374000D03*
X117124000Y-71374000D03*
X118074000Y-74374000D03*
G04 #@! TD*
D16*
G04 #@! TO.C,C28*
X129921000Y-61976000D03*
X130871000Y-61976000D03*
G04 #@! TD*
D23*
G04 #@! TO.C,HS4*
X139573000Y-115570000D03*
G04 #@! TD*
G04 #@! TO.C,HS5*
X132016000Y-115570000D03*
G04 #@! TD*
G04 #@! TO.C,HS6*
X164973000Y-109664000D03*
G04 #@! TD*
G04 #@! TO.C,HS7*
X172339000Y-109664000D03*
G04 #@! TD*
D13*
G04 #@! TO.C,C16*
X131040000Y-88773000D03*
D12*
X133540000Y-88773000D03*
G04 #@! TD*
D14*
G04 #@! TO.C,L2*
X135839000Y-94240000D03*
X135839000Y-104140000D03*
G04 #@! TD*
D16*
G04 #@! TO.C,R4*
X149098000Y-113348000D03*
X150048000Y-113348000D03*
G04 #@! TD*
G04 #@! TO.C,R5*
X149098000Y-111570000D03*
X150048000Y-111570000D03*
G04 #@! TD*
G04 #@! TO.C,R6*
X149098000Y-109792000D03*
X150048000Y-109792000D03*
G04 #@! TD*
G04 #@! TO.C,R7*
X146497000Y-108268000D03*
X147447000Y-108268000D03*
G04 #@! TD*
G04 #@! TO.C,TH1*
X150048000Y-114236000D03*
X149098000Y-114236000D03*
G04 #@! TD*
D20*
G04 #@! TO.C,U2*
X146110000Y-110528000D03*
X146610000Y-110528000D03*
X147110000Y-110528000D03*
X147110000Y-113628000D03*
X146610000Y-113628000D03*
X146110000Y-113628000D03*
X145610000Y-113628000D03*
X145110000Y-113628000D03*
X145610000Y-110528000D03*
X145110000Y-110528000D03*
G04 #@! TD*
D19*
G04 #@! TO.C,C18*
X157328000Y-109441000D03*
X157328000Y-108491000D03*
G04 #@! TD*
D16*
G04 #@! TO.C,C19*
X154655000Y-110426000D03*
X155605000Y-110426000D03*
G04 #@! TD*
G04 #@! TO.C,C20*
X155605000Y-111316000D03*
X154655000Y-111316000D03*
G04 #@! TD*
G04 #@! TO.C,C21*
X159703000Y-115570000D03*
X158753000Y-115570000D03*
G04 #@! TD*
D10*
G04 #@! TO.C,J2*
X158518000Y-122555000D03*
X154318000Y-122555000D03*
X150118000Y-122555000D03*
X145918000Y-122555000D03*
X158518000Y-128055000D03*
X154318000Y-128055000D03*
X150118000Y-128055000D03*
D11*
X145918000Y-128055000D03*
G04 #@! TD*
G04 #@! TO.C,J3*
X127472000Y-137033000D03*
D10*
X123272000Y-137033000D03*
X119072000Y-137033000D03*
X114872000Y-137033000D03*
X127472000Y-142533000D03*
X123272000Y-142533000D03*
X119072000Y-142533000D03*
X114872000Y-142533000D03*
G04 #@! TD*
G04 #@! TO.C,J4*
X189629000Y-122555000D03*
X185429000Y-122555000D03*
X181229000Y-122555000D03*
X177029000Y-122555000D03*
X189629000Y-128055000D03*
X185429000Y-128055000D03*
X181229000Y-128055000D03*
D11*
X177029000Y-128055000D03*
G04 #@! TD*
D10*
G04 #@! TO.C,J6*
X177074000Y-142533000D03*
X181274000Y-142533000D03*
X185474000Y-142533000D03*
X189674000Y-142533000D03*
X177074000Y-137033000D03*
X181274000Y-137033000D03*
X185474000Y-137033000D03*
D11*
X189674000Y-137033000D03*
G04 #@! TD*
G04 #@! TO.C,J7*
X158573000Y-137033000D03*
D10*
X154373000Y-137033000D03*
X150173000Y-137033000D03*
X145973000Y-137033000D03*
X158573000Y-142533000D03*
X154373000Y-142533000D03*
X150173000Y-142533000D03*
X145973000Y-142533000D03*
G04 #@! TD*
G04 #@! TO.C,J8*
X146150000Y-94349200D03*
X150350000Y-94349200D03*
X154550000Y-94349200D03*
X158750000Y-94349200D03*
X146150000Y-88849200D03*
X150350000Y-88849200D03*
X154550000Y-88849200D03*
D11*
X158750000Y-88849200D03*
G04 #@! TD*
G04 #@! TO.C,J11*
X125388000Y-86632000D03*
D10*
X125388000Y-82432000D03*
X125388000Y-78232000D03*
X119888000Y-86632000D03*
X119888000Y-82432000D03*
X119888000Y-78232000D03*
G04 #@! TD*
G04 #@! TO.C,J12*
X185420000Y-86632000D03*
X185420000Y-82432000D03*
X185420000Y-78232000D03*
X179920000Y-86632000D03*
X179920000Y-82432000D03*
D11*
X179920000Y-78232000D03*
G04 #@! TD*
G04 #@! TO.C,J13*
X179920000Y-93789500D03*
D10*
X179920000Y-97989500D03*
X179920000Y-102189500D03*
X185420000Y-93789500D03*
X185420000Y-97989500D03*
X185420000Y-102189500D03*
G04 #@! TD*
G04 #@! TO.C,J14*
X152273000Y-63080000D03*
X148073000Y-63080000D03*
X143873000Y-63080000D03*
X139673000Y-63080000D03*
X135473000Y-63080000D03*
X152273000Y-68580000D03*
X148073000Y-68580000D03*
X143873000Y-68580000D03*
X139673000Y-68580000D03*
D11*
X135473000Y-68580000D03*
G04 #@! TD*
D24*
G04 #@! TO.C,C1*
X121387000Y-68783200D03*
X121387000Y-70593200D03*
G04 #@! TD*
D16*
G04 #@! TO.C,C2*
X123198000Y-72085200D03*
X124148000Y-72085200D03*
G04 #@! TD*
D23*
G04 #@! TO.C,HS1*
X139446000Y-109347000D03*
G04 #@! TD*
G04 #@! TO.C,HS2*
X131826000Y-109347000D03*
G04 #@! TD*
G04 #@! TO.C,HS3*
X164973000Y-115760000D03*
G04 #@! TD*
G04 #@! TO.C,HS8*
X172530000Y-115824000D03*
G04 #@! TD*
D16*
G04 #@! TO.C,R9*
X149101000Y-115189000D03*
X150051000Y-115189000D03*
G04 #@! TD*
D24*
G04 #@! TO.C,C33*
X175450000Y-66516500D03*
X175450000Y-64706500D03*
G04 #@! TD*
D19*
G04 #@! TO.C,C34*
X176974000Y-61724500D03*
X176974000Y-62674500D03*
G04 #@! TD*
G04 #@! TO.C,C35*
X161480000Y-64516000D03*
X161480000Y-63566000D03*
G04 #@! TD*
D16*
G04 #@! TO.C,C36*
X163068000Y-59639200D03*
X164018000Y-59639200D03*
G04 #@! TD*
D19*
G04 #@! TO.C,C37*
X161480000Y-61788000D03*
X161480000Y-62738000D03*
G04 #@! TD*
D24*
G04 #@! TO.C,C38*
X175514000Y-62865000D03*
X175514000Y-61055000D03*
G04 #@! TD*
D16*
G04 #@! TO.C,C39*
X176911000Y-71501000D03*
X175961000Y-71501000D03*
G04 #@! TD*
D19*
G04 #@! TO.C,C40*
X176911000Y-72359500D03*
X176911000Y-73309500D03*
G04 #@! TD*
G04 #@! TO.C,C41*
X176911000Y-69662000D03*
X176911000Y-70612000D03*
G04 #@! TD*
D25*
G04 #@! TO.C,D1*
X186454000Y-73964800D03*
X188654000Y-73964800D03*
G04 #@! TD*
D11*
G04 #@! TO.C,J5*
X114808000Y-128055000D03*
D10*
X119008000Y-128055000D03*
X123208000Y-128055000D03*
X127408000Y-128055000D03*
X114808000Y-122555000D03*
X119008000Y-122555000D03*
X123208000Y-122555000D03*
X127408000Y-122555000D03*
G04 #@! TD*
D26*
G04 #@! TO.C,J23*
X173546000Y-75501500D03*
X175578000Y-75501500D03*
X174562000Y-80581500D03*
D27*
X175197000Y-79311500D03*
X173927000Y-79311500D03*
X175197000Y-78041500D03*
X173927000Y-78041500D03*
X175197000Y-76771500D03*
X173927000Y-76771500D03*
G04 #@! TD*
D28*
G04 #@! TO.C,J24*
X191326000Y-66167000D03*
D29*
X186556000Y-65677000D03*
X184056000Y-65677000D03*
D30*
X186556000Y-68877000D03*
D28*
X179286000Y-66167000D03*
D29*
X184056000Y-68877000D03*
G04 #@! TD*
D16*
G04 #@! TO.C,R18*
X166809000Y-74117200D03*
X167759000Y-74117200D03*
G04 #@! TD*
D19*
G04 #@! TO.C,R19*
X175958000Y-72392500D03*
X175958000Y-73342500D03*
G04 #@! TD*
G04 #@! TO.C,R20*
X175958000Y-70612000D03*
X175958000Y-69662000D03*
G04 #@! TD*
D31*
G04 #@! TO.C,U5*
X163638000Y-61214000D03*
X163638000Y-62484000D03*
X163638000Y-63754000D03*
X163638000Y-65024000D03*
X163638000Y-66294000D03*
X163638000Y-67564000D03*
X163638000Y-68834000D03*
X163638000Y-70104000D03*
X163638000Y-71374000D03*
X163638000Y-72644000D03*
X173038000Y-72644000D03*
X173038000Y-71374000D03*
X173038000Y-70104000D03*
X173038000Y-68834000D03*
X173038000Y-67564000D03*
X173038000Y-66294000D03*
X173038000Y-65024000D03*
X173038000Y-63754000D03*
X173038000Y-62484000D03*
X173038000Y-61214000D03*
G04 #@! TD*
D32*
G04 #@! TO.C,Y1*
X157924000Y-68453000D03*
X157924000Y-63573000D03*
G04 #@! TD*
D33*
G04 #@! TO.C,J32*
X114300000Y-72009000D03*
D34*
X114300000Y-74549000D03*
X114300000Y-77089000D03*
X114300000Y-79629000D03*
G04 #@! TD*
D35*
G04 #@! TO.C,J28*
X168148000Y-125730000D03*
D36*
X172123000Y-125730000D03*
X170958749Y-128540749D03*
X168148000Y-129705000D03*
X165337251Y-128540749D03*
X164173000Y-125730000D03*
X165337251Y-122919251D03*
X168148000Y-121755000D03*
X170958749Y-122919251D03*
G04 #@! TD*
G04 #@! TO.C,J29*
X122825749Y-108949251D03*
X120015000Y-107785000D03*
X117204251Y-108949251D03*
X116040000Y-111760000D03*
X117204251Y-114570749D03*
X120015000Y-115735000D03*
X122825749Y-114570749D03*
X123990000Y-111760000D03*
D35*
X120015000Y-111760000D03*
G04 #@! TD*
G04 #@! TO.C,J30*
X136398000Y-125730000D03*
D36*
X140373000Y-125730000D03*
X139208749Y-128540749D03*
X136398000Y-129705000D03*
X133587251Y-128540749D03*
X132423000Y-125730000D03*
X133587251Y-122919251D03*
X136398000Y-121755000D03*
X139208749Y-122919251D03*
G04 #@! TD*
G04 #@! TO.C,J34*
X187722749Y-108949251D03*
X184912000Y-107785000D03*
X182101251Y-108949251D03*
X180937000Y-111760000D03*
X182101251Y-114570749D03*
X184912000Y-115735000D03*
X187722749Y-114570749D03*
X188887000Y-111760000D03*
D35*
X184912000Y-111760000D03*
G04 #@! TD*
D37*
G04 #@! TO.C,L1*
X121514000Y-64389000D03*
X127014000Y-64389000D03*
G04 #@! TD*
D33*
G04 #@! TO.C,J31*
X191262000Y-79946500D03*
D34*
X191262000Y-77406500D03*
X191262000Y-74866500D03*
G04 #@! TD*
M02*
