  0
SECTION
  2
BLOCKS
  0
ENDSEC
  0
SECTION
  2
ENTITIES
  0
LINE
  8
0
 10
100
 20
173.2
 11
103
 21
173.2
  0
LINE
  8
0
 10
103
 20
173.2
 11
103
 21
213.45
  0
LINE
  8
0
 10
103
 20
213.45
 11
100
 21
213.45
  0
LINE
  8
0
 10
100
 20
213.45
 11
100
 21
256.7
  0
LINE
  8
0
 10
100
 20
256.7
 11
50
 21
256.7
  0
LINE
  8
0
 10
50
 20
256.7
 11
50
 21
253.7
  0
LINE
  8
0
 10
50
 20
253.7
 11
-3
 21
253.7
  0
LINE
  8
0
 10
-3
 20
253.7
 11
-3
 21
213.45
  0
LINE
  8
0
 10
-3
 20
213.45
 11
0
 21
213.45
  0
LINE
  8
0
 10
0
 20
213.45
 11
0
 21
173.2
  0
LINE
  8
0
 10
0
 20
173.2
 11
50
 21
173.2
  0
LINE
  8
0
 10
50
 20
173.2
 11
50
 21
172
  0
LINE
  8
0
 10
50
 20
172
 11
49.9686
 21
171.998
  0
LINE
  8
0
 10
49.9686
 20
171.998
 11
49.9376
 21
171.993
  0
LINE
  8
0
 10
49.9376
 20
171.993
 11
49.9073
 21
171.985
  0
LINE
  8
0
 10
49.9073
 20
171.985
 11
49.878
 21
171.974
  0
LINE
  8
0
 10
49.878
 20
171.974
 11
49.85
 21
171.96
  0
LINE
  8
0
 10
49.85
 20
171.96
 11
49.8237
 21
171.943
  0
LINE
  8
0
 10
49.8237
 20
171.943
 11
49.7993
 21
171.923
  0
LINE
  8
0
 10
49.7993
 20
171.923
 11
49.7771
 21
171.901
  0
LINE
  8
0
 10
49.7771
 20
171.901
 11
49.7573
 21
171.876
  0
LINE
  8
0
 10
49.7573
 20
171.876
 11
49.7402
 21
171.85
  0
LINE
  8
0
 10
49.7402
 20
171.85
 11
49.7259
 21
171.822
  0
LINE
  8
0
 10
49.7259
 20
171.822
 11
49.7147
 21
171.793
  0
LINE
  8
0
 10
49.7147
 20
171.793
 11
49.7066
 21
171.762
  0
LINE
  8
0
 10
49.7066
 20
171.762
 11
49.7016
 21
171.731
  0
LINE
  8
0
 10
49.7016
 20
171.731
 11
49.7
 21
171.7
  0
LINE
  8
0
 10
49.7
 20
171.7
 11
49.7016
 21
171.669
  0
LINE
  8
0
 10
49.7016
 20
171.669
 11
49.7066
 21
171.638
  0
LINE
  8
0
 10
49.7066
 20
171.638
 11
49.7147
 21
171.607
  0
LINE
  8
0
 10
49.7147
 20
171.607
 11
49.7259
 21
171.578
  0
LINE
  8
0
 10
49.7259
 20
171.578
 11
49.7402
 21
171.55
  0
LINE
  8
0
 10
49.7402
 20
171.55
 11
49.7573
 21
171.524
  0
LINE
  8
0
 10
49.7573
 20
171.524
 11
49.7771
 21
171.499
  0
LINE
  8
0
 10
49.7771
 20
171.499
 11
49.7993
 21
171.477
  0
LINE
  8
0
 10
49.7993
 20
171.477
 11
49.8237
 21
171.457
  0
LINE
  8
0
 10
49.8237
 20
171.457
 11
49.85
 21
171.44
  0
LINE
  8
0
 10
49.85
 20
171.44
 11
49.878
 21
171.426
  0
LINE
  8
0
 10
49.878
 20
171.426
 11
49.9073
 21
171.415
  0
LINE
  8
0
 10
49.9073
 20
171.415
 11
49.9376
 21
171.407
  0
LINE
  8
0
 10
49.9376
 20
171.407
 11
49.9686
 21
171.402
  0
LINE
  8
0
 10
49.9686
 20
171.402
 11
50
 21
171.4
  0
LINE
  8
0
 10
50
 20
171.4
 11
50
 21
170.2
  0
LINE
  8
0
 10
50
 20
170.2
 11
100
 21
170.2
  0
LINE
  8
0
 10
100
 20
170.2
 11
100
 21
173.2
  0
LINE
  8
0
 10
30
 20
241.7
 11
30
 21
244.7
  0
LINE
  8
0
 10
30
 20
244.7
 11
73
 21
244.7
  0
LINE
  8
0
 10
73
 20
244.7
 11
73
 21
241.7
  0
LINE
  8
0
 10
73
 20
241.7
 11
30
 21
241.7
  0
LINE
  8
0
 10
22
 20
231.7
 11
22
 21
234.7
  0
LINE
  8
0
 10
22
 20
234.7
 11
81
 21
234.7
  0
LINE
  8
0
 10
81
 20
234.7
 11
81
 21
231.7
  0
LINE
  8
0
 10
81
 20
231.7
 11
22
 21
231.7
  0
LINE
  8
0
 10
15
 20
221.7
 11
15
 21
224.7
  0
LINE
  8
0
 10
15
 20
224.7
 11
88
 21
224.7
  0
LINE
  8
0
 10
88
 20
224.7
 11
88
 21
221.7
  0
LINE
  8
0
 10
88
 20
221.7
 11
15
 21
221.7
  0
LINE
  8
0
 10
10
 20
211.7
 11
10
 21
214.7
  0
LINE
  8
0
 10
10
 20
214.7
 11
93
 21
214.7
  0
LINE
  8
0
 10
93
 20
214.7
 11
93
 21
211.7
  0
LINE
  8
0
 10
93
 20
211.7
 11
10
 21
211.7
  0
LINE
  8
0
 10
15
 20
201.7
 11
15
 21
204.7
  0
LINE
  8
0
 10
15
 20
204.7
 11
88
 21
204.7
  0
LINE
  8
0
 10
88
 20
204.7
 11
88
 21
201.7
  0
LINE
  8
0
 10
88
 20
201.7
 11
15
 21
201.7
  0
LINE
  8
0
 10
22
 20
191.7
 11
22
 21
194.7
  0
LINE
  8
0
 10
22
 20
194.7
 11
81
 21
194.7
  0
LINE
  8
0
 10
81
 20
194.7
 11
81
 21
191.7
  0
LINE
  8
0
 10
81
 20
191.7
 11
22
 21
191.7
  0
LINE
  8
0
 10
30
 20
181.7
 11
30
 21
184.7
  0
LINE
  8
0
 10
30
 20
184.7
 11
73
 21
184.7
  0
LINE
  8
0
 10
73
 20
184.7
 11
73
 21
181.7
  0
LINE
  8
0
 10
73
 20
181.7
 11
30
 21
181.7
  0
LINE
  8
0
 10
237.137
 20
173.2
 11
273.156
 21
173.2
  0
LINE
  8
0
 10
273.156
 20
173.2
 11
273.156
 21
172
  0
LINE
  8
0
 10
273.156
 20
172
 11
273.125
 21
171.998
  0
LINE
  8
0
 10
273.125
 20
171.998
 11
273.094
 21
171.993
  0
LINE
  8
0
 10
273.094
 20
171.993
 11
273.064
 21
171.985
  0
LINE
  8
0
 10
273.064
 20
171.985
 11
273.034
 21
171.974
  0
LINE
  8
0
 10
273.034
 20
171.974
 11
273.006
 21
171.96
  0
LINE
  8
0
 10
273.006
 20
171.96
 11
272.98
 21
171.943
  0
LINE
  8
0
 10
272.98
 20
171.943
 11
272.956
 21
171.923
  0
LINE
  8
0
 10
272.956
 20
171.923
 11
272.933
 21
171.901
  0
LINE
  8
0
 10
272.933
 20
171.901
 11
272.914
 21
171.876
  0
LINE
  8
0
 10
272.914
 20
171.876
 11
272.896
 21
171.85
  0
LINE
  8
0
 10
272.896
 20
171.85
 11
272.882
 21
171.822
  0
LINE
  8
0
 10
272.882
 20
171.822
 11
272.871
 21
171.793
  0
LINE
  8
0
 10
272.871
 20
171.793
 11
272.863
 21
171.762
  0
LINE
  8
0
 10
272.863
 20
171.762
 11
272.858
 21
171.731
  0
LINE
  8
0
 10
272.858
 20
171.731
 11
272.856
 21
171.7
  0
LINE
  8
0
 10
272.856
 20
171.7
 11
272.858
 21
171.669
  0
LINE
  8
0
 10
272.858
 20
171.669
 11
272.863
 21
171.638
  0
LINE
  8
0
 10
272.863
 20
171.638
 11
272.871
 21
171.607
  0
LINE
  8
0
 10
272.871
 20
171.607
 11
272.882
 21
171.578
  0
LINE
  8
0
 10
272.882
 20
171.578
 11
272.896
 21
171.55
  0
LINE
  8
0
 10
272.896
 20
171.55
 11
272.914
 21
171.524
  0
LINE
  8
0
 10
272.914
 20
171.524
 11
272.933
 21
171.499
  0
LINE
  8
0
 10
272.933
 20
171.499
 11
272.956
 21
171.477
  0
LINE
  8
0
 10
272.956
 20
171.477
 11
272.98
 21
171.457
  0
LINE
  8
0
 10
272.98
 20
171.457
 11
273.006
 21
171.44
  0
LINE
  8
0
 10
273.006
 20
171.44
 11
273.034
 21
171.426
  0
LINE
  8
0
 10
273.034
 20
171.426
 11
273.064
 21
171.415
  0
LINE
  8
0
 10
273.064
 20
171.415
 11
273.094
 21
171.407
  0
LINE
  8
0
 10
273.094
 20
171.407
 11
273.125
 21
171.402
  0
LINE
  8
0
 10
273.125
 20
171.402
 11
273.156
 21
171.4
  0
LINE
  8
0
 10
273.156
 20
171.4
 11
273.156
 21
170.2
  0
LINE
  8
0
 10
273.156
 20
170.2
 11
309.175
 21
170.2
  0
LINE
  8
0
 10
309.175
 20
170.2
 11
309.175
 21
173.2
  0
LINE
  8
0
 10
309.175
 20
173.2
 11
312.175
 21
173.2
  0
LINE
  8
0
 10
312.175
 20
173.2
 11
312.175
 21
210.45
  0
LINE
  8
0
 10
312.175
 20
210.45
 11
309.175
 21
210.45
  0
LINE
  8
0
 10
309.175
 20
210.45
 11
309.175
 21
250.7
  0
LINE
  8
0
 10
309.175
 20
250.7
 11
273.156
 21
250.7
  0
LINE
  8
0
 10
273.156
 20
250.7
 11
273.156
 21
247.7
  0
LINE
  8
0
 10
273.156
 20
247.7
 11
237.137
 21
247.7
  0
LINE
  8
0
 10
237.137
 20
247.7
 11
237.137
 21
248.9
  0
LINE
  8
0
 10
237.137
 20
248.9
 11
237.169
 21
248.902
  0
LINE
  8
0
 10
237.169
 20
248.902
 11
237.2
 21
248.907
  0
LINE
  8
0
 10
237.2
 20
248.907
 11
237.23
 21
248.915
  0
LINE
  8
0
 10
237.23
 20
248.915
 11
237.26
 21
248.926
  0
LINE
  8
0
 10
237.26
 20
248.926
 11
237.288
 21
248.94
  0
LINE
  8
0
 10
237.288
 20
248.94
 11
237.314
 21
248.957
  0
LINE
  8
0
 10
237.314
 20
248.957
 11
237.338
 21
248.977
  0
LINE
  8
0
 10
237.338
 20
248.977
 11
237.36
 21
248.999
  0
LINE
  8
0
 10
237.36
 20
248.999
 11
237.38
 21
249.024
  0
LINE
  8
0
 10
237.38
 20
249.024
 11
237.397
 21
249.05
  0
LINE
  8
0
 10
237.397
 20
249.05
 11
237.412
 21
249.078
  0
LINE
  8
0
 10
237.412
 20
249.078
 11
237.423
 21
249.107
  0
LINE
  8
0
 10
237.423
 20
249.107
 11
237.431
 21
249.138
  0
LINE
  8
0
 10
237.431
 20
249.138
 11
237.436
 21
249.169
  0
LINE
  8
0
 10
237.436
 20
249.169
 11
237.438
 21
249.2
  0
LINE
  8
0
 10
237.438
 20
249.2
 11
237.436
 21
249.231
  0
LINE
  8
0
 10
237.436
 20
249.231
 11
237.431
 21
249.262
  0
LINE
  8
0
 10
237.431
 20
249.262
 11
237.423
 21
249.293
  0
LINE
  8
0
 10
237.423
 20
249.293
 11
237.412
 21
249.322
  0
LINE
  8
0
 10
237.412
 20
249.322
 11
237.397
 21
249.35
  0
LINE
  8
0
 10
237.397
 20
249.35
 11
237.38
 21
249.376
  0
LINE
  8
0
 10
237.38
 20
249.376
 11
237.36
 21
249.401
  0
LINE
  8
0
 10
237.36
 20
249.401
 11
237.338
 21
249.423
  0
LINE
  8
0
 10
237.338
 20
249.423
 11
237.314
 21
249.443
  0
LINE
  8
0
 10
237.314
 20
249.443
 11
237.288
 21
249.46
  0
LINE
  8
0
 10
237.288
 20
249.46
 11
237.26
 21
249.474
  0
LINE
  8
0
 10
237.26
 20
249.474
 11
237.23
 21
249.485
  0
LINE
  8
0
 10
237.23
 20
249.485
 11
237.2
 21
249.493
  0
LINE
  8
0
 10
237.2
 20
249.493
 11
237.169
 21
249.498
  0
LINE
  8
0
 10
237.169
 20
249.498
 11
237.137
 21
249.5
  0
LINE
  8
0
 10
237.137
 20
249.5
 11
237.137
 21
250.7
  0
LINE
  8
0
 10
237.137
 20
250.7
 11
201.119
 21
250.7
  0
LINE
  8
0
 10
201.119
 20
250.7
 11
201.119
 21
247.7
  0
LINE
  8
0
 10
201.119
 20
247.7
 11
104.1
 21
247.7
  0
LINE
  8
0
 10
104.1
 20
247.7
 11
104.1
 21
238.387
  0
LINE
  8
0
 10
104.1
 20
238.387
 11
107.1
 21
238.387
  0
LINE
  8
0
 10
107.1
 20
238.387
 11
107.1
 21
229.075
  0
LINE
  8
0
 10
107.1
 20
229.075
 11
105.9
 21
229.075
  0
LINE
  8
0
 10
105.9
 20
229.075
 11
105.898
 21
229.106
  0
LINE
  8
0
 10
105.898
 20
229.106
 11
105.893
 21
229.137
  0
LINE
  8
0
 10
105.893
 20
229.137
 11
105.885
 21
229.168
  0
LINE
  8
0
 10
105.885
 20
229.168
 11
105.874
 21
229.197
  0
LINE
  8
0
 10
105.874
 20
229.197
 11
105.86
 21
229.225
  0
LINE
  8
0
 10
105.86
 20
229.225
 11
105.843
 21
229.251
  0
LINE
  8
0
 10
105.843
 20
229.251
 11
105.823
 21
229.276
  0
LINE
  8
0
 10
105.823
 20
229.276
 11
105.801
 21
229.298
  0
LINE
  8
0
 10
105.801
 20
229.298
 11
105.776
 21
229.318
  0
LINE
  8
0
 10
105.776
 20
229.318
 11
105.75
 21
229.335
  0
LINE
  8
0
 10
105.75
 20
229.335
 11
105.722
 21
229.349
  0
LINE
  8
0
 10
105.722
 20
229.349
 11
105.693
 21
229.36
  0
LINE
  8
0
 10
105.693
 20
229.36
 11
105.662
 21
229.368
  0
LINE
  8
0
 10
105.662
 20
229.368
 11
105.631
 21
229.373
  0
LINE
  8
0
 10
105.631
 20
229.373
 11
105.6
 21
229.375
  0
LINE
  8
0
 10
105.6
 20
229.375
 11
105.569
 21
229.373
  0
LINE
  8
0
 10
105.569
 20
229.373
 11
105.538
 21
229.368
  0
LINE
  8
0
 10
105.538
 20
229.368
 11
105.507
 21
229.36
  0
LINE
  8
0
 10
105.507
 20
229.36
 11
105.478
 21
229.349
  0
LINE
  8
0
 10
105.478
 20
229.349
 11
105.45
 21
229.335
  0
LINE
  8
0
 10
105.45
 20
229.335
 11
105.424
 21
229.318
  0
LINE
  8
0
 10
105.424
 20
229.318
 11
105.399
 21
229.298
  0
LINE
  8
0
 10
105.399
 20
229.298
 11
105.377
 21
229.276
  0
LINE
  8
0
 10
105.377
 20
229.276
 11
105.357
 21
229.251
  0
LINE
  8
0
 10
105.357
 20
229.251
 11
105.34
 21
229.225
  0
LINE
  8
0
 10
105.34
 20
229.225
 11
105.326
 21
229.197
  0
LINE
  8
0
 10
105.326
 20
229.197
 11
105.315
 21
229.168
  0
LINE
  8
0
 10
105.315
 20
229.168
 11
105.307
 21
229.137
  0
LINE
  8
0
 10
105.307
 20
229.137
 11
105.302
 21
229.106
  0
LINE
  8
0
 10
105.302
 20
229.106
 11
105.3
 21
229.075
  0
LINE
  8
0
 10
105.3
 20
229.075
 11
104.1
 21
229.075
  0
LINE
  8
0
 10
104.1
 20
229.075
 11
104.1
 21
219.762
  0
LINE
  8
0
 10
104.1
 20
219.762
 11
107.1
 21
219.762
  0
LINE
  8
0
 10
107.1
 20
219.762
 11
107.1
 21
210.45
  0
LINE
  8
0
 10
107.1
 20
210.45
 11
105.9
 21
210.45
  0
LINE
  8
0
 10
105.9
 20
210.45
 11
105.898
 21
210.481
  0
LINE
  8
0
 10
105.898
 20
210.481
 11
105.893
 21
210.512
  0
LINE
  8
0
 10
105.893
 20
210.512
 11
105.885
 21
210.543
  0
LINE
  8
0
 10
105.885
 20
210.543
 11
105.874
 21
210.572
  0
LINE
  8
0
 10
105.874
 20
210.572
 11
105.86
 21
210.6
  0
LINE
  8
0
 10
105.86
 20
210.6
 11
105.843
 21
210.626
  0
LINE
  8
0
 10
105.843
 20
210.626
 11
105.823
 21
210.651
  0
LINE
  8
0
 10
105.823
 20
210.651
 11
105.801
 21
210.673
  0
LINE
  8
0
 10
105.801
 20
210.673
 11
105.776
 21
210.693
  0
LINE
  8
0
 10
105.776
 20
210.693
 11
105.75
 21
210.71
  0
LINE
  8
0
 10
105.75
 20
210.71
 11
105.722
 21
210.724
  0
LINE
  8
0
 10
105.722
 20
210.724
 11
105.693
 21
210.735
  0
LINE
  8
0
 10
105.693
 20
210.735
 11
105.662
 21
210.743
  0
LINE
  8
0
 10
105.662
 20
210.743
 11
105.631
 21
210.748
  0
LINE
  8
0
 10
105.631
 20
210.748
 11
105.6
 21
210.75
  0
LINE
  8
0
 10
105.6
 20
210.75
 11
105.569
 21
210.748
  0
LINE
  8
0
 10
105.569
 20
210.748
 11
105.538
 21
210.743
  0
LINE
  8
0
 10
105.538
 20
210.743
 11
105.507
 21
210.735
  0
LINE
  8
0
 10
105.507
 20
210.735
 11
105.478
 21
210.724
  0
LINE
  8
0
 10
105.478
 20
210.724
 11
105.45
 21
210.71
  0
LINE
  8
0
 10
105.45
 20
210.71
 11
105.424
 21
210.693
  0
LINE
  8
0
 10
105.424
 20
210.693
 11
105.399
 21
210.673
  0
LINE
  8
0
 10
105.399
 20
210.673
 11
105.377
 21
210.651
  0
LINE
  8
0
 10
105.377
 20
210.651
 11
105.357
 21
210.626
  0
LINE
  8
0
 10
105.357
 20
210.626
 11
105.34
 21
210.6
  0
LINE
  8
0
 10
105.34
 20
210.6
 11
105.326
 21
210.572
  0
LINE
  8
0
 10
105.326
 20
210.572
 11
105.315
 21
210.543
  0
LINE
  8
0
 10
105.315
 20
210.543
 11
105.307
 21
210.512
  0
LINE
  8
0
 10
105.307
 20
210.512
 11
105.302
 21
210.481
  0
LINE
  8
0
 10
105.302
 20
210.481
 11
105.3
 21
210.45
  0
LINE
  8
0
 10
105.3
 20
210.45
 11
104.1
 21
210.45
  0
LINE
  8
0
 10
104.1
 20
210.45
 11
104.1
 21
201.137
  0
LINE
  8
0
 10
104.1
 20
201.137
 11
107.1
 21
201.137
  0
LINE
  8
0
 10
107.1
 20
201.137
 11
107.1
 21
191.825
  0
LINE
  8
0
 10
107.1
 20
191.825
 11
105.9
 21
191.825
  0
LINE
  8
0
 10
105.9
 20
191.825
 11
105.898
 21
191.856
  0
LINE
  8
0
 10
105.898
 20
191.856
 11
105.893
 21
191.887
  0
LINE
  8
0
 10
105.893
 20
191.887
 11
105.885
 21
191.918
  0
LINE
  8
0
 10
105.885
 20
191.918
 11
105.874
 21
191.947
  0
LINE
  8
0
 10
105.874
 20
191.947
 11
105.86
 21
191.975
  0
LINE
  8
0
 10
105.86
 20
191.975
 11
105.843
 21
192.001
  0
LINE
  8
0
 10
105.843
 20
192.001
 11
105.823
 21
192.026
  0
LINE
  8
0
 10
105.823
 20
192.026
 11
105.801
 21
192.048
  0
LINE
  8
0
 10
105.801
 20
192.048
 11
105.776
 21
192.068
  0
LINE
  8
0
 10
105.776
 20
192.068
 11
105.75
 21
192.085
  0
LINE
  8
0
 10
105.75
 20
192.085
 11
105.722
 21
192.099
  0
LINE
  8
0
 10
105.722
 20
192.099
 11
105.693
 21
192.11
  0
LINE
  8
0
 10
105.693
 20
192.11
 11
105.662
 21
192.118
  0
LINE
  8
0
 10
105.662
 20
192.118
 11
105.631
 21
192.123
  0
LINE
  8
0
 10
105.631
 20
192.123
 11
105.6
 21
192.125
  0
LINE
  8
0
 10
105.6
 20
192.125
 11
105.569
 21
192.123
  0
LINE
  8
0
 10
105.569
 20
192.123
 11
105.538
 21
192.118
  0
LINE
  8
0
 10
105.538
 20
192.118
 11
105.507
 21
192.11
  0
LINE
  8
0
 10
105.507
 20
192.11
 11
105.478
 21
192.099
  0
LINE
  8
0
 10
105.478
 20
192.099
 11
105.45
 21
192.085
  0
LINE
  8
0
 10
105.45
 20
192.085
 11
105.424
 21
192.068
  0
LINE
  8
0
 10
105.424
 20
192.068
 11
105.399
 21
192.048
  0
LINE
  8
0
 10
105.399
 20
192.048
 11
105.377
 21
192.026
  0
LINE
  8
0
 10
105.377
 20
192.026
 11
105.357
 21
192.001
  0
LINE
  8
0
 10
105.357
 20
192.001
 11
105.34
 21
191.975
  0
LINE
  8
0
 10
105.34
 20
191.975
 11
105.326
 21
191.947
  0
LINE
  8
0
 10
105.326
 20
191.947
 11
105.315
 21
191.918
  0
LINE
  8
0
 10
105.315
 20
191.918
 11
105.307
 21
191.887
  0
LINE
  8
0
 10
105.307
 20
191.887
 11
105.302
 21
191.856
  0
LINE
  8
0
 10
105.302
 20
191.856
 11
105.3
 21
191.825
  0
LINE
  8
0
 10
105.3
 20
191.825
 11
104.1
 21
191.825
  0
LINE
  8
0
 10
104.1
 20
191.825
 11
104.1
 21
182.512
  0
LINE
  8
0
 10
104.1
 20
182.512
 11
107.1
 21
182.512
  0
LINE
  8
0
 10
107.1
 20
182.512
 11
107.1
 21
173.2
  0
LINE
  8
0
 10
107.1
 20
173.2
 11
201.119
 21
173.2
  0
LINE
  8
0
 10
201.119
 20
173.2
 11
201.119
 21
172
  0
LINE
  8
0
 10
201.119
 20
172
 11
201.087
 21
171.998
  0
LINE
  8
0
 10
201.087
 20
171.998
 11
201.056
 21
171.993
  0
LINE
  8
0
 10
201.056
 20
171.993
 11
201.026
 21
171.985
  0
LINE
  8
0
 10
201.026
 20
171.985
 11
200.997
 21
171.974
  0
LINE
  8
0
 10
200.997
 20
171.974
 11
200.969
 21
171.96
  0
LINE
  8
0
 10
200.969
 20
171.96
 11
200.942
 21
171.943
  0
LINE
  8
0
 10
200.942
 20
171.943
 11
200.918
 21
171.923
  0
LINE
  8
0
 10
200.918
 20
171.923
 11
200.896
 21
171.901
  0
LINE
  8
0
 10
200.896
 20
171.901
 11
200.876
 21
171.876
  0
LINE
  8
0
 10
200.876
 20
171.876
 11
200.859
 21
171.85
  0
LINE
  8
0
 10
200.859
 20
171.85
 11
200.845
 21
171.822
  0
LINE
  8
0
 10
200.845
 20
171.822
 11
200.833
 21
171.793
  0
LINE
  8
0
 10
200.833
 20
171.793
 11
200.825
 21
171.762
  0
LINE
  8
0
 10
200.825
 20
171.762
 11
200.82
 21
171.731
  0
LINE
  8
0
 10
200.82
 20
171.731
 11
200.819
 21
171.7
  0
LINE
  8
0
 10
200.819
 20
171.7
 11
200.82
 21
171.669
  0
LINE
  8
0
 10
200.82
 20
171.669
 11
200.825
 21
171.638
  0
LINE
  8
0
 10
200.825
 20
171.638
 11
200.833
 21
171.607
  0
LINE
  8
0
 10
200.833
 20
171.607
 11
200.845
 21
171.578
  0
LINE
  8
0
 10
200.845
 20
171.578
 11
200.859
 21
171.55
  0
LINE
  8
0
 10
200.859
 20
171.55
 11
200.876
 21
171.524
  0
LINE
  8
0
 10
200.876
 20
171.524
 11
200.896
 21
171.499
  0
LINE
  8
0
 10
200.896
 20
171.499
 11
200.918
 21
171.477
  0
LINE
  8
0
 10
200.918
 20
171.477
 11
200.942
 21
171.457
  0
LINE
  8
0
 10
200.942
 20
171.457
 11
200.969
 21
171.44
  0
LINE
  8
0
 10
200.969
 20
171.44
 11
200.997
 21
171.426
  0
LINE
  8
0
 10
200.997
 20
171.426
 11
201.026
 21
171.415
  0
LINE
  8
0
 10
201.026
 20
171.415
 11
201.056
 21
171.407
  0
LINE
  8
0
 10
201.056
 20
171.407
 11
201.087
 21
171.402
  0
LINE
  8
0
 10
201.087
 20
171.402
 11
201.119
 21
171.4
  0
LINE
  8
0
 10
201.119
 20
171.4
 11
201.119
 21
170.2
  0
LINE
  8
0
 10
201.119
 20
170.2
 11
237.137
 21
170.2
  0
LINE
  8
0
 10
237.137
 20
170.2
 11
237.137
 21
173.2
  0
LINE
  8
0
 10
463.3
 20
83.9437
 11
464.5
 21
83.9437
  0
LINE
  8
0
 10
464.5
 20
83.9437
 11
464.502
 21
83.9124
  0
LINE
  8
0
 10
464.502
 20
83.9124
 11
464.507
 21
83.8814
  0
LINE
  8
0
 10
464.507
 20
83.8814
 11
464.515
 21
83.851
  0
LINE
  8
0
 10
464.515
 20
83.851
 11
464.526
 21
83.8217
  0
LINE
  8
0
 10
464.526
 20
83.8217
 11
464.54
 21
83.7937
  0
LINE
  8
0
 10
464.54
 20
83.7937
 11
464.557
 21
83.7674
  0
LINE
  8
0
 10
464.557
 20
83.7674
 11
464.577
 21
83.743
  0
LINE
  8
0
 10
464.577
 20
83.743
 11
464.599
 21
83.7208
  0
LINE
  8
0
 10
464.599
 20
83.7208
 11
464.624
 21
83.701
  0
LINE
  8
0
 10
464.624
 20
83.701
 11
464.65
 21
83.6839
  0
LINE
  8
0
 10
464.65
 20
83.6839
 11
464.678
 21
83.6697
  0
LINE
  8
0
 10
464.678
 20
83.6697
 11
464.707
 21
83.6584
  0
LINE
  8
0
 10
464.707
 20
83.6584
 11
464.738
 21
83.6503
  0
LINE
  8
0
 10
464.738
 20
83.6503
 11
464.769
 21
83.6454
  0
LINE
  8
0
 10
464.769
 20
83.6454
 11
464.8
 21
83.6438
  0
LINE
  8
0
 10
464.8
 20
83.6438
 11
464.831
 21
83.6454
  0
LINE
  8
0
 10
464.831
 20
83.6454
 11
464.862
 21
83.6503
  0
LINE
  8
0
 10
464.862
 20
83.6503
 11
464.893
 21
83.6584
  0
LINE
  8
0
 10
464.893
 20
83.6584
 11
464.922
 21
83.6697
  0
LINE
  8
0
 10
464.922
 20
83.6697
 11
464.95
 21
83.6839
  0
LINE
  8
0
 10
464.95
 20
83.6839
 11
464.976
 21
83.701
  0
LINE
  8
0
 10
464.976
 20
83.701
 11
465.001
 21
83.7208
  0
LINE
  8
0
 10
465.001
 20
83.7208
 11
465.023
 21
83.743
  0
LINE
  8
0
 10
465.023
 20
83.743
 11
465.043
 21
83.7674
  0
LINE
  8
0
 10
465.043
 20
83.7674
 11
465.06
 21
83.7937
  0
LINE
  8
0
 10
465.06
 20
83.7937
 11
465.074
 21
83.8217
  0
LINE
  8
0
 10
465.074
 20
83.8217
 11
465.085
 21
83.851
  0
LINE
  8
0
 10
465.085
 20
83.851
 11
465.093
 21
83.8814
  0
LINE
  8
0
 10
465.093
 20
83.8814
 11
465.098
 21
83.9124
  0
LINE
  8
0
 10
465.098
 20
83.9124
 11
465.1
 21
83.9437
  0
LINE
  8
0
 10
465.1
 20
83.9437
 11
466.3
 21
83.9437
  0
LINE
  8
0
 10
466.3
 20
83.9437
 11
466.3
 21
119.962
  0
LINE
  8
0
 10
466.3
 20
119.962
 11
463.3
 21
119.962
  0
LINE
  8
0
 10
463.3
 20
119.962
 11
463.3
 21
155.981
  0
LINE
  8
0
 10
463.3
 20
155.981
 11
464.5
 21
155.981
  0
LINE
  8
0
 10
464.5
 20
155.981
 11
464.502
 21
155.95
  0
LINE
  8
0
 10
464.502
 20
155.95
 11
464.507
 21
155.919
  0
LINE
  8
0
 10
464.507
 20
155.919
 11
464.515
 21
155.889
  0
LINE
  8
0
 10
464.515
 20
155.889
 11
464.526
 21
155.859
  0
LINE
  8
0
 10
464.526
 20
155.859
 11
464.54
 21
155.831
  0
LINE
  8
0
 10
464.54
 20
155.831
 11
464.557
 21
155.805
  0
LINE
  8
0
 10
464.557
 20
155.805
 11
464.577
 21
155.781
  0
LINE
  8
0
 10
464.577
 20
155.781
 11
464.599
 21
155.758
  0
LINE
  8
0
 10
464.599
 20
155.758
 11
464.624
 21
155.739
  0
LINE
  8
0
 10
464.624
 20
155.739
 11
464.65
 21
155.721
  0
LINE
  8
0
 10
464.65
 20
155.721
 11
464.678
 21
155.707
  0
LINE
  8
0
 10
464.678
 20
155.707
 11
464.707
 21
155.696
  0
LINE
  8
0
 10
464.707
 20
155.696
 11
464.738
 21
155.688
  0
LINE
  8
0
 10
464.738
 20
155.688
 11
464.769
 21
155.683
  0
LINE
  8
0
 10
464.769
 20
155.683
 11
464.8
 21
155.681
  0
LINE
  8
0
 10
464.8
 20
155.681
 11
464.831
 21
155.683
  0
LINE
  8
0
 10
464.831
 20
155.683
 11
464.862
 21
155.688
  0
LINE
  8
0
 10
464.862
 20
155.688
 11
464.893
 21
155.696
  0
LINE
  8
0
 10
464.893
 20
155.696
 11
464.922
 21
155.707
  0
LINE
  8
0
 10
464.922
 20
155.707
 11
464.95
 21
155.721
  0
LINE
  8
0
 10
464.95
 20
155.721
 11
464.976
 21
155.739
  0
LINE
  8
0
 10
464.976
 20
155.739
 11
465.001
 21
155.758
  0
LINE
  8
0
 10
465.001
 20
155.758
 11
465.023
 21
155.781
  0
LINE
  8
0
 10
465.023
 20
155.781
 11
465.043
 21
155.805
  0
LINE
  8
0
 10
465.043
 20
155.805
 11
465.06
 21
155.831
  0
LINE
  8
0
 10
465.06
 20
155.831
 11
465.074
 21
155.859
  0
LINE
  8
0
 10
465.074
 20
155.859
 11
465.085
 21
155.889
  0
LINE
  8
0
 10
465.085
 20
155.889
 11
465.093
 21
155.919
  0
LINE
  8
0
 10
465.093
 20
155.919
 11
465.098
 21
155.95
  0
LINE
  8
0
 10
465.098
 20
155.95
 11
465.1
 21
155.981
  0
LINE
  8
0
 10
465.1
 20
155.981
 11
466.3
 21
155.981
  0
LINE
  8
0
 10
466.3
 20
155.981
 11
466.3
 21
188.25
  0
LINE
  8
0
 10
466.3
 20
188.25
 11
475.3
 21
195
  0
LINE
  8
0
 10
475.3
 20
195
 11
475.3
 21
250
  0
LINE
  8
0
 10
475.3
 20
250
 11
325.3
 21
250
  0
LINE
  8
0
 10
325.3
 20
250
 11
325.3
 21
240
  0
LINE
  8
0
 10
325.3
 20
240
 11
351.3
 21
214
  0
LINE
  8
0
 10
351.3
 20
214
 11
351.3
 21
195
  0
LINE
  8
0
 10
351.3
 20
195
 11
360.3
 21
188.25
  0
LINE
  8
0
 10
360.3
 20
188.25
 11
360.3
 21
155.981
  0
LINE
  8
0
 10
360.3
 20
155.981
 11
363.3
 21
155.981
  0
LINE
  8
0
 10
363.3
 20
155.981
 11
363.3
 21
119.962
  0
LINE
  8
0
 10
363.3
 20
119.962
 11
362.1
 21
119.962
  0
LINE
  8
0
 10
362.1
 20
119.962
 11
362.098
 21
119.994
  0
LINE
  8
0
 10
362.098
 20
119.994
 11
362.093
 21
120.025
  0
LINE
  8
0
 10
362.093
 20
120.025
 11
362.085
 21
120.055
  0
LINE
  8
0
 10
362.085
 20
120.055
 11
362.074
 21
120.085
  0
LINE
  8
0
 10
362.074
 20
120.085
 11
362.06
 21
120.113
  0
LINE
  8
0
 10
362.06
 20
120.113
 11
362.043
 21
120.139
  0
LINE
  8
0
 10
362.043
 20
120.139
 11
362.023
 21
120.163
  0
LINE
  8
0
 10
362.023
 20
120.163
 11
362.001
 21
120.185
  0
LINE
  8
0
 10
362.001
 20
120.185
 11
361.976
 21
120.205
  0
LINE
  8
0
 10
361.976
 20
120.205
 11
361.95
 21
120.222
  0
LINE
  8
0
 10
361.95
 20
120.222
 11
361.922
 21
120.237
  0
LINE
  8
0
 10
361.922
 20
120.237
 11
361.893
 21
120.248
  0
LINE
  8
0
 10
361.893
 20
120.248
 11
361.862
 21
120.256
  0
LINE
  8
0
 10
361.862
 20
120.256
 11
361.831
 21
120.261
  0
LINE
  8
0
 10
361.831
 20
120.261
 11
361.8
 21
120.262
  0
LINE
  8
0
 10
361.8
 20
120.262
 11
361.769
 21
120.261
  0
LINE
  8
0
 10
361.769
 20
120.261
 11
361.738
 21
120.256
  0
LINE
  8
0
 10
361.738
 20
120.256
 11
361.707
 21
120.248
  0
LINE
  8
0
 10
361.707
 20
120.248
 11
361.678
 21
120.237
  0
LINE
  8
0
 10
361.678
 20
120.237
 11
361.65
 21
120.222
  0
LINE
  8
0
 10
361.65
 20
120.222
 11
361.624
 21
120.205
  0
LINE
  8
0
 10
361.624
 20
120.205
 11
361.599
 21
120.185
  0
LINE
  8
0
 10
361.599
 20
120.185
 11
361.577
 21
120.163
  0
LINE
  8
0
 10
361.577
 20
120.163
 11
361.557
 21
120.139
  0
LINE
  8
0
 10
361.557
 20
120.139
 11
361.54
 21
120.113
  0
LINE
  8
0
 10
361.54
 20
120.113
 11
361.526
 21
120.085
  0
LINE
  8
0
 10
361.526
 20
120.085
 11
361.515
 21
120.055
  0
LINE
  8
0
 10
361.515
 20
120.055
 11
361.507
 21
120.025
  0
LINE
  8
0
 10
361.507
 20
120.025
 11
361.502
 21
119.994
  0
LINE
  8
0
 10
361.502
 20
119.994
 11
361.5
 21
119.962
  0
LINE
  8
0
 10
361.5
 20
119.962
 11
360.3
 21
119.962
  0
LINE
  8
0
 10
360.3
 20
119.962
 11
360.3
 21
83.9437
  0
LINE
  8
0
 10
360.3
 20
83.9437
 11
363.3
 21
83.9437
  0
LINE
  8
0
 10
363.3
 20
83.9437
 11
363.3
 21
47.925
  0
LINE
  8
0
 10
363.3
 20
47.925
 11
463.3
 21
47.925
  0
LINE
  8
0
 10
463.3
 20
47.925
 11
463.3
 21
83.9437
  0
LINE
  8
0
 10
433.3
 20
236
 11
433.3
 21
249
  0
LINE
  8
0
 10
433.3
 20
249
 11
450.3
 21
249
  0
LINE
  8
0
 10
450.3
 20
249
 11
450.3
 21
236
  0
LINE
  8
0
 10
450.3
 20
236
 11
433.3
 21
236
  0
LINE
  8
0
 10
389.3
 20
236
 11
389.3
 21
249
  0
LINE
  8
0
 10
389.3
 20
249
 11
406.3
 21
249
  0
LINE
  8
0
 10
406.3
 20
249
 11
406.3
 21
236
  0
LINE
  8
0
 10
406.3
 20
236
 11
389.3
 21
236
  0
LINE
  8
0
 10
419.3
 20
242.5
 11
419.3
 21
245.5
  0
LINE
  8
0
 10
419.3
 20
245.5
 11
422.3
 21
245.5
  0
LINE
  8
0
 10
422.3
 20
245.5
 11
422.3
 21
242.5
  0
LINE
  8
0
 10
422.3
 20
242.5
 11
419.3
 21
242.5
  0
LINE
  8
0
 10
375.3
 20
242.5
 11
375.3
 21
245.5
  0
LINE
  8
0
 10
375.3
 20
245.5
 11
378.3
 21
245.5
  0
LINE
  8
0
 10
378.3
 20
245.5
 11
378.3
 21
242.5
  0
LINE
  8
0
 10
378.3
 20
242.5
 11
375.3
 21
242.5
  0
LINE
  8
0
 10
419.3
 20
186.5
 11
419.3
 21
188
  0
LINE
  8
0
 10
419.3
 20
188
 11
422.3
 21
188
  0
LINE
  8
0
 10
422.3
 20
188
 11
422.3
 21
186.5
  0
LINE
  8
0
 10
422.3
 20
186.5
 11
419.3
 21
186.5
  0
LINE
  8
0
 10
375.3
 20
186.5
 11
375.3
 21
188
  0
LINE
  8
0
 10
375.3
 20
188
 11
378.3
 21
188
  0
LINE
  8
0
 10
378.3
 20
188
 11
378.3
 21
186.5
  0
LINE
  8
0
 10
378.3
 20
186.5
 11
375.3
 21
186.5
  0
LINE
  8
0
 10
375.3
 20
124.5
 11
375.3
 21
127.5
  0
LINE
  8
0
 10
375.3
 20
127.5
 11
378.3
 21
127.5
  0
LINE
  8
0
 10
378.3
 20
127.5
 11
378.3
 21
124.5
  0
LINE
  8
0
 10
378.3
 20
124.5
 11
375.3
 21
124.5
  0
LINE
  8
0
 10
419.3
 20
124.5
 11
419.3
 21
127.5
  0
LINE
  8
0
 10
419.3
 20
127.5
 11
422.3
 21
127.5
  0
LINE
  8
0
 10
422.3
 20
127.5
 11
422.3
 21
124.5
  0
LINE
  8
0
 10
422.3
 20
124.5
 11
419.3
 21
124.5
  0
LINE
  8
0
 10
375.3
 20
65.5
 11
375.3
 21
68.5
  0
LINE
  8
0
 10
375.3
 20
68.5
 11
378.3
 21
68.5
  0
LINE
  8
0
 10
378.3
 20
68.5
 11
378.3
 21
65.5
  0
LINE
  8
0
 10
378.3
 20
65.5
 11
375.3
 21
65.5
  0
LINE
  8
0
 10
419.3
 20
65.5
 11
419.3
 21
68.5
  0
LINE
  8
0
 10
419.3
 20
68.5
 11
422.3
 21
68.5
  0
LINE
  8
0
 10
422.3
 20
68.5
 11
422.3
 21
65.5
  0
LINE
  8
0
 10
422.3
 20
65.5
 11
419.3
 21
65.5
  0
LINE
  8
0
 10
72.0375
 20
86.6
 11
108.056
 21
86.6
  0
LINE
  8
0
 10
108.056
 20
86.6
 11
108.056
 21
85.4
  0
LINE
  8
0
 10
108.056
 20
85.4
 11
108.025
 21
85.3983
  0
LINE
  8
0
 10
108.025
 20
85.3983
 11
107.994
 21
85.3934
  0
LINE
  8
0
 10
107.994
 20
85.3934
 11
107.964
 21
85.3853
  0
LINE
  8
0
 10
107.964
 20
85.3853
 11
107.934
 21
85.3741
  0
LINE
  8
0
 10
107.934
 20
85.3741
 11
107.906
 21
85.3598
  0
LINE
  8
0
 10
107.906
 20
85.3598
 11
107.88
 21
85.3427
  0
LINE
  8
0
 10
107.88
 20
85.3427
 11
107.856
 21
85.3229
  0
LINE
  8
0
 10
107.856
 20
85.3229
 11
107.833
 21
85.3007
  0
LINE
  8
0
 10
107.833
 20
85.3007
 11
107.814
 21
85.2763
  0
LINE
  8
0
 10
107.814
 20
85.2763
 11
107.796
 21
85.25
  0
LINE
  8
0
 10
107.796
 20
85.25
 11
107.782
 21
85.222
  0
LINE
  8
0
 10
107.782
 20
85.222
 11
107.771
 21
85.1927
  0
LINE
  8
0
 10
107.771
 20
85.1927
 11
107.763
 21
85.1624
  0
LINE
  8
0
 10
107.763
 20
85.1624
 11
107.758
 21
85.1313
  0
LINE
  8
0
 10
107.758
 20
85.1313
 11
107.756
 21
85.1
  0
LINE
  8
0
 10
107.756
 20
85.1
 11
107.758
 21
85.0686
  0
LINE
  8
0
 10
107.758
 20
85.0686
 11
107.763
 21
85.0376
  0
LINE
  8
0
 10
107.763
 20
85.0376
 11
107.771
 21
85.0073
  0
LINE
  8
0
 10
107.771
 20
85.0073
 11
107.782
 21
84.978
  0
LINE
  8
0
 10
107.782
 20
84.978
 11
107.796
 21
84.95
  0
LINE
  8
0
 10
107.796
 20
84.95
 11
107.814
 21
84.9237
  0
LINE
  8
0
 10
107.814
 20
84.9237
 11
107.833
 21
84.8993
  0
LINE
  8
0
 10
107.833
 20
84.8993
 11
107.856
 21
84.8771
  0
LINE
  8
0
 10
107.856
 20
84.8771
 11
107.88
 21
84.8573
  0
LINE
  8
0
 10
107.88
 20
84.8573
 11
107.906
 21
84.8402
  0
LINE
  8
0
 10
107.906
 20
84.8402
 11
107.934
 21
84.8259
  0
LINE
  8
0
 10
107.934
 20
84.8259
 11
107.964
 21
84.8147
  0
LINE
  8
0
 10
107.964
 20
84.8147
 11
107.994
 21
84.8065
  0
LINE
  8
0
 10
107.994
 20
84.8065
 11
108.025
 21
84.8016
  0
LINE
  8
0
 10
108.025
 20
84.8016
 11
108.056
 21
84.8
  0
LINE
  8
0
 10
108.056
 20
84.8
 11
108.056
 21
83.6
  0
LINE
  8
0
 10
108.056
 20
83.6
 11
144.075
 21
83.6
  0
LINE
  8
0
 10
144.075
 20
83.6
 11
144.075
 21
123.85
  0
LINE
  8
0
 10
144.075
 20
123.85
 11
145.275
 21
123.85
  0
LINE
  8
0
 10
145.275
 20
123.85
 11
145.277
 21
123.819
  0
LINE
  8
0
 10
145.277
 20
123.819
 11
145.282
 21
123.788
  0
LINE
  8
0
 10
145.282
 20
123.788
 11
145.29
 21
123.757
  0
LINE
  8
0
 10
145.29
 20
123.757
 11
145.301
 21
123.728
  0
LINE
  8
0
 10
145.301
 20
123.728
 11
145.315
 21
123.7
  0
LINE
  8
0
 10
145.315
 20
123.7
 11
145.332
 21
123.674
  0
LINE
  8
0
 10
145.332
 20
123.674
 11
145.352
 21
123.649
  0
LINE
  8
0
 10
145.352
 20
123.649
 11
145.374
 21
123.627
  0
LINE
  8
0
 10
145.374
 20
123.627
 11
145.399
 21
123.607
  0
LINE
  8
0
 10
145.399
 20
123.607
 11
145.425
 21
123.59
  0
LINE
  8
0
 10
145.425
 20
123.59
 11
145.453
 21
123.576
  0
LINE
  8
0
 10
145.453
 20
123.576
 11
145.482
 21
123.565
  0
LINE
  8
0
 10
145.482
 20
123.565
 11
145.513
 21
123.557
  0
LINE
  8
0
 10
145.513
 20
123.557
 11
145.544
 21
123.552
  0
LINE
  8
0
 10
145.544
 20
123.552
 11
145.575
 21
123.55
  0
LINE
  8
0
 10
145.575
 20
123.55
 11
145.606
 21
123.552
  0
LINE
  8
0
 10
145.606
 20
123.552
 11
145.637
 21
123.557
  0
LINE
  8
0
 10
145.637
 20
123.557
 11
145.668
 21
123.565
  0
LINE
  8
0
 10
145.668
 20
123.565
 11
145.697
 21
123.576
  0
LINE
  8
0
 10
145.697
 20
123.576
 11
145.725
 21
123.59
  0
LINE
  8
0
 10
145.725
 20
123.59
 11
145.751
 21
123.607
  0
LINE
  8
0
 10
145.751
 20
123.607
 11
145.776
 21
123.627
  0
LINE
  8
0
 10
145.776
 20
123.627
 11
145.798
 21
123.649
  0
LINE
  8
0
 10
145.798
 20
123.649
 11
145.818
 21
123.674
  0
LINE
  8
0
 10
145.818
 20
123.674
 11
145.835
 21
123.7
  0
LINE
  8
0
 10
145.835
 20
123.7
 11
145.849
 21
123.728
  0
LINE
  8
0
 10
145.849
 20
123.728
 11
145.86
 21
123.757
  0
LINE
  8
0
 10
145.86
 20
123.757
 11
145.868
 21
123.788
  0
LINE
  8
0
 10
145.868
 20
123.788
 11
145.873
 21
123.819
  0
LINE
  8
0
 10
145.873
 20
123.819
 11
145.875
 21
123.85
  0
LINE
  8
0
 10
145.875
 20
123.85
 11
147.075
 21
123.85
  0
LINE
  8
0
 10
147.075
 20
123.85
 11
147.075
 21
161.1
  0
LINE
  8
0
 10
147.075
 20
161.1
 11
144.075
 21
161.1
  0
LINE
  8
0
 10
144.075
 20
161.1
 11
144.075
 21
164.1
  0
LINE
  8
0
 10
144.075
 20
164.1
 11
108.056
 21
164.1
  0
LINE
  8
0
 10
108.056
 20
164.1
 11
108.056
 21
161.1
  0
LINE
  8
0
 10
108.056
 20
161.1
 11
72.0375
 21
161.1
  0
LINE
  8
0
 10
72.0375
 20
161.1
 11
72.0375
 21
162.3
  0
LINE
  8
0
 10
72.0375
 20
162.3
 11
72.0688
 21
162.302
  0
LINE
  8
0
 10
72.0688
 20
162.302
 11
72.0999
 21
162.307
  0
LINE
  8
0
 10
72.0999
 20
162.307
 11
72.1302
 21
162.315
  0
LINE
  8
0
 10
72.1302
 20
162.315
 11
72.1595
 21
162.326
  0
LINE
  8
0
 10
72.1595
 20
162.326
 11
72.1875
 21
162.34
  0
LINE
  8
0
 10
72.1875
 20
162.34
 11
72.2138
 21
162.357
  0
LINE
  8
0
 10
72.2138
 20
162.357
 11
72.2382
 21
162.377
  0
LINE
  8
0
 10
72.2382
 20
162.377
 11
72.2604
 21
162.399
  0
LINE
  8
0
 10
72.2604
 20
162.399
 11
72.2802
 21
162.424
  0
LINE
  8
0
 10
72.2802
 20
162.424
 11
72.2973
 21
162.45
  0
LINE
  8
0
 10
72.2973
 20
162.45
 11
72.3116
 21
162.478
  0
LINE
  8
0
 10
72.3116
 20
162.478
 11
72.3228
 21
162.507
  0
LINE
  8
0
 10
72.3228
 20
162.507
 11
72.3309
 21
162.538
  0
LINE
  8
0
 10
72.3309
 20
162.538
 11
72.3358
 21
162.569
  0
LINE
  8
0
 10
72.3358
 20
162.569
 11
72.3375
 21
162.6
  0
LINE
  8
0
 10
72.3375
 20
162.6
 11
72.3358
 21
162.631
  0
LINE
  8
0
 10
72.3358
 20
162.631
 11
72.3309
 21
162.662
  0
LINE
  8
0
 10
72.3309
 20
162.662
 11
72.3228
 21
162.693
  0
LINE
  8
0
 10
72.3228
 20
162.693
 11
72.3116
 21
162.722
  0
LINE
  8
0
 10
72.3116
 20
162.722
 11
72.2973
 21
162.75
  0
LINE
  8
0
 10
72.2973
 20
162.75
 11
72.2802
 21
162.776
  0
LINE
  8
0
 10
72.2802
 20
162.776
 11
72.2604
 21
162.801
  0
LINE
  8
0
 10
72.2604
 20
162.801
 11
72.2382
 21
162.823
  0
LINE
  8
0
 10
72.2382
 20
162.823
 11
72.2138
 21
162.843
  0
LINE
  8
0
 10
72.2138
 20
162.843
 11
72.1875
 21
162.86
  0
LINE
  8
0
 10
72.1875
 20
162.86
 11
72.1595
 21
162.874
  0
LINE
  8
0
 10
72.1595
 20
162.874
 11
72.1302
 21
162.885
  0
LINE
  8
0
 10
72.1302
 20
162.885
 11
72.0999
 21
162.893
  0
LINE
  8
0
 10
72.0999
 20
162.893
 11
72.0688
 21
162.898
  0
LINE
  8
0
 10
72.0688
 20
162.898
 11
72.0375
 21
162.9
  0
LINE
  8
0
 10
72.0375
 20
162.9
 11
72.0375
 21
164.1
  0
LINE
  8
0
 10
72.0375
 20
164.1
 11
36.0187
 21
164.1
  0
LINE
  8
0
 10
36.0187
 20
164.1
 11
36.0187
 21
161.1
  0
LINE
  8
0
 10
36.0187
 20
161.1
 11
-5
 21
161.1
  0
LINE
  8
0
 10
-5
 20
161.1
 11
-5
 21
86.6
  0
LINE
  8
0
 10
-5
 20
86.6
 11
36.0187
 21
86.6
  0
LINE
  8
0
 10
36.0187
 20
86.6
 11
36.0187
 21
85.4
  0
LINE
  8
0
 10
36.0187
 20
85.4
 11
35.9874
 21
85.3983
  0
LINE
  8
0
 10
35.9874
 20
85.3983
 11
35.9564
 21
85.3934
  0
LINE
  8
0
 10
35.9564
 20
85.3934
 11
35.926
 21
85.3853
  0
LINE
  8
0
 10
35.926
 20
85.3853
 11
35.8967
 21
85.3741
  0
LINE
  8
0
 10
35.8967
 20
85.3741
 11
35.8687
 21
85.3598
  0
LINE
  8
0
 10
35.8687
 20
85.3598
 11
35.8424
 21
85.3427
  0
LINE
  8
0
 10
35.8424
 20
85.3427
 11
35.818
 21
85.3229
  0
LINE
  8
0
 10
35.818
 20
85.3229
 11
35.7958
 21
85.3007
  0
LINE
  8
0
 10
35.7958
 20
85.3007
 11
35.776
 21
85.2763
  0
LINE
  8
0
 10
35.776
 20
85.2763
 11
35.7589
 21
85.25
  0
LINE
  8
0
 10
35.7589
 20
85.25
 11
35.7447
 21
85.222
  0
LINE
  8
0
 10
35.7447
 20
85.222
 11
35.7334
 21
85.1927
  0
LINE
  8
0
 10
35.7334
 20
85.1927
 11
35.7253
 21
85.1624
  0
LINE
  8
0
 10
35.7253
 20
85.1624
 11
35.7204
 21
85.1313
  0
LINE
  8
0
 10
35.7204
 20
85.1313
 11
35.7188
 21
85.1
  0
LINE
  8
0
 10
35.7188
 20
85.1
 11
35.7204
 21
85.0686
  0
LINE
  8
0
 10
35.7204
 20
85.0686
 11
35.7253
 21
85.0376
  0
LINE
  8
0
 10
35.7253
 20
85.0376
 11
35.7334
 21
85.0073
  0
LINE
  8
0
 10
35.7334
 20
85.0073
 11
35.7447
 21
84.978
  0
LINE
  8
0
 10
35.7447
 20
84.978
 11
35.7589
 21
84.95
  0
LINE
  8
0
 10
35.7589
 20
84.95
 11
35.776
 21
84.9237
  0
LINE
  8
0
 10
35.776
 20
84.9237
 11
35.7958
 21
84.8993
  0
LINE
  8
0
 10
35.7958
 20
84.8993
 11
35.818
 21
84.8771
  0
LINE
  8
0
 10
35.818
 20
84.8771
 11
35.8424
 21
84.8573
  0
LINE
  8
0
 10
35.8424
 20
84.8573
 11
35.8687
 21
84.8402
  0
LINE
  8
0
 10
35.8687
 20
84.8402
 11
35.8967
 21
84.8259
  0
LINE
  8
0
 10
35.8967
 20
84.8259
 11
35.926
 21
84.8147
  0
LINE
  8
0
 10
35.926
 20
84.8147
 11
35.9564
 21
84.8065
  0
LINE
  8
0
 10
35.9564
 20
84.8065
 11
35.9874
 21
84.8016
  0
LINE
  8
0
 10
35.9874
 20
84.8016
 11
36.0187
 21
84.8
  0
LINE
  8
0
 10
36.0187
 20
84.8
 11
36.0187
 21
83.6
  0
LINE
  8
0
 10
36.0187
 20
83.6
 11
72.0375
 21
83.6
  0
LINE
  8
0
 10
72.0375
 20
83.6
 11
72.0375
 21
86.6
  0
LINE
  8
0
 10
84.5
 20
96.4
 11
84.5
 21
157
  0
LINE
  8
0
 10
84.5
 20
157
 11
113
 21
157
  0
LINE
  8
0
 10
113
 20
157
 11
113
 21
96.4
  0
LINE
  8
0
 10
113
 20
96.4
 11
84.5
 21
96.4
  0
LINE
  8
0
 10
14
 20
88.4
 11
14
 21
156.8
  0
LINE
  8
0
 10
14
 20
156.8
 11
28
 21
156.8
  0
LINE
  8
0
 10
28
 20
156.8
 11
28
 21
153.2
  0
LINE
  8
0
 10
28
 20
153.2
 11
43
 21
153.2
  0
LINE
  8
0
 10
43
 20
153.2
 11
43
 21
88.4
  0
LINE
  8
0
 10
43
 20
88.4
 11
14
 21
88.4
  0
LINE
  8
0
 10
119.833
 20
150.009
 11
119.667
 21
150.035
  0
LINE
  8
0
 10
119.667
 20
150.035
 11
119.506
 21
150.078
  0
LINE
  8
0
 10
119.506
 20
150.078
 11
119.349
 21
150.138
  0
LINE
  8
0
 10
119.349
 20
150.138
 11
119.2
 21
150.214
  0
LINE
  8
0
 10
119.2
 20
150.214
 11
119.06
 21
150.306
  0
LINE
  8
0
 10
119.06
 20
150.306
 11
118.929
 21
150.411
  0
LINE
  8
0
 10
118.929
 20
150.411
 11
118.811
 21
150.529
  0
LINE
  8
0
 10
118.811
 20
150.529
 11
118.706
 21
150.66
  0
LINE
  8
0
 10
118.706
 20
150.66
 11
118.614
 21
150.8
  0
LINE
  8
0
 10
118.614
 20
150.8
 11
118.538
 21
150.949
  0
LINE
  8
0
 10
118.538
 20
150.949
 11
118.478
 21
151.106
  0
LINE
  8
0
 10
118.478
 20
151.106
 11
118.435
 21
151.267
  0
LINE
  8
0
 10
118.435
 20
151.267
 11
118.409
 21
151.433
  0
LINE
  8
0
 10
118.409
 20
151.433
 11
118.4
 21
151.6
  0
LINE
  8
0
 10
118.4
 20
151.6
 11
118.409
 21
151.767
  0
LINE
  8
0
 10
118.409
 20
151.767
 11
118.435
 21
151.933
  0
LINE
  8
0
 10
118.435
 20
151.933
 11
118.478
 21
152.094
  0
LINE
  8
0
 10
118.478
 20
152.094
 11
118.538
 21
152.251
  0
LINE
  8
0
 10
118.538
 20
152.251
 11
118.614
 21
152.4
  0
LINE
  8
0
 10
118.614
 20
152.4
 11
118.706
 21
152.54
  0
LINE
  8
0
 10
118.706
 20
152.54
 11
118.811
 21
152.671
  0
LINE
  8
0
 10
118.811
 20
152.671
 11
118.929
 21
152.789
  0
LINE
  8
0
 10
118.929
 20
152.789
 11
119.06
 21
152.894
  0
LINE
  8
0
 10
119.06
 20
152.894
 11
119.2
 21
152.986
  0
LINE
  8
0
 10
119.2
 20
152.986
 11
119.349
 21
153.062
  0
LINE
  8
0
 10
119.349
 20
153.062
 11
119.506
 21
153.122
  0
LINE
  8
0
 10
119.506
 20
153.122
 11
119.667
 21
153.165
  0
LINE
  8
0
 10
119.667
 20
153.165
 11
119.833
 21
153.191
  0
LINE
  8
0
 10
119.833
 20
153.191
 11
120
 21
153.2
  0
LINE
  8
0
 10
120
 20
153.2
 11
120.167
 21
153.191
  0
LINE
  8
0
 10
120.167
 20
153.191
 11
120.333
 21
153.165
  0
LINE
  8
0
 10
120.333
 20
153.165
 11
120.494
 21
153.122
  0
LINE
  8
0
 10
120.494
 20
153.122
 11
120.651
 21
153.062
  0
LINE
  8
0
 10
120.651
 20
153.062
 11
120.8
 21
152.986
  0
LINE
  8
0
 10
120.8
 20
152.986
 11
120.94
 21
152.894
  0
LINE
  8
0
 10
120.94
 20
152.894
 11
121.071
 21
152.789
  0
LINE
  8
0
 10
121.071
 20
152.789
 11
121.189
 21
152.671
  0
LINE
  8
0
 10
121.189
 20
152.671
 11
121.294
 21
152.54
  0
LINE
  8
0
 10
121.294
 20
152.54
 11
121.386
 21
152.4
  0
LINE
  8
0
 10
121.386
 20
152.4
 11
121.462
 21
152.251
  0
LINE
  8
0
 10
121.462
 20
152.251
 11
121.522
 21
152.094
  0
LINE
  8
0
 10
121.522
 20
152.094
 11
121.565
 21
151.933
  0
LINE
  8
0
 10
121.565
 20
151.933
 11
121.591
 21
151.767
  0
LINE
  8
0
 10
121.591
 20
151.767
 11
121.6
 21
151.6
  0
LINE
  8
0
 10
121.6
 20
151.6
 11
121.591
 21
151.433
  0
LINE
  8
0
 10
121.591
 20
151.433
 11
121.565
 21
151.267
  0
LINE
  8
0
 10
121.565
 20
151.267
 11
121.522
 21
151.106
  0
LINE
  8
0
 10
121.522
 20
151.106
 11
121.462
 21
150.949
  0
LINE
  8
0
 10
121.462
 20
150.949
 11
121.386
 21
150.8
  0
LINE
  8
0
 10
121.386
 20
150.8
 11
121.294
 21
150.66
  0
LINE
  8
0
 10
121.294
 20
150.66
 11
121.189
 21
150.529
  0
LINE
  8
0
 10
121.189
 20
150.529
 11
121.071
 21
150.411
  0
LINE
  8
0
 10
121.071
 20
150.411
 11
120.94
 21
150.306
  0
LINE
  8
0
 10
120.94
 20
150.306
 11
120.8
 21
150.214
  0
LINE
  8
0
 10
120.8
 20
150.214
 11
120.651
 21
150.138
  0
LINE
  8
0
 10
120.651
 20
150.138
 11
120.494
 21
150.078
  0
LINE
  8
0
 10
120.494
 20
150.078
 11
120.333
 21
150.035
  0
LINE
  8
0
 10
120.333
 20
150.035
 11
120.167
 21
150.009
  0
LINE
  8
0
 10
120.167
 20
150.009
 11
120
 21
150
  0
LINE
  8
0
 10
120
 20
150
 11
119.833
 21
150.009
  0
LINE
  8
0
 10
79.8327
 20
150.009
 11
79.6673
 21
150.035
  0
LINE
  8
0
 10
79.6673
 20
150.035
 11
79.5056
 21
150.078
  0
LINE
  8
0
 10
79.5056
 20
150.078
 11
79.3492
 21
150.138
  0
LINE
  8
0
 10
79.3492
 20
150.138
 11
79.2
 21
150.214
  0
LINE
  8
0
 10
79.2
 20
150.214
 11
79.0595
 21
150.306
  0
LINE
  8
0
 10
79.0595
 20
150.306
 11
78.9294
 21
150.411
  0
LINE
  8
0
 10
78.9294
 20
150.411
 11
78.811
 21
150.529
  0
LINE
  8
0
 10
78.811
 20
150.529
 11
78.7056
 21
150.66
  0
LINE
  8
0
 10
78.7056
 20
150.66
 11
78.6143
 21
150.8
  0
LINE
  8
0
 10
78.6143
 20
150.8
 11
78.5383
 21
150.949
  0
LINE
  8
0
 10
78.5383
 20
150.949
 11
78.4783
 21
151.106
  0
LINE
  8
0
 10
78.4783
 20
151.106
 11
78.435
 21
151.267
  0
LINE
  8
0
 10
78.435
 20
151.267
 11
78.4088
 21
151.433
  0
LINE
  8
0
 10
78.4088
 20
151.433
 11
78.4
 21
151.6
  0
LINE
  8
0
 10
78.4
 20
151.6
 11
78.4088
 21
151.767
  0
LINE
  8
0
 10
78.4088
 20
151.767
 11
78.435
 21
151.933
  0
LINE
  8
0
 10
78.435
 20
151.933
 11
78.4783
 21
152.094
  0
LINE
  8
0
 10
78.4783
 20
152.094
 11
78.5383
 21
152.251
  0
LINE
  8
0
 10
78.5383
 20
152.251
 11
78.6143
 21
152.4
  0
LINE
  8
0
 10
78.6143
 20
152.4
 11
78.7056
 21
152.54
  0
LINE
  8
0
 10
78.7056
 20
152.54
 11
78.811
 21
152.671
  0
LINE
  8
0
 10
78.811
 20
152.671
 11
78.9294
 21
152.789
  0
LINE
  8
0
 10
78.9294
 20
152.789
 11
79.0595
 21
152.894
  0
LINE
  8
0
 10
79.0595
 20
152.894
 11
79.2
 21
152.986
  0
LINE
  8
0
 10
79.2
 20
152.986
 11
79.3492
 21
153.062
  0
LINE
  8
0
 10
79.3492
 20
153.062
 11
79.5056
 21
153.122
  0
LINE
  8
0
 10
79.5056
 20
153.122
 11
79.6673
 21
153.165
  0
LINE
  8
0
 10
79.6673
 20
153.165
 11
79.8327
 21
153.191
  0
LINE
  8
0
 10
79.8327
 20
153.191
 11
80
 21
153.2
  0
LINE
  8
0
 10
80
 20
153.2
 11
80.1672
 21
153.191
  0
LINE
  8
0
 10
80.1672
 20
153.191
 11
80.3327
 21
153.165
  0
LINE
  8
0
 10
80.3327
 20
153.165
 11
80.4944
 21
153.122
  0
LINE
  8
0
 10
80.4944
 20
153.122
 11
80.6508
 21
153.062
  0
LINE
  8
0
 10
80.6508
 20
153.062
 11
80.8
 21
152.986
  0
LINE
  8
0
 10
80.8
 20
152.986
 11
80.9405
 21
152.894
  0
LINE
  8
0
 10
80.9405
 20
152.894
 11
81.0706
 21
152.789
  0
LINE
  8
0
 10
81.0706
 20
152.789
 11
81.189
 21
152.671
  0
LINE
  8
0
 10
81.189
 20
152.671
 11
81.2944
 21
152.54
  0
LINE
  8
0
 10
81.2944
 20
152.54
 11
81.3856
 21
152.4
  0
LINE
  8
0
 10
81.3856
 20
152.4
 11
81.4617
 21
152.251
  0
LINE
  8
0
 10
81.4617
 20
152.251
 11
81.5217
 21
152.094
  0
LINE
  8
0
 10
81.5217
 20
152.094
 11
81.565
 21
151.933
  0
LINE
  8
0
 10
81.565
 20
151.933
 11
81.5912
 21
151.767
  0
LINE
  8
0
 10
81.5912
 20
151.767
 11
81.6
 21
151.6
  0
LINE
  8
0
 10
81.6
 20
151.6
 11
81.5912
 21
151.433
  0
LINE
  8
0
 10
81.5912
 20
151.433
 11
81.565
 21
151.267
  0
LINE
  8
0
 10
81.565
 20
151.267
 11
81.5217
 21
151.106
  0
LINE
  8
0
 10
81.5217
 20
151.106
 11
81.4617
 21
150.949
  0
LINE
  8
0
 10
81.4617
 20
150.949
 11
81.3856
 21
150.8
  0
LINE
  8
0
 10
81.3856
 20
150.8
 11
81.2944
 21
150.66
  0
LINE
  8
0
 10
81.2944
 20
150.66
 11
81.189
 21
150.529
  0
LINE
  8
0
 10
81.189
 20
150.529
 11
81.0706
 21
150.411
  0
LINE
  8
0
 10
81.0706
 20
150.411
 11
80.9405
 21
150.306
  0
LINE
  8
0
 10
80.9405
 20
150.306
 11
80.8
 21
150.214
  0
LINE
  8
0
 10
80.8
 20
150.214
 11
80.6508
 21
150.138
  0
LINE
  8
0
 10
80.6508
 20
150.138
 11
80.4944
 21
150.078
  0
LINE
  8
0
 10
80.4944
 20
150.078
 11
80.3327
 21
150.035
  0
LINE
  8
0
 10
80.3327
 20
150.035
 11
80.1672
 21
150.009
  0
LINE
  8
0
 10
80.1672
 20
150.009
 11
80
 21
150
  0
LINE
  8
0
 10
80
 20
150
 11
79.8327
 21
150.009
  0
LINE
  8
0
 10
9.83275
 20
150.009
 11
9.66733
 21
150.035
  0
LINE
  8
0
 10
9.66733
 20
150.035
 11
9.50557
 21
150.078
  0
LINE
  8
0
 10
9.50557
 20
150.078
 11
9.34921
 21
150.138
  0
LINE
  8
0
 10
9.34921
 20
150.138
 11
9.2
 21
150.214
  0
LINE
  8
0
 10
9.2
 20
150.214
 11
9.05954
 21
150.306
  0
LINE
  8
0
 10
9.05954
 20
150.306
 11
8.92938
 21
150.411
  0
LINE
  8
0
 10
8.92938
 20
150.411
 11
8.81096
 21
150.529
  0
LINE
  8
0
 10
8.81096
 20
150.529
 11
8.70557
 21
150.66
  0
LINE
  8
0
 10
8.70557
 20
150.66
 11
8.61435
 21
150.8
  0
LINE
  8
0
 10
8.61435
 20
150.8
 11
8.53831
 21
150.949
  0
LINE
  8
0
 10
8.53831
 20
150.949
 11
8.4783
 21
151.106
  0
LINE
  8
0
 10
8.4783
 20
151.106
 11
8.43495
 21
151.267
  0
LINE
  8
0
 10
8.43495
 20
151.267
 11
8.40875
 21
151.433
  0
LINE
  8
0
 10
8.40875
 20
151.433
 11
8.39999
 21
151.6
  0
LINE
  8
0
 10
8.39999
 20
151.6
 11
8.40875
 21
151.767
  0
LINE
  8
0
 10
8.40875
 20
151.767
 11
8.43495
 21
151.933
  0
LINE
  8
0
 10
8.43495
 20
151.933
 11
8.4783
 21
152.094
  0
LINE
  8
0
 10
8.4783
 20
152.094
 11
8.53831
 21
152.251
  0
LINE
  8
0
 10
8.53831
 20
152.251
 11
8.61435
 21
152.4
  0
LINE
  8
0
 10
8.61435
 20
152.4
 11
8.70557
 21
152.54
  0
LINE
  8
0
 10
8.70557
 20
152.54
 11
8.81096
 21
152.671
  0
LINE
  8
0
 10
8.81096
 20
152.671
 11
8.92938
 21
152.789
  0
LINE
  8
0
 10
8.92938
 20
152.789
 11
9.05954
 21
152.894
  0
LINE
  8
0
 10
9.05954
 20
152.894
 11
9.2
 21
152.986
  0
LINE
  8
0
 10
9.2
 20
152.986
 11
9.34921
 21
153.062
  0
LINE
  8
0
 10
9.34921
 20
153.062
 11
9.50557
 21
153.122
  0
LINE
  8
0
 10
9.50557
 20
153.122
 11
9.66733
 21
153.165
  0
LINE
  8
0
 10
9.66733
 20
153.165
 11
9.83275
 21
153.191
  0
LINE
  8
0
 10
9.83275
 20
153.191
 11
10
 21
153.2
  0
LINE
  8
0
 10
10
 20
153.2
 11
10.1672
 21
153.191
  0
LINE
  8
0
 10
10.1672
 20
153.191
 11
10.3327
 21
153.165
  0
LINE
  8
0
 10
10.3327
 20
153.165
 11
10.4944
 21
153.122
  0
LINE
  8
0
 10
10.4944
 20
153.122
 11
10.6508
 21
153.062
  0
LINE
  8
0
 10
10.6508
 20
153.062
 11
10.8
 21
152.986
  0
LINE
  8
0
 10
10.8
 20
152.986
 11
10.9404
 21
152.894
  0
LINE
  8
0
 10
10.9404
 20
152.894
 11
11.0706
 21
152.789
  0
LINE
  8
0
 10
11.0706
 20
152.789
 11
11.189
 21
152.671
  0
LINE
  8
0
 10
11.189
 20
152.671
 11
11.2944
 21
152.54
  0
LINE
  8
0
 10
11.2944
 20
152.54
 11
11.3856
 21
152.4
  0
LINE
  8
0
 10
11.3856
 20
152.4
 11
11.4617
 21
152.251
  0
LINE
  8
0
 10
11.4617
 20
152.251
 11
11.5217
 21
152.094
  0
LINE
  8
0
 10
11.5217
 20
152.094
 11
11.565
 21
151.933
  0
LINE
  8
0
 10
11.565
 20
151.933
 11
11.5912
 21
151.767
  0
LINE
  8
0
 10
11.5912
 20
151.767
 11
11.6
 21
151.6
  0
LINE
  8
0
 10
11.6
 20
151.6
 11
11.5912
 21
151.433
  0
LINE
  8
0
 10
11.5912
 20
151.433
 11
11.565
 21
151.267
  0
LINE
  8
0
 10
11.565
 20
151.267
 11
11.5217
 21
151.106
  0
LINE
  8
0
 10
11.5217
 20
151.106
 11
11.4617
 21
150.949
  0
LINE
  8
0
 10
11.4617
 20
150.949
 11
11.3856
 21
150.8
  0
LINE
  8
0
 10
11.3856
 20
150.8
 11
11.2944
 21
150.66
  0
LINE
  8
0
 10
11.2944
 20
150.66
 11
11.189
 21
150.529
  0
LINE
  8
0
 10
11.189
 20
150.529
 11
11.0706
 21
150.411
  0
LINE
  8
0
 10
11.0706
 20
150.411
 11
10.9404
 21
150.306
  0
LINE
  8
0
 10
10.9404
 20
150.306
 11
10.8
 21
150.214
  0
LINE
  8
0
 10
10.8
 20
150.214
 11
10.6508
 21
150.138
  0
LINE
  8
0
 10
10.6508
 20
150.138
 11
10.4944
 21
150.078
  0
LINE
  8
0
 10
10.4944
 20
150.078
 11
10.3327
 21
150.035
  0
LINE
  8
0
 10
10.3327
 20
150.035
 11
10.1672
 21
150.009
  0
LINE
  8
0
 10
10.1672
 20
150.009
 11
10
 21
150
  0
LINE
  8
0
 10
10
 20
150
 11
9.83275
 21
150.009
  0
LINE
  8
0
 10
47.5
 20
117.1
 11
47.5
 21
138.1
  0
LINE
  8
0
 10
47.5
 20
138.1
 11
61.5
 21
138.1
  0
LINE
  8
0
 10
61.5
 20
138.1
 11
61.5
 21
117.1
  0
LINE
  8
0
 10
61.5
 20
117.1
 11
47.5
 21
117.1
  0
LINE
  8
0
 10
9.83275
 20
100.009
 11
9.66733
 21
100.035
  0
LINE
  8
0
 10
9.66733
 20
100.035
 11
9.50557
 21
100.078
  0
LINE
  8
0
 10
9.50557
 20
100.078
 11
9.34921
 21
100.138
  0
LINE
  8
0
 10
9.34921
 20
100.138
 11
9.2
 21
100.214
  0
LINE
  8
0
 10
9.2
 20
100.214
 11
9.05954
 21
100.306
  0
LINE
  8
0
 10
9.05954
 20
100.306
 11
8.92938
 21
100.411
  0
LINE
  8
0
 10
8.92938
 20
100.411
 11
8.81096
 21
100.529
  0
LINE
  8
0
 10
8.81096
 20
100.529
 11
8.70557
 21
100.66
  0
LINE
  8
0
 10
8.70557
 20
100.66
 11
8.61435
 21
100.8
  0
LINE
  8
0
 10
8.61435
 20
100.8
 11
8.53831
 21
100.949
  0
LINE
  8
0
 10
8.53831
 20
100.949
 11
8.4783
 21
101.106
  0
LINE
  8
0
 10
8.4783
 20
101.106
 11
8.43495
 21
101.267
  0
LINE
  8
0
 10
8.43495
 20
101.267
 11
8.40875
 21
101.433
  0
LINE
  8
0
 10
8.40875
 20
101.433
 11
8.39999
 21
101.6
  0
LINE
  8
0
 10
8.39999
 20
101.6
 11
8.40875
 21
101.767
  0
LINE
  8
0
 10
8.40875
 20
101.767
 11
8.43495
 21
101.933
  0
LINE
  8
0
 10
8.43495
 20
101.933
 11
8.4783
 21
102.094
  0
LINE
  8
0
 10
8.4783
 20
102.094
 11
8.53831
 21
102.251
  0
LINE
  8
0
 10
8.53831
 20
102.251
 11
8.61435
 21
102.4
  0
LINE
  8
0
 10
8.61435
 20
102.4
 11
8.70557
 21
102.54
  0
LINE
  8
0
 10
8.70557
 20
102.54
 11
8.81096
 21
102.671
  0
LINE
  8
0
 10
8.81096
 20
102.671
 11
8.92938
 21
102.789
  0
LINE
  8
0
 10
8.92938
 20
102.789
 11
9.05954
 21
102.894
  0
LINE
  8
0
 10
9.05954
 20
102.894
 11
9.2
 21
102.986
  0
LINE
  8
0
 10
9.2
 20
102.986
 11
9.34921
 21
103.062
  0
LINE
  8
0
 10
9.34921
 20
103.062
 11
9.50557
 21
103.122
  0
LINE
  8
0
 10
9.50557
 20
103.122
 11
9.66733
 21
103.165
  0
LINE
  8
0
 10
9.66733
 20
103.165
 11
9.83275
 21
103.191
  0
LINE
  8
0
 10
9.83275
 20
103.191
 11
10
 21
103.2
  0
LINE
  8
0
 10
10
 20
103.2
 11
10.1672
 21
103.191
  0
LINE
  8
0
 10
10.1672
 20
103.191
 11
10.3327
 21
103.165
  0
LINE
  8
0
 10
10.3327
 20
103.165
 11
10.4944
 21
103.122
  0
LINE
  8
0
 10
10.4944
 20
103.122
 11
10.6508
 21
103.062
  0
LINE
  8
0
 10
10.6508
 20
103.062
 11
10.8
 21
102.986
  0
LINE
  8
0
 10
10.8
 20
102.986
 11
10.9404
 21
102.894
  0
LINE
  8
0
 10
10.9404
 20
102.894
 11
11.0706
 21
102.789
  0
LINE
  8
0
 10
11.0706
 20
102.789
 11
11.189
 21
102.671
  0
LINE
  8
0
 10
11.189
 20
102.671
 11
11.2944
 21
102.54
  0
LINE
  8
0
 10
11.2944
 20
102.54
 11
11.3856
 21
102.4
  0
LINE
  8
0
 10
11.3856
 20
102.4
 11
11.4617
 21
102.251
  0
LINE
  8
0
 10
11.4617
 20
102.251
 11
11.5217
 21
102.094
  0
LINE
  8
0
 10
11.5217
 20
102.094
 11
11.565
 21
101.933
  0
LINE
  8
0
 10
11.565
 20
101.933
 11
11.5912
 21
101.767
  0
LINE
  8
0
 10
11.5912
 20
101.767
 11
11.6
 21
101.6
  0
LINE
  8
0
 10
11.6
 20
101.6
 11
11.5912
 21
101.433
  0
LINE
  8
0
 10
11.5912
 20
101.433
 11
11.565
 21
101.267
  0
LINE
  8
0
 10
11.565
 20
101.267
 11
11.5217
 21
101.106
  0
LINE
  8
0
 10
11.5217
 20
101.106
 11
11.4617
 21
100.949
  0
LINE
  8
0
 10
11.4617
 20
100.949
 11
11.3856
 21
100.8
  0
LINE
  8
0
 10
11.3856
 20
100.8
 11
11.2944
 21
100.66
  0
LINE
  8
0
 10
11.2944
 20
100.66
 11
11.189
 21
100.529
  0
LINE
  8
0
 10
11.189
 20
100.529
 11
11.0706
 21
100.411
  0
LINE
  8
0
 10
11.0706
 20
100.411
 11
10.9404
 21
100.306
  0
LINE
  8
0
 10
10.9404
 20
100.306
 11
10.8
 21
100.214
  0
LINE
  8
0
 10
10.8
 20
100.214
 11
10.6508
 21
100.138
  0
LINE
  8
0
 10
10.6508
 20
100.138
 11
10.4944
 21
100.078
  0
LINE
  8
0
 10
10.4944
 20
100.078
 11
10.3327
 21
100.035
  0
LINE
  8
0
 10
10.3327
 20
100.035
 11
10.1672
 21
100.009
  0
LINE
  8
0
 10
10.1672
 20
100.009
 11
10
 21
100
  0
LINE
  8
0
 10
10
 20
100
 11
9.83275
 21
100.009
  0
LINE
  8
0
 10
79.8327
 20
100.009
 11
79.6673
 21
100.035
  0
LINE
  8
0
 10
79.6673
 20
100.035
 11
79.5056
 21
100.078
  0
LINE
  8
0
 10
79.5056
 20
100.078
 11
79.3492
 21
100.138
  0
LINE
  8
0
 10
79.3492
 20
100.138
 11
79.2
 21
100.214
  0
LINE
  8
0
 10
79.2
 20
100.214
 11
79.0595
 21
100.306
  0
LINE
  8
0
 10
79.0595
 20
100.306
 11
78.9294
 21
100.411
  0
LINE
  8
0
 10
78.9294
 20
100.411
 11
78.811
 21
100.529
  0
LINE
  8
0
 10
78.811
 20
100.529
 11
78.7056
 21
100.66
  0
LINE
  8
0
 10
78.7056
 20
100.66
 11
78.6143
 21
100.8
  0
LINE
  8
0
 10
78.6143
 20
100.8
 11
78.5383
 21
100.949
  0
LINE
  8
0
 10
78.5383
 20
100.949
 11
78.4783
 21
101.106
  0
LINE
  8
0
 10
78.4783
 20
101.106
 11
78.435
 21
101.267
  0
LINE
  8
0
 10
78.435
 20
101.267
 11
78.4088
 21
101.433
  0
LINE
  8
0
 10
78.4088
 20
101.433
 11
78.4
 21
101.6
  0
LINE
  8
0
 10
78.4
 20
101.6
 11
78.4088
 21
101.767
  0
LINE
  8
0
 10
78.4088
 20
101.767
 11
78.435
 21
101.933
  0
LINE
  8
0
 10
78.435
 20
101.933
 11
78.4783
 21
102.094
  0
LINE
  8
0
 10
78.4783
 20
102.094
 11
78.5383
 21
102.251
  0
LINE
  8
0
 10
78.5383
 20
102.251
 11
78.6143
 21
102.4
  0
LINE
  8
0
 10
78.6143
 20
102.4
 11
78.7056
 21
102.54
  0
LINE
  8
0
 10
78.7056
 20
102.54
 11
78.811
 21
102.671
  0
LINE
  8
0
 10
78.811
 20
102.671
 11
78.9294
 21
102.789
  0
LINE
  8
0
 10
78.9294
 20
102.789
 11
79.0595
 21
102.894
  0
LINE
  8
0
 10
79.0595
 20
102.894
 11
79.2
 21
102.986
  0
LINE
  8
0
 10
79.2
 20
102.986
 11
79.3492
 21
103.062
  0
LINE
  8
0
 10
79.3492
 20
103.062
 11
79.5056
 21
103.122
  0
LINE
  8
0
 10
79.5056
 20
103.122
 11
79.6673
 21
103.165
  0
LINE
  8
0
 10
79.6673
 20
103.165
 11
79.8327
 21
103.191
  0
LINE
  8
0
 10
79.8327
 20
103.191
 11
80
 21
103.2
  0
LINE
  8
0
 10
80
 20
103.2
 11
80.1672
 21
103.191
  0
LINE
  8
0
 10
80.1672
 20
103.191
 11
80.3327
 21
103.165
  0
LINE
  8
0
 10
80.3327
 20
103.165
 11
80.4944
 21
103.122
  0
LINE
  8
0
 10
80.4944
 20
103.122
 11
80.6508
 21
103.062
  0
LINE
  8
0
 10
80.6508
 20
103.062
 11
80.8
 21
102.986
  0
LINE
  8
0
 10
80.8
 20
102.986
 11
80.9405
 21
102.894
  0
LINE
  8
0
 10
80.9405
 20
102.894
 11
81.0706
 21
102.789
  0
LINE
  8
0
 10
81.0706
 20
102.789
 11
81.189
 21
102.671
  0
LINE
  8
0
 10
81.189
 20
102.671
 11
81.2944
 21
102.54
  0
LINE
  8
0
 10
81.2944
 20
102.54
 11
81.3856
 21
102.4
  0
LINE
  8
0
 10
81.3856
 20
102.4
 11
81.4617
 21
102.251
  0
LINE
  8
0
 10
81.4617
 20
102.251
 11
81.5217
 21
102.094
  0
LINE
  8
0
 10
81.5217
 20
102.094
 11
81.565
 21
101.933
  0
LINE
  8
0
 10
81.565
 20
101.933
 11
81.5912
 21
101.767
  0
LINE
  8
0
 10
81.5912
 20
101.767
 11
81.6
 21
101.6
  0
LINE
  8
0
 10
81.6
 20
101.6
 11
81.5912
 21
101.433
  0
LINE
  8
0
 10
81.5912
 20
101.433
 11
81.565
 21
101.267
  0
LINE
  8
0
 10
81.565
 20
101.267
 11
81.5217
 21
101.106
  0
LINE
  8
0
 10
81.5217
 20
101.106
 11
81.4617
 21
100.949
  0
LINE
  8
0
 10
81.4617
 20
100.949
 11
81.3856
 21
100.8
  0
LINE
  8
0
 10
81.3856
 20
100.8
 11
81.2944
 21
100.66
  0
LINE
  8
0
 10
81.2944
 20
100.66
 11
81.189
 21
100.529
  0
LINE
  8
0
 10
81.189
 20
100.529
 11
81.0706
 21
100.411
  0
LINE
  8
0
 10
81.0706
 20
100.411
 11
80.9405
 21
100.306
  0
LINE
  8
0
 10
80.9405
 20
100.306
 11
80.8
 21
100.214
  0
LINE
  8
0
 10
80.8
 20
100.214
 11
80.6508
 21
100.138
  0
LINE
  8
0
 10
80.6508
 20
100.138
 11
80.4944
 21
100.078
  0
LINE
  8
0
 10
80.4944
 20
100.078
 11
80.3327
 21
100.035
  0
LINE
  8
0
 10
80.3327
 20
100.035
 11
80.1672
 21
100.009
  0
LINE
  8
0
 10
80.1672
 20
100.009
 11
80
 21
100
  0
LINE
  8
0
 10
80
 20
100
 11
79.8327
 21
100.009
  0
LINE
  8
0
 10
119.833
 20
100.009
 11
119.667
 21
100.035
  0
LINE
  8
0
 10
119.667
 20
100.035
 11
119.506
 21
100.078
  0
LINE
  8
0
 10
119.506
 20
100.078
 11
119.349
 21
100.138
  0
LINE
  8
0
 10
119.349
 20
100.138
 11
119.2
 21
100.214
  0
LINE
  8
0
 10
119.2
 20
100.214
 11
119.06
 21
100.306
  0
LINE
  8
0
 10
119.06
 20
100.306
 11
118.929
 21
100.411
  0
LINE
  8
0
 10
118.929
 20
100.411
 11
118.811
 21
100.529
  0
LINE
  8
0
 10
118.811
 20
100.529
 11
118.706
 21
100.66
  0
LINE
  8
0
 10
118.706
 20
100.66
 11
118.614
 21
100.8
  0
LINE
  8
0
 10
118.614
 20
100.8
 11
118.538
 21
100.949
  0
LINE
  8
0
 10
118.538
 20
100.949
 11
118.478
 21
101.106
  0
LINE
  8
0
 10
118.478
 20
101.106
 11
118.435
 21
101.267
  0
LINE
  8
0
 10
118.435
 20
101.267
 11
118.409
 21
101.433
  0
LINE
  8
0
 10
118.409
 20
101.433
 11
118.4
 21
101.6
  0
LINE
  8
0
 10
118.4
 20
101.6
 11
118.409
 21
101.767
  0
LINE
  8
0
 10
118.409
 20
101.767
 11
118.435
 21
101.933
  0
LINE
  8
0
 10
118.435
 20
101.933
 11
118.478
 21
102.094
  0
LINE
  8
0
 10
118.478
 20
102.094
 11
118.538
 21
102.251
  0
LINE
  8
0
 10
118.538
 20
102.251
 11
118.614
 21
102.4
  0
LINE
  8
0
 10
118.614
 20
102.4
 11
118.706
 21
102.54
  0
LINE
  8
0
 10
118.706
 20
102.54
 11
118.811
 21
102.671
  0
LINE
  8
0
 10
118.811
 20
102.671
 11
118.929
 21
102.789
  0
LINE
  8
0
 10
118.929
 20
102.789
 11
119.06
 21
102.894
  0
LINE
  8
0
 10
119.06
 20
102.894
 11
119.2
 21
102.986
  0
LINE
  8
0
 10
119.2
 20
102.986
 11
119.349
 21
103.062
  0
LINE
  8
0
 10
119.349
 20
103.062
 11
119.506
 21
103.122
  0
LINE
  8
0
 10
119.506
 20
103.122
 11
119.667
 21
103.165
  0
LINE
  8
0
 10
119.667
 20
103.165
 11
119.833
 21
103.191
  0
LINE
  8
0
 10
119.833
 20
103.191
 11
120
 21
103.2
  0
LINE
  8
0
 10
120
 20
103.2
 11
120.167
 21
103.191
  0
LINE
  8
0
 10
120.167
 20
103.191
 11
120.333
 21
103.165
  0
LINE
  8
0
 10
120.333
 20
103.165
 11
120.494
 21
103.122
  0
LINE
  8
0
 10
120.494
 20
103.122
 11
120.651
 21
103.062
  0
LINE
  8
0
 10
120.651
 20
103.062
 11
120.8
 21
102.986
  0
LINE
  8
0
 10
120.8
 20
102.986
 11
120.94
 21
102.894
  0
LINE
  8
0
 10
120.94
 20
102.894
 11
121.071
 21
102.789
  0
LINE
  8
0
 10
121.071
 20
102.789
 11
121.189
 21
102.671
  0
LINE
  8
0
 10
121.189
 20
102.671
 11
121.294
 21
102.54
  0
LINE
  8
0
 10
121.294
 20
102.54
 11
121.386
 21
102.4
  0
LINE
  8
0
 10
121.386
 20
102.4
 11
121.462
 21
102.251
  0
LINE
  8
0
 10
121.462
 20
102.251
 11
121.522
 21
102.094
  0
LINE
  8
0
 10
121.522
 20
102.094
 11
121.565
 21
101.933
  0
LINE
  8
0
 10
121.565
 20
101.933
 11
121.591
 21
101.767
  0
LINE
  8
0
 10
121.591
 20
101.767
 11
121.6
 21
101.6
  0
LINE
  8
0
 10
121.6
 20
101.6
 11
121.591
 21
101.433
  0
LINE
  8
0
 10
121.591
 20
101.433
 11
121.565
 21
101.267
  0
LINE
  8
0
 10
121.565
 20
101.267
 11
121.522
 21
101.106
  0
LINE
  8
0
 10
121.522
 20
101.106
 11
121.462
 21
100.949
  0
LINE
  8
0
 10
121.462
 20
100.949
 11
121.386
 21
100.8
  0
LINE
  8
0
 10
121.386
 20
100.8
 11
121.294
 21
100.66
  0
LINE
  8
0
 10
121.294
 20
100.66
 11
121.189
 21
100.529
  0
LINE
  8
0
 10
121.189
 20
100.529
 11
121.071
 21
100.411
  0
LINE
  8
0
 10
121.071
 20
100.411
 11
120.94
 21
100.306
  0
LINE
  8
0
 10
120.94
 20
100.306
 11
120.8
 21
100.214
  0
LINE
  8
0
 10
120.8
 20
100.214
 11
120.651
 21
100.138
  0
LINE
  8
0
 10
120.651
 20
100.138
 11
120.494
 21
100.078
  0
LINE
  8
0
 10
120.494
 20
100.078
 11
120.333
 21
100.035
  0
LINE
  8
0
 10
120.333
 20
100.035
 11
120.167
 21
100.009
  0
LINE
  8
0
 10
120.167
 20
100.009
 11
120
 21
100
  0
LINE
  8
0
 10
120
 20
100
 11
119.833
 21
100.009
  0
LINE
  8
0
 10
159.6
 20
86.6
 11
212.6
 21
86.6
  0
LINE
  8
0
 10
212.6
 20
86.6
 11
212.6
 21
83.6
  0
LINE
  8
0
 10
212.6
 20
83.6
 11
215.6
 21
83.6
  0
LINE
  8
0
 10
215.6
 20
83.6
 11
215.6
 21
86.6
  0
LINE
  8
0
 10
215.6
 20
86.6
 11
274.6
 21
86.6
  0
LINE
  8
0
 10
274.6
 20
86.6
 11
274.6
 21
83.6
  0
LINE
  8
0
 10
274.6
 20
83.6
 11
277.6
 21
83.6
  0
LINE
  8
0
 10
277.6
 20
83.6
 11
277.6
 21
86.6
  0
LINE
  8
0
 10
277.6
 20
86.6
 11
333.6
 21
86.6
  0
LINE
  8
0
 10
333.6
 20
86.6
 11
333.6
 21
83.6
  0
LINE
  8
0
 10
333.6
 20
83.6
 11
336.6
 21
83.6
  0
LINE
  8
0
 10
336.6
 20
83.6
 11
336.6
 21
86.6
  0
LINE
  8
0
 10
336.6
 20
86.6
 11
350.6
 21
86.6
  0
LINE
  8
0
 10
350.6
 20
86.6
 11
350.6
 21
97.1
  0
LINE
  8
0
 10
350.6
 20
97.1
 11
353.6
 21
97.1
  0
LINE
  8
0
 10
353.6
 20
97.1
 11
353.6
 21
100.1
  0
LINE
  8
0
 10
353.6
 20
100.1
 11
350.6
 21
100.1
  0
LINE
  8
0
 10
350.6
 20
100.1
 11
350.6
 21
122.35
  0
LINE
  8
0
 10
350.6
 20
122.35
 11
347.6
 21
122.35
  0
LINE
  8
0
 10
347.6
 20
122.35
 11
347.6
 21
119.35
  0
LINE
  8
0
 10
347.6
 20
119.35
 11
344.6
 21
119.35
  0
LINE
  8
0
 10
344.6
 20
119.35
 11
344.6
 21
122.35
  0
LINE
  8
0
 10
344.6
 20
122.35
 11
341.6
 21
122.35
  0
LINE
  8
0
 10
341.6
 20
122.35
 11
341.6
 21
125.35
  0
LINE
  8
0
 10
341.6
 20
125.35
 11
344.6
 21
125.35
  0
LINE
  8
0
 10
344.6
 20
125.35
 11
344.6
 21
128.35
  0
LINE
  8
0
 10
344.6
 20
128.35
 11
347.6
 21
128.35
  0
LINE
  8
0
 10
347.6
 20
128.35
 11
347.6
 21
125.35
  0
LINE
  8
0
 10
347.6
 20
125.35
 11
350.6
 21
125.35
  0
LINE
  8
0
 10
350.6
 20
125.35
 11
350.6
 21
148.6
  0
LINE
  8
0
 10
350.6
 20
148.6
 11
353.6
 21
148.6
  0
LINE
  8
0
 10
353.6
 20
148.6
 11
353.6
 21
151.6
  0
LINE
  8
0
 10
353.6
 20
151.6
 11
350.6
 21
151.6
  0
LINE
  8
0
 10
350.6
 20
151.6
 11
350.6
 21
161.1
  0
LINE
  8
0
 10
350.6
 20
161.1
 11
336.6
 21
161.1
  0
LINE
  8
0
 10
336.6
 20
161.1
 11
336.6
 21
164.1
  0
LINE
  8
0
 10
336.6
 20
164.1
 11
333.6
 21
164.1
  0
LINE
  8
0
 10
333.6
 20
164.1
 11
333.6
 21
161.1
  0
LINE
  8
0
 10
333.6
 20
161.1
 11
277.6
 21
161.1
  0
LINE
  8
0
 10
277.6
 20
161.1
 11
277.6
 21
164.1
  0
LINE
  8
0
 10
277.6
 20
164.1
 11
274.6
 21
164.1
  0
LINE
  8
0
 10
274.6
 20
164.1
 11
274.6
 21
161.1
  0
LINE
  8
0
 10
274.6
 20
161.1
 11
215.6
 21
161.1
  0
LINE
  8
0
 10
215.6
 20
161.1
 11
215.6
 21
164.1
  0
LINE
  8
0
 10
215.6
 20
164.1
 11
212.6
 21
164.1
  0
LINE
  8
0
 10
212.6
 20
164.1
 11
212.6
 21
161.1
  0
LINE
  8
0
 10
212.6
 20
161.1
 11
159.6
 21
161.1
  0
LINE
  8
0
 10
159.6
 20
161.1
 11
159.6
 21
164.1
  0
LINE
  8
0
 10
159.6
 20
164.1
 11
156.6
 21
164.1
  0
LINE
  8
0
 10
156.6
 20
164.1
 11
156.6
 21
161.1
  0
LINE
  8
0
 10
156.6
 20
161.1
 11
149.1
 21
161.1
  0
LINE
  8
0
 10
149.1
 20
161.1
 11
149.1
 21
151.788
  0
LINE
  8
0
 10
149.1
 20
151.788
 11
152.1
 21
151.788
  0
LINE
  8
0
 10
152.1
 20
151.788
 11
152.1
 21
142.475
  0
LINE
  8
0
 10
152.1
 20
142.475
 11
150.9
 21
142.475
  0
LINE
  8
0
 10
150.9
 20
142.475
 11
150.898
 21
142.506
  0
LINE
  8
0
 10
150.898
 20
142.506
 11
150.893
 21
142.537
  0
LINE
  8
0
 10
150.893
 20
142.537
 11
150.885
 21
142.568
  0
LINE
  8
0
 10
150.885
 20
142.568
 11
150.874
 21
142.597
  0
LINE
  8
0
 10
150.874
 20
142.597
 11
150.86
 21
142.625
  0
LINE
  8
0
 10
150.86
 20
142.625
 11
150.843
 21
142.651
  0
LINE
  8
0
 10
150.843
 20
142.651
 11
150.823
 21
142.676
  0
LINE
  8
0
 10
150.823
 20
142.676
 11
150.801
 21
142.698
  0
LINE
  8
0
 10
150.801
 20
142.698
 11
150.776
 21
142.718
  0
LINE
  8
0
 10
150.776
 20
142.718
 11
150.75
 21
142.735
  0
LINE
  8
0
 10
150.75
 20
142.735
 11
150.722
 21
142.749
  0
LINE
  8
0
 10
150.722
 20
142.749
 11
150.693
 21
142.76
  0
LINE
  8
0
 10
150.693
 20
142.76
 11
150.662
 21
142.768
  0
LINE
  8
0
 10
150.662
 20
142.768
 11
150.631
 21
142.773
  0
LINE
  8
0
 10
150.631
 20
142.773
 11
150.6
 21
142.775
  0
LINE
  8
0
 10
150.6
 20
142.775
 11
150.569
 21
142.773
  0
LINE
  8
0
 10
150.569
 20
142.773
 11
150.538
 21
142.768
  0
LINE
  8
0
 10
150.538
 20
142.768
 11
150.507
 21
142.76
  0
LINE
  8
0
 10
150.507
 20
142.76
 11
150.478
 21
142.749
  0
LINE
  8
0
 10
150.478
 20
142.749
 11
150.45
 21
142.735
  0
LINE
  8
0
 10
150.45
 20
142.735
 11
150.424
 21
142.718
  0
LINE
  8
0
 10
150.424
 20
142.718
 11
150.399
 21
142.698
  0
LINE
  8
0
 10
150.399
 20
142.698
 11
150.377
 21
142.676
  0
LINE
  8
0
 10
150.377
 20
142.676
 11
150.357
 21
142.651
  0
LINE
  8
0
 10
150.357
 20
142.651
 11
150.34
 21
142.625
  0
LINE
  8
0
 10
150.34
 20
142.625
 11
150.326
 21
142.597
  0
LINE
  8
0
 10
150.326
 20
142.597
 11
150.315
 21
142.568
  0
LINE
  8
0
 10
150.315
 20
142.568
 11
150.307
 21
142.537
  0
LINE
  8
0
 10
150.307
 20
142.537
 11
150.302
 21
142.506
  0
LINE
  8
0
 10
150.302
 20
142.506
 11
150.3
 21
142.475
  0
LINE
  8
0
 10
150.3
 20
142.475
 11
149.1
 21
142.475
  0
LINE
  8
0
 10
149.1
 20
142.475
 11
149.1
 21
133.163
  0
LINE
  8
0
 10
149.1
 20
133.163
 11
152.1
 21
133.163
  0
LINE
  8
0
 10
152.1
 20
133.163
 11
152.1
 21
123.85
  0
LINE
  8
0
 10
152.1
 20
123.85
 11
150.9
 21
123.85
  0
LINE
  8
0
 10
150.9
 20
123.85
 11
150.898
 21
123.881
  0
LINE
  8
0
 10
150.898
 20
123.881
 11
150.893
 21
123.912
  0
LINE
  8
0
 10
150.893
 20
123.912
 11
150.885
 21
123.943
  0
LINE
  8
0
 10
150.885
 20
123.943
 11
150.874
 21
123.972
  0
LINE
  8
0
 10
150.874
 20
123.972
 11
150.86
 21
124
  0
LINE
  8
0
 10
150.86
 20
124
 11
150.843
 21
124.026
  0
LINE
  8
0
 10
150.843
 20
124.026
 11
150.823
 21
124.051
  0
LINE
  8
0
 10
150.823
 20
124.051
 11
150.801
 21
124.073
  0
LINE
  8
0
 10
150.801
 20
124.073
 11
150.776
 21
124.093
  0
LINE
  8
0
 10
150.776
 20
124.093
 11
150.75
 21
124.11
  0
LINE
  8
0
 10
150.75
 20
124.11
 11
150.722
 21
124.124
  0
LINE
  8
0
 10
150.722
 20
124.124
 11
150.693
 21
124.135
  0
LINE
  8
0
 10
150.693
 20
124.135
 11
150.662
 21
124.143
  0
LINE
  8
0
 10
150.662
 20
124.143
 11
150.631
 21
124.148
  0
LINE
  8
0
 10
150.631
 20
124.148
 11
150.6
 21
124.15
  0
LINE
  8
0
 10
150.6
 20
124.15
 11
150.569
 21
124.148
  0
LINE
  8
0
 10
150.569
 20
124.148
 11
150.538
 21
124.143
  0
LINE
  8
0
 10
150.538
 20
124.143
 11
150.507
 21
124.135
  0
LINE
  8
0
 10
150.507
 20
124.135
 11
150.478
 21
124.124
  0
LINE
  8
0
 10
150.478
 20
124.124
 11
150.45
 21
124.11
  0
LINE
  8
0
 10
150.45
 20
124.11
 11
150.424
 21
124.093
  0
LINE
  8
0
 10
150.424
 20
124.093
 11
150.399
 21
124.073
  0
LINE
  8
0
 10
150.399
 20
124.073
 11
150.377
 21
124.051
  0
LINE
  8
0
 10
150.377
 20
124.051
 11
150.357
 21
124.026
  0
LINE
  8
0
 10
150.357
 20
124.026
 11
150.34
 21
124
  0
LINE
  8
0
 10
150.34
 20
124
 11
150.326
 21
123.972
  0
LINE
  8
0
 10
150.326
 20
123.972
 11
150.315
 21
123.943
  0
LINE
  8
0
 10
150.315
 20
123.943
 11
150.307
 21
123.912
  0
LINE
  8
0
 10
150.307
 20
123.912
 11
150.302
 21
123.881
  0
LINE
  8
0
 10
150.302
 20
123.881
 11
150.3
 21
123.85
  0
LINE
  8
0
 10
150.3
 20
123.85
 11
149.1
 21
123.85
  0
LINE
  8
0
 10
149.1
 20
123.85
 11
149.1
 21
114.537
  0
LINE
  8
0
 10
149.1
 20
114.537
 11
152.1
 21
114.537
  0
LINE
  8
0
 10
152.1
 20
114.537
 11
152.1
 21
105.225
  0
LINE
  8
0
 10
152.1
 20
105.225
 11
150.9
 21
105.225
  0
LINE
  8
0
 10
150.9
 20
105.225
 11
150.898
 21
105.256
  0
LINE
  8
0
 10
150.898
 20
105.256
 11
150.893
 21
105.287
  0
LINE
  8
0
 10
150.893
 20
105.287
 11
150.885
 21
105.318
  0
LINE
  8
0
 10
150.885
 20
105.318
 11
150.874
 21
105.347
  0
LINE
  8
0
 10
150.874
 20
105.347
 11
150.86
 21
105.375
  0
LINE
  8
0
 10
150.86
 20
105.375
 11
150.843
 21
105.401
  0
LINE
  8
0
 10
150.843
 20
105.401
 11
150.823
 21
105.426
  0
LINE
  8
0
 10
150.823
 20
105.426
 11
150.801
 21
105.448
  0
LINE
  8
0
 10
150.801
 20
105.448
 11
150.776
 21
105.468
  0
LINE
  8
0
 10
150.776
 20
105.468
 11
150.75
 21
105.485
  0
LINE
  8
0
 10
150.75
 20
105.485
 11
150.722
 21
105.499
  0
LINE
  8
0
 10
150.722
 20
105.499
 11
150.693
 21
105.51
  0
LINE
  8
0
 10
150.693
 20
105.51
 11
150.662
 21
105.518
  0
LINE
  8
0
 10
150.662
 20
105.518
 11
150.631
 21
105.523
  0
LINE
  8
0
 10
150.631
 20
105.523
 11
150.6
 21
105.525
  0
LINE
  8
0
 10
150.6
 20
105.525
 11
150.569
 21
105.523
  0
LINE
  8
0
 10
150.569
 20
105.523
 11
150.538
 21
105.518
  0
LINE
  8
0
 10
150.538
 20
105.518
 11
150.507
 21
105.51
  0
LINE
  8
0
 10
150.507
 20
105.51
 11
150.478
 21
105.499
  0
LINE
  8
0
 10
150.478
 20
105.499
 11
150.45
 21
105.485
  0
LINE
  8
0
 10
150.45
 20
105.485
 11
150.424
 21
105.468
  0
LINE
  8
0
 10
150.424
 20
105.468
 11
150.399
 21
105.448
  0
LINE
  8
0
 10
150.399
 20
105.448
 11
150.377
 21
105.426
  0
LINE
  8
0
 10
150.377
 20
105.426
 11
150.357
 21
105.401
  0
LINE
  8
0
 10
150.357
 20
105.401
 11
150.34
 21
105.375
  0
LINE
  8
0
 10
150.34
 20
105.375
 11
150.326
 21
105.347
  0
LINE
  8
0
 10
150.326
 20
105.347
 11
150.315
 21
105.318
  0
LINE
  8
0
 10
150.315
 20
105.318
 11
150.307
 21
105.287
  0
LINE
  8
0
 10
150.307
 20
105.287
 11
150.302
 21
105.256
  0
LINE
  8
0
 10
150.302
 20
105.256
 11
150.3
 21
105.225
  0
LINE
  8
0
 10
150.3
 20
105.225
 11
149.1
 21
105.225
  0
LINE
  8
0
 10
149.1
 20
105.225
 11
149.1
 21
95.9125
  0
LINE
  8
0
 10
149.1
 20
95.9125
 11
152.1
 21
95.9125
  0
LINE
  8
0
 10
152.1
 20
95.9125
 11
152.1
 21
86.6
  0
LINE
  8
0
 10
152.1
 20
86.6
 11
156.6
 21
86.6
  0
LINE
  8
0
 10
156.6
 20
86.6
 11
156.6
 21
83.6
  0
LINE
  8
0
 10
156.6
 20
83.6
 11
159.6
 21
83.6
  0
LINE
  8
0
 10
159.6
 20
83.6
 11
159.6
 21
86.6
  0
LINE
  8
0
 10
335.6
 20
136.6
 11
335.6
 21
146.6
  0
LINE
  8
0
 10
335.6
 20
146.6
 11
345.6
 21
146.6
  0
LINE
  8
0
 10
345.6
 20
146.6
 11
345.6
 21
136.6
  0
LINE
  8
0
 10
345.6
 20
136.6
 11
335.6
 21
136.6
  0
LINE
  8
0
 10
335.6
 20
96.6
 11
335.6
 21
106.6
  0
LINE
  8
0
 10
335.6
 20
106.6
 11
345.6
 21
106.6
  0
LINE
  8
0
 10
345.6
 20
106.6
 11
345.6
 21
96.6
  0
LINE
  8
0
 10
345.6
 20
96.6
 11
335.6
 21
96.6
  0
LINE
  8
0
 10
555.3
 20
150
 11
468.8
 21
150
  0
LINE
  8
0
 10
468.8
 20
150
 11
468.8
 21
0
  0
LINE
  8
0
 10
468.8
 20
0
 11
555.3
 21
0
  0
LINE
  8
0
 10
555.3
 20
0
 11
555.3
 21
150
  0
LINE
  8
0
 10
475.018
 20
141.315
 11
474.739
 21
141.359
  0
LINE
  8
0
 10
474.739
 20
141.359
 11
474.466
 21
141.432
  0
LINE
  8
0
 10
474.466
 20
141.432
 11
474.202
 21
141.533
  0
LINE
  8
0
 10
474.202
 20
141.533
 11
473.95
 21
141.662
  0
LINE
  8
0
 10
473.95
 20
141.662
 11
473.713
 21
141.816
  0
LINE
  8
0
 10
473.713
 20
141.816
 11
473.493
 21
141.994
  0
LINE
  8
0
 10
473.493
 20
141.994
 11
473.294
 21
142.193
  0
LINE
  8
0
 10
473.294
 20
142.193
 11
473.116
 21
142.413
  0
LINE
  8
0
 10
473.116
 20
142.413
 11
472.962
 21
142.65
  0
LINE
  8
0
 10
472.962
 20
142.65
 11
472.833
 21
142.902
  0
LINE
  8
0
 10
472.833
 20
142.902
 11
472.732
 21
143.166
  0
LINE
  8
0
 10
472.732
 20
143.166
 11
472.659
 21
143.439
  0
LINE
  8
0
 10
472.659
 20
143.439
 11
472.615
 21
143.718
  0
LINE
  8
0
 10
472.615
 20
143.718
 11
472.6
 21
144
  0
LINE
  8
0
 10
472.6
 20
144
 11
472.615
 21
144.282
  0
LINE
  8
0
 10
472.615
 20
144.282
 11
472.659
 21
144.561
  0
LINE
  8
0
 10
472.659
 20
144.561
 11
472.732
 21
144.834
  0
LINE
  8
0
 10
472.732
 20
144.834
 11
472.833
 21
145.098
  0
LINE
  8
0
 10
472.833
 20
145.098
 11
472.962
 21
145.35
  0
LINE
  8
0
 10
472.962
 20
145.35
 11
473.116
 21
145.587
  0
LINE
  8
0
 10
473.116
 20
145.587
 11
473.294
 21
145.807
  0
LINE
  8
0
 10
473.294
 20
145.807
 11
473.493
 21
146.006
  0
LINE
  8
0
 10
473.493
 20
146.006
 11
473.713
 21
146.184
  0
LINE
  8
0
 10
473.713
 20
146.184
 11
473.95
 21
146.338
  0
LINE
  8
0
 10
473.95
 20
146.338
 11
474.202
 21
146.467
  0
LINE
  8
0
 10
474.202
 20
146.467
 11
474.466
 21
146.568
  0
LINE
  8
0
 10
474.466
 20
146.568
 11
474.739
 21
146.641
  0
LINE
  8
0
 10
474.739
 20
146.641
 11
475.018
 21
146.685
  0
LINE
  8
0
 10
475.018
 20
146.685
 11
475.3
 21
146.7
  0
LINE
  8
0
 10
475.3
 20
146.7
 11
475.582
 21
146.685
  0
LINE
  8
0
 10
475.582
 20
146.685
 11
475.861
 21
146.641
  0
LINE
  8
0
 10
475.861
 20
146.641
 11
476.134
 21
146.568
  0
LINE
  8
0
 10
476.134
 20
146.568
 11
476.398
 21
146.467
  0
LINE
  8
0
 10
476.398
 20
146.467
 11
476.65
 21
146.338
  0
LINE
  8
0
 10
476.65
 20
146.338
 11
476.887
 21
146.184
  0
LINE
  8
0
 10
476.887
 20
146.184
 11
477.107
 21
146.006
  0
LINE
  8
0
 10
477.107
 20
146.006
 11
477.306
 21
145.807
  0
LINE
  8
0
 10
477.306
 20
145.807
 11
477.484
 21
145.587
  0
LINE
  8
0
 10
477.484
 20
145.587
 11
477.638
 21
145.35
  0
LINE
  8
0
 10
477.638
 20
145.35
 11
477.767
 21
145.098
  0
LINE
  8
0
 10
477.767
 20
145.098
 11
477.868
 21
144.834
  0
LINE
  8
0
 10
477.868
 20
144.834
 11
477.941
 21
144.561
  0
LINE
  8
0
 10
477.941
 20
144.561
 11
477.985
 21
144.282
  0
LINE
  8
0
 10
477.985
 20
144.282
 11
478
 21
144
  0
LINE
  8
0
 10
478
 20
144
 11
477.985
 21
143.718
  0
LINE
  8
0
 10
477.985
 20
143.718
 11
477.941
 21
143.439
  0
LINE
  8
0
 10
477.941
 20
143.439
 11
477.868
 21
143.166
  0
LINE
  8
0
 10
477.868
 20
143.166
 11
477.767
 21
142.902
  0
LINE
  8
0
 10
477.767
 20
142.902
 11
477.638
 21
142.65
  0
LINE
  8
0
 10
477.638
 20
142.65
 11
477.484
 21
142.413
  0
LINE
  8
0
 10
477.484
 20
142.413
 11
477.306
 21
142.193
  0
LINE
  8
0
 10
477.306
 20
142.193
 11
477.107
 21
141.994
  0
LINE
  8
0
 10
477.107
 20
141.994
 11
476.887
 21
141.816
  0
LINE
  8
0
 10
476.887
 20
141.816
 11
476.65
 21
141.662
  0
LINE
  8
0
 10
476.65
 20
141.662
 11
476.398
 21
141.533
  0
LINE
  8
0
 10
476.398
 20
141.533
 11
476.134
 21
141.432
  0
LINE
  8
0
 10
476.134
 20
141.432
 11
475.861
 21
141.359
  0
LINE
  8
0
 10
475.861
 20
141.359
 11
475.582
 21
141.315
  0
LINE
  8
0
 10
475.582
 20
141.315
 11
475.3
 21
141.3
  0
LINE
  8
0
 10
475.3
 20
141.3
 11
475.018
 21
141.315
  0
LINE
  8
0
 10
512.3
 20
105
 11
512.3
 21
145
  0
LINE
  8
0
 10
512.3
 20
145
 11
522.3
 21
145
  0
LINE
  8
0
 10
522.3
 20
145
 11
522.3
 21
105
  0
LINE
  8
0
 10
522.3
 20
105
 11
512.3
 21
105
  0
LINE
  8
0
 10
482.3
 20
105
 11
482.3
 21
135
  0
LINE
  8
0
 10
482.3
 20
135
 11
492.3
 21
135
  0
LINE
  8
0
 10
492.3
 20
135
 11
492.3
 21
105
  0
LINE
  8
0
 10
492.3
 20
105
 11
482.3
 21
105
  0
LINE
  8
0
 10
549.018
 20
117.315
 11
548.739
 21
117.359
  0
LINE
  8
0
 10
548.739
 20
117.359
 11
548.466
 21
117.432
  0
LINE
  8
0
 10
548.466
 20
117.432
 11
548.202
 21
117.533
  0
LINE
  8
0
 10
548.202
 20
117.533
 11
547.95
 21
117.662
  0
LINE
  8
0
 10
547.95
 20
117.662
 11
547.713
 21
117.816
  0
LINE
  8
0
 10
547.713
 20
117.816
 11
547.493
 21
117.993
  0
LINE
  8
0
 10
547.493
 20
117.993
 11
547.294
 21
118.193
  0
LINE
  8
0
 10
547.294
 20
118.193
 11
547.116
 21
118.413
  0
LINE
  8
0
 10
547.116
 20
118.413
 11
546.962
 21
118.65
  0
LINE
  8
0
 10
546.962
 20
118.65
 11
546.833
 21
118.902
  0
LINE
  8
0
 10
546.833
 20
118.902
 11
546.732
 21
119.166
  0
LINE
  8
0
 10
546.732
 20
119.166
 11
546.659
 21
119.439
  0
LINE
  8
0
 10
546.659
 20
119.439
 11
546.615
 21
119.718
  0
LINE
  8
0
 10
546.615
 20
119.718
 11
546.6
 21
120
  0
LINE
  8
0
 10
546.6
 20
120
 11
546.615
 21
120.282
  0
LINE
  8
0
 10
546.615
 20
120.282
 11
546.659
 21
120.561
  0
LINE
  8
0
 10
546.659
 20
120.561
 11
546.732
 21
120.834
  0
LINE
  8
0
 10
546.732
 20
120.834
 11
546.833
 21
121.098
  0
LINE
  8
0
 10
546.833
 20
121.098
 11
546.962
 21
121.35
  0
LINE
  8
0
 10
546.962
 20
121.35
 11
547.116
 21
121.587
  0
LINE
  8
0
 10
547.116
 20
121.587
 11
547.294
 21
121.807
  0
LINE
  8
0
 10
547.294
 20
121.807
 11
547.493
 21
122.006
  0
LINE
  8
0
 10
547.493
 20
122.006
 11
547.713
 21
122.184
  0
LINE
  8
0
 10
547.713
 20
122.184
 11
547.95
 21
122.338
  0
LINE
  8
0
 10
547.95
 20
122.338
 11
548.202
 21
122.467
  0
LINE
  8
0
 10
548.202
 20
122.467
 11
548.466
 21
122.568
  0
LINE
  8
0
 10
548.466
 20
122.568
 11
548.739
 21
122.641
  0
LINE
  8
0
 10
548.739
 20
122.641
 11
549.018
 21
122.685
  0
LINE
  8
0
 10
549.018
 20
122.685
 11
549.3
 21
122.7
  0
LINE
  8
0
 10
549.3
 20
122.7
 11
549.582
 21
122.685
  0
LINE
  8
0
 10
549.582
 20
122.685
 11
549.861
 21
122.641
  0
LINE
  8
0
 10
549.861
 20
122.641
 11
550.134
 21
122.568
  0
LINE
  8
0
 10
550.134
 20
122.568
 11
550.398
 21
122.467
  0
LINE
  8
0
 10
550.398
 20
122.467
 11
550.65
 21
122.338
  0
LINE
  8
0
 10
550.65
 20
122.338
 11
550.887
 21
122.184
  0
LINE
  8
0
 10
550.887
 20
122.184
 11
551.107
 21
122.006
  0
LINE
  8
0
 10
551.107
 20
122.006
 11
551.307
 21
121.807
  0
LINE
  8
0
 10
551.307
 20
121.807
 11
551.484
 21
121.587
  0
LINE
  8
0
 10
551.484
 20
121.587
 11
551.638
 21
121.35
  0
LINE
  8
0
 10
551.638
 20
121.35
 11
551.767
 21
121.098
  0
LINE
  8
0
 10
551.767
 20
121.098
 11
551.868
 21
120.834
  0
LINE
  8
0
 10
551.868
 20
120.834
 11
551.941
 21
120.561
  0
LINE
  8
0
 10
551.941
 20
120.561
 11
551.985
 21
120.282
  0
LINE
  8
0
 10
551.985
 20
120.282
 11
552
 21
120
  0
LINE
  8
0
 10
552
 20
120
 11
551.985
 21
119.718
  0
LINE
  8
0
 10
551.985
 20
119.718
 11
551.941
 21
119.439
  0
LINE
  8
0
 10
551.941
 20
119.439
 11
551.868
 21
119.166
  0
LINE
  8
0
 10
551.868
 20
119.166
 11
551.767
 21
118.902
  0
LINE
  8
0
 10
551.767
 20
118.902
 11
551.638
 21
118.65
  0
LINE
  8
0
 10
551.638
 20
118.65
 11
551.484
 21
118.413
  0
LINE
  8
0
 10
551.484
 20
118.413
 11
551.307
 21
118.193
  0
LINE
  8
0
 10
551.307
 20
118.193
 11
551.107
 21
117.993
  0
LINE
  8
0
 10
551.107
 20
117.993
 11
550.887
 21
117.816
  0
LINE
  8
0
 10
550.887
 20
117.816
 11
550.65
 21
117.662
  0
LINE
  8
0
 10
550.65
 20
117.662
 11
550.398
 21
117.533
  0
LINE
  8
0
 10
550.398
 20
117.533
 11
550.134
 21
117.432
  0
LINE
  8
0
 10
550.134
 20
117.432
 11
549.861
 21
117.359
  0
LINE
  8
0
 10
549.861
 20
117.359
 11
549.582
 21
117.315
  0
LINE
  8
0
 10
549.582
 20
117.315
 11
549.3
 21
117.3
  0
LINE
  8
0
 10
549.3
 20
117.3
 11
549.018
 21
117.315
  0
LINE
  8
0
 10
474.8
 20
12
 11
474.8
 21
97
  0
LINE
  8
0
 10
474.8
 20
97
 11
549.3
 21
97
  0
LINE
  8
0
 10
549.3
 20
97
 11
549.3
 21
12
  0
LINE
  8
0
 10
549.3
 20
12
 11
474.8
 21
12
  0
LINE
  8
0
 10
475.018
 20
3.31479
 11
474.739
 21
3.35899
  0
LINE
  8
0
 10
474.739
 20
3.35899
 11
474.466
 21
3.43214
  0
LINE
  8
0
 10
474.466
 20
3.43214
 11
474.202
 21
3.53342
  0
LINE
  8
0
 10
474.202
 20
3.53342
 11
473.95
 21
3.66173
  0
LINE
  8
0
 10
473.95
 20
3.66173
 11
473.713
 21
3.81564
  0
LINE
  8
0
 10
473.713
 20
3.81564
 11
473.493
 21
3.9935
  0
LINE
  8
0
 10
473.493
 20
3.9935
 11
473.294
 21
4.19334
  0
LINE
  8
0
 10
473.294
 20
4.19334
 11
473.116
 21
4.41298
  0
LINE
  8
0
 10
473.116
 20
4.41298
 11
472.962
 21
4.64999
  0
LINE
  8
0
 10
472.962
 20
4.64999
 11
472.833
 21
4.90181
  0
LINE
  8
0
 10
472.833
 20
4.90181
 11
472.732
 21
5.16565
  0
LINE
  8
0
 10
472.732
 20
5.16565
 11
472.659
 21
5.43863
  0
LINE
  8
0
 10
472.659
 20
5.43863
 11
472.615
 21
5.71776
  0
LINE
  8
0
 10
472.615
 20
5.71776
 11
472.6
 21
6
  0
LINE
  8
0
 10
472.6
 20
6
 11
472.615
 21
6.28223
  0
LINE
  8
0
 10
472.615
 20
6.28223
 11
472.659
 21
6.56136
  0
LINE
  8
0
 10
472.659
 20
6.56136
 11
472.732
 21
6.83434
  0
LINE
  8
0
 10
472.732
 20
6.83434
 11
472.833
 21
7.09818
  0
LINE
  8
0
 10
472.833
 20
7.09818
 11
472.962
 21
7.34999
  0
LINE
  8
0
 10
472.962
 20
7.34999
 11
473.116
 21
7.58701
  0
LINE
  8
0
 10
473.116
 20
7.58701
 11
473.294
 21
7.80664
  0
LINE
  8
0
 10
473.294
 20
7.80664
 11
473.493
 21
8.00648
  0
LINE
  8
0
 10
473.493
 20
8.00648
 11
473.713
 21
8.18434
  0
LINE
  8
0
 10
473.713
 20
8.18434
 11
473.95
 21
8.33826
  0
LINE
  8
0
 10
473.95
 20
8.33826
 11
474.202
 21
8.46657
  0
LINE
  8
0
 10
474.202
 20
8.46657
 11
474.466
 21
8.56784
  0
LINE
  8
0
 10
474.466
 20
8.56784
 11
474.739
 21
8.64099
  0
LINE
  8
0
 10
474.739
 20
8.64099
 11
475.018
 21
8.6852
  0
LINE
  8
0
 10
475.018
 20
8.6852
 11
475.3
 21
8.7
  0
LINE
  8
0
 10
475.3
 20
8.7
 11
475.582
 21
8.6852
  0
LINE
  8
0
 10
475.582
 20
8.6852
 11
475.861
 21
8.64099
  0
LINE
  8
0
 10
475.861
 20
8.64099
 11
476.134
 21
8.56784
  0
LINE
  8
0
 10
476.134
 20
8.56784
 11
476.398
 21
8.46657
  0
LINE
  8
0
 10
476.398
 20
8.46657
 11
476.65
 21
8.33826
  0
LINE
  8
0
 10
476.65
 20
8.33826
 11
476.887
 21
8.18434
  0
LINE
  8
0
 10
476.887
 20
8.18434
 11
477.107
 21
8.00648
  0
LINE
  8
0
 10
477.107
 20
8.00648
 11
477.306
 21
7.80664
  0
LINE
  8
0
 10
477.306
 20
7.80664
 11
477.484
 21
7.58701
  0
LINE
  8
0
 10
477.484
 20
7.58701
 11
477.638
 21
7.34999
  0
LINE
  8
0
 10
477.638
 20
7.34999
 11
477.767
 21
7.09818
  0
LINE
  8
0
 10
477.767
 20
7.09818
 11
477.868
 21
6.83434
  0
LINE
  8
0
 10
477.868
 20
6.83434
 11
477.941
 21
6.56136
  0
LINE
  8
0
 10
477.941
 20
6.56136
 11
477.985
 21
6.28223
  0
LINE
  8
0
 10
477.985
 20
6.28223
 11
478
 21
6
  0
LINE
  8
0
 10
478
 20
6
 11
477.985
 21
5.71776
  0
LINE
  8
0
 10
477.985
 20
5.71776
 11
477.941
 21
5.43863
  0
LINE
  8
0
 10
477.941
 20
5.43863
 11
477.868
 21
5.16565
  0
LINE
  8
0
 10
477.868
 20
5.16565
 11
477.767
 21
4.90181
  0
LINE
  8
0
 10
477.767
 20
4.90181
 11
477.638
 21
4.64999
  0
LINE
  8
0
 10
477.638
 20
4.64999
 11
477.484
 21
4.41298
  0
LINE
  8
0
 10
477.484
 20
4.41298
 11
477.306
 21
4.19334
  0
LINE
  8
0
 10
477.306
 20
4.19334
 11
477.107
 21
3.9935
  0
LINE
  8
0
 10
477.107
 20
3.9935
 11
476.887
 21
3.81564
  0
LINE
  8
0
 10
476.887
 20
3.81564
 11
476.65
 21
3.66173
  0
LINE
  8
0
 10
476.65
 20
3.66173
 11
476.398
 21
3.53342
  0
LINE
  8
0
 10
476.398
 20
3.53342
 11
476.134
 21
3.43214
  0
LINE
  8
0
 10
476.134
 20
3.43214
 11
475.861
 21
3.35899
  0
LINE
  8
0
 10
475.861
 20
3.35899
 11
475.582
 21
3.31479
  0
LINE
  8
0
 10
475.582
 20
3.31479
 11
475.3
 21
3.29999
  0
LINE
  8
0
 10
475.3
 20
3.29999
 11
475.018
 21
3.31479
  0
LINE
  8
0
 10
539.018
 20
3.31479
 11
538.739
 21
3.35899
  0
LINE
  8
0
 10
538.739
 20
3.35899
 11
538.466
 21
3.43214
  0
LINE
  8
0
 10
538.466
 20
3.43214
 11
538.202
 21
3.53342
  0
LINE
  8
0
 10
538.202
 20
3.53342
 11
537.95
 21
3.66173
  0
LINE
  8
0
 10
537.95
 20
3.66173
 11
537.713
 21
3.81564
  0
LINE
  8
0
 10
537.713
 20
3.81564
 11
537.493
 21
3.9935
  0
LINE
  8
0
 10
537.493
 20
3.9935
 11
537.294
 21
4.19334
  0
LINE
  8
0
 10
537.294
 20
4.19334
 11
537.116
 21
4.41298
  0
LINE
  8
0
 10
537.116
 20
4.41298
 11
536.962
 21
4.64999
  0
LINE
  8
0
 10
536.962
 20
4.64999
 11
536.833
 21
4.90181
  0
LINE
  8
0
 10
536.833
 20
4.90181
 11
536.732
 21
5.16565
  0
LINE
  8
0
 10
536.732
 20
5.16565
 11
536.659
 21
5.43863
  0
LINE
  8
0
 10
536.659
 20
5.43863
 11
536.615
 21
5.71776
  0
LINE
  8
0
 10
536.615
 20
5.71776
 11
536.6
 21
6
  0
LINE
  8
0
 10
536.6
 20
6
 11
536.615
 21
6.28223
  0
LINE
  8
0
 10
536.615
 20
6.28223
 11
536.659
 21
6.56136
  0
LINE
  8
0
 10
536.659
 20
6.56136
 11
536.732
 21
6.83434
  0
LINE
  8
0
 10
536.732
 20
6.83434
 11
536.833
 21
7.09818
  0
LINE
  8
0
 10
536.833
 20
7.09818
 11
536.962
 21
7.34999
  0
LINE
  8
0
 10
536.962
 20
7.34999
 11
537.116
 21
7.58701
  0
LINE
  8
0
 10
537.116
 20
7.58701
 11
537.294
 21
7.80664
  0
LINE
  8
0
 10
537.294
 20
7.80664
 11
537.493
 21
8.00648
  0
LINE
  8
0
 10
537.493
 20
8.00648
 11
537.713
 21
8.18434
  0
LINE
  8
0
 10
537.713
 20
8.18434
 11
537.95
 21
8.33826
  0
LINE
  8
0
 10
537.95
 20
8.33826
 11
538.202
 21
8.46657
  0
LINE
  8
0
 10
538.202
 20
8.46657
 11
538.466
 21
8.56784
  0
LINE
  8
0
 10
538.466
 20
8.56784
 11
538.739
 21
8.64099
  0
LINE
  8
0
 10
538.739
 20
8.64099
 11
539.018
 21
8.6852
  0
LINE
  8
0
 10
539.018
 20
8.6852
 11
539.3
 21
8.7
  0
LINE
  8
0
 10
539.3
 20
8.7
 11
539.582
 21
8.6852
  0
LINE
  8
0
 10
539.582
 20
8.6852
 11
539.861
 21
8.64099
  0
LINE
  8
0
 10
539.861
 20
8.64099
 11
540.134
 21
8.56784
  0
LINE
  8
0
 10
540.134
 20
8.56784
 11
540.398
 21
8.46657
  0
LINE
  8
0
 10
540.398
 20
8.46657
 11
540.65
 21
8.33826
  0
LINE
  8
0
 10
540.65
 20
8.33826
 11
540.887
 21
8.18434
  0
LINE
  8
0
 10
540.887
 20
8.18434
 11
541.107
 21
8.00648
  0
LINE
  8
0
 10
541.107
 20
8.00648
 11
541.307
 21
7.80664
  0
LINE
  8
0
 10
541.307
 20
7.80664
 11
541.484
 21
7.58701
  0
LINE
  8
0
 10
541.484
 20
7.58701
 11
541.638
 21
7.34999
  0
LINE
  8
0
 10
541.638
 20
7.34999
 11
541.767
 21
7.09818
  0
LINE
  8
0
 10
541.767
 20
7.09818
 11
541.868
 21
6.83434
  0
LINE
  8
0
 10
541.868
 20
6.83434
 11
541.941
 21
6.56136
  0
LINE
  8
0
 10
541.941
 20
6.56136
 11
541.985
 21
6.28223
  0
LINE
  8
0
 10
541.985
 20
6.28223
 11
542
 21
6
  0
LINE
  8
0
 10
542
 20
6
 11
541.985
 21
5.71776
  0
LINE
  8
0
 10
541.985
 20
5.71776
 11
541.941
 21
5.43863
  0
LINE
  8
0
 10
541.941
 20
5.43863
 11
541.868
 21
5.16565
  0
LINE
  8
0
 10
541.868
 20
5.16565
 11
541.767
 21
4.90181
  0
LINE
  8
0
 10
541.767
 20
4.90181
 11
541.638
 21
4.64999
  0
LINE
  8
0
 10
541.638
 20
4.64999
 11
541.484
 21
4.41298
  0
LINE
  8
0
 10
541.484
 20
4.41298
 11
541.307
 21
4.19334
  0
LINE
  8
0
 10
541.307
 20
4.19334
 11
541.107
 21
3.9935
  0
LINE
  8
0
 10
541.107
 20
3.9935
 11
540.887
 21
3.81564
  0
LINE
  8
0
 10
540.887
 20
3.81564
 11
540.65
 21
3.66173
  0
LINE
  8
0
 10
540.65
 20
3.66173
 11
540.398
 21
3.53342
  0
LINE
  8
0
 10
540.398
 20
3.53342
 11
540.134
 21
3.43214
  0
LINE
  8
0
 10
540.134
 20
3.43214
 11
539.861
 21
3.35899
  0
LINE
  8
0
 10
539.861
 20
3.35899
 11
539.582
 21
3.31479
  0
LINE
  8
0
 10
539.582
 20
3.31479
 11
539.3
 21
3.29999
  0
LINE
  8
0
 10
539.3
 20
3.29999
 11
539.018
 21
3.31479
  0
LINE
  8
0
 10
25
 20
0
 11
50
 21
0
  0
LINE
  8
0
 10
50
 20
0
 11
50
 21
-1.2
  0
LINE
  8
0
 10
50
 20
-1.2
 11
49.9686
 21
-1.20163
  0
LINE
  8
0
 10
49.9686
 20
-1.20163
 11
49.9376
 21
-1.20654
  0
LINE
  8
0
 10
49.9376
 20
-1.20654
 11
49.9073
 21
-1.21468
  0
LINE
  8
0
 10
49.9073
 20
-1.21468
 11
49.878
 21
-1.22592
  0
LINE
  8
0
 10
49.878
 20
-1.22592
 11
49.85
 21
-1.24019
  0
LINE
  8
0
 10
49.85
 20
-1.24019
 11
49.8237
 21
-1.25729
  0
LINE
  8
0
 10
49.8237
 20
-1.25729
 11
49.7993
 21
-1.27705
  0
LINE
  8
0
 10
49.7993
 20
-1.27705
 11
49.7771
 21
-1.29926
  0
LINE
  8
0
 10
49.7771
 20
-1.29926
 11
49.7573
 21
-1.32365
  0
LINE
  8
0
 10
49.7573
 20
-1.32365
 11
49.7402
 21
-1.34999
  0
LINE
  8
0
 10
49.7402
 20
-1.34999
 11
49.7259
 21
-1.37798
  0
LINE
  8
0
 10
49.7259
 20
-1.37798
 11
49.7147
 21
-1.40729
  0
LINE
  8
0
 10
49.7147
 20
-1.40729
 11
49.7066
 21
-1.43762
  0
LINE
  8
0
 10
49.7066
 20
-1.43762
 11
49.7016
 21
-1.46863
  0
LINE
  8
0
 10
49.7016
 20
-1.46863
 11
49.7
 21
-1.5
  0
LINE
  8
0
 10
49.7
 20
-1.5
 11
49.7016
 21
-1.53136
  0
LINE
  8
0
 10
49.7016
 20
-1.53136
 11
49.7066
 21
-1.56236
  0
LINE
  8
0
 10
49.7066
 20
-1.56236
 11
49.7147
 21
-1.5927
  0
LINE
  8
0
 10
49.7147
 20
-1.5927
 11
49.7259
 21
-1.62201
  0
LINE
  8
0
 10
49.7259
 20
-1.62201
 11
49.7402
 21
-1.64999
  0
LINE
  8
0
 10
49.7402
 20
-1.64999
 11
49.7573
 21
-1.67633
  0
LINE
  8
0
 10
49.7573
 20
-1.67633
 11
49.7771
 21
-1.70073
  0
LINE
  8
0
 10
49.7771
 20
-1.70073
 11
49.7993
 21
-1.72293
  0
LINE
  8
0
 10
49.7993
 20
-1.72293
 11
49.8237
 21
-1.74269
  0
LINE
  8
0
 10
49.8237
 20
-1.74269
 11
49.85
 21
-1.7598
  0
LINE
  8
0
 10
49.85
 20
-1.7598
 11
49.878
 21
-1.77406
  0
LINE
  8
0
 10
49.878
 20
-1.77406
 11
49.9073
 21
-1.78531
  0
LINE
  8
0
 10
49.9073
 20
-1.78531
 11
49.9376
 21
-1.79344
  0
LINE
  8
0
 10
49.9376
 20
-1.79344
 11
49.9686
 21
-1.79836
  0
LINE
  8
0
 10
49.9686
 20
-1.79836
 11
50
 21
-1.79999
  0
LINE
  8
0
 10
50
 20
-1.79999
 11
50
 21
-3
  0
LINE
  8
0
 10
50
 20
-3
 11
75
 21
-3
  0
LINE
  8
0
 10
75
 20
-3
 11
75
 21
0
  0
LINE
  8
0
 10
75
 20
0
 11
100
 21
0
  0
LINE
  8
0
 10
100
 20
0
 11
100
 21
-1.2
  0
LINE
  8
0
 10
100
 20
-1.2
 11
99.9686
 21
-1.20163
  0
LINE
  8
0
 10
99.9686
 20
-1.20163
 11
99.9376
 21
-1.20654
  0
LINE
  8
0
 10
99.9376
 20
-1.20654
 11
99.9073
 21
-1.21468
  0
LINE
  8
0
 10
99.9073
 20
-1.21468
 11
99.878
 21
-1.22592
  0
LINE
  8
0
 10
99.878
 20
-1.22592
 11
99.85
 21
-1.24019
  0
LINE
  8
0
 10
99.85
 20
-1.24019
 11
99.8237
 21
-1.25729
  0
LINE
  8
0
 10
99.8237
 20
-1.25729
 11
99.7993
 21
-1.27705
  0
LINE
  8
0
 10
99.7993
 20
-1.27705
 11
99.7771
 21
-1.29926
  0
LINE
  8
0
 10
99.7771
 20
-1.29926
 11
99.7573
 21
-1.32365
  0
LINE
  8
0
 10
99.7573
 20
-1.32365
 11
99.7402
 21
-1.34999
  0
LINE
  8
0
 10
99.7402
 20
-1.34999
 11
99.7259
 21
-1.37798
  0
LINE
  8
0
 10
99.7259
 20
-1.37798
 11
99.7147
 21
-1.40729
  0
LINE
  8
0
 10
99.7147
 20
-1.40729
 11
99.7066
 21
-1.43762
  0
LINE
  8
0
 10
99.7066
 20
-1.43762
 11
99.7016
 21
-1.46863
  0
LINE
  8
0
 10
99.7016
 20
-1.46863
 11
99.7
 21
-1.5
  0
LINE
  8
0
 10
99.7
 20
-1.5
 11
99.7016
 21
-1.53136
  0
LINE
  8
0
 10
99.7016
 20
-1.53136
 11
99.7066
 21
-1.56236
  0
LINE
  8
0
 10
99.7066
 20
-1.56236
 11
99.7147
 21
-1.5927
  0
LINE
  8
0
 10
99.7147
 20
-1.5927
 11
99.7259
 21
-1.62201
  0
LINE
  8
0
 10
99.7259
 20
-1.62201
 11
99.7402
 21
-1.64999
  0
LINE
  8
0
 10
99.7402
 20
-1.64999
 11
99.7573
 21
-1.67633
  0
LINE
  8
0
 10
99.7573
 20
-1.67633
 11
99.7771
 21
-1.70073
  0
LINE
  8
0
 10
99.7771
 20
-1.70073
 11
99.7993
 21
-1.72293
  0
LINE
  8
0
 10
99.7993
 20
-1.72293
 11
99.8237
 21
-1.74269
  0
LINE
  8
0
 10
99.8237
 20
-1.74269
 11
99.85
 21
-1.7598
  0
LINE
  8
0
 10
99.85
 20
-1.7598
 11
99.878
 21
-1.77406
  0
LINE
  8
0
 10
99.878
 20
-1.77406
 11
99.9073
 21
-1.78531
  0
LINE
  8
0
 10
99.9073
 20
-1.78531
 11
99.9376
 21
-1.79344
  0
LINE
  8
0
 10
99.9376
 20
-1.79344
 11
99.9686
 21
-1.79836
  0
LINE
  8
0
 10
99.9686
 20
-1.79836
 11
100
 21
-1.79999
  0
LINE
  8
0
 10
100
 20
-1.79999
 11
100
 21
-3
  0
LINE
  8
0
 10
100
 20
-3
 11
125
 21
-3
  0
LINE
  8
0
 10
125
 20
-3
 11
125
 21
0
  0
LINE
  8
0
 10
125
 20
0
 11
150
 21
0
  0
LINE
  8
0
 10
150
 20
0
 11
150
 21
80.5
  0
LINE
  8
0
 10
150
 20
80.5
 11
125
 21
80.5
  0
LINE
  8
0
 10
125
 20
80.5
 11
125
 21
81.7
  0
LINE
  8
0
 10
125
 20
81.7
 11
125.031
 21
81.7016
  0
LINE
  8
0
 10
125.031
 20
81.7016
 11
125.062
 21
81.7066
  0
LINE
  8
0
 10
125.062
 20
81.7066
 11
125.093
 21
81.7147
  0
LINE
  8
0
 10
125.093
 20
81.7147
 11
125.122
 21
81.7259
  0
LINE
  8
0
 10
125.122
 20
81.7259
 11
125.15
 21
81.7402
  0
LINE
  8
0
 10
125.15
 20
81.7402
 11
125.176
 21
81.7573
  0
LINE
  8
0
 10
125.176
 20
81.7573
 11
125.201
 21
81.7771
  0
LINE
  8
0
 10
125.201
 20
81.7771
 11
125.223
 21
81.7993
  0
LINE
  8
0
 10
125.223
 20
81.7993
 11
125.243
 21
81.8237
  0
LINE
  8
0
 10
125.243
 20
81.8237
 11
125.26
 21
81.85
  0
LINE
  8
0
 10
125.26
 20
81.85
 11
125.274
 21
81.878
  0
LINE
  8
0
 10
125.274
 20
81.878
 11
125.285
 21
81.9073
  0
LINE
  8
0
 10
125.285
 20
81.9073
 11
125.293
 21
81.9376
  0
LINE
  8
0
 10
125.293
 20
81.9376
 11
125.298
 21
81.9686
  0
LINE
  8
0
 10
125.298
 20
81.9686
 11
125.3
 21
82
  0
LINE
  8
0
 10
125.3
 20
82
 11
125.298
 21
82.0314
  0
LINE
  8
0
 10
125.298
 20
82.0314
 11
125.293
 21
82.0624
  0
LINE
  8
0
 10
125.293
 20
82.0624
 11
125.285
 21
82.0927
  0
LINE
  8
0
 10
125.285
 20
82.0927
 11
125.274
 21
82.122
  0
LINE
  8
0
 10
125.274
 20
82.122
 11
125.26
 21
82.15
  0
LINE
  8
0
 10
125.26
 20
82.15
 11
125.243
 21
82.1763
  0
LINE
  8
0
 10
125.243
 20
82.1763
 11
125.223
 21
82.2007
  0
LINE
  8
0
 10
125.223
 20
82.2007
 11
125.201
 21
82.2229
  0
LINE
  8
0
 10
125.201
 20
82.2229
 11
125.176
 21
82.2427
  0
LINE
  8
0
 10
125.176
 20
82.2427
 11
125.15
 21
82.2598
  0
LINE
  8
0
 10
125.15
 20
82.2598
 11
125.122
 21
82.2741
  0
LINE
  8
0
 10
125.122
 20
82.2741
 11
125.093
 21
82.2853
  0
LINE
  8
0
 10
125.093
 20
82.2853
 11
125.062
 21
82.2934
  0
LINE
  8
0
 10
125.062
 20
82.2934
 11
125.031
 21
82.2984
  0
LINE
  8
0
 10
125.031
 20
82.2984
 11
125
 21
82.3
  0
LINE
  8
0
 10
125
 20
82.3
 11
125
 21
83.5
  0
LINE
  8
0
 10
125
 20
83.5
 11
100
 21
83.5
  0
LINE
  8
0
 10
100
 20
83.5
 11
100
 21
80.5
  0
LINE
  8
0
 10
100
 20
80.5
 11
75
 21
80.5
  0
LINE
  8
0
 10
75
 20
80.5
 11
75
 21
81.7
  0
LINE
  8
0
 10
75
 20
81.7
 11
75.0314
 21
81.7016
  0
LINE
  8
0
 10
75.0314
 20
81.7016
 11
75.0624
 21
81.7066
  0
LINE
  8
0
 10
75.0624
 20
81.7066
 11
75.0927
 21
81.7147
  0
LINE
  8
0
 10
75.0927
 20
81.7147
 11
75.122
 21
81.7259
  0
LINE
  8
0
 10
75.122
 20
81.7259
 11
75.15
 21
81.7402
  0
LINE
  8
0
 10
75.15
 20
81.7402
 11
75.1763
 21
81.7573
  0
LINE
  8
0
 10
75.1763
 20
81.7573
 11
75.2007
 21
81.7771
  0
LINE
  8
0
 10
75.2007
 20
81.7771
 11
75.2229
 21
81.7993
  0
LINE
  8
0
 10
75.2229
 20
81.7993
 11
75.2427
 21
81.8237
  0
LINE
  8
0
 10
75.2427
 20
81.8237
 11
75.2598
 21
81.85
  0
LINE
  8
0
 10
75.2598
 20
81.85
 11
75.2741
 21
81.878
  0
LINE
  8
0
 10
75.2741
 20
81.878
 11
75.2853
 21
81.9073
  0
LINE
  8
0
 10
75.2853
 20
81.9073
 11
75.2934
 21
81.9376
  0
LINE
  8
0
 10
75.2934
 20
81.9376
 11
75.2984
 21
81.9686
  0
LINE
  8
0
 10
75.2984
 20
81.9686
 11
75.3
 21
82
  0
LINE
  8
0
 10
75.3
 20
82
 11
75.2984
 21
82.0314
  0
LINE
  8
0
 10
75.2984
 20
82.0314
 11
75.2934
 21
82.0624
  0
LINE
  8
0
 10
75.2934
 20
82.0624
 11
75.2853
 21
82.0927
  0
LINE
  8
0
 10
75.2853
 20
82.0927
 11
75.2741
 21
82.122
  0
LINE
  8
0
 10
75.2741
 20
82.122
 11
75.2598
 21
82.15
  0
LINE
  8
0
 10
75.2598
 20
82.15
 11
75.2427
 21
82.1763
  0
LINE
  8
0
 10
75.2427
 20
82.1763
 11
75.2229
 21
82.2007
  0
LINE
  8
0
 10
75.2229
 20
82.2007
 11
75.2007
 21
82.2229
  0
LINE
  8
0
 10
75.2007
 20
82.2229
 11
75.1763
 21
82.2427
  0
LINE
  8
0
 10
75.1763
 20
82.2427
 11
75.15
 21
82.2598
  0
LINE
  8
0
 10
75.15
 20
82.2598
 11
75.122
 21
82.2741
  0
LINE
  8
0
 10
75.122
 20
82.2741
 11
75.0927
 21
82.2853
  0
LINE
  8
0
 10
75.0927
 20
82.2853
 11
75.0624
 21
82.2934
  0
LINE
  8
0
 10
75.0624
 20
82.2934
 11
75.0314
 21
82.2984
  0
LINE
  8
0
 10
75.0314
 20
82.2984
 11
75
 21
82.3
  0
LINE
  8
0
 10
75
 20
82.3
 11
75
 21
83.5
  0
LINE
  8
0
 10
75
 20
83.5
 11
50
 21
83.5
  0
LINE
  8
0
 10
50
 20
83.5
 11
50
 21
80.5
  0
LINE
  8
0
 10
50
 20
80.5
 11
25
 21
80.5
  0
LINE
  8
0
 10
25
 20
80.5
 11
25
 21
81.7
  0
LINE
  8
0
 10
25
 20
81.7
 11
25.0314
 21
81.7016
  0
LINE
  8
0
 10
25.0314
 20
81.7016
 11
25.0624
 21
81.7066
  0
LINE
  8
0
 10
25.0624
 20
81.7066
 11
25.0927
 21
81.7147
  0
LINE
  8
0
 10
25.0927
 20
81.7147
 11
25.122
 21
81.7259
  0
LINE
  8
0
 10
25.122
 20
81.7259
 11
25.15
 21
81.7402
  0
LINE
  8
0
 10
25.15
 20
81.7402
 11
25.1763
 21
81.7573
  0
LINE
  8
0
 10
25.1763
 20
81.7573
 11
25.2007
 21
81.7771
  0
LINE
  8
0
 10
25.2007
 20
81.7771
 11
25.2229
 21
81.7993
  0
LINE
  8
0
 10
25.2229
 20
81.7993
 11
25.2427
 21
81.8237
  0
LINE
  8
0
 10
25.2427
 20
81.8237
 11
25.2598
 21
81.85
  0
LINE
  8
0
 10
25.2598
 20
81.85
 11
25.2741
 21
81.878
  0
LINE
  8
0
 10
25.2741
 20
81.878
 11
25.2853
 21
81.9073
  0
LINE
  8
0
 10
25.2853
 20
81.9073
 11
25.2934
 21
81.9376
  0
LINE
  8
0
 10
25.2934
 20
81.9376
 11
25.2984
 21
81.9686
  0
LINE
  8
0
 10
25.2984
 20
81.9686
 11
25.3
 21
82
  0
LINE
  8
0
 10
25.3
 20
82
 11
25.2984
 21
82.0314
  0
LINE
  8
0
 10
25.2984
 20
82.0314
 11
25.2934
 21
82.0624
  0
LINE
  8
0
 10
25.2934
 20
82.0624
 11
25.2853
 21
82.0927
  0
LINE
  8
0
 10
25.2853
 20
82.0927
 11
25.2741
 21
82.122
  0
LINE
  8
0
 10
25.2741
 20
82.122
 11
25.2598
 21
82.15
  0
LINE
  8
0
 10
25.2598
 20
82.15
 11
25.2427
 21
82.1763
  0
LINE
  8
0
 10
25.2427
 20
82.1763
 11
25.2229
 21
82.2007
  0
LINE
  8
0
 10
25.2229
 20
82.2007
 11
25.2007
 21
82.2229
  0
LINE
  8
0
 10
25.2007
 20
82.2229
 11
25.1763
 21
82.2427
  0
LINE
  8
0
 10
25.1763
 20
82.2427
 11
25.15
 21
82.2598
  0
LINE
  8
0
 10
25.15
 20
82.2598
 11
25.122
 21
82.2741
  0
LINE
  8
0
 10
25.122
 20
82.2741
 11
25.0927
 21
82.2853
  0
LINE
  8
0
 10
25.0927
 20
82.2853
 11
25.0624
 21
82.2934
  0
LINE
  8
0
 10
25.0624
 20
82.2934
 11
25.0314
 21
82.2984
  0
LINE
  8
0
 10
25.0314
 20
82.2984
 11
25
 21
82.3
  0
LINE
  8
0
 10
25
 20
82.3
 11
25
 21
83.5
  0
LINE
  8
0
 10
25
 20
83.5
 11
0
 21
83.5
  0
LINE
  8
0
 10
0
 20
83.5
 11
0
 21
-3
  0
LINE
  8
0
 10
0
 20
-3
 11
25
 21
-3
  0
LINE
  8
0
 10
25
 20
-3
 11
25
 21
0
  0
LINE
  8
0
 10
5.71776
 20
74.3148
 11
5.43863
 21
74.359
  0
LINE
  8
0
 10
5.43863
 20
74.359
 11
5.16565
 21
74.4321
  0
LINE
  8
0
 10
5.16565
 20
74.4321
 11
4.90181
 21
74.5334
  0
LINE
  8
0
 10
4.90181
 20
74.5334
 11
4.64999
 21
74.6617
  0
LINE
  8
0
 10
4.64999
 20
74.6617
 11
4.41298
 21
74.8156
  0
LINE
  8
0
 10
4.41298
 20
74.8156
 11
4.19334
 21
74.9935
  0
LINE
  8
0
 10
4.19334
 20
74.9935
 11
3.9935
 21
75.1933
  0
LINE
  8
0
 10
3.9935
 20
75.1933
 11
3.81564
 21
75.413
  0
LINE
  8
0
 10
3.81564
 20
75.413
 11
3.66173
 21
75.65
  0
LINE
  8
0
 10
3.66173
 20
75.65
 11
3.53342
 21
75.9018
  0
LINE
  8
0
 10
3.53342
 20
75.9018
 11
3.43214
 21
76.1656
  0
LINE
  8
0
 10
3.43214
 20
76.1656
 11
3.35899
 21
76.4386
  0
LINE
  8
0
 10
3.35899
 20
76.4386
 11
3.31479
 21
76.7178
  0
LINE
  8
0
 10
3.31479
 20
76.7178
 11
3.29999
 21
77
  0
LINE
  8
0
 10
3.29999
 20
77
 11
3.31479
 21
77.2822
  0
LINE
  8
0
 10
3.31479
 20
77.2822
 11
3.35899
 21
77.5614
  0
LINE
  8
0
 10
3.35899
 20
77.5614
 11
3.43214
 21
77.8343
  0
LINE
  8
0
 10
3.43214
 20
77.8343
 11
3.53342
 21
78.0982
  0
LINE
  8
0
 10
3.53342
 20
78.0982
 11
3.66173
 21
78.35
  0
LINE
  8
0
 10
3.66173
 20
78.35
 11
3.81564
 21
78.587
  0
LINE
  8
0
 10
3.81564
 20
78.587
 11
3.9935
 21
78.8067
  0
LINE
  8
0
 10
3.9935
 20
78.8067
 11
4.19334
 21
79.0065
  0
LINE
  8
0
 10
4.19334
 20
79.0065
 11
4.41298
 21
79.1843
  0
LINE
  8
0
 10
4.41298
 20
79.1843
 11
4.64999
 21
79.3383
  0
LINE
  8
0
 10
4.64999
 20
79.3383
 11
4.90181
 21
79.4666
  0
LINE
  8
0
 10
4.90181
 20
79.4666
 11
5.16565
 21
79.5679
  0
LINE
  8
0
 10
5.16565
 20
79.5679
 11
5.43863
 21
79.641
  0
LINE
  8
0
 10
5.43863
 20
79.641
 11
5.71776
 21
79.6852
  0
LINE
  8
0
 10
5.71776
 20
79.6852
 11
6
 21
79.7
  0
LINE
  8
0
 10
6
 20
79.7
 11
6.28223
 21
79.6852
  0
LINE
  8
0
 10
6.28223
 20
79.6852
 11
6.56136
 21
79.641
  0
LINE
  8
0
 10
6.56136
 20
79.641
 11
6.83434
 21
79.5679
  0
LINE
  8
0
 10
6.83434
 20
79.5679
 11
7.09818
 21
79.4666
  0
LINE
  8
0
 10
7.09818
 20
79.4666
 11
7.34999
 21
79.3383
  0
LINE
  8
0
 10
7.34999
 20
79.3383
 11
7.58701
 21
79.1843
  0
LINE
  8
0
 10
7.58701
 20
79.1843
 11
7.80664
 21
79.0065
  0
LINE
  8
0
 10
7.80664
 20
79.0065
 11
8.00648
 21
78.8067
  0
LINE
  8
0
 10
8.00648
 20
78.8067
 11
8.18434
 21
78.587
  0
LINE
  8
0
 10
8.18434
 20
78.587
 11
8.33826
 21
78.35
  0
LINE
  8
0
 10
8.33826
 20
78.35
 11
8.46657
 21
78.0982
  0
LINE
  8
0
 10
8.46657
 20
78.0982
 11
8.56784
 21
77.8343
  0
LINE
  8
0
 10
8.56784
 20
77.8343
 11
8.64099
 21
77.5614
  0
LINE
  8
0
 10
8.64099
 20
77.5614
 11
8.6852
 21
77.2822
  0
LINE
  8
0
 10
8.6852
 20
77.2822
 11
8.7
 21
77
  0
LINE
  8
0
 10
8.7
 20
77
 11
8.6852
 21
76.7178
  0
LINE
  8
0
 10
8.6852
 20
76.7178
 11
8.64099
 21
76.4386
  0
LINE
  8
0
 10
8.64099
 20
76.4386
 11
8.56784
 21
76.1656
  0
LINE
  8
0
 10
8.56784
 20
76.1656
 11
8.46657
 21
75.9018
  0
LINE
  8
0
 10
8.46657
 20
75.9018
 11
8.33826
 21
75.65
  0
LINE
  8
0
 10
8.33826
 20
75.65
 11
8.18434
 21
75.413
  0
LINE
  8
0
 10
8.18434
 20
75.413
 11
8.00648
 21
75.1933
  0
LINE
  8
0
 10
8.00648
 20
75.1933
 11
7.80664
 21
74.9935
  0
LINE
  8
0
 10
7.80664
 20
74.9935
 11
7.58701
 21
74.8156
  0
LINE
  8
0
 10
7.58701
 20
74.8156
 11
7.34999
 21
74.6617
  0
LINE
  8
0
 10
7.34999
 20
74.6617
 11
7.09818
 21
74.5334
  0
LINE
  8
0
 10
7.09818
 20
74.5334
 11
6.83434
 21
74.4321
  0
LINE
  8
0
 10
6.83434
 20
74.4321
 11
6.56136
 21
74.359
  0
LINE
  8
0
 10
6.56136
 20
74.359
 11
6.28223
 21
74.3148
  0
LINE
  8
0
 10
6.28223
 20
74.3148
 11
6
 21
74.3
  0
LINE
  8
0
 10
6
 20
74.3
 11
5.71776
 21
74.3148
  0
LINE
  8
0
 10
143.718
 20
74.3148
 11
143.439
 21
74.359
  0
LINE
  8
0
 10
143.439
 20
74.359
 11
143.166
 21
74.4321
  0
LINE
  8
0
 10
143.166
 20
74.4321
 11
142.902
 21
74.5334
  0
LINE
  8
0
 10
142.902
 20
74.5334
 11
142.65
 21
74.6617
  0
LINE
  8
0
 10
142.65
 20
74.6617
 11
142.413
 21
74.8156
  0
LINE
  8
0
 10
142.413
 20
74.8156
 11
142.193
 21
74.9935
  0
LINE
  8
0
 10
142.193
 20
74.9935
 11
141.994
 21
75.1933
  0
LINE
  8
0
 10
141.994
 20
75.1933
 11
141.816
 21
75.413
  0
LINE
  8
0
 10
141.816
 20
75.413
 11
141.662
 21
75.65
  0
LINE
  8
0
 10
141.662
 20
75.65
 11
141.533
 21
75.9018
  0
LINE
  8
0
 10
141.533
 20
75.9018
 11
141.432
 21
76.1656
  0
LINE
  8
0
 10
141.432
 20
76.1656
 11
141.359
 21
76.4386
  0
LINE
  8
0
 10
141.359
 20
76.4386
 11
141.315
 21
76.7178
  0
LINE
  8
0
 10
141.315
 20
76.7178
 11
141.3
 21
77
  0
LINE
  8
0
 10
141.3
 20
77
 11
141.315
 21
77.2822
  0
LINE
  8
0
 10
141.315
 20
77.2822
 11
141.359
 21
77.5614
  0
LINE
  8
0
 10
141.359
 20
77.5614
 11
141.432
 21
77.8343
  0
LINE
  8
0
 10
141.432
 20
77.8343
 11
141.533
 21
78.0982
  0
LINE
  8
0
 10
141.533
 20
78.0982
 11
141.662
 21
78.35
  0
LINE
  8
0
 10
141.662
 20
78.35
 11
141.816
 21
78.587
  0
LINE
  8
0
 10
141.816
 20
78.587
 11
141.994
 21
78.8067
  0
LINE
  8
0
 10
141.994
 20
78.8067
 11
142.193
 21
79.0065
  0
LINE
  8
0
 10
142.193
 20
79.0065
 11
142.413
 21
79.1843
  0
LINE
  8
0
 10
142.413
 20
79.1843
 11
142.65
 21
79.3383
  0
LINE
  8
0
 10
142.65
 20
79.3383
 11
142.902
 21
79.4666
  0
LINE
  8
0
 10
142.902
 20
79.4666
 11
143.166
 21
79.5679
  0
LINE
  8
0
 10
143.166
 20
79.5679
 11
143.439
 21
79.641
  0
LINE
  8
0
 10
143.439
 20
79.641
 11
143.718
 21
79.6852
  0
LINE
  8
0
 10
143.718
 20
79.6852
 11
144
 21
79.7
  0
LINE
  8
0
 10
144
 20
79.7
 11
144.282
 21
79.6852
  0
LINE
  8
0
 10
144.282
 20
79.6852
 11
144.561
 21
79.641
  0
LINE
  8
0
 10
144.561
 20
79.641
 11
144.834
 21
79.5679
  0
LINE
  8
0
 10
144.834
 20
79.5679
 11
145.098
 21
79.4666
  0
LINE
  8
0
 10
145.098
 20
79.4666
 11
145.35
 21
79.3383
  0
LINE
  8
0
 10
145.35
 20
79.3383
 11
145.587
 21
79.1843
  0
LINE
  8
0
 10
145.587
 20
79.1843
 11
145.807
 21
79.0065
  0
LINE
  8
0
 10
145.807
 20
79.0065
 11
146.006
 21
78.8067
  0
LINE
  8
0
 10
146.006
 20
78.8067
 11
146.184
 21
78.587
  0
LINE
  8
0
 10
146.184
 20
78.587
 11
146.338
 21
78.35
  0
LINE
  8
0
 10
146.338
 20
78.35
 11
146.467
 21
78.0982
  0
LINE
  8
0
 10
146.467
 20
78.0982
 11
146.568
 21
77.8343
  0
LINE
  8
0
 10
146.568
 20
77.8343
 11
146.641
 21
77.5614
  0
LINE
  8
0
 10
146.641
 20
77.5614
 11
146.685
 21
77.2822
  0
LINE
  8
0
 10
146.685
 20
77.2822
 11
146.7
 21
77
  0
LINE
  8
0
 10
146.7
 20
77
 11
146.685
 21
76.7178
  0
LINE
  8
0
 10
146.685
 20
76.7178
 11
146.641
 21
76.4386
  0
LINE
  8
0
 10
146.641
 20
76.4386
 11
146.568
 21
76.1656
  0
LINE
  8
0
 10
146.568
 20
76.1656
 11
146.467
 21
75.9018
  0
LINE
  8
0
 10
146.467
 20
75.9018
 11
146.338
 21
75.65
  0
LINE
  8
0
 10
146.338
 20
75.65
 11
146.184
 21
75.413
  0
LINE
  8
0
 10
146.184
 20
75.413
 11
146.006
 21
75.1933
  0
LINE
  8
0
 10
146.006
 20
75.1933
 11
145.807
 21
74.9935
  0
LINE
  8
0
 10
145.807
 20
74.9935
 11
145.587
 21
74.8156
  0
LINE
  8
0
 10
145.587
 20
74.8156
 11
145.35
 21
74.6617
  0
LINE
  8
0
 10
145.35
 20
74.6617
 11
145.098
 21
74.5334
  0
LINE
  8
0
 10
145.098
 20
74.5334
 11
144.834
 21
74.4321
  0
LINE
  8
0
 10
144.834
 20
74.4321
 11
144.561
 21
74.359
  0
LINE
  8
0
 10
144.561
 20
74.359
 11
144.282
 21
74.3148
  0
LINE
  8
0
 10
144.282
 20
74.3148
 11
144
 21
74.3
  0
LINE
  8
0
 10
144
 20
74.3
 11
143.718
 21
74.3148
  0
LINE
  8
0
 10
12
 20
3
 11
12
 21
12.3125
  0
LINE
  8
0
 10
12
 20
12.3125
 11
9
 21
12.3125
  0
LINE
  8
0
 10
9
 20
12.3125
 11
9
 21
21.625
  0
LINE
  8
0
 10
9
 20
21.625
 11
10.2
 21
21.625
  0
LINE
  8
0
 10
10.2
 20
21.625
 11
10.2016
 21
21.5936
  0
LINE
  8
0
 10
10.2016
 20
21.5936
 11
10.2065
 21
21.5626
  0
LINE
  8
0
 10
10.2065
 20
21.5626
 11
10.2147
 21
21.5323
  0
LINE
  8
0
 10
10.2147
 20
21.5323
 11
10.2259
 21
21.503
  0
LINE
  8
0
 10
10.2259
 20
21.503
 11
10.2402
 21
21.475
  0
LINE
  8
0
 10
10.2402
 20
21.475
 11
10.2573
 21
21.4487
  0
LINE
  8
0
 10
10.2573
 20
21.4487
 11
10.2771
 21
21.4243
  0
LINE
  8
0
 10
10.2771
 20
21.4243
 11
10.2993
 21
21.4021
  0
LINE
  8
0
 10
10.2993
 20
21.4021
 11
10.3237
 21
21.3823
  0
LINE
  8
0
 10
10.3237
 20
21.3823
 11
10.35
 21
21.3652
  0
LINE
  8
0
 10
10.35
 20
21.3652
 11
10.378
 21
21.3509
  0
LINE
  8
0
 10
10.378
 20
21.3509
 11
10.4073
 21
21.3397
  0
LINE
  8
0
 10
10.4073
 20
21.3397
 11
10.4376
 21
21.3315
  0
LINE
  8
0
 10
10.4376
 20
21.3315
 11
10.4686
 21
21.3266
  0
LINE
  8
0
 10
10.4686
 20
21.3266
 11
10.5
 21
21.325
  0
LINE
  8
0
 10
10.5
 20
21.325
 11
10.5314
 21
21.3266
  0
LINE
  8
0
 10
10.5314
 20
21.3266
 11
10.5624
 21
21.3315
  0
LINE
  8
0
 10
10.5624
 20
21.3315
 11
10.5927
 21
21.3397
  0
LINE
  8
0
 10
10.5927
 20
21.3397
 11
10.622
 21
21.3509
  0
LINE
  8
0
 10
10.622
 20
21.3509
 11
10.65
 21
21.3652
  0
LINE
  8
0
 10
10.65
 20
21.3652
 11
10.6763
 21
21.3823
  0
LINE
  8
0
 10
10.6763
 20
21.3823
 11
10.7007
 21
21.4021
  0
LINE
  8
0
 10
10.7007
 20
21.4021
 11
10.7229
 21
21.4243
  0
LINE
  8
0
 10
10.7229
 20
21.4243
 11
10.7427
 21
21.4487
  0
LINE
  8
0
 10
10.7427
 20
21.4487
 11
10.7598
 21
21.475
  0
LINE
  8
0
 10
10.7598
 20
21.475
 11
10.7741
 21
21.503
  0
LINE
  8
0
 10
10.7741
 20
21.503
 11
10.7853
 21
21.5323
  0
LINE
  8
0
 10
10.7853
 20
21.5323
 11
10.7934
 21
21.5626
  0
LINE
  8
0
 10
10.7934
 20
21.5626
 11
10.7984
 21
21.5936
  0
LINE
  8
0
 10
10.7984
 20
21.5936
 11
10.8
 21
21.625
  0
LINE
  8
0
 10
10.8
 20
21.625
 11
12
 21
21.625
  0
LINE
  8
0
 10
12
 20
21.625
 11
12
 21
30.9375
  0
LINE
  8
0
 10
12
 20
30.9375
 11
9
 21
30.9375
  0
LINE
  8
0
 10
9
 20
30.9375
 11
9
 21
40.25
  0
LINE
  8
0
 10
9
 20
40.25
 11
10.2
 21
40.25
  0
LINE
  8
0
 10
10.2
 20
40.25
 11
10.2016
 21
40.2186
  0
LINE
  8
0
 10
10.2016
 20
40.2186
 11
10.2065
 21
40.1876
  0
LINE
  8
0
 10
10.2065
 20
40.1876
 11
10.2147
 21
40.1573
  0
LINE
  8
0
 10
10.2147
 20
40.1573
 11
10.2259
 21
40.128
  0
LINE
  8
0
 10
10.2259
 20
40.128
 11
10.2402
 21
40.1
  0
LINE
  8
0
 10
10.2402
 20
40.1
 11
10.2573
 21
40.0737
  0
LINE
  8
0
 10
10.2573
 20
40.0737
 11
10.2771
 21
40.0493
  0
LINE
  8
0
 10
10.2771
 20
40.0493
 11
10.2993
 21
40.0271
  0
LINE
  8
0
 10
10.2993
 20
40.0271
 11
10.3237
 21
40.0073
  0
LINE
  8
0
 10
10.3237
 20
40.0073
 11
10.35
 21
39.9902
  0
LINE
  8
0
 10
10.35
 20
39.9902
 11
10.378
 21
39.9759
  0
LINE
  8
0
 10
10.378
 20
39.9759
 11
10.4073
 21
39.9647
  0
LINE
  8
0
 10
10.4073
 20
39.9647
 11
10.4376
 21
39.9566
  0
LINE
  8
0
 10
10.4376
 20
39.9566
 11
10.4686
 21
39.9516
  0
LINE
  8
0
 10
10.4686
 20
39.9516
 11
10.5
 21
39.95
  0
LINE
  8
0
 10
10.5
 20
39.95
 11
10.5314
 21
39.9516
  0
LINE
  8
0
 10
10.5314
 20
39.9516
 11
10.5624
 21
39.9566
  0
LINE
  8
0
 10
10.5624
 20
39.9566
 11
10.5927
 21
39.9647
  0
LINE
  8
0
 10
10.5927
 20
39.9647
 11
10.622
 21
39.9759
  0
LINE
  8
0
 10
10.622
 20
39.9759
 11
10.65
 21
39.9902
  0
LINE
  8
0
 10
10.65
 20
39.9902
 11
10.6763
 21
40.0073
  0
LINE
  8
0
 10
10.6763
 20
40.0073
 11
10.7007
 21
40.0271
  0
LINE
  8
0
 10
10.7007
 20
40.0271
 11
10.7229
 21
40.0493
  0
LINE
  8
0
 10
10.7229
 20
40.0493
 11
10.7427
 21
40.0737
  0
LINE
  8
0
 10
10.7427
 20
40.0737
 11
10.7598
 21
40.1
  0
LINE
  8
0
 10
10.7598
 20
40.1
 11
10.7741
 21
40.128
  0
LINE
  8
0
 10
10.7741
 20
40.128
 11
10.7853
 21
40.1573
  0
LINE
  8
0
 10
10.7853
 20
40.1573
 11
10.7934
 21
40.1876
  0
LINE
  8
0
 10
10.7934
 20
40.1876
 11
10.7984
 21
40.2186
  0
LINE
  8
0
 10
10.7984
 20
40.2186
 11
10.8
 21
40.25
  0
LINE
  8
0
 10
10.8
 20
40.25
 11
12
 21
40.25
  0
LINE
  8
0
 10
12
 20
40.25
 11
12
 21
49.5625
  0
LINE
  8
0
 10
12
 20
49.5625
 11
9
 21
49.5625
  0
LINE
  8
0
 10
9
 20
49.5625
 11
9
 21
58.875
  0
LINE
  8
0
 10
9
 20
58.875
 11
10.2
 21
58.875
  0
LINE
  8
0
 10
10.2
 20
58.875
 11
10.2016
 21
58.8436
  0
LINE
  8
0
 10
10.2016
 20
58.8436
 11
10.2065
 21
58.8126
  0
LINE
  8
0
 10
10.2065
 20
58.8126
 11
10.2147
 21
58.7823
  0
LINE
  8
0
 10
10.2147
 20
58.7823
 11
10.2259
 21
58.753
  0
LINE
  8
0
 10
10.2259
 20
58.753
 11
10.2402
 21
58.725
  0
LINE
  8
0
 10
10.2402
 20
58.725
 11
10.2573
 21
58.6987
  0
LINE
  8
0
 10
10.2573
 20
58.6987
 11
10.2771
 21
58.6743
  0
LINE
  8
0
 10
10.2771
 20
58.6743
 11
10.2993
 21
58.6521
  0
LINE
  8
0
 10
10.2993
 20
58.6521
 11
10.3237
 21
58.6323
  0
LINE
  8
0
 10
10.3237
 20
58.6323
 11
10.35
 21
58.6152
  0
LINE
  8
0
 10
10.35
 20
58.6152
 11
10.378
 21
58.6009
  0
LINE
  8
0
 10
10.378
 20
58.6009
 11
10.4073
 21
58.5897
  0
LINE
  8
0
 10
10.4073
 20
58.5897
 11
10.4376
 21
58.5816
  0
LINE
  8
0
 10
10.4376
 20
58.5816
 11
10.4686
 21
58.5766
  0
LINE
  8
0
 10
10.4686
 20
58.5766
 11
10.5
 21
58.575
  0
LINE
  8
0
 10
10.5
 20
58.575
 11
10.5314
 21
58.5766
  0
LINE
  8
0
 10
10.5314
 20
58.5766
 11
10.5624
 21
58.5816
  0
LINE
  8
0
 10
10.5624
 20
58.5816
 11
10.5927
 21
58.5897
  0
LINE
  8
0
 10
10.5927
 20
58.5897
 11
10.622
 21
58.6009
  0
LINE
  8
0
 10
10.622
 20
58.6009
 11
10.65
 21
58.6152
  0
LINE
  8
0
 10
10.65
 20
58.6152
 11
10.6763
 21
58.6323
  0
LINE
  8
0
 10
10.6763
 20
58.6323
 11
10.7007
 21
58.6521
  0
LINE
  8
0
 10
10.7007
 20
58.6521
 11
10.7229
 21
58.6743
  0
LINE
  8
0
 10
10.7229
 20
58.6743
 11
10.7427
 21
58.6987
  0
LINE
  8
0
 10
10.7427
 20
58.6987
 11
10.7598
 21
58.725
  0
LINE
  8
0
 10
10.7598
 20
58.725
 11
10.7741
 21
58.753
  0
LINE
  8
0
 10
10.7741
 20
58.753
 11
10.7853
 21
58.7823
  0
LINE
  8
0
 10
10.7853
 20
58.7823
 11
10.7934
 21
58.8126
  0
LINE
  8
0
 10
10.7934
 20
58.8126
 11
10.7984
 21
58.8436
  0
LINE
  8
0
 10
10.7984
 20
58.8436
 11
10.8
 21
58.875
  0
LINE
  8
0
 10
10.8
 20
58.875
 11
12
 21
58.875
  0
LINE
  8
0
 10
12
 20
58.875
 11
12
 21
68.1875
  0
LINE
  8
0
 10
12
 20
68.1875
 11
9
 21
68.1875
  0
LINE
  8
0
 10
9
 20
68.1875
 11
9
 21
77.5
  0
LINE
  8
0
 10
9
 20
77.5
 11
100
 21
77.5
  0
LINE
  8
0
 10
100
 20
77.5
 11
100
 21
68.1875
  0
LINE
  8
0
 10
100
 20
68.1875
 11
98.8
 21
68.1875
  0
LINE
  8
0
 10
98.8
 20
68.1875
 11
98.7984
 21
68.2189
  0
LINE
  8
0
 10
98.7984
 20
68.2189
 11
98.7934
 21
68.2499
  0
LINE
  8
0
 10
98.7934
 20
68.2499
 11
98.7853
 21
68.2802
  0
LINE
  8
0
 10
98.7853
 20
68.2802
 11
98.7741
 21
68.3095
  0
LINE
  8
0
 10
98.7741
 20
68.3095
 11
98.7598
 21
68.3375
  0
LINE
  8
0
 10
98.7598
 20
68.3375
 11
98.7427
 21
68.3638
  0
LINE
  8
0
 10
98.7427
 20
68.3638
 11
98.7229
 21
68.3882
  0
LINE
  8
0
 10
98.7229
 20
68.3882
 11
98.7007
 21
68.4104
  0
LINE
  8
0
 10
98.7007
 20
68.4104
 11
98.6763
 21
68.4302
  0
LINE
  8
0
 10
98.6763
 20
68.4302
 11
98.65
 21
68.4473
  0
LINE
  8
0
 10
98.65
 20
68.4473
 11
98.622
 21
68.4616
  0
LINE
  8
0
 10
98.622
 20
68.4616
 11
98.5927
 21
68.4728
  0
LINE
  8
0
 10
98.5927
 20
68.4728
 11
98.5624
 21
68.4809
  0
LINE
  8
0
 10
98.5624
 20
68.4809
 11
98.5314
 21
68.4859
  0
LINE
  8
0
 10
98.5314
 20
68.4859
 11
98.5
 21
68.4875
  0
LINE
  8
0
 10
98.5
 20
68.4875
 11
98.4686
 21
68.4859
  0
LINE
  8
0
 10
98.4686
 20
68.4859
 11
98.4376
 21
68.4809
  0
LINE
  8
0
 10
98.4376
 20
68.4809
 11
98.4073
 21
68.4728
  0
LINE
  8
0
 10
98.4073
 20
68.4728
 11
98.378
 21
68.4616
  0
LINE
  8
0
 10
98.378
 20
68.4616
 11
98.35
 21
68.4473
  0
LINE
  8
0
 10
98.35
 20
68.4473
 11
98.3237
 21
68.4302
  0
LINE
  8
0
 10
98.3237
 20
68.4302
 11
98.2993
 21
68.4104
  0
LINE
  8
0
 10
98.2993
 20
68.4104
 11
98.2771
 21
68.3882
  0
LINE
  8
0
 10
98.2771
 20
68.3882
 11
98.2573
 21
68.3638
  0
LINE
  8
0
 10
98.2573
 20
68.3638
 11
98.2402
 21
68.3375
  0
LINE
  8
0
 10
98.2402
 20
68.3375
 11
98.2259
 21
68.3095
  0
LINE
  8
0
 10
98.2259
 20
68.3095
 11
98.2147
 21
68.2802
  0
LINE
  8
0
 10
98.2147
 20
68.2802
 11
98.2066
 21
68.2499
  0
LINE
  8
0
 10
98.2066
 20
68.2499
 11
98.2016
 21
68.2189
  0
LINE
  8
0
 10
98.2016
 20
68.2189
 11
98.2
 21
68.1875
  0
LINE
  8
0
 10
98.2
 20
68.1875
 11
97
 21
68.1875
  0
LINE
  8
0
 10
97
 20
68.1875
 11
97
 21
58.875
  0
LINE
  8
0
 10
97
 20
58.875
 11
100
 21
58.875
  0
LINE
  8
0
 10
100
 20
58.875
 11
100
 21
49.5625
  0
LINE
  8
0
 10
100
 20
49.5625
 11
98.8
 21
49.5625
  0
LINE
  8
0
 10
98.8
 20
49.5625
 11
98.7984
 21
49.5939
  0
LINE
  8
0
 10
98.7984
 20
49.5939
 11
98.7934
 21
49.6249
  0
LINE
  8
0
 10
98.7934
 20
49.6249
 11
98.7853
 21
49.6552
  0
LINE
  8
0
 10
98.7853
 20
49.6552
 11
98.7741
 21
49.6845
  0
LINE
  8
0
 10
98.7741
 20
49.6845
 11
98.7598
 21
49.7125
  0
LINE
  8
0
 10
98.7598
 20
49.7125
 11
98.7427
 21
49.7388
  0
LINE
  8
0
 10
98.7427
 20
49.7388
 11
98.7229
 21
49.7632
  0
LINE
  8
0
 10
98.7229
 20
49.7632
 11
98.7007
 21
49.7854
  0
LINE
  8
0
 10
98.7007
 20
49.7854
 11
98.6763
 21
49.8052
  0
LINE
  8
0
 10
98.6763
 20
49.8052
 11
98.65
 21
49.8223
  0
LINE
  8
0
 10
98.65
 20
49.8223
 11
98.622
 21
49.8366
  0
LINE
  8
0
 10
98.622
 20
49.8366
 11
98.5927
 21
49.8478
  0
LINE
  8
0
 10
98.5927
 20
49.8478
 11
98.5624
 21
49.8559
  0
LINE
  8
0
 10
98.5624
 20
49.8559
 11
98.5314
 21
49.8609
  0
LINE
  8
0
 10
98.5314
 20
49.8609
 11
98.5
 21
49.8625
  0
LINE
  8
0
 10
98.5
 20
49.8625
 11
98.4686
 21
49.8609
  0
LINE
  8
0
 10
98.4686
 20
49.8609
 11
98.4376
 21
49.8559
  0
LINE
  8
0
 10
98.4376
 20
49.8559
 11
98.4073
 21
49.8478
  0
LINE
  8
0
 10
98.4073
 20
49.8478
 11
98.378
 21
49.8366
  0
LINE
  8
0
 10
98.378
 20
49.8366
 11
98.35
 21
49.8223
  0
LINE
  8
0
 10
98.35
 20
49.8223
 11
98.3237
 21
49.8052
  0
LINE
  8
0
 10
98.3237
 20
49.8052
 11
98.2993
 21
49.7854
  0
LINE
  8
0
 10
98.2993
 20
49.7854
 11
98.2771
 21
49.7632
  0
LINE
  8
0
 10
98.2771
 20
49.7632
 11
98.2573
 21
49.7388
  0
LINE
  8
0
 10
98.2573
 20
49.7388
 11
98.2402
 21
49.7125
  0
LINE
  8
0
 10
98.2402
 20
49.7125
 11
98.2259
 21
49.6845
  0
LINE
  8
0
 10
98.2259
 20
49.6845
 11
98.2147
 21
49.6552
  0
LINE
  8
0
 10
98.2147
 20
49.6552
 11
98.2066
 21
49.6249
  0
LINE
  8
0
 10
98.2066
 20
49.6249
 11
98.2016
 21
49.5939
  0
LINE
  8
0
 10
98.2016
 20
49.5939
 11
98.2
 21
49.5625
  0
LINE
  8
0
 10
98.2
 20
49.5625
 11
97
 21
49.5625
  0
LINE
  8
0
 10
97
 20
49.5625
 11
97
 21
40.25
  0
LINE
  8
0
 10
97
 20
40.25
 11
100
 21
40.25
  0
LINE
  8
0
 10
100
 20
40.25
 11
100
 21
30.9375
  0
LINE
  8
0
 10
100
 20
30.9375
 11
98.8
 21
30.9375
  0
LINE
  8
0
 10
98.8
 20
30.9375
 11
98.7984
 21
30.9689
  0
LINE
  8
0
 10
98.7984
 20
30.9689
 11
98.7934
 21
30.9999
  0
LINE
  8
0
 10
98.7934
 20
30.9999
 11
98.7853
 21
31.0302
  0
LINE
  8
0
 10
98.7853
 20
31.0302
 11
98.7741
 21
31.0595
  0
LINE
  8
0
 10
98.7741
 20
31.0595
 11
98.7598
 21
31.0875
  0
LINE
  8
0
 10
98.7598
 20
31.0875
 11
98.7427
 21
31.1138
  0
LINE
  8
0
 10
98.7427
 20
31.1138
 11
98.7229
 21
31.1382
  0
LINE
  8
0
 10
98.7229
 20
31.1382
 11
98.7007
 21
31.1604
  0
LINE
  8
0
 10
98.7007
 20
31.1604
 11
98.6763
 21
31.1802
  0
LINE
  8
0
 10
98.6763
 20
31.1802
 11
98.65
 21
31.1973
  0
LINE
  8
0
 10
98.65
 20
31.1973
 11
98.622
 21
31.2116
  0
LINE
  8
0
 10
98.622
 20
31.2116
 11
98.5927
 21
31.2228
  0
LINE
  8
0
 10
98.5927
 20
31.2228
 11
98.5624
 21
31.2309
  0
LINE
  8
0
 10
98.5624
 20
31.2309
 11
98.5314
 21
31.2359
  0
LINE
  8
0
 10
98.5314
 20
31.2359
 11
98.5
 21
31.2375
  0
LINE
  8
0
 10
98.5
 20
31.2375
 11
98.4686
 21
31.2359
  0
LINE
  8
0
 10
98.4686
 20
31.2359
 11
98.4376
 21
31.2309
  0
LINE
  8
0
 10
98.4376
 20
31.2309
 11
98.4073
 21
31.2228
  0
LINE
  8
0
 10
98.4073
 20
31.2228
 11
98.378
 21
31.2116
  0
LINE
  8
0
 10
98.378
 20
31.2116
 11
98.35
 21
31.1973
  0
LINE
  8
0
 10
98.35
 20
31.1973
 11
98.3237
 21
31.1802
  0
LINE
  8
0
 10
98.3237
 20
31.1802
 11
98.2993
 21
31.1604
  0
LINE
  8
0
 10
98.2993
 20
31.1604
 11
98.2771
 21
31.1382
  0
LINE
  8
0
 10
98.2771
 20
31.1382
 11
98.2573
 21
31.1138
  0
LINE
  8
0
 10
98.2573
 20
31.1138
 11
98.2402
 21
31.0875
  0
LINE
  8
0
 10
98.2402
 20
31.0875
 11
98.2259
 21
31.0595
  0
LINE
  8
0
 10
98.2259
 20
31.0595
 11
98.2147
 21
31.0302
  0
LINE
  8
0
 10
98.2147
 20
31.0302
 11
98.2066
 21
30.9999
  0
LINE
  8
0
 10
98.2066
 20
30.9999
 11
98.2016
 21
30.9689
  0
LINE
  8
0
 10
98.2016
 20
30.9689
 11
98.2
 21
30.9375
  0
LINE
  8
0
 10
98.2
 20
30.9375
 11
97
 21
30.9375
  0
LINE
  8
0
 10
97
 20
30.9375
 11
97
 21
21.625
  0
LINE
  8
0
 10
97
 20
21.625
 11
100
 21
21.625
  0
LINE
  8
0
 10
100
 20
21.625
 11
100
 21
12.3125
  0
LINE
  8
0
 10
100
 20
12.3125
 11
98.8
 21
12.3125
  0
LINE
  8
0
 10
98.8
 20
12.3125
 11
98.7984
 21
12.3439
  0
LINE
  8
0
 10
98.7984
 20
12.3439
 11
98.7934
 21
12.3749
  0
LINE
  8
0
 10
98.7934
 20
12.3749
 11
98.7853
 21
12.4052
  0
LINE
  8
0
 10
98.7853
 20
12.4052
 11
98.7741
 21
12.4345
  0
LINE
  8
0
 10
98.7741
 20
12.4345
 11
98.7598
 21
12.4625
  0
LINE
  8
0
 10
98.7598
 20
12.4625
 11
98.7427
 21
12.4888
  0
LINE
  8
0
 10
98.7427
 20
12.4888
 11
98.7229
 21
12.5132
  0
LINE
  8
0
 10
98.7229
 20
12.5132
 11
98.7007
 21
12.5354
  0
LINE
  8
0
 10
98.7007
 20
12.5354
 11
98.6763
 21
12.5552
  0
LINE
  8
0
 10
98.6763
 20
12.5552
 11
98.65
 21
12.5723
  0
LINE
  8
0
 10
98.65
 20
12.5723
 11
98.622
 21
12.5866
  0
LINE
  8
0
 10
98.622
 20
12.5866
 11
98.5927
 21
12.5978
  0
LINE
  8
0
 10
98.5927
 20
12.5978
 11
98.5624
 21
12.6059
  0
LINE
  8
0
 10
98.5624
 20
12.6059
 11
98.5314
 21
12.6109
  0
LINE
  8
0
 10
98.5314
 20
12.6109
 11
98.5
 21
12.6125
  0
LINE
  8
0
 10
98.5
 20
12.6125
 11
98.4686
 21
12.6109
  0
LINE
  8
0
 10
98.4686
 20
12.6109
 11
98.4376
 21
12.6059
  0
LINE
  8
0
 10
98.4376
 20
12.6059
 11
98.4073
 21
12.5978
  0
LINE
  8
0
 10
98.4073
 20
12.5978
 11
98.378
 21
12.5866
  0
LINE
  8
0
 10
98.378
 20
12.5866
 11
98.35
 21
12.5723
  0
LINE
  8
0
 10
98.35
 20
12.5723
 11
98.3237
 21
12.5552
  0
LINE
  8
0
 10
98.3237
 20
12.5552
 11
98.2993
 21
12.5354
  0
LINE
  8
0
 10
98.2993
 20
12.5354
 11
98.2771
 21
12.5132
  0
LINE
  8
0
 10
98.2771
 20
12.5132
 11
98.2573
 21
12.4888
  0
LINE
  8
0
 10
98.2573
 20
12.4888
 11
98.2402
 21
12.4625
  0
LINE
  8
0
 10
98.2402
 20
12.4625
 11
98.2259
 21
12.4345
  0
LINE
  8
0
 10
98.2259
 20
12.4345
 11
98.2147
 21
12.4052
  0
LINE
  8
0
 10
98.2147
 20
12.4052
 11
98.2066
 21
12.3749
  0
LINE
  8
0
 10
98.2066
 20
12.3749
 11
98.2016
 21
12.3439
  0
LINE
  8
0
 10
98.2016
 20
12.3439
 11
98.2
 21
12.3125
  0
LINE
  8
0
 10
98.2
 20
12.3125
 11
97
 21
12.3125
  0
LINE
  8
0
 10
97
 20
12.3125
 11
97
 21
3
  0
LINE
  8
0
 10
97
 20
3
 11
12
 21
3
  0
LINE
  8
0
 10
105
 20
60
 11
105
 21
70
  0
LINE
  8
0
 10
105
 20
70
 11
135
 21
70
  0
LINE
  8
0
 10
135
 20
70
 11
135
 21
60
  0
LINE
  8
0
 10
135
 20
60
 11
105
 21
60
  0
LINE
  8
0
 10
105
 20
30
 11
105
 21
40
  0
LINE
  8
0
 10
105
 20
40
 11
145
 21
40
  0
LINE
  8
0
 10
145
 20
40
 11
145
 21
30
  0
LINE
  8
0
 10
145
 20
30
 11
105
 21
30
  0
LINE
  8
0
 10
5.71776
 20
10.3148
 11
5.43863
 21
10.359
  0
LINE
  8
0
 10
5.43863
 20
10.359
 11
5.16565
 21
10.4321
  0
LINE
  8
0
 10
5.16565
 20
10.4321
 11
4.90181
 21
10.5334
  0
LINE
  8
0
 10
4.90181
 20
10.5334
 11
4.64999
 21
10.6617
  0
LINE
  8
0
 10
4.64999
 20
10.6617
 11
4.41298
 21
10.8156
  0
LINE
  8
0
 10
4.41298
 20
10.8156
 11
4.19334
 21
10.9935
  0
LINE
  8
0
 10
4.19334
 20
10.9935
 11
3.9935
 21
11.1933
  0
LINE
  8
0
 10
3.9935
 20
11.1933
 11
3.81564
 21
11.413
  0
LINE
  8
0
 10
3.81564
 20
11.413
 11
3.66173
 21
11.65
  0
LINE
  8
0
 10
3.66173
 20
11.65
 11
3.53342
 21
11.9018
  0
LINE
  8
0
 10
3.53342
 20
11.9018
 11
3.43214
 21
12.1656
  0
LINE
  8
0
 10
3.43214
 20
12.1656
 11
3.35899
 21
12.4386
  0
LINE
  8
0
 10
3.35899
 20
12.4386
 11
3.31479
 21
12.7178
  0
LINE
  8
0
 10
3.31479
 20
12.7178
 11
3.29999
 21
13
  0
LINE
  8
0
 10
3.29999
 20
13
 11
3.31479
 21
13.2822
  0
LINE
  8
0
 10
3.31479
 20
13.2822
 11
3.35899
 21
13.5614
  0
LINE
  8
0
 10
3.35899
 20
13.5614
 11
3.43214
 21
13.8343
  0
LINE
  8
0
 10
3.43214
 20
13.8343
 11
3.53342
 21
14.0982
  0
LINE
  8
0
 10
3.53342
 20
14.0982
 11
3.66173
 21
14.35
  0
LINE
  8
0
 10
3.66173
 20
14.35
 11
3.81564
 21
14.587
  0
LINE
  8
0
 10
3.81564
 20
14.587
 11
3.9935
 21
14.8066
  0
LINE
  8
0
 10
3.9935
 20
14.8066
 11
4.19334
 21
15.0065
  0
LINE
  8
0
 10
4.19334
 20
15.0065
 11
4.41298
 21
15.1843
  0
LINE
  8
0
 10
4.41298
 20
15.1843
 11
4.64999
 21
15.3383
  0
LINE
  8
0
 10
4.64999
 20
15.3383
 11
4.90181
 21
15.4666
  0
LINE
  8
0
 10
4.90181
 20
15.4666
 11
5.16565
 21
15.5678
  0
LINE
  8
0
 10
5.16565
 20
15.5678
 11
5.43863
 21
15.641
  0
LINE
  8
0
 10
5.43863
 20
15.641
 11
5.71776
 21
15.6852
  0
LINE
  8
0
 10
5.71776
 20
15.6852
 11
6
 21
15.7
  0
LINE
  8
0
 10
6
 20
15.7
 11
6.28223
 21
15.6852
  0
LINE
  8
0
 10
6.28223
 20
15.6852
 11
6.56136
 21
15.641
  0
LINE
  8
0
 10
6.56136
 20
15.641
 11
6.83434
 21
15.5678
  0
LINE
  8
0
 10
6.83434
 20
15.5678
 11
7.09818
 21
15.4666
  0
LINE
  8
0
 10
7.09818
 20
15.4666
 11
7.34999
 21
15.3383
  0
LINE
  8
0
 10
7.34999
 20
15.3383
 11
7.58701
 21
15.1843
  0
LINE
  8
0
 10
7.58701
 20
15.1843
 11
7.80664
 21
15.0065
  0
LINE
  8
0
 10
7.80664
 20
15.0065
 11
8.00648
 21
14.8066
  0
LINE
  8
0
 10
8.00648
 20
14.8066
 11
8.18434
 21
14.587
  0
LINE
  8
0
 10
8.18434
 20
14.587
 11
8.33826
 21
14.35
  0
LINE
  8
0
 10
8.33826
 20
14.35
 11
8.46657
 21
14.0982
  0
LINE
  8
0
 10
8.46657
 20
14.0982
 11
8.56784
 21
13.8343
  0
LINE
  8
0
 10
8.56784
 20
13.8343
 11
8.64099
 21
13.5614
  0
LINE
  8
0
 10
8.64099
 20
13.5614
 11
8.6852
 21
13.2822
  0
LINE
  8
0
 10
8.6852
 20
13.2822
 11
8.7
 21
13
  0
LINE
  8
0
 10
8.7
 20
13
 11
8.6852
 21
12.7178
  0
LINE
  8
0
 10
8.6852
 20
12.7178
 11
8.64099
 21
12.4386
  0
LINE
  8
0
 10
8.64099
 20
12.4386
 11
8.60719
 21
12.3125
  0
LINE
  8
0
 10
8.60719
 20
12.3125
 11
6
 21
12.3125
  0
LINE
  8
0
 10
6
 20
12.3125
 11
6
 21
10.3
  0
LINE
  8
0
 10
6
 20
10.3
 11
5.71776
 21
10.3148
  0
LINE
  8
0
 10
119.718
 20
0.314789
 11
119.439
 21
0.358994
  0
LINE
  8
0
 10
119.439
 20
0.358994
 11
119.166
 21
0.432144
  0
LINE
  8
0
 10
119.166
 20
0.432144
 11
118.902
 21
0.533417
  0
LINE
  8
0
 10
118.902
 20
0.533417
 11
118.65
 21
0.661728
  0
LINE
  8
0
 10
118.65
 20
0.661728
 11
118.413
 21
0.815643
  0
LINE
  8
0
 10
118.413
 20
0.815643
 11
118.193
 21
0.9935
  0
LINE
  8
0
 10
118.193
 20
0.9935
 11
117.993
 21
1.19334
  0
LINE
  8
0
 10
117.993
 20
1.19334
 11
117.816
 21
1.41298
  0
LINE
  8
0
 10
117.816
 20
1.41298
 11
117.662
 21
1.64999
  0
LINE
  8
0
 10
117.662
 20
1.64999
 11
117.533
 21
1.90181
  0
LINE
  8
0
 10
117.533
 20
1.90181
 11
117.432
 21
2.16565
  0
LINE
  8
0
 10
117.432
 20
2.16565
 11
117.359
 21
2.43863
  0
LINE
  8
0
 10
117.359
 20
2.43863
 11
117.315
 21
2.71776
  0
LINE
  8
0
 10
117.315
 20
2.71776
 11
117.3
 21
3
  0
LINE
  8
0
 10
117.3
 20
3
 11
117.315
 21
3.28223
  0
LINE
  8
0
 10
117.315
 20
3.28223
 11
117.359
 21
3.56136
  0
LINE
  8
0
 10
117.359
 20
3.56136
 11
117.432
 21
3.83434
  0
LINE
  8
0
 10
117.432
 20
3.83434
 11
117.533
 21
4.09818
  0
LINE
  8
0
 10
117.533
 20
4.09818
 11
117.662
 21
4.34999
  0
LINE
  8
0
 10
117.662
 20
4.34999
 11
117.816
 21
4.58701
  0
LINE
  8
0
 10
117.816
 20
4.58701
 11
117.993
 21
4.80664
  0
LINE
  8
0
 10
117.993
 20
4.80664
 11
118.193
 21
5.00648
  0
LINE
  8
0
 10
118.193
 20
5.00648
 11
118.413
 21
5.18434
  0
LINE
  8
0
 10
118.413
 20
5.18434
 11
118.65
 21
5.33826
  0
LINE
  8
0
 10
118.65
 20
5.33826
 11
118.902
 21
5.46657
  0
LINE
  8
0
 10
118.902
 20
5.46657
 11
119.166
 21
5.56784
  0
LINE
  8
0
 10
119.166
 20
5.56784
 11
119.439
 21
5.64099
  0
LINE
  8
0
 10
119.439
 20
5.64099
 11
119.718
 21
5.6852
  0
LINE
  8
0
 10
119.718
 20
5.6852
 11
120
 21
5.7
  0
LINE
  8
0
 10
120
 20
5.7
 11
120.282
 21
5.6852
  0
LINE
  8
0
 10
120.282
 20
5.6852
 11
120.561
 21
5.64099
  0
LINE
  8
0
 10
120.561
 20
5.64099
 11
120.834
 21
5.56784
  0
LINE
  8
0
 10
120.834
 20
5.56784
 11
121.098
 21
5.46657
  0
LINE
  8
0
 10
121.098
 20
5.46657
 11
121.35
 21
5.33826
  0
LINE
  8
0
 10
121.35
 20
5.33826
 11
121.587
 21
5.18434
  0
LINE
  8
0
 10
121.587
 20
5.18434
 11
121.807
 21
5.00648
  0
LINE
  8
0
 10
121.807
 20
5.00648
 11
122.006
 21
4.80664
  0
LINE
  8
0
 10
122.006
 20
4.80664
 11
122.184
 21
4.58701
  0
LINE
  8
0
 10
122.184
 20
4.58701
 11
122.338
 21
4.34999
  0
LINE
  8
0
 10
122.338
 20
4.34999
 11
122.467
 21
4.09818
  0
LINE
  8
0
 10
122.467
 20
4.09818
 11
122.568
 21
3.83434
  0
LINE
  8
0
 10
122.568
 20
3.83434
 11
122.641
 21
3.56136
  0
LINE
  8
0
 10
122.641
 20
3.56136
 11
122.685
 21
3.28223
  0
LINE
  8
0
 10
122.685
 20
3.28223
 11
122.7
 21
3
  0
LINE
  8
0
 10
122.7
 20
3
 11
122.685
 21
2.71776
  0
LINE
  8
0
 10
122.685
 20
2.71776
 11
122.641
 21
2.43863
  0
LINE
  8
0
 10
122.641
 20
2.43863
 11
122.568
 21
2.16565
  0
LINE
  8
0
 10
122.568
 20
2.16565
 11
122.467
 21
1.90181
  0
LINE
  8
0
 10
122.467
 20
1.90181
 11
122.338
 21
1.64999
  0
LINE
  8
0
 10
122.338
 20
1.64999
 11
122.184
 21
1.41298
  0
LINE
  8
0
 10
122.184
 20
1.41298
 11
122.006
 21
1.19334
  0
LINE
  8
0
 10
122.006
 20
1.19334
 11
121.807
 21
0.9935
  0
LINE
  8
0
 10
121.807
 20
0.9935
 11
121.587
 21
0.815643
  0
LINE
  8
0
 10
121.587
 20
0.815643
 11
121.35
 21
0.661728
  0
LINE
  8
0
 10
121.35
 20
0.661728
 11
121.098
 21
0.533417
  0
LINE
  8
0
 10
121.098
 20
0.533417
 11
120.834
 21
0.432144
  0
LINE
  8
0
 10
120.834
 20
0.432144
 11
120.561
 21
0.358994
  0
LINE
  8
0
 10
120.561
 20
0.358994
 11
120.282
 21
0.314789
  0
LINE
  8
0
 10
120.282
 20
0.314789
 11
120
 21
0.299988
  0
LINE
  8
0
 10
120
 20
0.299988
 11
119.718
 21
0.314789
  0
LINE
  8
0
 10
274.6
 20
-3
 11
277.6
 21
-3
  0
LINE
  8
0
 10
277.6
 20
-3
 11
277.6
 21
0
  0
LINE
  8
0
 10
277.6
 20
0
 11
333.6
 21
0
  0
LINE
  8
0
 10
333.6
 20
0
 11
333.6
 21
-3
  0
LINE
  8
0
 10
333.6
 20
-3
 11
336.6
 21
-3
  0
LINE
  8
0
 10
336.6
 20
-3
 11
336.6
 21
0
  0
LINE
  8
0
 10
336.6
 20
0
 11
350.6
 21
0
  0
LINE
  8
0
 10
350.6
 20
0
 11
350.6
 21
10.5
  0
LINE
  8
0
 10
350.6
 20
10.5
 11
353.6
 21
10.5
  0
LINE
  8
0
 10
353.6
 20
10.5
 11
353.6
 21
13.5
  0
LINE
  8
0
 10
353.6
 20
13.5
 11
350.6
 21
13.5
  0
LINE
  8
0
 10
350.6
 20
13.5
 11
350.6
 21
35.75
  0
LINE
  8
0
 10
350.6
 20
35.75
 11
347.6
 21
35.75
  0
LINE
  8
0
 10
347.6
 20
35.75
 11
347.6
 21
32.75
  0
LINE
  8
0
 10
347.6
 20
32.75
 11
344.6
 21
32.75
  0
LINE
  8
0
 10
344.6
 20
32.75
 11
344.6
 21
35.75
  0
LINE
  8
0
 10
344.6
 20
35.75
 11
341.6
 21
35.75
  0
LINE
  8
0
 10
341.6
 20
35.75
 11
341.6
 21
38.75
  0
LINE
  8
0
 10
341.6
 20
38.75
 11
344.6
 21
38.75
  0
LINE
  8
0
 10
344.6
 20
38.75
 11
344.6
 21
41.75
  0
LINE
  8
0
 10
344.6
 20
41.75
 11
347.6
 21
41.75
  0
LINE
  8
0
 10
347.6
 20
41.75
 11
347.6
 21
38.75
  0
LINE
  8
0
 10
347.6
 20
38.75
 11
350.6
 21
38.75
  0
LINE
  8
0
 10
350.6
 20
38.75
 11
350.6
 21
62
  0
LINE
  8
0
 10
350.6
 20
62
 11
353.6
 21
62
  0
LINE
  8
0
 10
353.6
 20
62
 11
353.6
 21
65
  0
LINE
  8
0
 10
353.6
 20
65
 11
350.6
 21
65
  0
LINE
  8
0
 10
350.6
 20
65
 11
350.6
 21
74.5
  0
LINE
  8
0
 10
350.6
 20
74.5
 11
336.6
 21
74.5
  0
LINE
  8
0
 10
336.6
 20
74.5
 11
336.6
 21
77.5
  0
LINE
  8
0
 10
336.6
 20
77.5
 11
333.6
 21
77.5
  0
LINE
  8
0
 10
333.6
 20
77.5
 11
333.6
 21
74.5
  0
LINE
  8
0
 10
333.6
 20
74.5
 11
277.6
 21
74.5
  0
LINE
  8
0
 10
277.6
 20
74.5
 11
277.6
 21
77.5
  0
LINE
  8
0
 10
277.6
 20
77.5
 11
274.6
 21
77.5
  0
LINE
  8
0
 10
274.6
 20
77.5
 11
274.6
 21
74.5
  0
LINE
  8
0
 10
274.6
 20
74.5
 11
215.6
 21
74.5
  0
LINE
  8
0
 10
215.6
 20
74.5
 11
215.6
 21
77.5
  0
LINE
  8
0
 10
215.6
 20
77.5
 11
212.6
 21
77.5
  0
LINE
  8
0
 10
212.6
 20
77.5
 11
212.6
 21
74.5
  0
LINE
  8
0
 10
212.6
 20
74.5
 11
159.6
 21
74.5
  0
LINE
  8
0
 10
159.6
 20
74.5
 11
159.6
 21
77.5
  0
LINE
  8
0
 10
159.6
 20
77.5
 11
156.6
 21
77.5
  0
LINE
  8
0
 10
156.6
 20
77.5
 11
156.6
 21
74.5
  0
LINE
  8
0
 10
156.6
 20
74.5
 11
152.1
 21
74.5
  0
LINE
  8
0
 10
152.1
 20
74.5
 11
152.1
 21
0
  0
LINE
  8
0
 10
152.1
 20
0
 11
156.6
 21
0
  0
LINE
  8
0
 10
156.6
 20
0
 11
156.6
 21
-3
  0
LINE
  8
0
 10
156.6
 20
-3
 11
159.6
 21
-3
  0
LINE
  8
0
 10
159.6
 20
-3
 11
159.6
 21
0
  0
LINE
  8
0
 10
159.6
 20
0
 11
212.6
 21
0
  0
LINE
  8
0
 10
212.6
 20
0
 11
212.6
 21
-3
  0
LINE
  8
0
 10
212.6
 20
-3
 11
215.6
 21
-3
  0
LINE
  8
0
 10
215.6
 20
-3
 11
215.6
 21
0
  0
LINE
  8
0
 10
215.6
 20
0
 11
274.6
 21
0
  0
LINE
  8
0
 10
274.6
 20
0
 11
274.6
 21
-3
  0
LINE
  8
0
 10
335.6
 20
50
 11
335.6
 21
60
  0
LINE
  8
0
 10
335.6
 20
60
 11
345.6
 21
60
  0
LINE
  8
0
 10
345.6
 20
60
 11
345.6
 21
50
  0
LINE
  8
0
 10
345.6
 20
50
 11
335.6
 21
50
  0
LINE
  8
0
 10
335.6
 20
10
 11
335.6
 21
20
  0
LINE
  8
0
 10
335.6
 20
20
 11
345.6
 21
20
  0
LINE
  8
0
 10
345.6
 20
20
 11
345.6
 21
10
  0
LINE
  8
0
 10
345.6
 20
10
 11
335.6
 21
10
  0
ENDSEC
  0
SECTION
  2
OBJECTS
  0
DICTIONARY
  0
ENDSEC
  0
EOF
