M48
INCH,TZ
T1C0.0120
T2C0.0236
T3C0.0315
T4C0.0362
T5C0.0394
T6C0.0551
T7C0.0906
T8C0.2087
%
G90
G05
T1
X44460Y-27360
X45440Y-24240
X45440Y-25000
X45898Y-27012
X45900Y-24200
X47800Y-26600
X49584Y-28459
X51150Y-42900
X51150Y-43350
X51167Y-43852
X51200Y-42400
X51200Y-44900
X51200Y-45350
X51200Y-45800
X51200Y-46250
X51240Y-29920
X51600Y-42450
X51600Y-42900
X51600Y-43350
X51600Y-43800
X51650Y-44900
X51650Y-45350
X51650Y-45800
X51650Y-46250
X51728Y-26947
X52050Y-42450
X52050Y-42900
X52050Y-43350
X52050Y-43800
X52100Y-44900
X52100Y-45350
X52100Y-45800
X52100Y-46250
X52500Y-42450
X52500Y-42900
X52500Y-43350
X52500Y-43800
X52550Y-40550
X52550Y-41000
X52550Y-41450
X52550Y-44900
X52550Y-45350
X52550Y-45800
X52550Y-46250
X53000Y-40550
X53000Y-41000
X53000Y-41450
X53254Y-38264
X53450Y-40550
X53450Y-41000
X53450Y-41450
X53900Y-40550
X53900Y-41000
X53900Y-41450
X54150Y-42450
X54150Y-42900
X54150Y-43350
X54150Y-43800
X54150Y-44900
X54150Y-45350
X54150Y-45800
X54150Y-46250
X54350Y-40550
X54350Y-41000
X54350Y-41450
X54431Y-47452
X54600Y-42450
X54600Y-42900
X54600Y-43350
X54600Y-43800
X54600Y-44900
X54600Y-45350
X54600Y-45800
X54600Y-46250
X55050Y-42450
X55050Y-42900
X55050Y-43350
X55050Y-43800
X55050Y-44900
X55050Y-45350
X55050Y-45800
X55050Y-46250
X55500Y-42450
X55500Y-42900
X55500Y-43350
X55500Y-43800
X55500Y-44900
X55500Y-45350
X55500Y-45800
X55500Y-46250
X56480Y-46820
X56872Y-44066
X57100Y-47080
X57229Y-42265
X58040Y-43080
X58300Y-45520
X58320Y-45060
X59370Y-44275
X59960Y-47180
X60068Y-43356
X60080Y-42380
X60440Y-42120
X60440Y-42980
X60600Y-43480
X61808Y-45011
X62260Y-42620
X62280Y-43080
X62600Y-41740
X62740Y-42580
X62800Y-47160
X63240Y-25020
X63266Y-44802
X63380Y-46840
X63820Y-23480
X64350Y-42425
X64350Y-42875
X64350Y-43325
X64350Y-43775
X64350Y-44825
X64350Y-45275
X64350Y-45725
X64350Y-46175
X64800Y-42425
X64800Y-42875
X64800Y-43325
X64800Y-43775
X64800Y-44825
X64800Y-45275
X64800Y-45725
X64800Y-46175
X65250Y-42425
X65250Y-42875
X65250Y-43325
X65250Y-43775
X65250Y-44825
X65250Y-45275
X65250Y-45725
X65250Y-46175
X65650Y-40550
X65650Y-41000
X65650Y-41450
X65700Y-42425
X65700Y-42900
X65700Y-43325
X65700Y-43775
X65700Y-44800
X65700Y-45300
X65700Y-45725
X65700Y-46175
X66100Y-40550
X66100Y-41000
X66100Y-41450
X66488Y-38391
X66550Y-40550
X66550Y-41450
X66570Y-41000
X67000Y-40550
X67000Y-41000
X67000Y-41450
X67140Y-29140
X67225Y-42450
X67225Y-42900
X67225Y-43350
X67225Y-43800
X67275Y-44850
X67275Y-45300
X67275Y-45750
X67275Y-46200
X67380Y-24600
X67380Y-25100
X67450Y-40550
X67450Y-41000
X67450Y-41450
X67460Y-28160
X67675Y-42450
X67675Y-42900
X67675Y-43350
X67675Y-43800
X67725Y-44850
X67725Y-45300
X67725Y-45750
X67725Y-46200
X67820Y-29140
X68113Y-23766
X68125Y-42450
X68125Y-42900
X68125Y-43350
X68125Y-43800
X68175Y-44850
X68175Y-45300
X68175Y-45750
X68175Y-46200
X68575Y-42450
X68575Y-42900
X68575Y-43350
X68575Y-43800
X68625Y-44850
X68625Y-45300
X68625Y-45750
X68625Y-46200
X68940Y-28160
X69420Y-30220
X69420Y-30720
X69640Y-25140
X70000Y-28160
X70700Y-24600
X70780Y-25120
T2
X45685Y-44000
X46143Y-42893
X46143Y-45107
X47250Y-42435
X47250Y-45565
X48357Y-42893
X48357Y-45107
X48815Y-44000
X71235Y-44000
X71693Y-42893
X71693Y-45107
X72800Y-42435
X72800Y-45565
X73907Y-42893
X73907Y-45107
X74365Y-44000
X64635Y-49500
X65093Y-48393
X65093Y-50607
X66200Y-47935
X66200Y-51065
X67307Y-48393
X67307Y-50607
X67765Y-49500
X52135Y-49500
X52593Y-48393
X52593Y-50607
X53700Y-47935
X53700Y-51065
X54807Y-48393
X54807Y-50607
X55265Y-49500
T3
X51591Y-34950
X52575Y-34950
X67475Y-34950
X68459Y-34950
X62175Y-25029
X62175Y-26950
X54350Y-34950
X55334Y-34950
X64716Y-34950
X65700Y-34950
T4
X72463Y-25857
X72463Y-27117
X73447Y-25857
X73447Y-27117
T5
X75300Y-29475
X75300Y-30475
X75300Y-31475
X45000Y-28350
X45000Y-29350
X45000Y-30350
X45000Y-31350
T6
X57539Y-34980
X57539Y-37145
X59193Y-34980
X59193Y-37145
X60846Y-34980
X60846Y-37145
X62500Y-34980
X62500Y-37145
X70835Y-30800
X70835Y-32454
X70835Y-34107
X73000Y-30800
X73000Y-32454
X73000Y-34107
X53336Y-24835
X53336Y-27000
X54989Y-24835
X54989Y-27000
X56643Y-24835
X56643Y-27000
X58296Y-24835
X58296Y-27000
X59950Y-24835
X59950Y-27000
X57448Y-48250
X57448Y-50415
X59102Y-48250
X59102Y-50415
X60755Y-48250
X60755Y-50415
X62409Y-48250
X62409Y-50415
X53386Y-30235
X53386Y-32400
X55039Y-30235
X55039Y-32400
X56693Y-30235
X56693Y-32400
X58346Y-30235
X58346Y-32400
X60000Y-30235
X60000Y-32400
X61654Y-30235
X61654Y-32400
X63307Y-30235
X63307Y-32400
X64961Y-30235
X64961Y-32400
X66614Y-30235
X66614Y-32400
X57470Y-53950
X57470Y-56115
X59123Y-53950
X59123Y-56115
X60777Y-53950
X60777Y-56115
X62430Y-53950
X62430Y-56115
X69696Y-48250
X69696Y-50415
X71350Y-48250
X71350Y-50415
X73004Y-48250
X73004Y-50415
X74657Y-48250
X74657Y-50415
X47200Y-36925
X47200Y-38579
X47200Y-40232
X49365Y-36925
X49365Y-38579
X49365Y-40232
X47200Y-30800
X47200Y-32454
X47200Y-34107
X49365Y-30800
X49365Y-32454
X49365Y-34107
X45200Y-48250
X45200Y-50415
X46854Y-48250
X46854Y-50415
X48507Y-48250
X48507Y-50415
X50161Y-48250
X50161Y-50415
X70835Y-36925
X70835Y-38579
X70835Y-40232
X73000Y-36925
X73000Y-38579
X73000Y-40232
X69714Y-53950
X69714Y-56115
X71368Y-53950
X71368Y-56115
X73021Y-53950
X73021Y-56115
X74675Y-53950
X74675Y-56115
X45225Y-53950
X45225Y-56115
X46879Y-53950
X46879Y-56115
X48532Y-53950
X48532Y-56115
X50186Y-53950
X50186Y-56115
T7
X70585Y-26050
X75325Y-26050
T8
X72800Y-44000
X53700Y-49500
X47250Y-44000
X66200Y-49500
T0
M30
