G04 #@! TF.GenerationSoftware,KiCad,Pcbnew,(5.0.0)*
G04 #@! TF.CreationDate,2018-12-05T00:13:52-06:00*
G04 #@! TF.ProjectId,0002-ATX,303030322D4154582E6B696361645F70,0000*
G04 #@! TF.SameCoordinates,Original*
G04 #@! TF.FileFunction,Legend,Top*
G04 #@! TF.FilePolarity,Positive*
%FSLAX46Y46*%
G04 Gerber Fmt 4.6, Leading zero omitted, Abs format (unit mm)*
G04 Created by KiCad (PCBNEW (5.0.0)) date 12/05/18 00:13:52*
%MOMM*%
%LPD*%
G01*
G04 APERTURE LIST*
%ADD10C,0.120000*%
%ADD11C,0.150000*%
G04 APERTURE END LIST*
D10*
G04 #@! TO.C,C15*
X142316820Y-87593864D02*
G75*
G03X136281518Y-87593000I-3017820J-1179136D01*
G01*
X142316820Y-89952136D02*
G75*
G02X136281518Y-89953000I-3017820J1179136D01*
G01*
X142316820Y-89952136D02*
G75*
G03X142316482Y-87593000I-3017820J1179136D01*
G01*
X139299000Y-85573000D02*
X139299000Y-91973000D01*
X139339000Y-85573000D02*
X139339000Y-91973000D01*
X139379000Y-85573000D02*
X139379000Y-91973000D01*
X139419000Y-85575000D02*
X139419000Y-91971000D01*
X139459000Y-85576000D02*
X139459000Y-91970000D01*
X139499000Y-85579000D02*
X139499000Y-91967000D01*
X139539000Y-85581000D02*
X139539000Y-91965000D01*
X139579000Y-85585000D02*
X139579000Y-87793000D01*
X139579000Y-89753000D02*
X139579000Y-91961000D01*
X139619000Y-85588000D02*
X139619000Y-87793000D01*
X139619000Y-89753000D02*
X139619000Y-91958000D01*
X139659000Y-85593000D02*
X139659000Y-87793000D01*
X139659000Y-89753000D02*
X139659000Y-91953000D01*
X139699000Y-85597000D02*
X139699000Y-87793000D01*
X139699000Y-89753000D02*
X139699000Y-91949000D01*
X139739000Y-85603000D02*
X139739000Y-87793000D01*
X139739000Y-89753000D02*
X139739000Y-91943000D01*
X139779000Y-85608000D02*
X139779000Y-87793000D01*
X139779000Y-89753000D02*
X139779000Y-91938000D01*
X139819000Y-85615000D02*
X139819000Y-87793000D01*
X139819000Y-89753000D02*
X139819000Y-91931000D01*
X139859000Y-85621000D02*
X139859000Y-87793000D01*
X139859000Y-89753000D02*
X139859000Y-91925000D01*
X139899000Y-85629000D02*
X139899000Y-87793000D01*
X139899000Y-89753000D02*
X139899000Y-91917000D01*
X139939000Y-85636000D02*
X139939000Y-87793000D01*
X139939000Y-89753000D02*
X139939000Y-91910000D01*
X139979000Y-85645000D02*
X139979000Y-87793000D01*
X139979000Y-89753000D02*
X139979000Y-91901000D01*
X140020000Y-85654000D02*
X140020000Y-87793000D01*
X140020000Y-89753000D02*
X140020000Y-91892000D01*
X140060000Y-85663000D02*
X140060000Y-87793000D01*
X140060000Y-89753000D02*
X140060000Y-91883000D01*
X140100000Y-85673000D02*
X140100000Y-87793000D01*
X140100000Y-89753000D02*
X140100000Y-91873000D01*
X140140000Y-85683000D02*
X140140000Y-87793000D01*
X140140000Y-89753000D02*
X140140000Y-91863000D01*
X140180000Y-85694000D02*
X140180000Y-87793000D01*
X140180000Y-89753000D02*
X140180000Y-91852000D01*
X140220000Y-85706000D02*
X140220000Y-87793000D01*
X140220000Y-89753000D02*
X140220000Y-91840000D01*
X140260000Y-85718000D02*
X140260000Y-87793000D01*
X140260000Y-89753000D02*
X140260000Y-91828000D01*
X140300000Y-85731000D02*
X140300000Y-87793000D01*
X140300000Y-89753000D02*
X140300000Y-91815000D01*
X140340000Y-85744000D02*
X140340000Y-87793000D01*
X140340000Y-89753000D02*
X140340000Y-91802000D01*
X140380000Y-85758000D02*
X140380000Y-87793000D01*
X140380000Y-89753000D02*
X140380000Y-91788000D01*
X140420000Y-85772000D02*
X140420000Y-87793000D01*
X140420000Y-89753000D02*
X140420000Y-91774000D01*
X140460000Y-85787000D02*
X140460000Y-87793000D01*
X140460000Y-89753000D02*
X140460000Y-91759000D01*
X140500000Y-85803000D02*
X140500000Y-87793000D01*
X140500000Y-89753000D02*
X140500000Y-91743000D01*
X140540000Y-85819000D02*
X140540000Y-87793000D01*
X140540000Y-89753000D02*
X140540000Y-91727000D01*
X140580000Y-85836000D02*
X140580000Y-87793000D01*
X140580000Y-89753000D02*
X140580000Y-91710000D01*
X140620000Y-85854000D02*
X140620000Y-87793000D01*
X140620000Y-89753000D02*
X140620000Y-91692000D01*
X140660000Y-85872000D02*
X140660000Y-87793000D01*
X140660000Y-89753000D02*
X140660000Y-91674000D01*
X140700000Y-85891000D02*
X140700000Y-87793000D01*
X140700000Y-89753000D02*
X140700000Y-91655000D01*
X140740000Y-85910000D02*
X140740000Y-87793000D01*
X140740000Y-89753000D02*
X140740000Y-91636000D01*
X140780000Y-85930000D02*
X140780000Y-87793000D01*
X140780000Y-89753000D02*
X140780000Y-91616000D01*
X140820000Y-85951000D02*
X140820000Y-87793000D01*
X140820000Y-89753000D02*
X140820000Y-91595000D01*
X140860000Y-85973000D02*
X140860000Y-87793000D01*
X140860000Y-89753000D02*
X140860000Y-91573000D01*
X140900000Y-85995000D02*
X140900000Y-87793000D01*
X140900000Y-89753000D02*
X140900000Y-91551000D01*
X140940000Y-86018000D02*
X140940000Y-87793000D01*
X140940000Y-89753000D02*
X140940000Y-91528000D01*
X140980000Y-86042000D02*
X140980000Y-87793000D01*
X140980000Y-89753000D02*
X140980000Y-91504000D01*
X141020000Y-86067000D02*
X141020000Y-87793000D01*
X141020000Y-89753000D02*
X141020000Y-91479000D01*
X141060000Y-86092000D02*
X141060000Y-87793000D01*
X141060000Y-89753000D02*
X141060000Y-91454000D01*
X141100000Y-86119000D02*
X141100000Y-87793000D01*
X141100000Y-89753000D02*
X141100000Y-91427000D01*
X141140000Y-86146000D02*
X141140000Y-87793000D01*
X141140000Y-89753000D02*
X141140000Y-91400000D01*
X141180000Y-86174000D02*
X141180000Y-87793000D01*
X141180000Y-89753000D02*
X141180000Y-91372000D01*
X141220000Y-86203000D02*
X141220000Y-87793000D01*
X141220000Y-89753000D02*
X141220000Y-91343000D01*
X141260000Y-86233000D02*
X141260000Y-87793000D01*
X141260000Y-89753000D02*
X141260000Y-91313000D01*
X141300000Y-86263000D02*
X141300000Y-87793000D01*
X141300000Y-89753000D02*
X141300000Y-91283000D01*
X141340000Y-86295000D02*
X141340000Y-87793000D01*
X141340000Y-89753000D02*
X141340000Y-91251000D01*
X141380000Y-86328000D02*
X141380000Y-87793000D01*
X141380000Y-89753000D02*
X141380000Y-91218000D01*
X141420000Y-86362000D02*
X141420000Y-87793000D01*
X141420000Y-89753000D02*
X141420000Y-91184000D01*
X141460000Y-86398000D02*
X141460000Y-87793000D01*
X141460000Y-89753000D02*
X141460000Y-91148000D01*
X141500000Y-86434000D02*
X141500000Y-87793000D01*
X141500000Y-89753000D02*
X141500000Y-91112000D01*
X141540000Y-86472000D02*
X141540000Y-91074000D01*
X141580000Y-86511000D02*
X141580000Y-91035000D01*
X141620000Y-86551000D02*
X141620000Y-90995000D01*
X141660000Y-86593000D02*
X141660000Y-90953000D01*
X141700000Y-86636000D02*
X141700000Y-90910000D01*
X141740000Y-86681000D02*
X141740000Y-90865000D01*
X141780000Y-86728000D02*
X141780000Y-90818000D01*
X141820000Y-86776000D02*
X141820000Y-90770000D01*
X141860000Y-86827000D02*
X141860000Y-90719000D01*
X141900000Y-86879000D02*
X141900000Y-90667000D01*
X141940000Y-86934000D02*
X141940000Y-90612000D01*
X141980000Y-86992000D02*
X141980000Y-90554000D01*
X142020000Y-87052000D02*
X142020000Y-90494000D01*
X142060000Y-87115000D02*
X142060000Y-90431000D01*
X142100000Y-87182000D02*
X142100000Y-90364000D01*
X142140000Y-87253000D02*
X142140000Y-90293000D01*
X142180000Y-87328000D02*
X142180000Y-90218000D01*
X142220000Y-87409000D02*
X142220000Y-90137000D01*
X142260000Y-87495000D02*
X142260000Y-90051000D01*
X142300000Y-87589000D02*
X142300000Y-89957000D01*
X142340000Y-87692000D02*
X142340000Y-89854000D01*
X142380000Y-87807000D02*
X142380000Y-89739000D01*
X142420000Y-87939000D02*
X142420000Y-89607000D01*
X142460000Y-88097000D02*
X142460000Y-89449000D01*
X142500000Y-88305000D02*
X142500000Y-89241000D01*
X135849000Y-88773000D02*
X137049000Y-88773000D01*
X136449000Y-88123000D02*
X136449000Y-89423000D01*
G04 #@! TO.C,L3*
X162788000Y-92890000D02*
X165788000Y-92890000D01*
X162788000Y-105490000D02*
X162788000Y-92890000D01*
X165788000Y-105490000D02*
X162788000Y-105490000D01*
X175388000Y-105490000D02*
X172388000Y-105490000D01*
X175388000Y-92890000D02*
X175388000Y-105490000D01*
X172388000Y-92890000D02*
X175388000Y-92890000D01*
G04 #@! TO.C,C29*
X140206000Y-140270000D02*
X140206000Y-138090000D01*
X140206000Y-133670000D02*
X140206000Y-135850000D01*
X133606000Y-139510000D02*
X133606000Y-138090000D01*
X133606000Y-134430000D02*
X133606000Y-135850000D01*
X140206000Y-140270000D02*
X134366000Y-140270000D01*
X134366000Y-140270000D02*
X133606000Y-139510000D01*
X133606000Y-134430000D02*
X134366000Y-133670000D01*
X134366000Y-133670000D02*
X140206000Y-133670000D01*
G04 #@! TO.C,C4*
X130904000Y-66155200D02*
X129904000Y-66155200D01*
X129904000Y-67855200D02*
X130904000Y-67855200D01*
G04 #@! TO.C,C5*
X129904000Y-66077200D02*
X130904000Y-66077200D01*
X130904000Y-64377200D02*
X129904000Y-64377200D01*
G04 #@! TO.C,C6*
X130904000Y-62599200D02*
X129904000Y-62599200D01*
X129904000Y-64299200D02*
X130904000Y-64299200D01*
G04 #@! TO.C,U1*
X125716000Y-68062200D02*
X122766000Y-68062200D01*
X123916000Y-71282200D02*
X125716000Y-71282200D01*
G04 #@! TO.C,R1*
X129480000Y-71187200D02*
X128280000Y-71187200D01*
X128280000Y-69427200D02*
X129480000Y-69427200D01*
G04 #@! TO.C,C25*
X168478000Y-89423000D02*
X168478000Y-88123000D01*
X169078000Y-88773000D02*
X167878000Y-88773000D01*
X162427000Y-89241000D02*
X162427000Y-88305000D01*
X162467000Y-89449000D02*
X162467000Y-88097000D01*
X162507000Y-89607000D02*
X162507000Y-87939000D01*
X162547000Y-89739000D02*
X162547000Y-87807000D01*
X162587000Y-89854000D02*
X162587000Y-87692000D01*
X162627000Y-89957000D02*
X162627000Y-87589000D01*
X162667000Y-90051000D02*
X162667000Y-87495000D01*
X162707000Y-90137000D02*
X162707000Y-87409000D01*
X162747000Y-90218000D02*
X162747000Y-87328000D01*
X162787000Y-90293000D02*
X162787000Y-87253000D01*
X162827000Y-90364000D02*
X162827000Y-87182000D01*
X162867000Y-90431000D02*
X162867000Y-87115000D01*
X162907000Y-90494000D02*
X162907000Y-87052000D01*
X162947000Y-90554000D02*
X162947000Y-86992000D01*
X162987000Y-90612000D02*
X162987000Y-86934000D01*
X163027000Y-90667000D02*
X163027000Y-86879000D01*
X163067000Y-90719000D02*
X163067000Y-86827000D01*
X163107000Y-90770000D02*
X163107000Y-86776000D01*
X163147000Y-90818000D02*
X163147000Y-86728000D01*
X163187000Y-90865000D02*
X163187000Y-86681000D01*
X163227000Y-90910000D02*
X163227000Y-86636000D01*
X163267000Y-90953000D02*
X163267000Y-86593000D01*
X163307000Y-90995000D02*
X163307000Y-86551000D01*
X163347000Y-91035000D02*
X163347000Y-86511000D01*
X163387000Y-91074000D02*
X163387000Y-86472000D01*
X163427000Y-87793000D02*
X163427000Y-86434000D01*
X163427000Y-91112000D02*
X163427000Y-89753000D01*
X163467000Y-87793000D02*
X163467000Y-86398000D01*
X163467000Y-91148000D02*
X163467000Y-89753000D01*
X163507000Y-87793000D02*
X163507000Y-86362000D01*
X163507000Y-91184000D02*
X163507000Y-89753000D01*
X163547000Y-87793000D02*
X163547000Y-86328000D01*
X163547000Y-91218000D02*
X163547000Y-89753000D01*
X163587000Y-87793000D02*
X163587000Y-86295000D01*
X163587000Y-91251000D02*
X163587000Y-89753000D01*
X163627000Y-87793000D02*
X163627000Y-86263000D01*
X163627000Y-91283000D02*
X163627000Y-89753000D01*
X163667000Y-87793000D02*
X163667000Y-86233000D01*
X163667000Y-91313000D02*
X163667000Y-89753000D01*
X163707000Y-87793000D02*
X163707000Y-86203000D01*
X163707000Y-91343000D02*
X163707000Y-89753000D01*
X163747000Y-87793000D02*
X163747000Y-86174000D01*
X163747000Y-91372000D02*
X163747000Y-89753000D01*
X163787000Y-87793000D02*
X163787000Y-86146000D01*
X163787000Y-91400000D02*
X163787000Y-89753000D01*
X163827000Y-87793000D02*
X163827000Y-86119000D01*
X163827000Y-91427000D02*
X163827000Y-89753000D01*
X163867000Y-87793000D02*
X163867000Y-86092000D01*
X163867000Y-91454000D02*
X163867000Y-89753000D01*
X163907000Y-87793000D02*
X163907000Y-86067000D01*
X163907000Y-91479000D02*
X163907000Y-89753000D01*
X163947000Y-87793000D02*
X163947000Y-86042000D01*
X163947000Y-91504000D02*
X163947000Y-89753000D01*
X163987000Y-87793000D02*
X163987000Y-86018000D01*
X163987000Y-91528000D02*
X163987000Y-89753000D01*
X164027000Y-87793000D02*
X164027000Y-85995000D01*
X164027000Y-91551000D02*
X164027000Y-89753000D01*
X164067000Y-87793000D02*
X164067000Y-85973000D01*
X164067000Y-91573000D02*
X164067000Y-89753000D01*
X164107000Y-87793000D02*
X164107000Y-85951000D01*
X164107000Y-91595000D02*
X164107000Y-89753000D01*
X164147000Y-87793000D02*
X164147000Y-85930000D01*
X164147000Y-91616000D02*
X164147000Y-89753000D01*
X164187000Y-87793000D02*
X164187000Y-85910000D01*
X164187000Y-91636000D02*
X164187000Y-89753000D01*
X164227000Y-87793000D02*
X164227000Y-85891000D01*
X164227000Y-91655000D02*
X164227000Y-89753000D01*
X164267000Y-87793000D02*
X164267000Y-85872000D01*
X164267000Y-91674000D02*
X164267000Y-89753000D01*
X164307000Y-87793000D02*
X164307000Y-85854000D01*
X164307000Y-91692000D02*
X164307000Y-89753000D01*
X164347000Y-87793000D02*
X164347000Y-85836000D01*
X164347000Y-91710000D02*
X164347000Y-89753000D01*
X164387000Y-87793000D02*
X164387000Y-85819000D01*
X164387000Y-91727000D02*
X164387000Y-89753000D01*
X164427000Y-87793000D02*
X164427000Y-85803000D01*
X164427000Y-91743000D02*
X164427000Y-89753000D01*
X164467000Y-87793000D02*
X164467000Y-85787000D01*
X164467000Y-91759000D02*
X164467000Y-89753000D01*
X164507000Y-87793000D02*
X164507000Y-85772000D01*
X164507000Y-91774000D02*
X164507000Y-89753000D01*
X164547000Y-87793000D02*
X164547000Y-85758000D01*
X164547000Y-91788000D02*
X164547000Y-89753000D01*
X164587000Y-87793000D02*
X164587000Y-85744000D01*
X164587000Y-91802000D02*
X164587000Y-89753000D01*
X164627000Y-87793000D02*
X164627000Y-85731000D01*
X164627000Y-91815000D02*
X164627000Y-89753000D01*
X164667000Y-87793000D02*
X164667000Y-85718000D01*
X164667000Y-91828000D02*
X164667000Y-89753000D01*
X164707000Y-87793000D02*
X164707000Y-85706000D01*
X164707000Y-91840000D02*
X164707000Y-89753000D01*
X164747000Y-87793000D02*
X164747000Y-85694000D01*
X164747000Y-91852000D02*
X164747000Y-89753000D01*
X164787000Y-87793000D02*
X164787000Y-85683000D01*
X164787000Y-91863000D02*
X164787000Y-89753000D01*
X164827000Y-87793000D02*
X164827000Y-85673000D01*
X164827000Y-91873000D02*
X164827000Y-89753000D01*
X164867000Y-87793000D02*
X164867000Y-85663000D01*
X164867000Y-91883000D02*
X164867000Y-89753000D01*
X164907000Y-87793000D02*
X164907000Y-85654000D01*
X164907000Y-91892000D02*
X164907000Y-89753000D01*
X164948000Y-87793000D02*
X164948000Y-85645000D01*
X164948000Y-91901000D02*
X164948000Y-89753000D01*
X164988000Y-87793000D02*
X164988000Y-85636000D01*
X164988000Y-91910000D02*
X164988000Y-89753000D01*
X165028000Y-87793000D02*
X165028000Y-85629000D01*
X165028000Y-91917000D02*
X165028000Y-89753000D01*
X165068000Y-87793000D02*
X165068000Y-85621000D01*
X165068000Y-91925000D02*
X165068000Y-89753000D01*
X165108000Y-87793000D02*
X165108000Y-85615000D01*
X165108000Y-91931000D02*
X165108000Y-89753000D01*
X165148000Y-87793000D02*
X165148000Y-85608000D01*
X165148000Y-91938000D02*
X165148000Y-89753000D01*
X165188000Y-87793000D02*
X165188000Y-85603000D01*
X165188000Y-91943000D02*
X165188000Y-89753000D01*
X165228000Y-87793000D02*
X165228000Y-85597000D01*
X165228000Y-91949000D02*
X165228000Y-89753000D01*
X165268000Y-87793000D02*
X165268000Y-85593000D01*
X165268000Y-91953000D02*
X165268000Y-89753000D01*
X165308000Y-87793000D02*
X165308000Y-85588000D01*
X165308000Y-91958000D02*
X165308000Y-89753000D01*
X165348000Y-87793000D02*
X165348000Y-85585000D01*
X165348000Y-91961000D02*
X165348000Y-89753000D01*
X165388000Y-91965000D02*
X165388000Y-85581000D01*
X165428000Y-91967000D02*
X165428000Y-85579000D01*
X165468000Y-91970000D02*
X165468000Y-85576000D01*
X165508000Y-91971000D02*
X165508000Y-85575000D01*
X165548000Y-91973000D02*
X165548000Y-85573000D01*
X165588000Y-91973000D02*
X165588000Y-85573000D01*
X165628000Y-91973000D02*
X165628000Y-85573000D01*
X162610180Y-87593864D02*
G75*
G03X162610518Y-89953000I3017820J-1179136D01*
G01*
X162610180Y-87593864D02*
G75*
G02X168645482Y-87593000I3017820J-1179136D01*
G01*
X162610180Y-89952136D02*
G75*
G03X168645482Y-89953000I3017820J1179136D01*
G01*
G04 #@! TO.C,C26*
X175653820Y-87593864D02*
G75*
G03X169618518Y-87593000I-3017820J-1179136D01*
G01*
X175653820Y-89952136D02*
G75*
G02X169618518Y-89953000I-3017820J1179136D01*
G01*
X175653820Y-89952136D02*
G75*
G03X175653482Y-87593000I-3017820J1179136D01*
G01*
X172636000Y-85573000D02*
X172636000Y-91973000D01*
X172676000Y-85573000D02*
X172676000Y-91973000D01*
X172716000Y-85573000D02*
X172716000Y-91973000D01*
X172756000Y-85575000D02*
X172756000Y-91971000D01*
X172796000Y-85576000D02*
X172796000Y-91970000D01*
X172836000Y-85579000D02*
X172836000Y-91967000D01*
X172876000Y-85581000D02*
X172876000Y-91965000D01*
X172916000Y-85585000D02*
X172916000Y-87793000D01*
X172916000Y-89753000D02*
X172916000Y-91961000D01*
X172956000Y-85588000D02*
X172956000Y-87793000D01*
X172956000Y-89753000D02*
X172956000Y-91958000D01*
X172996000Y-85593000D02*
X172996000Y-87793000D01*
X172996000Y-89753000D02*
X172996000Y-91953000D01*
X173036000Y-85597000D02*
X173036000Y-87793000D01*
X173036000Y-89753000D02*
X173036000Y-91949000D01*
X173076000Y-85603000D02*
X173076000Y-87793000D01*
X173076000Y-89753000D02*
X173076000Y-91943000D01*
X173116000Y-85608000D02*
X173116000Y-87793000D01*
X173116000Y-89753000D02*
X173116000Y-91938000D01*
X173156000Y-85615000D02*
X173156000Y-87793000D01*
X173156000Y-89753000D02*
X173156000Y-91931000D01*
X173196000Y-85621000D02*
X173196000Y-87793000D01*
X173196000Y-89753000D02*
X173196000Y-91925000D01*
X173236000Y-85629000D02*
X173236000Y-87793000D01*
X173236000Y-89753000D02*
X173236000Y-91917000D01*
X173276000Y-85636000D02*
X173276000Y-87793000D01*
X173276000Y-89753000D02*
X173276000Y-91910000D01*
X173316000Y-85645000D02*
X173316000Y-87793000D01*
X173316000Y-89753000D02*
X173316000Y-91901000D01*
X173357000Y-85654000D02*
X173357000Y-87793000D01*
X173357000Y-89753000D02*
X173357000Y-91892000D01*
X173397000Y-85663000D02*
X173397000Y-87793000D01*
X173397000Y-89753000D02*
X173397000Y-91883000D01*
X173437000Y-85673000D02*
X173437000Y-87793000D01*
X173437000Y-89753000D02*
X173437000Y-91873000D01*
X173477000Y-85683000D02*
X173477000Y-87793000D01*
X173477000Y-89753000D02*
X173477000Y-91863000D01*
X173517000Y-85694000D02*
X173517000Y-87793000D01*
X173517000Y-89753000D02*
X173517000Y-91852000D01*
X173557000Y-85706000D02*
X173557000Y-87793000D01*
X173557000Y-89753000D02*
X173557000Y-91840000D01*
X173597000Y-85718000D02*
X173597000Y-87793000D01*
X173597000Y-89753000D02*
X173597000Y-91828000D01*
X173637000Y-85731000D02*
X173637000Y-87793000D01*
X173637000Y-89753000D02*
X173637000Y-91815000D01*
X173677000Y-85744000D02*
X173677000Y-87793000D01*
X173677000Y-89753000D02*
X173677000Y-91802000D01*
X173717000Y-85758000D02*
X173717000Y-87793000D01*
X173717000Y-89753000D02*
X173717000Y-91788000D01*
X173757000Y-85772000D02*
X173757000Y-87793000D01*
X173757000Y-89753000D02*
X173757000Y-91774000D01*
X173797000Y-85787000D02*
X173797000Y-87793000D01*
X173797000Y-89753000D02*
X173797000Y-91759000D01*
X173837000Y-85803000D02*
X173837000Y-87793000D01*
X173837000Y-89753000D02*
X173837000Y-91743000D01*
X173877000Y-85819000D02*
X173877000Y-87793000D01*
X173877000Y-89753000D02*
X173877000Y-91727000D01*
X173917000Y-85836000D02*
X173917000Y-87793000D01*
X173917000Y-89753000D02*
X173917000Y-91710000D01*
X173957000Y-85854000D02*
X173957000Y-87793000D01*
X173957000Y-89753000D02*
X173957000Y-91692000D01*
X173997000Y-85872000D02*
X173997000Y-87793000D01*
X173997000Y-89753000D02*
X173997000Y-91674000D01*
X174037000Y-85891000D02*
X174037000Y-87793000D01*
X174037000Y-89753000D02*
X174037000Y-91655000D01*
X174077000Y-85910000D02*
X174077000Y-87793000D01*
X174077000Y-89753000D02*
X174077000Y-91636000D01*
X174117000Y-85930000D02*
X174117000Y-87793000D01*
X174117000Y-89753000D02*
X174117000Y-91616000D01*
X174157000Y-85951000D02*
X174157000Y-87793000D01*
X174157000Y-89753000D02*
X174157000Y-91595000D01*
X174197000Y-85973000D02*
X174197000Y-87793000D01*
X174197000Y-89753000D02*
X174197000Y-91573000D01*
X174237000Y-85995000D02*
X174237000Y-87793000D01*
X174237000Y-89753000D02*
X174237000Y-91551000D01*
X174277000Y-86018000D02*
X174277000Y-87793000D01*
X174277000Y-89753000D02*
X174277000Y-91528000D01*
X174317000Y-86042000D02*
X174317000Y-87793000D01*
X174317000Y-89753000D02*
X174317000Y-91504000D01*
X174357000Y-86067000D02*
X174357000Y-87793000D01*
X174357000Y-89753000D02*
X174357000Y-91479000D01*
X174397000Y-86092000D02*
X174397000Y-87793000D01*
X174397000Y-89753000D02*
X174397000Y-91454000D01*
X174437000Y-86119000D02*
X174437000Y-87793000D01*
X174437000Y-89753000D02*
X174437000Y-91427000D01*
X174477000Y-86146000D02*
X174477000Y-87793000D01*
X174477000Y-89753000D02*
X174477000Y-91400000D01*
X174517000Y-86174000D02*
X174517000Y-87793000D01*
X174517000Y-89753000D02*
X174517000Y-91372000D01*
X174557000Y-86203000D02*
X174557000Y-87793000D01*
X174557000Y-89753000D02*
X174557000Y-91343000D01*
X174597000Y-86233000D02*
X174597000Y-87793000D01*
X174597000Y-89753000D02*
X174597000Y-91313000D01*
X174637000Y-86263000D02*
X174637000Y-87793000D01*
X174637000Y-89753000D02*
X174637000Y-91283000D01*
X174677000Y-86295000D02*
X174677000Y-87793000D01*
X174677000Y-89753000D02*
X174677000Y-91251000D01*
X174717000Y-86328000D02*
X174717000Y-87793000D01*
X174717000Y-89753000D02*
X174717000Y-91218000D01*
X174757000Y-86362000D02*
X174757000Y-87793000D01*
X174757000Y-89753000D02*
X174757000Y-91184000D01*
X174797000Y-86398000D02*
X174797000Y-87793000D01*
X174797000Y-89753000D02*
X174797000Y-91148000D01*
X174837000Y-86434000D02*
X174837000Y-87793000D01*
X174837000Y-89753000D02*
X174837000Y-91112000D01*
X174877000Y-86472000D02*
X174877000Y-91074000D01*
X174917000Y-86511000D02*
X174917000Y-91035000D01*
X174957000Y-86551000D02*
X174957000Y-90995000D01*
X174997000Y-86593000D02*
X174997000Y-90953000D01*
X175037000Y-86636000D02*
X175037000Y-90910000D01*
X175077000Y-86681000D02*
X175077000Y-90865000D01*
X175117000Y-86728000D02*
X175117000Y-90818000D01*
X175157000Y-86776000D02*
X175157000Y-90770000D01*
X175197000Y-86827000D02*
X175197000Y-90719000D01*
X175237000Y-86879000D02*
X175237000Y-90667000D01*
X175277000Y-86934000D02*
X175277000Y-90612000D01*
X175317000Y-86992000D02*
X175317000Y-90554000D01*
X175357000Y-87052000D02*
X175357000Y-90494000D01*
X175397000Y-87115000D02*
X175397000Y-90431000D01*
X175437000Y-87182000D02*
X175437000Y-90364000D01*
X175477000Y-87253000D02*
X175477000Y-90293000D01*
X175517000Y-87328000D02*
X175517000Y-90218000D01*
X175557000Y-87409000D02*
X175557000Y-90137000D01*
X175597000Y-87495000D02*
X175597000Y-90051000D01*
X175637000Y-87589000D02*
X175637000Y-89957000D01*
X175677000Y-87692000D02*
X175677000Y-89854000D01*
X175717000Y-87807000D02*
X175717000Y-89739000D01*
X175757000Y-87939000D02*
X175757000Y-89607000D01*
X175797000Y-88097000D02*
X175797000Y-89449000D01*
X175837000Y-88305000D02*
X175837000Y-89241000D01*
X169186000Y-88773000D02*
X170386000Y-88773000D01*
X169786000Y-88123000D02*
X169786000Y-89423000D01*
G04 #@! TO.C,C32*
X171130000Y-140396000D02*
X171130000Y-138216000D01*
X171130000Y-133796000D02*
X171130000Y-135976000D01*
X164530000Y-139636000D02*
X164530000Y-138216000D01*
X164530000Y-134556000D02*
X164530000Y-135976000D01*
X171130000Y-140396000D02*
X165290000Y-140396000D01*
X165290000Y-140396000D02*
X164530000Y-139636000D01*
X164530000Y-134556000D02*
X165290000Y-133796000D01*
X165290000Y-133796000D02*
X171130000Y-133796000D01*
G04 #@! TO.C,U3*
X157050000Y-110778000D02*
X157050000Y-113378000D01*
X157050000Y-113378000D02*
X157250000Y-113378000D01*
X159750000Y-113378000D02*
X159950000Y-113378000D01*
X159950000Y-113378000D02*
X159950000Y-110778000D01*
X159950000Y-110778000D02*
X159850000Y-110778000D01*
X159850000Y-110778000D02*
X159850000Y-110378000D01*
X157050000Y-110778000D02*
X157250000Y-110778000D01*
D11*
G04 #@! TO.C,U4*
X115468000Y-60325000D02*
X115468000Y-59690000D01*
X116738000Y-60325000D02*
X115468000Y-60325000D01*
X116738000Y-59690000D02*
X116738000Y-60325000D01*
X118516000Y-59690000D02*
X118516000Y-69850000D01*
X113690000Y-59690000D02*
X118516000Y-59690000D01*
X113690000Y-69850000D02*
X113690000Y-59690000D01*
X118516000Y-69850000D02*
X113690000Y-69850000D01*
D10*
G04 #@! TO.C,Q5*
X116494000Y-73634000D02*
X117424000Y-73634000D01*
X119654000Y-73634000D02*
X118724000Y-73634000D01*
X119654000Y-73634000D02*
X119654000Y-70474000D01*
X116494000Y-73634000D02*
X116494000Y-72174000D01*
G04 #@! TO.C,C16*
X135140000Y-89423000D02*
X135140000Y-88123000D01*
X135740000Y-88773000D02*
X134540000Y-88773000D01*
X129089000Y-89241000D02*
X129089000Y-88305000D01*
X129129000Y-89449000D02*
X129129000Y-88097000D01*
X129169000Y-89607000D02*
X129169000Y-87939000D01*
X129209000Y-89739000D02*
X129209000Y-87807000D01*
X129249000Y-89854000D02*
X129249000Y-87692000D01*
X129289000Y-89957000D02*
X129289000Y-87589000D01*
X129329000Y-90051000D02*
X129329000Y-87495000D01*
X129369000Y-90137000D02*
X129369000Y-87409000D01*
X129409000Y-90218000D02*
X129409000Y-87328000D01*
X129449000Y-90293000D02*
X129449000Y-87253000D01*
X129489000Y-90364000D02*
X129489000Y-87182000D01*
X129529000Y-90431000D02*
X129529000Y-87115000D01*
X129569000Y-90494000D02*
X129569000Y-87052000D01*
X129609000Y-90554000D02*
X129609000Y-86992000D01*
X129649000Y-90612000D02*
X129649000Y-86934000D01*
X129689000Y-90667000D02*
X129689000Y-86879000D01*
X129729000Y-90719000D02*
X129729000Y-86827000D01*
X129769000Y-90770000D02*
X129769000Y-86776000D01*
X129809000Y-90818000D02*
X129809000Y-86728000D01*
X129849000Y-90865000D02*
X129849000Y-86681000D01*
X129889000Y-90910000D02*
X129889000Y-86636000D01*
X129929000Y-90953000D02*
X129929000Y-86593000D01*
X129969000Y-90995000D02*
X129969000Y-86551000D01*
X130009000Y-91035000D02*
X130009000Y-86511000D01*
X130049000Y-91074000D02*
X130049000Y-86472000D01*
X130089000Y-87793000D02*
X130089000Y-86434000D01*
X130089000Y-91112000D02*
X130089000Y-89753000D01*
X130129000Y-87793000D02*
X130129000Y-86398000D01*
X130129000Y-91148000D02*
X130129000Y-89753000D01*
X130169000Y-87793000D02*
X130169000Y-86362000D01*
X130169000Y-91184000D02*
X130169000Y-89753000D01*
X130209000Y-87793000D02*
X130209000Y-86328000D01*
X130209000Y-91218000D02*
X130209000Y-89753000D01*
X130249000Y-87793000D02*
X130249000Y-86295000D01*
X130249000Y-91251000D02*
X130249000Y-89753000D01*
X130289000Y-87793000D02*
X130289000Y-86263000D01*
X130289000Y-91283000D02*
X130289000Y-89753000D01*
X130329000Y-87793000D02*
X130329000Y-86233000D01*
X130329000Y-91313000D02*
X130329000Y-89753000D01*
X130369000Y-87793000D02*
X130369000Y-86203000D01*
X130369000Y-91343000D02*
X130369000Y-89753000D01*
X130409000Y-87793000D02*
X130409000Y-86174000D01*
X130409000Y-91372000D02*
X130409000Y-89753000D01*
X130449000Y-87793000D02*
X130449000Y-86146000D01*
X130449000Y-91400000D02*
X130449000Y-89753000D01*
X130489000Y-87793000D02*
X130489000Y-86119000D01*
X130489000Y-91427000D02*
X130489000Y-89753000D01*
X130529000Y-87793000D02*
X130529000Y-86092000D01*
X130529000Y-91454000D02*
X130529000Y-89753000D01*
X130569000Y-87793000D02*
X130569000Y-86067000D01*
X130569000Y-91479000D02*
X130569000Y-89753000D01*
X130609000Y-87793000D02*
X130609000Y-86042000D01*
X130609000Y-91504000D02*
X130609000Y-89753000D01*
X130649000Y-87793000D02*
X130649000Y-86018000D01*
X130649000Y-91528000D02*
X130649000Y-89753000D01*
X130689000Y-87793000D02*
X130689000Y-85995000D01*
X130689000Y-91551000D02*
X130689000Y-89753000D01*
X130729000Y-87793000D02*
X130729000Y-85973000D01*
X130729000Y-91573000D02*
X130729000Y-89753000D01*
X130769000Y-87793000D02*
X130769000Y-85951000D01*
X130769000Y-91595000D02*
X130769000Y-89753000D01*
X130809000Y-87793000D02*
X130809000Y-85930000D01*
X130809000Y-91616000D02*
X130809000Y-89753000D01*
X130849000Y-87793000D02*
X130849000Y-85910000D01*
X130849000Y-91636000D02*
X130849000Y-89753000D01*
X130889000Y-87793000D02*
X130889000Y-85891000D01*
X130889000Y-91655000D02*
X130889000Y-89753000D01*
X130929000Y-87793000D02*
X130929000Y-85872000D01*
X130929000Y-91674000D02*
X130929000Y-89753000D01*
X130969000Y-87793000D02*
X130969000Y-85854000D01*
X130969000Y-91692000D02*
X130969000Y-89753000D01*
X131009000Y-87793000D02*
X131009000Y-85836000D01*
X131009000Y-91710000D02*
X131009000Y-89753000D01*
X131049000Y-87793000D02*
X131049000Y-85819000D01*
X131049000Y-91727000D02*
X131049000Y-89753000D01*
X131089000Y-87793000D02*
X131089000Y-85803000D01*
X131089000Y-91743000D02*
X131089000Y-89753000D01*
X131129000Y-87793000D02*
X131129000Y-85787000D01*
X131129000Y-91759000D02*
X131129000Y-89753000D01*
X131169000Y-87793000D02*
X131169000Y-85772000D01*
X131169000Y-91774000D02*
X131169000Y-89753000D01*
X131209000Y-87793000D02*
X131209000Y-85758000D01*
X131209000Y-91788000D02*
X131209000Y-89753000D01*
X131249000Y-87793000D02*
X131249000Y-85744000D01*
X131249000Y-91802000D02*
X131249000Y-89753000D01*
X131289000Y-87793000D02*
X131289000Y-85731000D01*
X131289000Y-91815000D02*
X131289000Y-89753000D01*
X131329000Y-87793000D02*
X131329000Y-85718000D01*
X131329000Y-91828000D02*
X131329000Y-89753000D01*
X131369000Y-87793000D02*
X131369000Y-85706000D01*
X131369000Y-91840000D02*
X131369000Y-89753000D01*
X131409000Y-87793000D02*
X131409000Y-85694000D01*
X131409000Y-91852000D02*
X131409000Y-89753000D01*
X131449000Y-87793000D02*
X131449000Y-85683000D01*
X131449000Y-91863000D02*
X131449000Y-89753000D01*
X131489000Y-87793000D02*
X131489000Y-85673000D01*
X131489000Y-91873000D02*
X131489000Y-89753000D01*
X131529000Y-87793000D02*
X131529000Y-85663000D01*
X131529000Y-91883000D02*
X131529000Y-89753000D01*
X131569000Y-87793000D02*
X131569000Y-85654000D01*
X131569000Y-91892000D02*
X131569000Y-89753000D01*
X131610000Y-87793000D02*
X131610000Y-85645000D01*
X131610000Y-91901000D02*
X131610000Y-89753000D01*
X131650000Y-87793000D02*
X131650000Y-85636000D01*
X131650000Y-91910000D02*
X131650000Y-89753000D01*
X131690000Y-87793000D02*
X131690000Y-85629000D01*
X131690000Y-91917000D02*
X131690000Y-89753000D01*
X131730000Y-87793000D02*
X131730000Y-85621000D01*
X131730000Y-91925000D02*
X131730000Y-89753000D01*
X131770000Y-87793000D02*
X131770000Y-85615000D01*
X131770000Y-91931000D02*
X131770000Y-89753000D01*
X131810000Y-87793000D02*
X131810000Y-85608000D01*
X131810000Y-91938000D02*
X131810000Y-89753000D01*
X131850000Y-87793000D02*
X131850000Y-85603000D01*
X131850000Y-91943000D02*
X131850000Y-89753000D01*
X131890000Y-87793000D02*
X131890000Y-85597000D01*
X131890000Y-91949000D02*
X131890000Y-89753000D01*
X131930000Y-87793000D02*
X131930000Y-85593000D01*
X131930000Y-91953000D02*
X131930000Y-89753000D01*
X131970000Y-87793000D02*
X131970000Y-85588000D01*
X131970000Y-91958000D02*
X131970000Y-89753000D01*
X132010000Y-87793000D02*
X132010000Y-85585000D01*
X132010000Y-91961000D02*
X132010000Y-89753000D01*
X132050000Y-91965000D02*
X132050000Y-85581000D01*
X132090000Y-91967000D02*
X132090000Y-85579000D01*
X132130000Y-91970000D02*
X132130000Y-85576000D01*
X132170000Y-91971000D02*
X132170000Y-85575000D01*
X132210000Y-91973000D02*
X132210000Y-85573000D01*
X132250000Y-91973000D02*
X132250000Y-85573000D01*
X132290000Y-91973000D02*
X132290000Y-85573000D01*
X129272180Y-87593864D02*
G75*
G03X129272518Y-89953000I3017820J-1179136D01*
G01*
X129272180Y-87593864D02*
G75*
G02X135307482Y-87593000I3017820J-1179136D01*
G01*
X129272180Y-89952136D02*
G75*
G03X135307482Y-89953000I3017820J1179136D01*
G01*
G04 #@! TO.C,L2*
X129539000Y-92890000D02*
X132539000Y-92890000D01*
X129539000Y-105490000D02*
X129539000Y-92890000D01*
X132539000Y-105490000D02*
X129539000Y-105490000D01*
X142139000Y-105490000D02*
X139139000Y-105490000D01*
X142139000Y-92890000D02*
X142139000Y-105490000D01*
X139139000Y-92890000D02*
X142139000Y-92890000D01*
G04 #@! TO.C,U2*
X147560000Y-113378000D02*
X147560000Y-110778000D01*
X147560000Y-110778000D02*
X147360000Y-110778000D01*
X144860000Y-110778000D02*
X144660000Y-110778000D01*
X144660000Y-110778000D02*
X144660000Y-113378000D01*
X144660000Y-113378000D02*
X144760000Y-113378000D01*
X144760000Y-113378000D02*
X144760000Y-113778000D01*
X147560000Y-113378000D02*
X147360000Y-113378000D01*
G04 #@! TO.C,C1*
X122237000Y-70188200D02*
X122237000Y-69188200D01*
X120537000Y-69188200D02*
X120537000Y-70188200D01*
G04 #@! TO.C,C33*
X174600000Y-65111500D02*
X174600000Y-66111500D01*
X176300000Y-66111500D02*
X176300000Y-65111500D01*
G04 #@! TO.C,C38*
X174664000Y-61460000D02*
X174664000Y-62460000D01*
X176364000Y-62460000D02*
X176364000Y-61460000D01*
G04 #@! TO.C,D1*
X186054000Y-73114800D02*
X186054000Y-74814800D01*
X186054000Y-74814800D02*
X188604000Y-74814800D01*
X186054000Y-73114800D02*
X188604000Y-73114800D01*
G04 #@! TO.C,J23*
X175832000Y-79946500D02*
X175197000Y-79946500D01*
X175832000Y-79311500D02*
X175832000Y-79946500D01*
D11*
G04 #@! TO.C,U5*
X164463000Y-60354000D02*
X164463000Y-60604000D01*
X172213000Y-60354000D02*
X172213000Y-60689000D01*
X172213000Y-73504000D02*
X172213000Y-73169000D01*
X164463000Y-73504000D02*
X164463000Y-73169000D01*
X164463000Y-60354000D02*
X172213000Y-60354000D01*
X164463000Y-73504000D02*
X172213000Y-73504000D01*
X164463000Y-60604000D02*
X162663000Y-60604000D01*
D10*
G04 #@! TO.C,Y1*
X155399000Y-69138000D02*
X155399000Y-62888000D01*
X160449000Y-69138000D02*
X160449000Y-62888000D01*
X160449000Y-69138000D02*
G75*
G02X155399000Y-69138000I-2525000J0D01*
G01*
X160449000Y-62888000D02*
G75*
G03X155399000Y-62888000I-2525000J0D01*
G01*
G04 #@! TO.C,J32*
X112970000Y-73279000D02*
X115630000Y-73279000D01*
X112970000Y-73279000D02*
X112970000Y-80959000D01*
X112970000Y-80959000D02*
X115630000Y-80959000D01*
X115630000Y-73279000D02*
X115630000Y-80959000D01*
X115630000Y-70679000D02*
X115630000Y-72009000D01*
X114300000Y-70679000D02*
X115630000Y-70679000D01*
G04 #@! TO.C,L1*
X127564000Y-65889000D02*
X127564000Y-67589000D01*
X127564000Y-67589000D02*
X120964000Y-67589000D01*
X120964000Y-67589000D02*
X120964000Y-65889000D01*
X120964000Y-62889000D02*
X120964000Y-61189000D01*
X120964000Y-61189000D02*
X127564000Y-61189000D01*
X127564000Y-61189000D02*
X127564000Y-62889000D01*
G04 #@! TO.C,J31*
X192592000Y-78676500D02*
X189932000Y-78676500D01*
X192592000Y-78676500D02*
X192592000Y-73536500D01*
X192592000Y-73536500D02*
X189932000Y-73536500D01*
X189932000Y-78676500D02*
X189932000Y-73536500D01*
X189932000Y-81276500D02*
X189932000Y-79946500D01*
X191262000Y-81276500D02*
X189932000Y-81276500D01*
G04 #@! TO.C,C15*
D11*
X138656142Y-84670142D02*
X138608523Y-84717761D01*
X138465666Y-84765380D01*
X138370428Y-84765380D01*
X138227571Y-84717761D01*
X138132333Y-84622523D01*
X138084714Y-84527285D01*
X138037095Y-84336809D01*
X138037095Y-84193952D01*
X138084714Y-84003476D01*
X138132333Y-83908238D01*
X138227571Y-83813000D01*
X138370428Y-83765380D01*
X138465666Y-83765380D01*
X138608523Y-83813000D01*
X138656142Y-83860619D01*
X139608523Y-84765380D02*
X139037095Y-84765380D01*
X139322809Y-84765380D02*
X139322809Y-83765380D01*
X139227571Y-83908238D01*
X139132333Y-84003476D01*
X139037095Y-84051095D01*
X140513285Y-83765380D02*
X140037095Y-83765380D01*
X139989476Y-84241571D01*
X140037095Y-84193952D01*
X140132333Y-84146333D01*
X140370428Y-84146333D01*
X140465666Y-84193952D01*
X140513285Y-84241571D01*
X140560904Y-84336809D01*
X140560904Y-84574904D01*
X140513285Y-84670142D01*
X140465666Y-84717761D01*
X140370428Y-84765380D01*
X140132333Y-84765380D01*
X140037095Y-84717761D01*
X139989476Y-84670142D01*
G04 #@! TO.C,L3*
X162140380Y-99356666D02*
X162140380Y-99832857D01*
X161140380Y-99832857D01*
X161140380Y-99118571D02*
X161140380Y-98499523D01*
X161521333Y-98832857D01*
X161521333Y-98690000D01*
X161568952Y-98594761D01*
X161616571Y-98547142D01*
X161711809Y-98499523D01*
X161949904Y-98499523D01*
X162045142Y-98547142D01*
X162092761Y-98594761D01*
X162140380Y-98690000D01*
X162140380Y-98975714D01*
X162092761Y-99070952D01*
X162045142Y-99118571D01*
G04 #@! TO.C,C29*
X136263142Y-141887142D02*
X136215523Y-141934761D01*
X136072666Y-141982380D01*
X135977428Y-141982380D01*
X135834571Y-141934761D01*
X135739333Y-141839523D01*
X135691714Y-141744285D01*
X135644095Y-141553809D01*
X135644095Y-141410952D01*
X135691714Y-141220476D01*
X135739333Y-141125238D01*
X135834571Y-141030000D01*
X135977428Y-140982380D01*
X136072666Y-140982380D01*
X136215523Y-141030000D01*
X136263142Y-141077619D01*
X136644095Y-141077619D02*
X136691714Y-141030000D01*
X136786952Y-140982380D01*
X137025047Y-140982380D01*
X137120285Y-141030000D01*
X137167904Y-141077619D01*
X137215523Y-141172857D01*
X137215523Y-141268095D01*
X137167904Y-141410952D01*
X136596476Y-141982380D01*
X137215523Y-141982380D01*
X137691714Y-141982380D02*
X137882190Y-141982380D01*
X137977428Y-141934761D01*
X138025047Y-141887142D01*
X138120285Y-141744285D01*
X138167904Y-141553809D01*
X138167904Y-141172857D01*
X138120285Y-141077619D01*
X138072666Y-141030000D01*
X137977428Y-140982380D01*
X137786952Y-140982380D01*
X137691714Y-141030000D01*
X137644095Y-141077619D01*
X137596476Y-141172857D01*
X137596476Y-141410952D01*
X137644095Y-141506190D01*
X137691714Y-141553809D01*
X137786952Y-141601428D01*
X137977428Y-141601428D01*
X138072666Y-141553809D01*
X138120285Y-141506190D01*
X138167904Y-141410952D01*
X132245047Y-140051428D02*
X133006952Y-140051428D01*
X132626000Y-140432380D02*
X132626000Y-139670476D01*
G04 #@! TO.C,C4*
X130237333Y-65862342D02*
X130189714Y-65909961D01*
X130046857Y-65957580D01*
X129951619Y-65957580D01*
X129808761Y-65909961D01*
X129713523Y-65814723D01*
X129665904Y-65719485D01*
X129618285Y-65529009D01*
X129618285Y-65386152D01*
X129665904Y-65195676D01*
X129713523Y-65100438D01*
X129808761Y-65005200D01*
X129951619Y-64957580D01*
X130046857Y-64957580D01*
X130189714Y-65005200D01*
X130237333Y-65052819D01*
X131094476Y-65290914D02*
X131094476Y-65957580D01*
X130856380Y-64909961D02*
X130618285Y-65624247D01*
X131237333Y-65624247D01*
G04 #@! TO.C,C5*
X130237333Y-64084342D02*
X130189714Y-64131961D01*
X130046857Y-64179580D01*
X129951619Y-64179580D01*
X129808761Y-64131961D01*
X129713523Y-64036723D01*
X129665904Y-63941485D01*
X129618285Y-63751009D01*
X129618285Y-63608152D01*
X129665904Y-63417676D01*
X129713523Y-63322438D01*
X129808761Y-63227200D01*
X129951619Y-63179580D01*
X130046857Y-63179580D01*
X130189714Y-63227200D01*
X130237333Y-63274819D01*
X131142095Y-63179580D02*
X130665904Y-63179580D01*
X130618285Y-63655771D01*
X130665904Y-63608152D01*
X130761142Y-63560533D01*
X130999238Y-63560533D01*
X131094476Y-63608152D01*
X131142095Y-63655771D01*
X131189714Y-63751009D01*
X131189714Y-63989104D01*
X131142095Y-64084342D01*
X131094476Y-64131961D01*
X130999238Y-64179580D01*
X130761142Y-64179580D01*
X130665904Y-64131961D01*
X130618285Y-64084342D01*
G04 #@! TO.C,C6*
X130237333Y-62306342D02*
X130189714Y-62353961D01*
X130046857Y-62401580D01*
X129951619Y-62401580D01*
X129808761Y-62353961D01*
X129713523Y-62258723D01*
X129665904Y-62163485D01*
X129618285Y-61973009D01*
X129618285Y-61830152D01*
X129665904Y-61639676D01*
X129713523Y-61544438D01*
X129808761Y-61449200D01*
X129951619Y-61401580D01*
X130046857Y-61401580D01*
X130189714Y-61449200D01*
X130237333Y-61496819D01*
X131094476Y-61401580D02*
X130904000Y-61401580D01*
X130808761Y-61449200D01*
X130761142Y-61496819D01*
X130665904Y-61639676D01*
X130618285Y-61830152D01*
X130618285Y-62211104D01*
X130665904Y-62306342D01*
X130713523Y-62353961D01*
X130808761Y-62401580D01*
X130999238Y-62401580D01*
X131094476Y-62353961D01*
X131142095Y-62306342D01*
X131189714Y-62211104D01*
X131189714Y-61973009D01*
X131142095Y-61877771D01*
X131094476Y-61830152D01*
X130999238Y-61782533D01*
X130808761Y-61782533D01*
X130713523Y-61830152D01*
X130665904Y-61877771D01*
X130618285Y-61973009D01*
G04 #@! TO.C,U1*
X124054095Y-66224580D02*
X124054095Y-67034104D01*
X124101714Y-67129342D01*
X124149333Y-67176961D01*
X124244571Y-67224580D01*
X124435047Y-67224580D01*
X124530285Y-67176961D01*
X124577904Y-67129342D01*
X124625523Y-67034104D01*
X124625523Y-66224580D01*
X125625523Y-67224580D02*
X125054095Y-67224580D01*
X125339809Y-67224580D02*
X125339809Y-66224580D01*
X125244571Y-66367438D01*
X125149333Y-66462676D01*
X125054095Y-66510295D01*
G04 #@! TO.C,R1*
X128713333Y-72409580D02*
X128380000Y-71933390D01*
X128141904Y-72409580D02*
X128141904Y-71409580D01*
X128522857Y-71409580D01*
X128618095Y-71457200D01*
X128665714Y-71504819D01*
X128713333Y-71600057D01*
X128713333Y-71742914D01*
X128665714Y-71838152D01*
X128618095Y-71885771D01*
X128522857Y-71933390D01*
X128141904Y-71933390D01*
X129665714Y-72409580D02*
X129094285Y-72409580D01*
X129380000Y-72409580D02*
X129380000Y-71409580D01*
X129284761Y-71552438D01*
X129189523Y-71647676D01*
X129094285Y-71695295D01*
G04 #@! TO.C,C25*
X164985142Y-93590142D02*
X164937523Y-93637761D01*
X164794666Y-93685380D01*
X164699428Y-93685380D01*
X164556571Y-93637761D01*
X164461333Y-93542523D01*
X164413714Y-93447285D01*
X164366095Y-93256809D01*
X164366095Y-93113952D01*
X164413714Y-92923476D01*
X164461333Y-92828238D01*
X164556571Y-92733000D01*
X164699428Y-92685380D01*
X164794666Y-92685380D01*
X164937523Y-92733000D01*
X164985142Y-92780619D01*
X165366095Y-92780619D02*
X165413714Y-92733000D01*
X165508952Y-92685380D01*
X165747047Y-92685380D01*
X165842285Y-92733000D01*
X165889904Y-92780619D01*
X165937523Y-92875857D01*
X165937523Y-92971095D01*
X165889904Y-93113952D01*
X165318476Y-93685380D01*
X165937523Y-93685380D01*
X166842285Y-92685380D02*
X166366095Y-92685380D01*
X166318476Y-93161571D01*
X166366095Y-93113952D01*
X166461333Y-93066333D01*
X166699428Y-93066333D01*
X166794666Y-93113952D01*
X166842285Y-93161571D01*
X166889904Y-93256809D01*
X166889904Y-93494904D01*
X166842285Y-93590142D01*
X166794666Y-93637761D01*
X166699428Y-93685380D01*
X166461333Y-93685380D01*
X166366095Y-93637761D01*
X166318476Y-93590142D01*
G04 #@! TO.C,C26*
X171993142Y-84670142D02*
X171945523Y-84717761D01*
X171802666Y-84765380D01*
X171707428Y-84765380D01*
X171564571Y-84717761D01*
X171469333Y-84622523D01*
X171421714Y-84527285D01*
X171374095Y-84336809D01*
X171374095Y-84193952D01*
X171421714Y-84003476D01*
X171469333Y-83908238D01*
X171564571Y-83813000D01*
X171707428Y-83765380D01*
X171802666Y-83765380D01*
X171945523Y-83813000D01*
X171993142Y-83860619D01*
X172374095Y-83860619D02*
X172421714Y-83813000D01*
X172516952Y-83765380D01*
X172755047Y-83765380D01*
X172850285Y-83813000D01*
X172897904Y-83860619D01*
X172945523Y-83955857D01*
X172945523Y-84051095D01*
X172897904Y-84193952D01*
X172326476Y-84765380D01*
X172945523Y-84765380D01*
X173802666Y-83765380D02*
X173612190Y-83765380D01*
X173516952Y-83813000D01*
X173469333Y-83860619D01*
X173374095Y-84003476D01*
X173326476Y-84193952D01*
X173326476Y-84574904D01*
X173374095Y-84670142D01*
X173421714Y-84717761D01*
X173516952Y-84765380D01*
X173707428Y-84765380D01*
X173802666Y-84717761D01*
X173850285Y-84670142D01*
X173897904Y-84574904D01*
X173897904Y-84336809D01*
X173850285Y-84241571D01*
X173802666Y-84193952D01*
X173707428Y-84146333D01*
X173516952Y-84146333D01*
X173421714Y-84193952D01*
X173374095Y-84241571D01*
X173326476Y-84336809D01*
G04 #@! TO.C,C32*
X167187142Y-142013142D02*
X167139523Y-142060761D01*
X166996666Y-142108380D01*
X166901428Y-142108380D01*
X166758571Y-142060761D01*
X166663333Y-141965523D01*
X166615714Y-141870285D01*
X166568095Y-141679809D01*
X166568095Y-141536952D01*
X166615714Y-141346476D01*
X166663333Y-141251238D01*
X166758571Y-141156000D01*
X166901428Y-141108380D01*
X166996666Y-141108380D01*
X167139523Y-141156000D01*
X167187142Y-141203619D01*
X167520476Y-141108380D02*
X168139523Y-141108380D01*
X167806190Y-141489333D01*
X167949047Y-141489333D01*
X168044285Y-141536952D01*
X168091904Y-141584571D01*
X168139523Y-141679809D01*
X168139523Y-141917904D01*
X168091904Y-142013142D01*
X168044285Y-142060761D01*
X167949047Y-142108380D01*
X167663333Y-142108380D01*
X167568095Y-142060761D01*
X167520476Y-142013142D01*
X168520476Y-141203619D02*
X168568095Y-141156000D01*
X168663333Y-141108380D01*
X168901428Y-141108380D01*
X168996666Y-141156000D01*
X169044285Y-141203619D01*
X169091904Y-141298857D01*
X169091904Y-141394095D01*
X169044285Y-141536952D01*
X168472857Y-142108380D01*
X169091904Y-142108380D01*
X163169047Y-140177428D02*
X163930952Y-140177428D01*
X163550000Y-140558380D02*
X163550000Y-139796476D01*
G04 #@! TO.C,U3*
X160742380Y-112839904D02*
X161551904Y-112839904D01*
X161647142Y-112792285D01*
X161694761Y-112744666D01*
X161742380Y-112649428D01*
X161742380Y-112458952D01*
X161694761Y-112363714D01*
X161647142Y-112316095D01*
X161551904Y-112268476D01*
X160742380Y-112268476D01*
X160742380Y-111887523D02*
X160742380Y-111268476D01*
X161123333Y-111601809D01*
X161123333Y-111458952D01*
X161170952Y-111363714D01*
X161218571Y-111316095D01*
X161313809Y-111268476D01*
X161551904Y-111268476D01*
X161647142Y-111316095D01*
X161694761Y-111363714D01*
X161742380Y-111458952D01*
X161742380Y-111744666D01*
X161694761Y-111839904D01*
X161647142Y-111887523D01*
G04 #@! TO.C,U4*
X116738095Y-64222380D02*
X116738095Y-65031904D01*
X116785714Y-65127142D01*
X116833333Y-65174761D01*
X116928571Y-65222380D01*
X117119047Y-65222380D01*
X117214285Y-65174761D01*
X117261904Y-65127142D01*
X117309523Y-65031904D01*
X117309523Y-64222380D01*
X118214285Y-64555714D02*
X118214285Y-65222380D01*
X117976190Y-64174761D02*
X117738095Y-64889047D01*
X118357142Y-64889047D01*
G04 #@! TO.C,Q5*
X121121619Y-72969238D02*
X121074000Y-73064476D01*
X120978761Y-73159714D01*
X120835904Y-73302571D01*
X120788285Y-73397809D01*
X120788285Y-73493047D01*
X121026380Y-73445428D02*
X120978761Y-73540666D01*
X120883523Y-73635904D01*
X120693047Y-73683523D01*
X120359714Y-73683523D01*
X120169238Y-73635904D01*
X120074000Y-73540666D01*
X120026380Y-73445428D01*
X120026380Y-73254952D01*
X120074000Y-73159714D01*
X120169238Y-73064476D01*
X120359714Y-73016857D01*
X120693047Y-73016857D01*
X120883523Y-73064476D01*
X120978761Y-73159714D01*
X121026380Y-73254952D01*
X121026380Y-73445428D01*
X120026380Y-72112095D02*
X120026380Y-72588285D01*
X120502571Y-72635904D01*
X120454952Y-72588285D01*
X120407333Y-72493047D01*
X120407333Y-72254952D01*
X120454952Y-72159714D01*
X120502571Y-72112095D01*
X120597809Y-72064476D01*
X120835904Y-72064476D01*
X120931142Y-72112095D01*
X120978761Y-72159714D01*
X121026380Y-72254952D01*
X121026380Y-72493047D01*
X120978761Y-72588285D01*
X120931142Y-72635904D01*
G04 #@! TO.C,HS4*
X136775380Y-117308095D02*
X135775380Y-117308095D01*
X136251571Y-117308095D02*
X136251571Y-116736666D01*
X136775380Y-116736666D02*
X135775380Y-116736666D01*
X136727761Y-116308095D02*
X136775380Y-116165238D01*
X136775380Y-115927142D01*
X136727761Y-115831904D01*
X136680142Y-115784285D01*
X136584904Y-115736666D01*
X136489666Y-115736666D01*
X136394428Y-115784285D01*
X136346809Y-115831904D01*
X136299190Y-115927142D01*
X136251571Y-116117619D01*
X136203952Y-116212857D01*
X136156333Y-116260476D01*
X136061095Y-116308095D01*
X135965857Y-116308095D01*
X135870619Y-116260476D01*
X135823000Y-116212857D01*
X135775380Y-116117619D01*
X135775380Y-115879523D01*
X135823000Y-115736666D01*
X136108714Y-114879523D02*
X136775380Y-114879523D01*
X135727761Y-115117619D02*
X136442047Y-115355714D01*
X136442047Y-114736666D01*
G04 #@! TO.C,HS5*
X129218380Y-117308095D02*
X128218380Y-117308095D01*
X128694571Y-117308095D02*
X128694571Y-116736666D01*
X129218380Y-116736666D02*
X128218380Y-116736666D01*
X129170761Y-116308095D02*
X129218380Y-116165238D01*
X129218380Y-115927142D01*
X129170761Y-115831904D01*
X129123142Y-115784285D01*
X129027904Y-115736666D01*
X128932666Y-115736666D01*
X128837428Y-115784285D01*
X128789809Y-115831904D01*
X128742190Y-115927142D01*
X128694571Y-116117619D01*
X128646952Y-116212857D01*
X128599333Y-116260476D01*
X128504095Y-116308095D01*
X128408857Y-116308095D01*
X128313619Y-116260476D01*
X128266000Y-116212857D01*
X128218380Y-116117619D01*
X128218380Y-115879523D01*
X128266000Y-115736666D01*
X128218380Y-114831904D02*
X128218380Y-115308095D01*
X128694571Y-115355714D01*
X128646952Y-115308095D01*
X128599333Y-115212857D01*
X128599333Y-114974761D01*
X128646952Y-114879523D01*
X128694571Y-114831904D01*
X128789809Y-114784285D01*
X129027904Y-114784285D01*
X129123142Y-114831904D01*
X129170761Y-114879523D01*
X129218380Y-114974761D01*
X129218380Y-115212857D01*
X129170761Y-115308095D01*
X129123142Y-115355714D01*
G04 #@! TO.C,HS6*
X168675380Y-110402095D02*
X167675380Y-110402095D01*
X168151571Y-110402095D02*
X168151571Y-109830666D01*
X168675380Y-109830666D02*
X167675380Y-109830666D01*
X168627761Y-109402095D02*
X168675380Y-109259238D01*
X168675380Y-109021142D01*
X168627761Y-108925904D01*
X168580142Y-108878285D01*
X168484904Y-108830666D01*
X168389666Y-108830666D01*
X168294428Y-108878285D01*
X168246809Y-108925904D01*
X168199190Y-109021142D01*
X168151571Y-109211619D01*
X168103952Y-109306857D01*
X168056333Y-109354476D01*
X167961095Y-109402095D01*
X167865857Y-109402095D01*
X167770619Y-109354476D01*
X167723000Y-109306857D01*
X167675380Y-109211619D01*
X167675380Y-108973523D01*
X167723000Y-108830666D01*
X167675380Y-107973523D02*
X167675380Y-108164000D01*
X167723000Y-108259238D01*
X167770619Y-108306857D01*
X167913476Y-108402095D01*
X168103952Y-108449714D01*
X168484904Y-108449714D01*
X168580142Y-108402095D01*
X168627761Y-108354476D01*
X168675380Y-108259238D01*
X168675380Y-108068761D01*
X168627761Y-107973523D01*
X168580142Y-107925904D01*
X168484904Y-107878285D01*
X168246809Y-107878285D01*
X168151571Y-107925904D01*
X168103952Y-107973523D01*
X168056333Y-108068761D01*
X168056333Y-108259238D01*
X168103952Y-108354476D01*
X168151571Y-108402095D01*
X168246809Y-108449714D01*
G04 #@! TO.C,HS7*
X171600904Y-113366380D02*
X171600904Y-112366380D01*
X171600904Y-112842571D02*
X172172333Y-112842571D01*
X172172333Y-113366380D02*
X172172333Y-112366380D01*
X172600904Y-113318761D02*
X172743761Y-113366380D01*
X172981857Y-113366380D01*
X173077095Y-113318761D01*
X173124714Y-113271142D01*
X173172333Y-113175904D01*
X173172333Y-113080666D01*
X173124714Y-112985428D01*
X173077095Y-112937809D01*
X172981857Y-112890190D01*
X172791380Y-112842571D01*
X172696142Y-112794952D01*
X172648523Y-112747333D01*
X172600904Y-112652095D01*
X172600904Y-112556857D01*
X172648523Y-112461619D01*
X172696142Y-112414000D01*
X172791380Y-112366380D01*
X173029476Y-112366380D01*
X173172333Y-112414000D01*
X173505666Y-112366380D02*
X174172333Y-112366380D01*
X173743761Y-113366380D01*
G04 #@! TO.C,C16*
X131647142Y-93590142D02*
X131599523Y-93637761D01*
X131456666Y-93685380D01*
X131361428Y-93685380D01*
X131218571Y-93637761D01*
X131123333Y-93542523D01*
X131075714Y-93447285D01*
X131028095Y-93256809D01*
X131028095Y-93113952D01*
X131075714Y-92923476D01*
X131123333Y-92828238D01*
X131218571Y-92733000D01*
X131361428Y-92685380D01*
X131456666Y-92685380D01*
X131599523Y-92733000D01*
X131647142Y-92780619D01*
X132599523Y-93685380D02*
X132028095Y-93685380D01*
X132313809Y-93685380D02*
X132313809Y-92685380D01*
X132218571Y-92828238D01*
X132123333Y-92923476D01*
X132028095Y-92971095D01*
X133456666Y-92685380D02*
X133266190Y-92685380D01*
X133170952Y-92733000D01*
X133123333Y-92780619D01*
X133028095Y-92923476D01*
X132980476Y-93113952D01*
X132980476Y-93494904D01*
X133028095Y-93590142D01*
X133075714Y-93637761D01*
X133170952Y-93685380D01*
X133361428Y-93685380D01*
X133456666Y-93637761D01*
X133504285Y-93590142D01*
X133551904Y-93494904D01*
X133551904Y-93256809D01*
X133504285Y-93161571D01*
X133456666Y-93113952D01*
X133361428Y-93066333D01*
X133170952Y-93066333D01*
X133075714Y-93113952D01*
X133028095Y-93161571D01*
X132980476Y-93256809D01*
G04 #@! TO.C,L2*
X128891380Y-99356666D02*
X128891380Y-99832857D01*
X127891380Y-99832857D01*
X127986619Y-99070952D02*
X127939000Y-99023333D01*
X127891380Y-98928095D01*
X127891380Y-98690000D01*
X127939000Y-98594761D01*
X127986619Y-98547142D01*
X128081857Y-98499523D01*
X128177095Y-98499523D01*
X128319952Y-98547142D01*
X128891380Y-99118571D01*
X128891380Y-98499523D01*
G04 #@! TO.C,U2*
X142772380Y-112839904D02*
X143581904Y-112839904D01*
X143677142Y-112792285D01*
X143724761Y-112744666D01*
X143772380Y-112649428D01*
X143772380Y-112458952D01*
X143724761Y-112363714D01*
X143677142Y-112316095D01*
X143581904Y-112268476D01*
X142772380Y-112268476D01*
X142867619Y-111839904D02*
X142820000Y-111792285D01*
X142772380Y-111697047D01*
X142772380Y-111458952D01*
X142820000Y-111363714D01*
X142867619Y-111316095D01*
X142962857Y-111268476D01*
X143058095Y-111268476D01*
X143200952Y-111316095D01*
X143772380Y-111887523D01*
X143772380Y-111268476D01*
G04 #@! TO.C,C1*
X120244142Y-69854866D02*
X120291761Y-69902485D01*
X120339380Y-70045342D01*
X120339380Y-70140580D01*
X120291761Y-70283438D01*
X120196523Y-70378676D01*
X120101285Y-70426295D01*
X119910809Y-70473914D01*
X119767952Y-70473914D01*
X119577476Y-70426295D01*
X119482238Y-70378676D01*
X119387000Y-70283438D01*
X119339380Y-70140580D01*
X119339380Y-70045342D01*
X119387000Y-69902485D01*
X119434619Y-69854866D01*
X120339380Y-68902485D02*
X120339380Y-69473914D01*
X120339380Y-69188200D02*
X119339380Y-69188200D01*
X119482238Y-69283438D01*
X119577476Y-69378676D01*
X119625095Y-69473914D01*
G04 #@! TO.C,HS1*
X136648380Y-111085095D02*
X135648380Y-111085095D01*
X136124571Y-111085095D02*
X136124571Y-110513666D01*
X136648380Y-110513666D02*
X135648380Y-110513666D01*
X136600761Y-110085095D02*
X136648380Y-109942238D01*
X136648380Y-109704142D01*
X136600761Y-109608904D01*
X136553142Y-109561285D01*
X136457904Y-109513666D01*
X136362666Y-109513666D01*
X136267428Y-109561285D01*
X136219809Y-109608904D01*
X136172190Y-109704142D01*
X136124571Y-109894619D01*
X136076952Y-109989857D01*
X136029333Y-110037476D01*
X135934095Y-110085095D01*
X135838857Y-110085095D01*
X135743619Y-110037476D01*
X135696000Y-109989857D01*
X135648380Y-109894619D01*
X135648380Y-109656523D01*
X135696000Y-109513666D01*
X136648380Y-108561285D02*
X136648380Y-109132714D01*
X136648380Y-108847000D02*
X135648380Y-108847000D01*
X135791238Y-108942238D01*
X135886476Y-109037476D01*
X135934095Y-109132714D01*
G04 #@! TO.C,HS2*
X129028380Y-111085095D02*
X128028380Y-111085095D01*
X128504571Y-111085095D02*
X128504571Y-110513666D01*
X129028380Y-110513666D02*
X128028380Y-110513666D01*
X128980761Y-110085095D02*
X129028380Y-109942238D01*
X129028380Y-109704142D01*
X128980761Y-109608904D01*
X128933142Y-109561285D01*
X128837904Y-109513666D01*
X128742666Y-109513666D01*
X128647428Y-109561285D01*
X128599809Y-109608904D01*
X128552190Y-109704142D01*
X128504571Y-109894619D01*
X128456952Y-109989857D01*
X128409333Y-110037476D01*
X128314095Y-110085095D01*
X128218857Y-110085095D01*
X128123619Y-110037476D01*
X128076000Y-109989857D01*
X128028380Y-109894619D01*
X128028380Y-109656523D01*
X128076000Y-109513666D01*
X128123619Y-109132714D02*
X128076000Y-109085095D01*
X128028380Y-108989857D01*
X128028380Y-108751761D01*
X128076000Y-108656523D01*
X128123619Y-108608904D01*
X128218857Y-108561285D01*
X128314095Y-108561285D01*
X128456952Y-108608904D01*
X129028380Y-109180333D01*
X129028380Y-108561285D01*
G04 #@! TO.C,HS3*
X168675380Y-116498095D02*
X167675380Y-116498095D01*
X168151571Y-116498095D02*
X168151571Y-115926666D01*
X168675380Y-115926666D02*
X167675380Y-115926666D01*
X168627761Y-115498095D02*
X168675380Y-115355238D01*
X168675380Y-115117142D01*
X168627761Y-115021904D01*
X168580142Y-114974285D01*
X168484904Y-114926666D01*
X168389666Y-114926666D01*
X168294428Y-114974285D01*
X168246809Y-115021904D01*
X168199190Y-115117142D01*
X168151571Y-115307619D01*
X168103952Y-115402857D01*
X168056333Y-115450476D01*
X167961095Y-115498095D01*
X167865857Y-115498095D01*
X167770619Y-115450476D01*
X167723000Y-115402857D01*
X167675380Y-115307619D01*
X167675380Y-115069523D01*
X167723000Y-114926666D01*
X167675380Y-114593333D02*
X167675380Y-113974285D01*
X168056333Y-114307619D01*
X168056333Y-114164761D01*
X168103952Y-114069523D01*
X168151571Y-114021904D01*
X168246809Y-113974285D01*
X168484904Y-113974285D01*
X168580142Y-114021904D01*
X168627761Y-114069523D01*
X168675380Y-114164761D01*
X168675380Y-114450476D01*
X168627761Y-114545714D01*
X168580142Y-114593333D01*
G04 #@! TO.C,HS8*
X176232380Y-116562095D02*
X175232380Y-116562095D01*
X175708571Y-116562095D02*
X175708571Y-115990666D01*
X176232380Y-115990666D02*
X175232380Y-115990666D01*
X176184761Y-115562095D02*
X176232380Y-115419238D01*
X176232380Y-115181142D01*
X176184761Y-115085904D01*
X176137142Y-115038285D01*
X176041904Y-114990666D01*
X175946666Y-114990666D01*
X175851428Y-115038285D01*
X175803809Y-115085904D01*
X175756190Y-115181142D01*
X175708571Y-115371619D01*
X175660952Y-115466857D01*
X175613333Y-115514476D01*
X175518095Y-115562095D01*
X175422857Y-115562095D01*
X175327619Y-115514476D01*
X175280000Y-115466857D01*
X175232380Y-115371619D01*
X175232380Y-115133523D01*
X175280000Y-114990666D01*
X175660952Y-114419238D02*
X175613333Y-114514476D01*
X175565714Y-114562095D01*
X175470476Y-114609714D01*
X175422857Y-114609714D01*
X175327619Y-114562095D01*
X175280000Y-114514476D01*
X175232380Y-114419238D01*
X175232380Y-114228761D01*
X175280000Y-114133523D01*
X175327619Y-114085904D01*
X175422857Y-114038285D01*
X175470476Y-114038285D01*
X175565714Y-114085904D01*
X175613333Y-114133523D01*
X175660952Y-114228761D01*
X175660952Y-114419238D01*
X175708571Y-114514476D01*
X175756190Y-114562095D01*
X175851428Y-114609714D01*
X176041904Y-114609714D01*
X176137142Y-114562095D01*
X176184761Y-114514476D01*
X176232380Y-114419238D01*
X176232380Y-114228761D01*
X176184761Y-114133523D01*
X176137142Y-114085904D01*
X176041904Y-114038285D01*
X175851428Y-114038285D01*
X175756190Y-114085904D01*
X175708571Y-114133523D01*
X175660952Y-114228761D01*
G04 #@! TO.C,C33*
X174307142Y-66254357D02*
X174354761Y-66301976D01*
X174402380Y-66444833D01*
X174402380Y-66540071D01*
X174354761Y-66682928D01*
X174259523Y-66778166D01*
X174164285Y-66825785D01*
X173973809Y-66873404D01*
X173830952Y-66873404D01*
X173640476Y-66825785D01*
X173545238Y-66778166D01*
X173450000Y-66682928D01*
X173402380Y-66540071D01*
X173402380Y-66444833D01*
X173450000Y-66301976D01*
X173497619Y-66254357D01*
X173402380Y-65921023D02*
X173402380Y-65301976D01*
X173783333Y-65635309D01*
X173783333Y-65492452D01*
X173830952Y-65397214D01*
X173878571Y-65349595D01*
X173973809Y-65301976D01*
X174211904Y-65301976D01*
X174307142Y-65349595D01*
X174354761Y-65397214D01*
X174402380Y-65492452D01*
X174402380Y-65778166D01*
X174354761Y-65873404D01*
X174307142Y-65921023D01*
X173402380Y-64968642D02*
X173402380Y-64349595D01*
X173783333Y-64682928D01*
X173783333Y-64540071D01*
X173830952Y-64444833D01*
X173878571Y-64397214D01*
X173973809Y-64349595D01*
X174211904Y-64349595D01*
X174307142Y-64397214D01*
X174354761Y-64444833D01*
X174402380Y-64540071D01*
X174402380Y-64825785D01*
X174354761Y-64921023D01*
X174307142Y-64968642D01*
G04 #@! TO.C,C38*
X177371142Y-62602857D02*
X177418761Y-62650476D01*
X177466380Y-62793333D01*
X177466380Y-62888571D01*
X177418761Y-63031428D01*
X177323523Y-63126666D01*
X177228285Y-63174285D01*
X177037809Y-63221904D01*
X176894952Y-63221904D01*
X176704476Y-63174285D01*
X176609238Y-63126666D01*
X176514000Y-63031428D01*
X176466380Y-62888571D01*
X176466380Y-62793333D01*
X176514000Y-62650476D01*
X176561619Y-62602857D01*
X176466380Y-62269523D02*
X176466380Y-61650476D01*
X176847333Y-61983809D01*
X176847333Y-61840952D01*
X176894952Y-61745714D01*
X176942571Y-61698095D01*
X177037809Y-61650476D01*
X177275904Y-61650476D01*
X177371142Y-61698095D01*
X177418761Y-61745714D01*
X177466380Y-61840952D01*
X177466380Y-62126666D01*
X177418761Y-62221904D01*
X177371142Y-62269523D01*
X176894952Y-61079047D02*
X176847333Y-61174285D01*
X176799714Y-61221904D01*
X176704476Y-61269523D01*
X176656857Y-61269523D01*
X176561619Y-61221904D01*
X176514000Y-61174285D01*
X176466380Y-61079047D01*
X176466380Y-60888571D01*
X176514000Y-60793333D01*
X176561619Y-60745714D01*
X176656857Y-60698095D01*
X176704476Y-60698095D01*
X176799714Y-60745714D01*
X176847333Y-60793333D01*
X176894952Y-60888571D01*
X176894952Y-61079047D01*
X176942571Y-61174285D01*
X176990190Y-61221904D01*
X177085428Y-61269523D01*
X177275904Y-61269523D01*
X177371142Y-61221904D01*
X177418761Y-61174285D01*
X177466380Y-61079047D01*
X177466380Y-60888571D01*
X177418761Y-60793333D01*
X177371142Y-60745714D01*
X177275904Y-60698095D01*
X177085428Y-60698095D01*
X176990190Y-60745714D01*
X176942571Y-60793333D01*
X176894952Y-60888571D01*
G04 #@! TO.C,D1*
X186815904Y-72567180D02*
X186815904Y-71567180D01*
X187054000Y-71567180D01*
X187196857Y-71614800D01*
X187292095Y-71710038D01*
X187339714Y-71805276D01*
X187387333Y-71995752D01*
X187387333Y-72138609D01*
X187339714Y-72329085D01*
X187292095Y-72424323D01*
X187196857Y-72519561D01*
X187054000Y-72567180D01*
X186815904Y-72567180D01*
X188339714Y-72567180D02*
X187768285Y-72567180D01*
X188054000Y-72567180D02*
X188054000Y-71567180D01*
X187958761Y-71710038D01*
X187863523Y-71805276D01*
X187768285Y-71852895D01*
G04 #@! TO.C,J23*
X176714380Y-78851023D02*
X177428666Y-78851023D01*
X177571523Y-78898642D01*
X177666761Y-78993880D01*
X177714380Y-79136738D01*
X177714380Y-79231976D01*
X176809619Y-78422452D02*
X176762000Y-78374833D01*
X176714380Y-78279595D01*
X176714380Y-78041500D01*
X176762000Y-77946261D01*
X176809619Y-77898642D01*
X176904857Y-77851023D01*
X177000095Y-77851023D01*
X177142952Y-77898642D01*
X177714380Y-78470071D01*
X177714380Y-77851023D01*
X176714380Y-77517690D02*
X176714380Y-76898642D01*
X177095333Y-77231976D01*
X177095333Y-77089119D01*
X177142952Y-76993880D01*
X177190571Y-76946261D01*
X177285809Y-76898642D01*
X177523904Y-76898642D01*
X177619142Y-76946261D01*
X177666761Y-76993880D01*
X177714380Y-77089119D01*
X177714380Y-77374833D01*
X177666761Y-77470071D01*
X177619142Y-77517690D01*
G04 #@! TO.C,U5*
X167576095Y-58881380D02*
X167576095Y-59690904D01*
X167623714Y-59786142D01*
X167671333Y-59833761D01*
X167766571Y-59881380D01*
X167957047Y-59881380D01*
X168052285Y-59833761D01*
X168099904Y-59786142D01*
X168147523Y-59690904D01*
X168147523Y-58881380D01*
X169099904Y-58881380D02*
X168623714Y-58881380D01*
X168576095Y-59357571D01*
X168623714Y-59309952D01*
X168718952Y-59262333D01*
X168957047Y-59262333D01*
X169052285Y-59309952D01*
X169099904Y-59357571D01*
X169147523Y-59452809D01*
X169147523Y-59690904D01*
X169099904Y-59786142D01*
X169052285Y-59833761D01*
X168957047Y-59881380D01*
X168718952Y-59881380D01*
X168623714Y-59833761D01*
X168576095Y-59786142D01*
G04 #@! TO.C,Y1*
X154375190Y-66489190D02*
X154851380Y-66489190D01*
X153851380Y-66822523D02*
X154375190Y-66489190D01*
X153851380Y-66155857D01*
X154851380Y-65298714D02*
X154851380Y-65870142D01*
X154851380Y-65584428D02*
X153851380Y-65584428D01*
X153994238Y-65679666D01*
X154089476Y-65774904D01*
X154137095Y-65870142D01*
G04 #@! TO.C,J32*
X113490476Y-68691380D02*
X113490476Y-69405666D01*
X113442857Y-69548523D01*
X113347619Y-69643761D01*
X113204761Y-69691380D01*
X113109523Y-69691380D01*
X113871428Y-68691380D02*
X114490476Y-68691380D01*
X114157142Y-69072333D01*
X114300000Y-69072333D01*
X114395238Y-69119952D01*
X114442857Y-69167571D01*
X114490476Y-69262809D01*
X114490476Y-69500904D01*
X114442857Y-69596142D01*
X114395238Y-69643761D01*
X114300000Y-69691380D01*
X114014285Y-69691380D01*
X113919047Y-69643761D01*
X113871428Y-69596142D01*
X114871428Y-68786619D02*
X114919047Y-68739000D01*
X115014285Y-68691380D01*
X115252380Y-68691380D01*
X115347619Y-68739000D01*
X115395238Y-68786619D01*
X115442857Y-68881857D01*
X115442857Y-68977095D01*
X115395238Y-69119952D01*
X114823809Y-69691380D01*
X115442857Y-69691380D01*
G04 #@! TO.C,J28*
X167338476Y-118882380D02*
X167338476Y-119596666D01*
X167290857Y-119739523D01*
X167195619Y-119834761D01*
X167052761Y-119882380D01*
X166957523Y-119882380D01*
X167767047Y-118977619D02*
X167814666Y-118930000D01*
X167909904Y-118882380D01*
X168148000Y-118882380D01*
X168243238Y-118930000D01*
X168290857Y-118977619D01*
X168338476Y-119072857D01*
X168338476Y-119168095D01*
X168290857Y-119310952D01*
X167719428Y-119882380D01*
X168338476Y-119882380D01*
X168909904Y-119310952D02*
X168814666Y-119263333D01*
X168767047Y-119215714D01*
X168719428Y-119120476D01*
X168719428Y-119072857D01*
X168767047Y-118977619D01*
X168814666Y-118930000D01*
X168909904Y-118882380D01*
X169100380Y-118882380D01*
X169195619Y-118930000D01*
X169243238Y-118977619D01*
X169290857Y-119072857D01*
X169290857Y-119120476D01*
X169243238Y-119215714D01*
X169195619Y-119263333D01*
X169100380Y-119310952D01*
X168909904Y-119310952D01*
X168814666Y-119358571D01*
X168767047Y-119406190D01*
X168719428Y-119501428D01*
X168719428Y-119691904D01*
X168767047Y-119787142D01*
X168814666Y-119834761D01*
X168909904Y-119882380D01*
X169100380Y-119882380D01*
X169195619Y-119834761D01*
X169243238Y-119787142D01*
X169290857Y-119691904D01*
X169290857Y-119501428D01*
X169243238Y-119406190D01*
X169195619Y-119358571D01*
X169100380Y-119310952D01*
G04 #@! TO.C,J29*
X119205476Y-104912380D02*
X119205476Y-105626666D01*
X119157857Y-105769523D01*
X119062619Y-105864761D01*
X118919761Y-105912380D01*
X118824523Y-105912380D01*
X119634047Y-105007619D02*
X119681666Y-104960000D01*
X119776904Y-104912380D01*
X120015000Y-104912380D01*
X120110238Y-104960000D01*
X120157857Y-105007619D01*
X120205476Y-105102857D01*
X120205476Y-105198095D01*
X120157857Y-105340952D01*
X119586428Y-105912380D01*
X120205476Y-105912380D01*
X120681666Y-105912380D02*
X120872142Y-105912380D01*
X120967380Y-105864761D01*
X121015000Y-105817142D01*
X121110238Y-105674285D01*
X121157857Y-105483809D01*
X121157857Y-105102857D01*
X121110238Y-105007619D01*
X121062619Y-104960000D01*
X120967380Y-104912380D01*
X120776904Y-104912380D01*
X120681666Y-104960000D01*
X120634047Y-105007619D01*
X120586428Y-105102857D01*
X120586428Y-105340952D01*
X120634047Y-105436190D01*
X120681666Y-105483809D01*
X120776904Y-105531428D01*
X120967380Y-105531428D01*
X121062619Y-105483809D01*
X121110238Y-105436190D01*
X121157857Y-105340952D01*
G04 #@! TO.C,J30*
X135588476Y-118882380D02*
X135588476Y-119596666D01*
X135540857Y-119739523D01*
X135445619Y-119834761D01*
X135302761Y-119882380D01*
X135207523Y-119882380D01*
X135969428Y-118882380D02*
X136588476Y-118882380D01*
X136255142Y-119263333D01*
X136398000Y-119263333D01*
X136493238Y-119310952D01*
X136540857Y-119358571D01*
X136588476Y-119453809D01*
X136588476Y-119691904D01*
X136540857Y-119787142D01*
X136493238Y-119834761D01*
X136398000Y-119882380D01*
X136112285Y-119882380D01*
X136017047Y-119834761D01*
X135969428Y-119787142D01*
X137207523Y-118882380D02*
X137302761Y-118882380D01*
X137398000Y-118930000D01*
X137445619Y-118977619D01*
X137493238Y-119072857D01*
X137540857Y-119263333D01*
X137540857Y-119501428D01*
X137493238Y-119691904D01*
X137445619Y-119787142D01*
X137398000Y-119834761D01*
X137302761Y-119882380D01*
X137207523Y-119882380D01*
X137112285Y-119834761D01*
X137064666Y-119787142D01*
X137017047Y-119691904D01*
X136969428Y-119501428D01*
X136969428Y-119263333D01*
X137017047Y-119072857D01*
X137064666Y-118977619D01*
X137112285Y-118930000D01*
X137207523Y-118882380D01*
G04 #@! TO.C,J34*
X184102476Y-104912380D02*
X184102476Y-105626666D01*
X184054857Y-105769523D01*
X183959619Y-105864761D01*
X183816761Y-105912380D01*
X183721523Y-105912380D01*
X184483428Y-104912380D02*
X185102476Y-104912380D01*
X184769142Y-105293333D01*
X184912000Y-105293333D01*
X185007238Y-105340952D01*
X185054857Y-105388571D01*
X185102476Y-105483809D01*
X185102476Y-105721904D01*
X185054857Y-105817142D01*
X185007238Y-105864761D01*
X184912000Y-105912380D01*
X184626285Y-105912380D01*
X184531047Y-105864761D01*
X184483428Y-105817142D01*
X185959619Y-105245714D02*
X185959619Y-105912380D01*
X185721523Y-104864761D02*
X185483428Y-105579047D01*
X186102476Y-105579047D01*
G04 #@! TO.C,L1*
X124097333Y-60391380D02*
X123621142Y-60391380D01*
X123621142Y-59391380D01*
X124954476Y-60391380D02*
X124383047Y-60391380D01*
X124668761Y-60391380D02*
X124668761Y-59391380D01*
X124573523Y-59534238D01*
X124478285Y-59629476D01*
X124383047Y-59677095D01*
G04 #@! TO.C,J31*
X190452476Y-82168880D02*
X190452476Y-82883166D01*
X190404857Y-83026023D01*
X190309619Y-83121261D01*
X190166761Y-83168880D01*
X190071523Y-83168880D01*
X190833428Y-82168880D02*
X191452476Y-82168880D01*
X191119142Y-82549833D01*
X191262000Y-82549833D01*
X191357238Y-82597452D01*
X191404857Y-82645071D01*
X191452476Y-82740309D01*
X191452476Y-82978404D01*
X191404857Y-83073642D01*
X191357238Y-83121261D01*
X191262000Y-83168880D01*
X190976285Y-83168880D01*
X190881047Y-83121261D01*
X190833428Y-83073642D01*
X192404857Y-83168880D02*
X191833428Y-83168880D01*
X192119142Y-83168880D02*
X192119142Y-82168880D01*
X192023904Y-82311738D01*
X191928666Y-82406976D01*
X191833428Y-82454595D01*
G04 #@! TD*
M02*
