G04 #@! TF.GenerationSoftware,KiCad,Pcbnew,(5.0.0)*
G04 #@! TF.CreationDate,2018-12-05T00:13:52-06:00*
G04 #@! TF.ProjectId,0002-ATX,303030322D4154582E6B696361645F70,0000*
G04 #@! TF.SameCoordinates,Original*
G04 #@! TF.FileFunction,Copper,L1,Top,Signal*
G04 #@! TF.FilePolarity,Positive*
%FSLAX46Y46*%
G04 Gerber Fmt 4.6, Leading zero omitted, Abs format (unit mm)*
G04 Created by KiCad (PCBNEW (5.0.0)) date 12/05/18 00:13:52*
%MOMM*%
%LPD*%
G01*
G04 APERTURE LIST*
G04 #@! TA.AperFunction,ComponentPad*
%ADD10C,2.800000*%
G04 #@! TD*
G04 #@! TA.AperFunction,ComponentPad*
%ADD11R,2.800000X2.800000*%
G04 #@! TD*
G04 #@! TA.AperFunction,ComponentPad*
%ADD12R,1.600000X1.600000*%
G04 #@! TD*
G04 #@! TA.AperFunction,ComponentPad*
%ADD13C,1.600000*%
G04 #@! TD*
G04 #@! TA.AperFunction,SMDPad,CuDef*
%ADD14R,5.400000X2.900000*%
G04 #@! TD*
G04 #@! TA.AperFunction,SMDPad,CuDef*
%ADD15R,3.500000X1.600000*%
G04 #@! TD*
G04 #@! TA.AperFunction,SMDPad,CuDef*
%ADD16R,0.490000X0.550000*%
G04 #@! TD*
G04 #@! TA.AperFunction,SMDPad,CuDef*
%ADD17R,0.850000X1.350000*%
G04 #@! TD*
G04 #@! TA.AperFunction,SMDPad,CuDef*
%ADD18R,1.560000X0.650000*%
G04 #@! TD*
G04 #@! TA.AperFunction,SMDPad,CuDef*
%ADD19R,0.550000X0.490000*%
G04 #@! TD*
G04 #@! TA.AperFunction,SMDPad,CuDef*
%ADD20R,0.250000X0.750000*%
G04 #@! TD*
G04 #@! TA.AperFunction,SMDPad,CuDef*
%ADD21R,1.143000X0.508000*%
G04 #@! TD*
G04 #@! TA.AperFunction,SMDPad,CuDef*
%ADD22R,0.800000X1.900000*%
G04 #@! TD*
G04 #@! TA.AperFunction,SMDPad,CuDef*
%ADD23R,4.500000X4.500000*%
G04 #@! TD*
G04 #@! TA.AperFunction,SMDPad,CuDef*
%ADD24R,1.350000X0.850000*%
G04 #@! TD*
G04 #@! TA.AperFunction,SMDPad,CuDef*
%ADD25R,0.500000X0.500000*%
G04 #@! TD*
G04 #@! TA.AperFunction,ConnectorPad*
%ADD26C,0.787400*%
G04 #@! TD*
G04 #@! TA.AperFunction,ComponentPad*
%ADD27C,3.000000*%
G04 #@! TD*
G04 #@! TA.AperFunction,ComponentPad*
%ADD28C,1.400000*%
G04 #@! TD*
G04 #@! TA.AperFunction,ComponentPad*
%ADD29R,1.400000X1.400000*%
G04 #@! TD*
G04 #@! TA.AperFunction,SMDPad,CuDef*
%ADD30R,1.950000X0.600000*%
G04 #@! TD*
G04 #@! TA.AperFunction,ComponentPad*
%ADD31C,1.500000*%
G04 #@! TD*
G04 #@! TA.AperFunction,ComponentPad*
%ADD32R,1.700000X1.700000*%
G04 #@! TD*
G04 #@! TA.AperFunction,ComponentPad*
%ADD33O,1.700000X1.700000*%
G04 #@! TD*
G04 #@! TA.AperFunction,ComponentPad*
%ADD34C,10.600000*%
G04 #@! TD*
G04 #@! TA.AperFunction,ComponentPad*
%ADD35C,0.700000*%
G04 #@! TD*
G04 #@! TA.AperFunction,SMDPad,CuDef*
%ADD36R,1.500000X2.400000*%
G04 #@! TD*
G04 #@! TA.AperFunction,ViaPad*
%ADD37C,0.600000*%
G04 #@! TD*
G04 #@! TA.AperFunction,Conductor*
%ADD38C,0.250000*%
G04 #@! TD*
G04 #@! TA.AperFunction,Conductor*
%ADD39C,0.254000*%
G04 #@! TD*
G04 #@! TA.AperFunction,Conductor*
%ADD40C,2.540000*%
G04 #@! TD*
G04 #@! TA.AperFunction,Conductor*
%ADD41C,0.762000*%
G04 #@! TD*
G04 #@! TA.AperFunction,Conductor*
%ADD42C,1.270000*%
G04 #@! TD*
G04 #@! TA.AperFunction,Conductor*
%ADD43C,1.778000*%
G04 #@! TD*
G04 #@! TA.AperFunction,Conductor*
%ADD44C,2.286000*%
G04 #@! TD*
G04 #@! TA.AperFunction,Conductor*
%ADD45C,1.016000*%
G04 #@! TD*
G04 #@! TA.AperFunction,Conductor*
%ADD46C,0.508000*%
G04 #@! TD*
G04 #@! TA.AperFunction,Conductor*
%ADD47C,0.635000*%
G04 #@! TD*
G04 APERTURE END LIST*
D10*
G04 #@! TO.P,J21,6*
G04 #@! TO.N,N/C*
X119888000Y-93790000D03*
G04 #@! TO.P,J21,5*
G04 #@! TO.N,Vmain*
X119888000Y-97990000D03*
G04 #@! TO.P,J21,4*
G04 #@! TO.N,GND*
X119888000Y-102190000D03*
G04 #@! TO.P,J21,3*
G04 #@! TO.N,5V*
X125388000Y-93790000D03*
G04 #@! TO.P,J21,2*
G04 #@! TO.N,GND*
X125388000Y-97990000D03*
D11*
G04 #@! TO.P,J21,1*
G04 #@! TO.N,3V3*
X125388000Y-102190000D03*
G04 #@! TD*
D12*
G04 #@! TO.P,C15,1*
G04 #@! TO.N,5V*
X138049000Y-88773000D03*
D13*
G04 #@! TO.P,C15,2*
G04 #@! TO.N,GND*
X140549000Y-88773000D03*
G04 #@! TD*
D14*
G04 #@! TO.P,L3,2*
G04 #@! TO.N,3V3*
X169088000Y-94240000D03*
G04 #@! TO.P,L3,1*
G04 #@! TO.N,Net-(C21-Pad1)*
X169088000Y-104140000D03*
G04 #@! TD*
D10*
G04 #@! TO.P,J15,18*
G04 #@! TO.N,3V3*
X169200000Y-76796000D03*
G04 #@! TO.P,J15,17*
X165000000Y-76796000D03*
G04 #@! TO.P,J15,16*
G04 #@! TO.N,3V3-RS*
X160800000Y-76796000D03*
G04 #@! TO.P,J15,15*
G04 #@! TO.N,GND*
X156600000Y-76796000D03*
G04 #@! TO.P,J15,14*
X152400000Y-76796000D03*
G04 #@! TO.P,J15,13*
X148200000Y-76796000D03*
G04 #@! TO.P,J15,12*
G04 #@! TO.N,5Vsb*
X144000000Y-76796000D03*
G04 #@! TO.P,J15,11*
G04 #@! TO.N,5V*
X139800000Y-76796000D03*
G04 #@! TO.P,J15,10*
X135600000Y-76796000D03*
G04 #@! TO.P,J15,9*
G04 #@! TO.N,3V3*
X169200000Y-82296000D03*
G04 #@! TO.P,J15,8*
X165000000Y-82296000D03*
G04 #@! TO.P,J15,7*
G04 #@! TO.N,N/C*
X160800000Y-82296000D03*
G04 #@! TO.P,J15,6*
G04 #@! TO.N,GND*
X156600000Y-82296000D03*
G04 #@! TO.P,J15,5*
X152400000Y-82296000D03*
G04 #@! TO.P,J15,4*
X148200000Y-82296000D03*
G04 #@! TO.P,J15,3*
G04 #@! TO.N,5V*
X144000000Y-82296000D03*
G04 #@! TO.P,J15,2*
X139800000Y-82296000D03*
D11*
G04 #@! TO.P,J15,1*
X135600000Y-82296000D03*
G04 #@! TD*
D15*
G04 #@! TO.P,C29,1*
G04 #@! TO.N,Vmain*
X134206000Y-136970000D03*
G04 #@! TO.P,C29,2*
G04 #@! TO.N,GND*
X139606000Y-136970000D03*
G04 #@! TD*
D16*
G04 #@! TO.P,C3,2*
G04 #@! TO.N,Net-(C3-Pad2)*
X127770000Y-68402200D03*
G04 #@! TO.P,C3,1*
G04 #@! TO.N,Net-(C3-Pad1)*
X128720000Y-68402200D03*
G04 #@! TD*
D17*
G04 #@! TO.P,C4,1*
G04 #@! TO.N,5Vsb*
X129499000Y-67005200D03*
G04 #@! TO.P,C4,2*
G04 #@! TO.N,GND*
X131309000Y-67005200D03*
G04 #@! TD*
G04 #@! TO.P,C5,2*
G04 #@! TO.N,GND*
X131309000Y-65227200D03*
G04 #@! TO.P,C5,1*
G04 #@! TO.N,5Vsb*
X129499000Y-65227200D03*
G04 #@! TD*
G04 #@! TO.P,C6,1*
G04 #@! TO.N,5Vsb*
X129499000Y-63449200D03*
G04 #@! TO.P,C6,2*
G04 #@! TO.N,GND*
X131309000Y-63449200D03*
G04 #@! TD*
D16*
G04 #@! TO.P,R2,2*
G04 #@! TO.N,Net-(R2-Pad2)*
X127770000Y-72085200D03*
G04 #@! TO.P,R2,1*
G04 #@! TO.N,5Vsb*
X128720000Y-72085200D03*
G04 #@! TD*
G04 #@! TO.P,R3,1*
G04 #@! TO.N,Net-(R2-Pad2)*
X126688000Y-72085200D03*
G04 #@! TO.P,R3,2*
G04 #@! TO.N,GND*
X125738000Y-72085200D03*
G04 #@! TD*
D18*
G04 #@! TO.P,U1,5*
G04 #@! TO.N,Net-(R1-Pad2)*
X126166000Y-69672200D03*
G04 #@! TO.P,U1,6*
G04 #@! TO.N,Net-(C3-Pad2)*
X126166000Y-68722200D03*
G04 #@! TO.P,U1,4*
G04 #@! TO.N,Net-(R2-Pad2)*
X126166000Y-70622200D03*
G04 #@! TO.P,U1,3*
G04 #@! TO.N,Vstby*
X123466000Y-70622200D03*
G04 #@! TO.P,U1,2*
G04 #@! TO.N,Net-(C3-Pad1)*
X123466000Y-69672200D03*
G04 #@! TO.P,U1,1*
G04 #@! TO.N,GND*
X123466000Y-68722200D03*
G04 #@! TD*
D17*
G04 #@! TO.P,R1,2*
G04 #@! TO.N,Net-(R1-Pad2)*
X127975000Y-70307200D03*
G04 #@! TO.P,R1,1*
G04 #@! TO.N,Vstby*
X129785000Y-70307200D03*
G04 #@! TD*
D19*
G04 #@! TO.P,C8,2*
G04 #@! TO.N,GND*
X147269000Y-115639000D03*
G04 #@! TO.P,C8,1*
G04 #@! TO.N,Vmain*
X147269000Y-114689000D03*
G04 #@! TD*
D16*
G04 #@! TO.P,C9,1*
G04 #@! TO.N,Net-(C9-Pad1)*
X149101000Y-112458000D03*
G04 #@! TO.P,C9,2*
G04 #@! TO.N,GND*
X150051000Y-112458000D03*
G04 #@! TD*
G04 #@! TO.P,C10,1*
G04 #@! TO.N,Net-(C10-Pad1)*
X149098000Y-110680000D03*
G04 #@! TO.P,C10,2*
G04 #@! TO.N,GND*
X150048000Y-110680000D03*
G04 #@! TD*
G04 #@! TO.P,C11,1*
G04 #@! TO.N,Net-(C11-Pad1)*
X145636000Y-108268000D03*
G04 #@! TO.P,C11,2*
G04 #@! TO.N,Net-(C11-Pad2)*
X144686000Y-108268000D03*
G04 #@! TD*
G04 #@! TO.P,R16,2*
G04 #@! TO.N,Net-(R12-Pad1)*
X155605000Y-114808000D03*
G04 #@! TO.P,R16,1*
G04 #@! TO.N,Net-(C27-Pad2)*
X154655000Y-114808000D03*
G04 #@! TD*
D13*
G04 #@! TO.P,C25,2*
G04 #@! TO.N,GND*
X164378000Y-88773000D03*
D12*
G04 #@! TO.P,C25,1*
G04 #@! TO.N,3V3*
X166878000Y-88773000D03*
G04 #@! TD*
G04 #@! TO.P,C26,1*
G04 #@! TO.N,3V3*
X171386000Y-88773000D03*
D13*
G04 #@! TO.P,C26,2*
G04 #@! TO.N,GND*
X173886000Y-88773000D03*
G04 #@! TD*
D19*
G04 #@! TO.P,C27,1*
G04 #@! TO.N,3V3*
X154686000Y-116583000D03*
G04 #@! TO.P,C27,2*
G04 #@! TO.N,Net-(C27-Pad2)*
X154686000Y-115633000D03*
G04 #@! TD*
D16*
G04 #@! TO.P,R10,1*
G04 #@! TO.N,Net-(R10-Pad1)*
X155605000Y-109538000D03*
G04 #@! TO.P,R10,2*
G04 #@! TO.N,GND*
X154655000Y-109538000D03*
G04 #@! TD*
G04 #@! TO.P,R11,1*
G04 #@! TO.N,Net-(C20-Pad1)*
X155605000Y-112204000D03*
G04 #@! TO.P,R11,2*
G04 #@! TO.N,GND*
X154655000Y-112204000D03*
G04 #@! TD*
D19*
G04 #@! TO.P,R12,2*
G04 #@! TO.N,Net-(C20-Pad1)*
X155576000Y-113029000D03*
G04 #@! TO.P,R12,1*
G04 #@! TO.N,Net-(R12-Pad1)*
X155576000Y-113979000D03*
G04 #@! TD*
D16*
G04 #@! TO.P,R13,2*
G04 #@! TO.N,GND*
X156975000Y-115570000D03*
G04 #@! TO.P,R13,1*
G04 #@! TO.N,Net-(Q4-Pad4)*
X157925000Y-115570000D03*
G04 #@! TD*
D19*
G04 #@! TO.P,R15,2*
G04 #@! TO.N,Net-(R12-Pad1)*
X155576000Y-115633000D03*
G04 #@! TO.P,R15,1*
G04 #@! TO.N,3V3*
X155576000Y-116583000D03*
G04 #@! TD*
G04 #@! TO.P,R17,1*
G04 #@! TO.N,3V3-RS*
X154686000Y-113029000D03*
G04 #@! TO.P,R17,2*
G04 #@! TO.N,Net-(R12-Pad1)*
X154686000Y-113979000D03*
G04 #@! TD*
D16*
G04 #@! TO.P,TH2,1*
G04 #@! TO.N,Net-(R10-Pad1)*
X155605000Y-108648000D03*
G04 #@! TO.P,TH2,2*
G04 #@! TO.N,/3V3/EN*
X154655000Y-108648000D03*
G04 #@! TD*
D15*
G04 #@! TO.P,C32,1*
G04 #@! TO.N,Vmain*
X165130000Y-137096000D03*
G04 #@! TO.P,C32,2*
G04 #@! TO.N,GND*
X170530000Y-137096000D03*
G04 #@! TD*
D20*
G04 #@! TO.P,U3,8*
G04 #@! TO.N,Net-(C21-Pad1)*
X158500000Y-113628000D03*
G04 #@! TO.P,U3,7*
G04 #@! TO.N,Net-(Q4-Pad4)*
X158000000Y-113628000D03*
G04 #@! TO.P,U3,6*
G04 #@! TO.N,GND*
X157500000Y-113628000D03*
G04 #@! TO.P,U3,5*
G04 #@! TO.N,Vmain*
X157500000Y-110528000D03*
G04 #@! TO.P,U3,4*
G04 #@! TO.N,Net-(R10-Pad1)*
X158000000Y-110528000D03*
G04 #@! TO.P,U3,3*
G04 #@! TO.N,Net-(C19-Pad1)*
X158500000Y-110528000D03*
G04 #@! TO.P,U3,2*
G04 #@! TO.N,/24pinATX/PWOK*
X159000000Y-110528000D03*
G04 #@! TO.P,U3,1*
G04 #@! TO.N,Net-(C20-Pad1)*
X159500000Y-110528000D03*
G04 #@! TO.P,U3,9*
G04 #@! TO.N,Net-(Q3-Pad4)*
X159000000Y-113628000D03*
G04 #@! TO.P,U3,10*
G04 #@! TO.N,Net-(C21-Pad2)*
X159500000Y-113628000D03*
G04 #@! TD*
D21*
G04 #@! TO.P,U4,10*
G04 #@! TO.N,Net-(U4-Pad10)*
X119278000Y-66040000D03*
G04 #@! TO.P,U4,14*
G04 #@! TO.N,5Vsb*
X119278000Y-60960000D03*
G04 #@! TO.P,U4,13*
G04 #@! TO.N,Net-(U4-Pad13)*
X119278000Y-62230000D03*
G04 #@! TO.P,U4,12*
G04 #@! TO.N,/24pinATX/PWOK*
X119278000Y-63500000D03*
G04 #@! TO.P,U4,11*
G04 #@! TO.N,Net-(U4-Pad10)*
X119278000Y-64770000D03*
G04 #@! TO.P,U4,9*
G04 #@! TO.N,Net-(U4-Pad13)*
X119278000Y-67310000D03*
G04 #@! TO.P,U4,8*
G04 #@! TO.N,/24pinATX/PSON*
X119278000Y-68580000D03*
G04 #@! TO.P,U4,7*
G04 #@! TO.N,GND*
X112928000Y-68580000D03*
G04 #@! TO.P,U4,6*
G04 #@! TO.N,/24pinATX/PSON*
X112928000Y-67310000D03*
G04 #@! TO.P,U4,5*
G04 #@! TO.N,Net-(U4-Pad1)*
X112928000Y-66040000D03*
G04 #@! TO.P,U4,4*
G04 #@! TO.N,Net-(Q5-Pad2)*
X112928000Y-64770000D03*
G04 #@! TO.P,U4,3*
G04 #@! TO.N,/24pinATX/PWOK*
X112928000Y-63500000D03*
G04 #@! TO.P,U4,2*
G04 #@! TO.N,Net-(U4-Pad13)*
X112928000Y-62230000D03*
G04 #@! TO.P,U4,1*
G04 #@! TO.N,Net-(U4-Pad1)*
X112928000Y-60960000D03*
G04 #@! TD*
D22*
G04 #@! TO.P,Q5,1*
G04 #@! TO.N,GND*
X119024000Y-71374000D03*
G04 #@! TO.P,Q5,2*
G04 #@! TO.N,Net-(Q5-Pad2)*
X117124000Y-71374000D03*
G04 #@! TO.P,Q5,3*
G04 #@! TO.N,PSON*
X118074000Y-74374000D03*
G04 #@! TD*
D16*
G04 #@! TO.P,C28,1*
G04 #@! TO.N,5Vsb*
X129921000Y-61976000D03*
G04 #@! TO.P,C28,2*
G04 #@! TO.N,GND*
X130871000Y-61976000D03*
G04 #@! TD*
D23*
G04 #@! TO.P,HS4,1*
G04 #@! TO.N,Net-(C11-Pad1)*
X139573000Y-115570000D03*
G04 #@! TD*
G04 #@! TO.P,HS5,1*
G04 #@! TO.N,Vmain*
X132016000Y-115570000D03*
G04 #@! TD*
G04 #@! TO.P,HS6,1*
G04 #@! TO.N,Net-(C21-Pad1)*
X164973000Y-109664000D03*
G04 #@! TD*
G04 #@! TO.P,HS7,1*
G04 #@! TO.N,Vmain*
X172339000Y-109664000D03*
G04 #@! TD*
D13*
G04 #@! TO.P,C16,2*
G04 #@! TO.N,GND*
X131040000Y-88773000D03*
D12*
G04 #@! TO.P,C16,1*
G04 #@! TO.N,5V*
X133540000Y-88773000D03*
G04 #@! TD*
D14*
G04 #@! TO.P,L2,2*
G04 #@! TO.N,5V*
X135839000Y-94240000D03*
G04 #@! TO.P,L2,1*
G04 #@! TO.N,Net-(C11-Pad1)*
X135839000Y-104140000D03*
G04 #@! TD*
D16*
G04 #@! TO.P,R4,1*
G04 #@! TO.N,Net-(R4-Pad1)*
X149098000Y-113348000D03*
G04 #@! TO.P,R4,2*
G04 #@! TO.N,GND*
X150048000Y-113348000D03*
G04 #@! TD*
G04 #@! TO.P,R5,1*
G04 #@! TO.N,Net-(C10-Pad1)*
X149098000Y-111570000D03*
G04 #@! TO.P,R5,2*
G04 #@! TO.N,GND*
X150048000Y-111570000D03*
G04 #@! TD*
G04 #@! TO.P,R6,2*
G04 #@! TO.N,Net-(C10-Pad1)*
X149098000Y-109792000D03*
G04 #@! TO.P,R6,1*
G04 #@! TO.N,5V*
X150048000Y-109792000D03*
G04 #@! TD*
G04 #@! TO.P,R7,1*
G04 #@! TO.N,Net-(Q2-Pad4)*
X146497000Y-108268000D03*
G04 #@! TO.P,R7,2*
G04 #@! TO.N,GND*
X147447000Y-108268000D03*
G04 #@! TD*
G04 #@! TO.P,TH1,2*
G04 #@! TO.N,PWOK*
X150048000Y-114236000D03*
G04 #@! TO.P,TH1,1*
G04 #@! TO.N,Net-(R4-Pad1)*
X149098000Y-114236000D03*
G04 #@! TD*
D20*
G04 #@! TO.P,U2,8*
G04 #@! TO.N,Net-(C11-Pad1)*
X146110000Y-110528000D03*
G04 #@! TO.P,U2,7*
G04 #@! TO.N,Net-(Q2-Pad4)*
X146610000Y-110528000D03*
G04 #@! TO.P,U2,6*
G04 #@! TO.N,GND*
X147110000Y-110528000D03*
G04 #@! TO.P,U2,5*
G04 #@! TO.N,Vmain*
X147110000Y-113628000D03*
G04 #@! TO.P,U2,4*
G04 #@! TO.N,Net-(R4-Pad1)*
X146610000Y-113628000D03*
G04 #@! TO.P,U2,3*
G04 #@! TO.N,Net-(C9-Pad1)*
X146110000Y-113628000D03*
G04 #@! TO.P,U2,2*
G04 #@! TO.N,/3V3/EN*
X145610000Y-113628000D03*
G04 #@! TO.P,U2,1*
G04 #@! TO.N,Net-(C10-Pad1)*
X145110000Y-113628000D03*
G04 #@! TO.P,U2,9*
G04 #@! TO.N,Net-(Q1-Pad4)*
X145610000Y-110528000D03*
G04 #@! TO.P,U2,10*
G04 #@! TO.N,Net-(C11-Pad2)*
X145110000Y-110528000D03*
G04 #@! TD*
D19*
G04 #@! TO.P,C18,1*
G04 #@! TO.N,Vmain*
X157328000Y-109441000D03*
G04 #@! TO.P,C18,2*
G04 #@! TO.N,GND*
X157328000Y-108491000D03*
G04 #@! TD*
D16*
G04 #@! TO.P,C19,2*
G04 #@! TO.N,GND*
X154655000Y-110426000D03*
G04 #@! TO.P,C19,1*
G04 #@! TO.N,Net-(C19-Pad1)*
X155605000Y-110426000D03*
G04 #@! TD*
G04 #@! TO.P,C20,1*
G04 #@! TO.N,Net-(C20-Pad1)*
X155605000Y-111316000D03*
G04 #@! TO.P,C20,2*
G04 #@! TO.N,GND*
X154655000Y-111316000D03*
G04 #@! TD*
G04 #@! TO.P,C21,2*
G04 #@! TO.N,Net-(C21-Pad2)*
X159703000Y-115570000D03*
G04 #@! TO.P,C21,1*
G04 #@! TO.N,Net-(C21-Pad1)*
X158753000Y-115570000D03*
G04 #@! TD*
D10*
G04 #@! TO.P,J2,8*
G04 #@! TO.N,GND*
X158518000Y-122555000D03*
G04 #@! TO.P,J2,7*
X154318000Y-122555000D03*
G04 #@! TO.P,J2,6*
X150118000Y-122555000D03*
G04 #@! TO.P,J2,5*
X145918000Y-122555000D03*
G04 #@! TO.P,J2,4*
X158518000Y-128055000D03*
G04 #@! TO.P,J2,3*
G04 #@! TO.N,Vmain*
X154318000Y-128055000D03*
G04 #@! TO.P,J2,2*
X150118000Y-128055000D03*
D11*
G04 #@! TO.P,J2,1*
X145918000Y-128055000D03*
G04 #@! TD*
G04 #@! TO.P,J3,1*
G04 #@! TO.N,Vmain*
X127472000Y-137033000D03*
D10*
G04 #@! TO.P,J3,2*
X123272000Y-137033000D03*
G04 #@! TO.P,J3,3*
X119072000Y-137033000D03*
G04 #@! TO.P,J3,4*
G04 #@! TO.N,GND*
X114872000Y-137033000D03*
G04 #@! TO.P,J3,5*
X127472000Y-142533000D03*
G04 #@! TO.P,J3,6*
X123272000Y-142533000D03*
G04 #@! TO.P,J3,7*
X119072000Y-142533000D03*
G04 #@! TO.P,J3,8*
X114872000Y-142533000D03*
G04 #@! TD*
G04 #@! TO.P,J4,8*
G04 #@! TO.N,GND*
X189629000Y-122555000D03*
G04 #@! TO.P,J4,7*
X185429000Y-122555000D03*
G04 #@! TO.P,J4,6*
X181229000Y-122555000D03*
G04 #@! TO.P,J4,5*
X177029000Y-122555000D03*
G04 #@! TO.P,J4,4*
X189629000Y-128055000D03*
G04 #@! TO.P,J4,3*
G04 #@! TO.N,Vmain*
X185429000Y-128055000D03*
G04 #@! TO.P,J4,2*
X181229000Y-128055000D03*
D11*
G04 #@! TO.P,J4,1*
X177029000Y-128055000D03*
G04 #@! TD*
D10*
G04 #@! TO.P,J6,8*
G04 #@! TO.N,GND*
X177074000Y-142533000D03*
G04 #@! TO.P,J6,7*
X181274000Y-142533000D03*
G04 #@! TO.P,J6,6*
X185474000Y-142533000D03*
G04 #@! TO.P,J6,5*
X189674000Y-142533000D03*
G04 #@! TO.P,J6,4*
X177074000Y-137033000D03*
G04 #@! TO.P,J6,3*
G04 #@! TO.N,Vmain*
X181274000Y-137033000D03*
G04 #@! TO.P,J6,2*
X185474000Y-137033000D03*
D11*
G04 #@! TO.P,J6,1*
X189674000Y-137033000D03*
G04 #@! TD*
G04 #@! TO.P,J7,1*
G04 #@! TO.N,Vmain*
X158573000Y-137033000D03*
D10*
G04 #@! TO.P,J7,2*
X154373000Y-137033000D03*
G04 #@! TO.P,J7,3*
X150173000Y-137033000D03*
G04 #@! TO.P,J7,4*
G04 #@! TO.N,GND*
X145973000Y-137033000D03*
G04 #@! TO.P,J7,5*
X158573000Y-142533000D03*
G04 #@! TO.P,J7,6*
X154373000Y-142533000D03*
G04 #@! TO.P,J7,7*
X150173000Y-142533000D03*
G04 #@! TO.P,J7,8*
X145973000Y-142533000D03*
G04 #@! TD*
G04 #@! TO.P,J8,8*
G04 #@! TO.N,Vmain*
X146150000Y-94349200D03*
G04 #@! TO.P,J8,7*
X150350000Y-94349200D03*
G04 #@! TO.P,J8,6*
X154550000Y-94349200D03*
G04 #@! TO.P,J8,5*
X158750000Y-94349200D03*
G04 #@! TO.P,J8,4*
G04 #@! TO.N,GND*
X146150000Y-88849200D03*
G04 #@! TO.P,J8,3*
X150350000Y-88849200D03*
G04 #@! TO.P,J8,2*
X154550000Y-88849200D03*
D11*
G04 #@! TO.P,J8,1*
X158750000Y-88849200D03*
G04 #@! TD*
G04 #@! TO.P,J11,1*
G04 #@! TO.N,3V3*
X125388000Y-86632000D03*
D10*
G04 #@! TO.P,J11,2*
G04 #@! TO.N,GND*
X125388000Y-82432000D03*
G04 #@! TO.P,J11,3*
G04 #@! TO.N,5V*
X125388000Y-78232000D03*
G04 #@! TO.P,J11,4*
G04 #@! TO.N,GND*
X119888000Y-86632000D03*
G04 #@! TO.P,J11,5*
G04 #@! TO.N,Vmain*
X119888000Y-82432000D03*
G04 #@! TO.P,J11,6*
G04 #@! TO.N,N/C*
X119888000Y-78232000D03*
G04 #@! TD*
G04 #@! TO.P,J12,6*
G04 #@! TO.N,N/C*
X185420000Y-86632000D03*
G04 #@! TO.P,J12,5*
G04 #@! TO.N,Vmain*
X185420000Y-82432000D03*
G04 #@! TO.P,J12,4*
G04 #@! TO.N,GND*
X185420000Y-78232000D03*
G04 #@! TO.P,J12,3*
G04 #@! TO.N,5V*
X179920000Y-86632000D03*
G04 #@! TO.P,J12,2*
G04 #@! TO.N,GND*
X179920000Y-82432000D03*
D11*
G04 #@! TO.P,J12,1*
G04 #@! TO.N,3V3*
X179920000Y-78232000D03*
G04 #@! TD*
G04 #@! TO.P,J13,1*
G04 #@! TO.N,3V3*
X179920000Y-93789500D03*
D10*
G04 #@! TO.P,J13,2*
G04 #@! TO.N,GND*
X179920000Y-97989500D03*
G04 #@! TO.P,J13,3*
G04 #@! TO.N,5V*
X179920000Y-102189500D03*
G04 #@! TO.P,J13,4*
G04 #@! TO.N,GND*
X185420000Y-93789500D03*
G04 #@! TO.P,J13,5*
G04 #@! TO.N,Vmain*
X185420000Y-97989500D03*
G04 #@! TO.P,J13,6*
G04 #@! TO.N,N/C*
X185420000Y-102189500D03*
G04 #@! TD*
G04 #@! TO.P,J14,10*
G04 #@! TO.N,/24pinATX/PWOK*
X152273000Y-63080000D03*
G04 #@! TO.P,J14,9*
G04 #@! TO.N,5Vsb*
X148073000Y-63080000D03*
G04 #@! TO.P,J14,8*
G04 #@! TO.N,N/C*
X143873000Y-63080000D03*
G04 #@! TO.P,J14,7*
G04 #@! TO.N,Vmain*
X139673000Y-63080000D03*
G04 #@! TO.P,J14,6*
X135473000Y-63080000D03*
G04 #@! TO.P,J14,5*
G04 #@! TO.N,/24pinATX/PSON*
X152273000Y-68580000D03*
G04 #@! TO.P,J14,4*
G04 #@! TO.N,N/C*
X148073000Y-68580000D03*
G04 #@! TO.P,J14,3*
X143873000Y-68580000D03*
G04 #@! TO.P,J14,2*
G04 #@! TO.N,GND*
X139673000Y-68580000D03*
D11*
G04 #@! TO.P,J14,1*
X135473000Y-68580000D03*
G04 #@! TD*
D24*
G04 #@! TO.P,C1,2*
G04 #@! TO.N,GND*
X121387000Y-68783200D03*
G04 #@! TO.P,C1,1*
G04 #@! TO.N,Vstby*
X121387000Y-70593200D03*
G04 #@! TD*
D16*
G04 #@! TO.P,C2,1*
G04 #@! TO.N,Vstby*
X123198000Y-72085200D03*
G04 #@! TO.P,C2,2*
G04 #@! TO.N,GND*
X124148000Y-72085200D03*
G04 #@! TD*
D23*
G04 #@! TO.P,HS1,1*
G04 #@! TO.N,Net-(C11-Pad1)*
X139446000Y-109347000D03*
G04 #@! TD*
G04 #@! TO.P,HS2,1*
G04 #@! TO.N,Vmain*
X131826000Y-109347000D03*
G04 #@! TD*
G04 #@! TO.P,HS3,1*
G04 #@! TO.N,Net-(C21-Pad1)*
X164973000Y-115760000D03*
G04 #@! TD*
G04 #@! TO.P,HS8,1*
G04 #@! TO.N,Vmain*
X172530000Y-115824000D03*
G04 #@! TD*
D16*
G04 #@! TO.P,R9,1*
G04 #@! TO.N,Vmain*
X149101000Y-115189000D03*
G04 #@! TO.P,R9,2*
G04 #@! TO.N,PWOK*
X150051000Y-115189000D03*
G04 #@! TD*
D24*
G04 #@! TO.P,C33,1*
G04 #@! TO.N,Net-(C33-Pad1)*
X175450000Y-66516500D03*
G04 #@! TO.P,C33,2*
G04 #@! TO.N,GND*
X175450000Y-64706500D03*
G04 #@! TD*
D19*
G04 #@! TO.P,C34,1*
G04 #@! TO.N,Net-(C33-Pad1)*
X176974000Y-61724500D03*
G04 #@! TO.P,C34,2*
G04 #@! TO.N,GND*
X176974000Y-62674500D03*
G04 #@! TD*
G04 #@! TO.P,C35,1*
G04 #@! TO.N,Net-(C35-Pad1)*
X161480000Y-64516000D03*
G04 #@! TO.P,C35,2*
G04 #@! TO.N,GND*
X161480000Y-63566000D03*
G04 #@! TD*
D16*
G04 #@! TO.P,C36,2*
G04 #@! TO.N,GND*
X163068000Y-59639200D03*
G04 #@! TO.P,C36,1*
G04 #@! TO.N,Net-(C33-Pad1)*
X164018000Y-59639200D03*
G04 #@! TD*
D19*
G04 #@! TO.P,C37,1*
G04 #@! TO.N,Net-(C37-Pad1)*
X161480000Y-61788000D03*
G04 #@! TO.P,C37,2*
G04 #@! TO.N,GND*
X161480000Y-62738000D03*
G04 #@! TD*
D24*
G04 #@! TO.P,C38,2*
G04 #@! TO.N,GND*
X175514000Y-62865000D03*
G04 #@! TO.P,C38,1*
G04 #@! TO.N,Net-(C33-Pad1)*
X175514000Y-61055000D03*
G04 #@! TD*
D16*
G04 #@! TO.P,C39,2*
G04 #@! TO.N,GND*
X176911000Y-71501000D03*
G04 #@! TO.P,C39,1*
G04 #@! TO.N,3V3*
X175961000Y-71501000D03*
G04 #@! TD*
D19*
G04 #@! TO.P,C40,2*
G04 #@! TO.N,GND*
X176911000Y-72359500D03*
G04 #@! TO.P,C40,1*
G04 #@! TO.N,/8pinVRM/SCL*
X176911000Y-73309500D03*
G04 #@! TD*
G04 #@! TO.P,C41,1*
G04 #@! TO.N,/8pinVRM/SDA*
X176911000Y-69662000D03*
G04 #@! TO.P,C41,2*
G04 #@! TO.N,GND*
X176911000Y-70612000D03*
G04 #@! TD*
D25*
G04 #@! TO.P,D1,1*
G04 #@! TO.N,Net-(C33-Pad1)*
X186454000Y-73964800D03*
G04 #@! TO.P,D1,2*
G04 #@! TO.N,Net-(D1-Pad2)*
X188654000Y-73964800D03*
G04 #@! TD*
D11*
G04 #@! TO.P,J5,1*
G04 #@! TO.N,Vmain*
X114808000Y-128055000D03*
D10*
G04 #@! TO.P,J5,2*
X119008000Y-128055000D03*
G04 #@! TO.P,J5,3*
X123208000Y-128055000D03*
G04 #@! TO.P,J5,4*
G04 #@! TO.N,GND*
X127408000Y-128055000D03*
G04 #@! TO.P,J5,5*
X114808000Y-122555000D03*
G04 #@! TO.P,J5,6*
X119008000Y-122555000D03*
G04 #@! TO.P,J5,7*
X123208000Y-122555000D03*
G04 #@! TO.P,J5,8*
X127408000Y-122555000D03*
G04 #@! TD*
D26*
G04 #@! TO.P,J23,1*
G04 #@! TO.N,Net-(J23-Pad1)*
X175197000Y-79311500D03*
G04 #@! TO.P,J23,2*
G04 #@! TO.N,3V3*
X173927000Y-79311500D03*
G04 #@! TO.P,J23,3*
G04 #@! TO.N,GND*
X175197000Y-78041500D03*
G04 #@! TO.P,J23,4*
G04 #@! TO.N,Net-(J23-Pad4)*
X173927000Y-78041500D03*
G04 #@! TO.P,J23,5*
G04 #@! TO.N,Net-(J23-Pad5)*
X175197000Y-76771500D03*
G04 #@! TO.P,J23,6*
G04 #@! TO.N,N/C*
X173927000Y-76771500D03*
G04 #@! TD*
D27*
G04 #@! TO.P,J24,5*
G04 #@! TO.N,GND*
X191326000Y-66167000D03*
D28*
G04 #@! TO.P,J24,4*
X186556000Y-65677000D03*
G04 #@! TO.P,J24,3*
G04 #@! TO.N,Net-(J23-Pad4)*
X184056000Y-65677000D03*
D29*
G04 #@! TO.P,J24,1*
G04 #@! TO.N,Net-(D1-Pad2)*
X186556000Y-68877000D03*
D27*
G04 #@! TO.P,J24,5*
G04 #@! TO.N,GND*
X179286000Y-66167000D03*
D28*
G04 #@! TO.P,J24,2*
G04 #@! TO.N,Net-(J23-Pad5)*
X184056000Y-68877000D03*
G04 #@! TD*
D16*
G04 #@! TO.P,R18,2*
G04 #@! TO.N,Net-(J23-Pad1)*
X166809000Y-74117200D03*
G04 #@! TO.P,R18,1*
G04 #@! TO.N,Net-(C33-Pad1)*
X167759000Y-74117200D03*
G04 #@! TD*
D19*
G04 #@! TO.P,R19,1*
G04 #@! TO.N,3V3*
X175958000Y-72392500D03*
G04 #@! TO.P,R19,2*
G04 #@! TO.N,/8pinVRM/SCL*
X175958000Y-73342500D03*
G04 #@! TD*
G04 #@! TO.P,R20,1*
G04 #@! TO.N,3V3*
X175958000Y-70612000D03*
G04 #@! TO.P,R20,2*
G04 #@! TO.N,/8pinVRM/SDA*
X175958000Y-69662000D03*
G04 #@! TD*
D30*
G04 #@! TO.P,U5,1*
G04 #@! TO.N,Net-(C33-Pad1)*
X163638000Y-61214000D03*
G04 #@! TO.P,U5,2*
G04 #@! TO.N,Net-(C37-Pad1)*
X163638000Y-62484000D03*
G04 #@! TO.P,U5,3*
G04 #@! TO.N,Net-(C35-Pad1)*
X163638000Y-63754000D03*
G04 #@! TO.P,U5,4*
G04 #@! TO.N,Net-(J23-Pad1)*
X163638000Y-65024000D03*
G04 #@! TO.P,U5,5*
G04 #@! TO.N,N/C*
X163638000Y-66294000D03*
G04 #@! TO.P,U5,6*
X163638000Y-67564000D03*
G04 #@! TO.P,U5,7*
X163638000Y-68834000D03*
G04 #@! TO.P,U5,8*
X163638000Y-70104000D03*
G04 #@! TO.P,U5,9*
X163638000Y-71374000D03*
G04 #@! TO.P,U5,10*
X163638000Y-72644000D03*
G04 #@! TO.P,U5,11*
G04 #@! TO.N,/8pinVRM/SCL*
X173038000Y-72644000D03*
G04 #@! TO.P,U5,12*
G04 #@! TO.N,N/C*
X173038000Y-71374000D03*
G04 #@! TO.P,U5,13*
G04 #@! TO.N,/8pinVRM/SDA*
X173038000Y-70104000D03*
G04 #@! TO.P,U5,14*
G04 #@! TO.N,N/C*
X173038000Y-68834000D03*
G04 #@! TO.P,U5,15*
X173038000Y-67564000D03*
G04 #@! TO.P,U5,16*
X173038000Y-66294000D03*
G04 #@! TO.P,U5,17*
G04 #@! TO.N,3V3*
X173038000Y-65024000D03*
G04 #@! TO.P,U5,18*
G04 #@! TO.N,Net-(J23-Pad5)*
X173038000Y-63754000D03*
G04 #@! TO.P,U5,19*
G04 #@! TO.N,Net-(J23-Pad4)*
X173038000Y-62484000D03*
G04 #@! TO.P,U5,20*
G04 #@! TO.N,GND*
X173038000Y-61214000D03*
G04 #@! TD*
D31*
G04 #@! TO.P,Y1,1*
G04 #@! TO.N,Net-(C35-Pad1)*
X157924000Y-68453000D03*
G04 #@! TO.P,Y1,2*
G04 #@! TO.N,Net-(C37-Pad1)*
X157924000Y-63573000D03*
G04 #@! TD*
D32*
G04 #@! TO.P,J32,1*
G04 #@! TO.N,Vstby*
X114300000Y-72009000D03*
D33*
G04 #@! TO.P,J32,2*
G04 #@! TO.N,PSON*
X114300000Y-74549000D03*
G04 #@! TO.P,J32,3*
G04 #@! TO.N,GND*
X114300000Y-77089000D03*
G04 #@! TO.P,J32,4*
G04 #@! TO.N,PWOK*
X114300000Y-79629000D03*
G04 #@! TD*
D34*
G04 #@! TO.P,J28,1*
G04 #@! TO.N,GND*
X168148000Y-125730000D03*
D35*
G04 #@! TO.P,J28,*
G04 #@! TO.N,*
X172123000Y-125730000D03*
X170958749Y-128540749D03*
X168148000Y-129705000D03*
X165337251Y-128540749D03*
X164173000Y-125730000D03*
X165337251Y-122919251D03*
X168148000Y-121755000D03*
X170958749Y-122919251D03*
G04 #@! TD*
G04 #@! TO.P,J29,*
G04 #@! TO.N,*
X122825749Y-108949251D03*
X120015000Y-107785000D03*
X117204251Y-108949251D03*
X116040000Y-111760000D03*
X117204251Y-114570749D03*
X120015000Y-115735000D03*
X122825749Y-114570749D03*
X123990000Y-111760000D03*
D34*
G04 #@! TO.P,J29,1*
G04 #@! TO.N,Vmain*
X120015000Y-111760000D03*
G04 #@! TD*
G04 #@! TO.P,J30,1*
G04 #@! TO.N,GND*
X136398000Y-125730000D03*
D35*
G04 #@! TO.P,J30,*
G04 #@! TO.N,*
X140373000Y-125730000D03*
X139208749Y-128540749D03*
X136398000Y-129705000D03*
X133587251Y-128540749D03*
X132423000Y-125730000D03*
X133587251Y-122919251D03*
X136398000Y-121755000D03*
X139208749Y-122919251D03*
G04 #@! TD*
G04 #@! TO.P,J34,*
G04 #@! TO.N,*
X187722749Y-108949251D03*
X184912000Y-107785000D03*
X182101251Y-108949251D03*
X180937000Y-111760000D03*
X182101251Y-114570749D03*
X184912000Y-115735000D03*
X187722749Y-114570749D03*
X188887000Y-111760000D03*
D34*
G04 #@! TO.P,J34,1*
G04 #@! TO.N,Vmain*
X184912000Y-111760000D03*
G04 #@! TD*
D36*
G04 #@! TO.P,L1,1*
G04 #@! TO.N,Net-(C3-Pad1)*
X121514000Y-64389000D03*
G04 #@! TO.P,L1,2*
G04 #@! TO.N,5Vsb*
X127014000Y-64389000D03*
G04 #@! TD*
D32*
G04 #@! TO.P,J31,1*
G04 #@! TO.N,/8pinVRM/SCL*
X191262000Y-79946500D03*
D33*
G04 #@! TO.P,J31,2*
G04 #@! TO.N,GND*
X191262000Y-77406500D03*
G04 #@! TO.P,J31,3*
G04 #@! TO.N,/8pinVRM/SDA*
X191262000Y-74866500D03*
G04 #@! TD*
D37*
G04 #@! TO.N,Vmain*
X148133000Y-114452000D03*
X158191000Y-109423000D03*
X145034000Y-119583000D03*
X159512000Y-119786000D03*
X152298000Y-119837000D03*
X170878000Y-117348000D03*
X170878000Y-116205000D03*
X170878000Y-115062000D03*
X170878000Y-113919000D03*
X172022000Y-117348000D03*
X172022000Y-116205000D03*
X172022000Y-115062000D03*
X172022000Y-113919000D03*
X173164000Y-117348000D03*
X173164000Y-116205000D03*
X173164000Y-115062000D03*
X173164000Y-113919000D03*
X174308000Y-117348000D03*
X174308000Y-116205000D03*
X174308000Y-115062000D03*
X174308000Y-113919000D03*
X170752000Y-111252000D03*
X170752000Y-110109000D03*
X170752000Y-108966000D03*
X170752000Y-107823000D03*
X171894000Y-111252000D03*
X171894000Y-110109000D03*
X171894000Y-108966000D03*
X171894000Y-107823000D03*
X173038000Y-111252000D03*
X173038000Y-110109000D03*
X173038000Y-108966000D03*
X173038000Y-107823000D03*
X174180000Y-111252000D03*
X174180000Y-110109000D03*
X174180000Y-108966000D03*
X174180000Y-107823000D03*
X133350000Y-107823000D03*
X133350000Y-108966000D03*
X133350000Y-110109000D03*
X133350000Y-111252000D03*
X132207000Y-107823000D03*
X132207000Y-108966000D03*
X132207000Y-110109000D03*
X132207000Y-111252000D03*
X131064000Y-107823000D03*
X131064000Y-108966000D03*
X131064000Y-110109000D03*
X131064000Y-111252000D03*
X129921000Y-108966000D03*
X129921000Y-110109000D03*
X133477000Y-114046000D03*
X133477000Y-115189000D03*
X133477000Y-116332000D03*
X133477000Y-117475000D03*
X132334000Y-114046000D03*
X132334000Y-115189000D03*
X132334000Y-116332000D03*
X132334000Y-117475000D03*
X131191000Y-114046000D03*
X131191000Y-115189000D03*
X131191000Y-116332000D03*
X131191000Y-117475000D03*
X130048000Y-114046000D03*
X130048000Y-115189000D03*
X130048000Y-116332000D03*
X130048000Y-117475000D03*
X130048000Y-107696000D03*
X129965000Y-111384000D03*
G04 #@! TO.N,GND*
X125943000Y-72285400D03*
X176327000Y-78028800D03*
X177800000Y-71526400D03*
X173006000Y-60365800D03*
X176886000Y-63855600D03*
X162103000Y-59639200D03*
X160630000Y-63550800D03*
X158140000Y-108255000D03*
X131388000Y-68446400D03*
X112928000Y-69494400D03*
X153924000Y-110439000D03*
X147422000Y-109423000D03*
X148082000Y-115621000D03*
X156992000Y-114328000D03*
X150801000Y-112458000D03*
X138256000Y-120527000D03*
X121412006Y-67564000D03*
G04 #@! TO.N,5V*
X135265000Y-97190800D03*
G04 #@! TO.N,3V3*
X171348000Y-71526400D03*
X175108000Y-71526400D03*
X130149000Y-75997000D03*
X152572000Y-110124000D03*
X152603000Y-107645000D03*
X168880000Y-97512300D03*
G04 #@! TO.N,Net-(C11-Pad1)*
X145361000Y-107352000D03*
X137541000Y-110109000D03*
X137541000Y-116332000D03*
X140970000Y-114046000D03*
X138049000Y-102997000D03*
X138049000Y-104140000D03*
X138049000Y-105283000D03*
X136906000Y-102997000D03*
X136906000Y-104140000D03*
X136906000Y-105283000D03*
X135763000Y-102997000D03*
X135763000Y-104140000D03*
X135763000Y-105283000D03*
X134620000Y-102997000D03*
X134620000Y-104140000D03*
X134620000Y-105283000D03*
X133477000Y-102997000D03*
X133477000Y-104140000D03*
X133477000Y-105283000D03*
X140970000Y-115189000D03*
X140970000Y-116332000D03*
X140970000Y-117475000D03*
X139827000Y-114046000D03*
X139827000Y-115189000D03*
X139827000Y-116332000D03*
X139827000Y-117475000D03*
X138684000Y-114046000D03*
X138684000Y-115189000D03*
X138684000Y-116332000D03*
X138684000Y-117475000D03*
X137541000Y-114046000D03*
X137541000Y-115189000D03*
X137541000Y-117475000D03*
X140970000Y-107823000D03*
X140970000Y-108966000D03*
X140970000Y-110109000D03*
X140970000Y-111252000D03*
X139827000Y-107823000D03*
X139827000Y-108966000D03*
X139827000Y-110109000D03*
X139827000Y-111252000D03*
X138684000Y-107823000D03*
X138684000Y-108966000D03*
X138684000Y-110109000D03*
X138684000Y-111252000D03*
X137541000Y-107823000D03*
X137541000Y-108966000D03*
X137541000Y-111252000D03*
G04 #@! TO.N,Net-(Q1-Pad4)*
X143459000Y-118923000D03*
G04 #@! TO.N,Net-(Q2-Pad4)*
X144456000Y-111928000D03*
G04 #@! TO.N,Net-(C21-Pad1)*
X169088000Y-104140000D03*
X171323000Y-102997000D03*
X171323000Y-104140000D03*
X171323000Y-105283000D03*
X170180000Y-102997000D03*
X170180000Y-104140000D03*
X170180000Y-105283000D03*
X169037000Y-102997000D03*
X169037000Y-105283000D03*
X167894000Y-102997000D03*
X167894000Y-104140000D03*
X167894000Y-105283000D03*
X166751000Y-102997000D03*
X166751000Y-104140000D03*
X166751000Y-105283000D03*
X163449000Y-117284000D03*
X163449000Y-116142000D03*
X163449000Y-114998000D03*
X163449000Y-113856000D03*
X164592000Y-117284000D03*
X164592000Y-116142000D03*
X164592000Y-114998000D03*
X164592000Y-113856000D03*
X165735000Y-117284000D03*
X165735000Y-116142000D03*
X165735000Y-114998000D03*
X165735000Y-113856000D03*
X166878000Y-117284000D03*
X166878000Y-116142000D03*
X163449000Y-111188000D03*
X163449000Y-110046000D03*
X163449000Y-108902000D03*
X163449000Y-107760000D03*
X164592000Y-111188000D03*
X164592000Y-110046000D03*
X164592000Y-108902000D03*
X164592000Y-107760000D03*
X165735000Y-111188000D03*
X165735000Y-110046000D03*
X165735000Y-108902000D03*
X165735000Y-107760000D03*
X166878000Y-111188000D03*
X166878000Y-110046000D03*
X166878000Y-107760000D03*
X166878000Y-115062000D03*
X166878000Y-113792000D03*
X166878000Y-108966000D03*
G04 #@! TO.N,/24pinATX/PWOK*
X159360000Y-108153000D03*
X115418000Y-63500000D03*
X115418000Y-61569600D03*
X159004000Y-106020000D03*
G04 #@! TO.N,/24pinATX/PSON*
X116581000Y-68610800D03*
X116586000Y-61468000D03*
G04 #@! TO.N,3V3-RS*
X153518000Y-109169000D03*
X153518000Y-106985000D03*
G04 #@! TO.N,Net-(Q3-Pad4)*
X160985000Y-118974000D03*
G04 #@! TO.N,Net-(Q4-Pad4)*
X160696000Y-113798000D03*
G04 #@! TO.N,Net-(J23-Pad1)*
X170536000Y-74015600D03*
X172263000Y-74015600D03*
G04 #@! TO.N,Net-(J23-Pad4)*
X171145000Y-62484000D03*
X179578000Y-62484000D03*
G04 #@! TO.N,Net-(J23-Pad5)*
X176327000Y-76758800D03*
X171145000Y-63754000D03*
X179781000Y-63804800D03*
G04 #@! TD*
D38*
G04 #@! TO.N,Vmain*
X149100000Y-115189000D02*
X149101000Y-115189000D01*
X149100000Y-115189000D02*
X148606000Y-115189000D01*
X148606000Y-115189000D02*
X148105000Y-114689000D01*
X115058000Y-97989500D02*
X115668000Y-97989500D01*
X148105000Y-114689000D02*
X148105000Y-114480000D01*
X148105000Y-114480000D02*
X148133000Y-114452000D01*
X157328000Y-109441000D02*
X157853000Y-109441000D01*
X157853000Y-109441000D02*
X157870000Y-109423000D01*
X157870000Y-109423000D02*
X158191000Y-109423000D01*
X157500000Y-110528000D02*
X157500000Y-109613000D01*
X157500000Y-109613000D02*
X157328000Y-109441000D01*
X148105000Y-114689000D02*
X147269000Y-114689000D01*
X147110000Y-113628000D02*
X147110000Y-114529000D01*
X147110000Y-114529000D02*
X147269000Y-114689000D01*
G04 #@! TO.N,GND*
X154656000Y-110426000D02*
X154655000Y-110426000D01*
X176911000Y-71501000D02*
X176911000Y-70612000D01*
X176911000Y-72359500D02*
X176911000Y-71501000D01*
X175197000Y-78041500D02*
X176314000Y-78041500D01*
X176314000Y-78041500D02*
X176327000Y-78028800D01*
X175196000Y-78041500D02*
X175197000Y-78041500D01*
X175514000Y-63855600D02*
X175514000Y-64643000D01*
X175514000Y-64643000D02*
X175450000Y-64706500D01*
X175514000Y-62865000D02*
X175514000Y-63855600D01*
D39*
X125699000Y-72290200D02*
X125938000Y-72290200D01*
X125938000Y-72290200D02*
X125943000Y-72285400D01*
X124148000Y-72085200D02*
X125494000Y-72085200D01*
X125494000Y-72085200D02*
X125699000Y-72290200D01*
X125738000Y-72085200D02*
X125699000Y-72124200D01*
X125699000Y-72124200D02*
X125699000Y-72290200D01*
D38*
X176911000Y-71501000D02*
X177775000Y-71501000D01*
X177775000Y-71501000D02*
X177800000Y-71526400D01*
X173038000Y-61214000D02*
X173038000Y-60398600D01*
X173038000Y-60398600D02*
X173006000Y-60365800D01*
X175514000Y-63855600D02*
X176886000Y-63855600D01*
X176974000Y-62674500D02*
X175704000Y-62674500D01*
X175704000Y-62674500D02*
X175514000Y-62865000D01*
X163068000Y-59639200D02*
X162103000Y-59639200D01*
X161480000Y-63566000D02*
X160645000Y-63566000D01*
X160645000Y-63566000D02*
X160630000Y-63550800D01*
X161480000Y-63566000D02*
X161480000Y-62738000D01*
X157328000Y-108491000D02*
X157904000Y-108491000D01*
X157904000Y-108491000D02*
X158140000Y-108255000D01*
X131309000Y-67005200D02*
X131309000Y-68367400D01*
X131309000Y-68367400D02*
X131388000Y-68446400D01*
X112928000Y-68580000D02*
X112928000Y-69494400D01*
X119024000Y-71374000D02*
X119024000Y-70824000D01*
X119024000Y-70824000D02*
X119674000Y-70174000D01*
X119674000Y-70174000D02*
X119996000Y-70174000D01*
X119996000Y-70174000D02*
X120462000Y-69708200D01*
X120462000Y-69708200D02*
X120462000Y-69458200D01*
X120462000Y-69458200D02*
X121137000Y-68783200D01*
X121137000Y-68783200D02*
X121387000Y-68783200D01*
X154655000Y-110426000D02*
X153937000Y-110426000D01*
X153937000Y-110426000D02*
X153924000Y-110439000D01*
X156974000Y-115570000D02*
X156974000Y-114345000D01*
X156974000Y-114345000D02*
X156992000Y-114328000D01*
X147447000Y-108268000D02*
X147447000Y-109398000D01*
X147447000Y-109398000D02*
X147422000Y-109423000D01*
X147110000Y-110528000D02*
X147110000Y-109735000D01*
X147110000Y-109735000D02*
X147422000Y-109423000D01*
X147269000Y-115639000D02*
X148064000Y-115639000D01*
X148064000Y-115639000D02*
X148082000Y-115621000D01*
D40*
X139606000Y-136970000D02*
X145910000Y-136970000D01*
X145910000Y-136970000D02*
X145973000Y-137033000D01*
X170530000Y-137096000D02*
X177011000Y-137096000D01*
X177011000Y-137096000D02*
X177074000Y-137033000D01*
D38*
X154656000Y-110426000D02*
X154656000Y-112204000D01*
D39*
X122113000Y-68722200D02*
X123466000Y-68722200D01*
X121387000Y-68783200D02*
X123405000Y-68783200D01*
X123405000Y-68783200D02*
X123466000Y-68722200D01*
D41*
X131309000Y-63449200D02*
X131309000Y-65227200D01*
X131309000Y-65227200D02*
X131309000Y-67005200D01*
D38*
X157500000Y-113628000D02*
X157500000Y-114328000D01*
X157500000Y-114328000D02*
X156992000Y-114328000D01*
X150048000Y-111570000D02*
X150048000Y-112170000D01*
X150048000Y-112170000D02*
X150051000Y-112173000D01*
X150051000Y-112173000D02*
X150051000Y-112458000D01*
X150051000Y-112458000D02*
X150051000Y-112745000D01*
X150051000Y-112745000D02*
X150048000Y-112748000D01*
X150048000Y-112748000D02*
X150048000Y-113348000D01*
X154656000Y-110426000D02*
X154656000Y-109538000D01*
X150048000Y-111570000D02*
X150048000Y-110680000D01*
X150051000Y-112458000D02*
X150801000Y-112458000D01*
D39*
X121387000Y-67589006D02*
X121412006Y-67564000D01*
X121387000Y-68783200D02*
X121387000Y-67589006D01*
X130871000Y-61976000D02*
X130937000Y-61976000D01*
X131309000Y-62348000D02*
X131309000Y-63449200D01*
X130937000Y-61976000D02*
X131309000Y-62348000D01*
D38*
G04 #@! TO.N,5V*
X125388000Y-93789500D02*
X125388000Y-93790000D01*
D40*
X125388000Y-93789500D02*
X128676000Y-90501100D01*
X128676000Y-90501100D02*
X128676000Y-86243100D01*
X128676000Y-86243100D02*
X129041000Y-85878500D01*
X129041000Y-85878500D02*
X129041000Y-82393000D01*
X129041000Y-82393000D02*
X129083000Y-82351200D01*
X129083000Y-82351200D02*
X129083000Y-78740000D01*
D38*
X180585000Y-101525000D02*
X180584500Y-101525000D01*
X180584500Y-101525000D02*
X179920000Y-102189500D01*
D42*
X180585000Y-101525000D02*
X181250000Y-100860000D01*
D43*
X181298000Y-100860000D02*
X182640000Y-99517200D01*
D40*
X125388000Y-78232000D02*
X127368000Y-78232000D01*
X127368000Y-78232000D02*
X127876000Y-78740000D01*
X127876000Y-78740000D02*
X129083000Y-78740000D01*
D43*
X182663000Y-99517200D02*
X182663000Y-89375000D01*
X182663000Y-89375000D02*
X179920000Y-86632000D01*
D40*
X129083000Y-78740000D02*
X133656000Y-78740000D01*
X133656000Y-78740000D02*
X135600000Y-76796000D01*
D38*
X150048000Y-109792000D02*
X150048000Y-109267000D01*
X150048000Y-109267000D02*
X146496000Y-105715000D01*
X146496000Y-105715000D02*
X143764000Y-105715000D01*
X143764000Y-105715000D02*
X142748000Y-104699000D01*
X142748000Y-104699000D02*
X142748000Y-103022000D01*
X142748000Y-103022000D02*
X139852000Y-100127000D01*
X139852000Y-100127000D02*
X139852000Y-92049600D01*
X139852000Y-92049600D02*
X142189000Y-89712800D01*
X142189000Y-89712800D02*
X142189000Y-84106800D01*
X142189000Y-84106800D02*
X144000000Y-82296000D01*
X135826000Y-94240000D02*
X135826000Y-96629800D01*
X135826000Y-96629800D02*
X135265000Y-97190800D01*
G04 #@! TO.N,3V3*
X155575000Y-116584000D02*
X155576000Y-116583000D01*
X155575000Y-116584000D02*
X154687000Y-116584000D01*
X155576000Y-116584000D02*
X155575000Y-116584000D01*
X154687000Y-116584000D02*
X154686000Y-116583000D01*
X154687000Y-116584000D02*
X154656000Y-116584000D01*
X154656000Y-116584000D02*
X152572000Y-114500000D01*
X152572000Y-114500000D02*
X152572000Y-110124000D01*
X125184100Y-75336400D02*
X124777700Y-75742800D01*
X124777700Y-75742800D02*
X123444000Y-75742800D01*
D43*
X125184100Y-75336400D02*
X129489000Y-75336400D01*
X129489000Y-75336400D02*
X130149000Y-75997000D01*
X124206000Y-75336400D02*
X125184100Y-75336400D01*
D38*
X173926000Y-79311500D02*
X173927000Y-79311500D01*
X173926000Y-79311500D02*
X173370000Y-79311500D01*
X173370000Y-79311500D02*
X173357000Y-79298800D01*
X173357000Y-79298800D02*
X170790000Y-79298800D01*
D43*
X125134000Y-86886000D02*
X122645000Y-84397000D01*
X122645000Y-84397000D02*
X122645000Y-77437400D01*
D44*
X122645000Y-77437400D02*
X122479000Y-77271200D01*
D43*
X125388000Y-102190000D02*
X122645000Y-99446500D01*
X122645000Y-99446500D02*
X122645000Y-89883000D01*
X122645000Y-89883000D02*
X125388000Y-87140000D01*
D44*
X125388000Y-87140000D02*
X125134000Y-86886000D01*
D38*
X125388000Y-86632000D02*
X125134000Y-86886000D01*
D44*
X122479000Y-77271200D02*
X122645000Y-77105000D01*
X122645000Y-77105000D02*
X122645000Y-76915400D01*
X122479000Y-77271200D02*
X122479000Y-76708000D01*
D43*
X122479000Y-76708000D02*
X123444000Y-75742800D01*
D40*
X174486000Y-83566000D02*
X176581000Y-85661200D01*
X176581000Y-85661200D02*
X176581000Y-92608400D01*
X176581000Y-92608400D02*
X177762000Y-93789500D01*
X177762000Y-93789500D02*
X179920000Y-93789500D01*
D38*
X171348000Y-71526400D02*
X171348000Y-65278000D01*
X171348000Y-65278000D02*
X171602000Y-65024000D01*
X171602000Y-65024000D02*
X173038000Y-65024000D01*
X175961000Y-71501000D02*
X175133000Y-71501000D01*
X175133000Y-71501000D02*
X175108000Y-71526400D01*
X175958000Y-70612000D02*
X175958000Y-71498500D01*
X175958000Y-71498500D02*
X175961000Y-71501000D01*
X175958000Y-72392500D02*
X175958000Y-71503500D01*
X175958000Y-71503500D02*
X175961000Y-71501000D01*
D40*
X169200000Y-82296000D02*
X170600000Y-83696000D01*
X170600000Y-83696000D02*
X172336000Y-83696000D01*
X172336000Y-83696000D02*
X172466000Y-83566000D01*
X172466000Y-83566000D02*
X174486000Y-83566000D01*
D43*
X174486000Y-83566000D02*
X179820000Y-78232000D01*
D40*
X179820000Y-78232000D02*
X179920000Y-78232000D01*
D38*
X152603000Y-107645000D02*
X156288000Y-107645000D01*
X156288000Y-107645000D02*
X156498000Y-107435000D01*
X156498000Y-107435000D02*
X159420000Y-107435000D01*
X159420000Y-107435000D02*
X165093000Y-101762000D01*
X165093000Y-101762000D02*
X165093000Y-91568000D01*
X165093000Y-91568000D02*
X163213000Y-89688400D01*
X163213000Y-89688400D02*
X163213000Y-84082800D01*
X163213000Y-84082800D02*
X163600000Y-83696000D01*
X163600000Y-83696000D02*
X165000000Y-82296000D01*
X168880000Y-89345000D02*
X168880000Y-92364700D01*
X168880000Y-92364700D02*
X169545000Y-93029700D01*
X169545000Y-93029700D02*
X169545000Y-96847300D01*
X169545000Y-96847300D02*
X168880000Y-97512300D01*
D39*
G04 #@! TO.N,5Vsb*
X127528000Y-64465200D02*
X128290000Y-65227200D01*
X128290000Y-65227200D02*
X129499000Y-65227200D01*
X127014000Y-64465200D02*
X127528000Y-64465200D01*
D45*
X129499000Y-62493400D02*
X129499000Y-61758200D01*
X129499000Y-61758200D02*
X130531000Y-60726200D01*
X130531000Y-60726200D02*
X145719000Y-60726200D01*
X145719000Y-60726200D02*
X146673000Y-61680000D01*
X146673000Y-61680000D02*
X148073000Y-63080000D01*
X129499000Y-63449200D02*
X129499000Y-62493400D01*
D46*
X144000000Y-76796000D02*
X145999000Y-74796800D01*
X145999000Y-74796800D02*
X145999000Y-65153800D01*
X145999000Y-65153800D02*
X148073000Y-63080000D01*
D38*
X120904000Y-60942200D02*
X127947000Y-60942200D01*
X127947000Y-60942200D02*
X129499000Y-62493400D01*
X129499000Y-62493400D02*
X129499000Y-63449200D01*
X119278000Y-60960000D02*
X120886000Y-60960000D01*
X120886000Y-60960000D02*
X120904000Y-60942200D01*
D39*
X129499000Y-67005200D02*
X129499000Y-65227200D01*
X129052000Y-63449200D02*
X128043000Y-64457200D01*
X128043000Y-64457200D02*
X128043000Y-64465200D01*
X128043000Y-64465200D02*
X127528000Y-64465200D01*
X129052000Y-63449200D02*
X129499000Y-63449200D01*
X128826000Y-69345200D02*
X128916000Y-69255200D01*
X128720000Y-72085200D02*
X128720000Y-71556200D01*
X128720000Y-71556200D02*
X128826000Y-71450200D01*
X128826000Y-71450200D02*
X128880000Y-71450200D01*
X128880000Y-71450200D02*
X128880000Y-69345200D01*
X128880000Y-69345200D02*
X128916000Y-69309200D01*
X128916000Y-69309200D02*
X128916000Y-69255200D01*
D41*
X129499000Y-67005200D02*
X129499000Y-67878200D01*
X129052000Y-63449200D02*
X129499000Y-63449200D01*
D39*
X129499000Y-67878200D02*
X129499000Y-67005200D01*
X128916000Y-69255200D02*
X129007000Y-69164200D01*
X129007000Y-69164200D02*
X129388000Y-69164200D01*
X129388000Y-69164200D02*
X129515000Y-69037200D01*
X129515000Y-69037200D02*
X129515000Y-67950200D01*
X129515000Y-67950200D02*
X129499000Y-67934200D01*
X129499000Y-67934200D02*
X129499000Y-67930200D01*
X129499000Y-67930200D02*
X129499000Y-67878200D01*
D38*
X129499000Y-67005200D02*
X129499000Y-67878200D01*
X129499000Y-67878200D02*
X129499000Y-67930200D01*
G04 #@! TO.N,Vstby*
X129201000Y-72712200D02*
X129003000Y-72910400D01*
X129003000Y-72910400D02*
X123993000Y-72910400D01*
X123993000Y-72910400D02*
X123198000Y-72115200D01*
X123198000Y-72115200D02*
X123198000Y-72085200D01*
D46*
X114300000Y-72009000D02*
X115658000Y-72009000D01*
X115658000Y-72009000D02*
X116496000Y-72847200D01*
X116496000Y-72847200D02*
X120701000Y-72847200D01*
X120701000Y-72847200D02*
X121387000Y-72161400D01*
X121387000Y-72161400D02*
X121387000Y-70593200D01*
D38*
X123198000Y-72085200D02*
X122673000Y-72085200D01*
D39*
X122673000Y-70622200D02*
X123466000Y-70622200D01*
X121262000Y-70593200D02*
X121291000Y-70622200D01*
X121262000Y-70593200D02*
X121387000Y-70593200D01*
X129201000Y-72712200D02*
X129785000Y-72129200D01*
X129785000Y-72129200D02*
X129785000Y-70307200D01*
D47*
X122673000Y-70622200D02*
X122673000Y-72085200D01*
D38*
X121768000Y-70463200D02*
X121768000Y-70622200D01*
D47*
X121772000Y-70466200D02*
X121768000Y-70463200D01*
X121768000Y-70463200D02*
X121765000Y-70459200D01*
X121291000Y-70622200D02*
X121768000Y-70622200D01*
X121768000Y-70622200D02*
X122673000Y-70622200D01*
X121387000Y-70593200D02*
X121262000Y-70593200D01*
X121262000Y-70593200D02*
X121137000Y-70593200D01*
D39*
G04 #@! TO.N,Net-(C3-Pad2)*
X126166000Y-68722200D02*
X127225000Y-68722200D01*
X127225000Y-68722200D02*
X127245000Y-68702200D01*
X127245000Y-68702200D02*
X127245000Y-68402200D01*
X127245000Y-68402200D02*
X127770000Y-68402200D01*
D38*
G04 #@! TO.N,Net-(C3-Pad1)*
X123375000Y-66776200D02*
X121514000Y-64915200D01*
D39*
X124816000Y-68021200D02*
X125095000Y-67742200D01*
X125095000Y-67742200D02*
X128059000Y-67742200D01*
X128059000Y-67742200D02*
X128118000Y-67800200D01*
X128118000Y-67800200D02*
X128276000Y-67800200D01*
X128276000Y-67800200D02*
X128342000Y-67865200D01*
X128342000Y-67865200D02*
X128342000Y-68024200D01*
X128342000Y-68024200D02*
X128720000Y-68402200D01*
D47*
X123466000Y-69672200D02*
X124562000Y-69672200D01*
X124562000Y-69672200D02*
X124816000Y-69418200D01*
X124816000Y-69418200D02*
X124816000Y-68021200D01*
X124816000Y-68021200D02*
X123800000Y-67005200D01*
X123800000Y-67005200D02*
X123604000Y-67005200D01*
X123604000Y-67005200D02*
X123375000Y-66776200D01*
X123375000Y-66776200D02*
X121514000Y-64915200D01*
D38*
X121514000Y-65735200D02*
X121514000Y-64915200D01*
G04 #@! TO.N,Net-(R1-Pad2)*
X126166000Y-69672200D02*
X127340000Y-69672200D01*
X127340000Y-69672200D02*
X127975000Y-70307200D01*
D39*
G04 #@! TO.N,Net-(R2-Pad2)*
X127770000Y-72085200D02*
X126688000Y-72085200D01*
D38*
X126166000Y-70622200D02*
X126655000Y-70622200D01*
X126655000Y-70622200D02*
X126688000Y-70655200D01*
X126688000Y-70655200D02*
X126688000Y-72085200D01*
G04 #@! TO.N,Net-(C9-Pad1)*
X146110000Y-113628000D02*
X146110000Y-112907000D01*
X146110000Y-112907000D02*
X146589000Y-112428000D01*
X146589000Y-112428000D02*
X148576000Y-112428000D01*
X148576000Y-112428000D02*
X148606000Y-112458000D01*
X148606000Y-112458000D02*
X149101000Y-112458000D01*
G04 #@! TO.N,Net-(C10-Pad1)*
X148955500Y-111570000D02*
X149098000Y-111427500D01*
X149098000Y-111427500D02*
X149098000Y-111280000D01*
X148955500Y-111570000D02*
X148813000Y-111570000D01*
X149098000Y-111570000D02*
X148955500Y-111570000D01*
X148955500Y-111570000D02*
X149098000Y-111570000D01*
X148813000Y-111570000D02*
X148955500Y-111570000D01*
X145110000Y-113628000D02*
X145110000Y-113003000D01*
X145110000Y-113003000D02*
X145735000Y-112378000D01*
X145735000Y-112378000D02*
X145982000Y-112378000D01*
X145982000Y-112378000D02*
X146789000Y-111570000D01*
X146789000Y-111570000D02*
X148813000Y-111570000D01*
X148813000Y-111570000D02*
X148813000Y-111566000D01*
X149098000Y-110680000D02*
X149098000Y-111280000D01*
X149098000Y-110680000D02*
X149098000Y-109792000D01*
G04 #@! TO.N,Net-(C11-Pad1)*
X145361000Y-107352000D02*
X145361000Y-107993000D01*
X145361000Y-107993000D02*
X145636000Y-108268000D01*
X146110000Y-110528000D02*
X146110000Y-109571000D01*
X146110000Y-109571000D02*
X145636000Y-109097000D01*
X145636000Y-109097000D02*
X145636000Y-108268000D01*
G04 #@! TO.N,Net-(C11-Pad2)*
X145110000Y-110528000D02*
X145110000Y-109828000D01*
X145110000Y-109828000D02*
X144686000Y-109404000D01*
X144686000Y-109404000D02*
X144686000Y-108268000D01*
G04 #@! TO.N,Net-(Q1-Pad4)*
X143459000Y-118923000D02*
X143759000Y-118623000D01*
X143759000Y-118623000D02*
X143759000Y-111460000D01*
X143759000Y-111460000D02*
X143967000Y-111252000D01*
X143967000Y-111252000D02*
X145471000Y-111252000D01*
X145471000Y-111252000D02*
X145610000Y-111113000D01*
X145610000Y-111113000D02*
X145610000Y-110528000D01*
G04 #@! TO.N,Net-(Q2-Pad4)*
X146610000Y-110528000D02*
X146610000Y-111113000D01*
X146610000Y-111113000D02*
X145795000Y-111928000D01*
X145795000Y-111928000D02*
X144456000Y-111928000D01*
X146610000Y-110528000D02*
X146610000Y-108981000D01*
X146610000Y-108981000D02*
X146497000Y-108868000D01*
X146497000Y-108868000D02*
X146497000Y-108268000D01*
G04 #@! TO.N,Net-(R4-Pad1)*
X146610000Y-113628000D02*
X146660000Y-113578000D01*
X146660000Y-113578000D02*
X146660000Y-112993000D01*
X146660000Y-112993000D02*
X146775000Y-112878000D01*
X146775000Y-112878000D02*
X148133000Y-112878000D01*
X148133000Y-112878000D02*
X148603000Y-113348000D01*
X148603000Y-113348000D02*
X149098000Y-113348000D01*
X149098000Y-113348000D02*
X149098000Y-114236000D01*
G04 #@! TO.N,Net-(C19-Pad1)*
X155606000Y-110426000D02*
X155605000Y-110426000D01*
X158500000Y-110528000D02*
X158500000Y-111451000D01*
X158500000Y-111451000D02*
X158274000Y-111678000D01*
X158274000Y-111678000D02*
X156940000Y-111678000D01*
X156940000Y-111678000D02*
X156176000Y-110913000D01*
X156176000Y-110913000D02*
X156176000Y-110502000D01*
X156176000Y-110502000D02*
X156100000Y-110426000D01*
X156100000Y-110426000D02*
X155606000Y-110426000D01*
G04 #@! TO.N,Net-(C20-Pad1)*
X155606000Y-111982000D02*
X155605000Y-111983000D01*
X155605000Y-111983000D02*
X155605000Y-112204000D01*
X155606000Y-111982000D02*
X155606000Y-112204000D01*
X155606000Y-111760000D02*
X155606000Y-111982000D01*
X155606000Y-111760000D02*
X155605000Y-111759000D01*
X155605000Y-111759000D02*
X155605000Y-111316000D01*
X155606000Y-111316000D02*
X155606000Y-111760000D01*
X155576000Y-113029000D02*
X155576000Y-113030000D01*
X155606000Y-112204000D02*
X155606000Y-112429000D01*
X155606000Y-112429000D02*
X155576000Y-112459000D01*
X155576000Y-112459000D02*
X155576000Y-113029000D01*
X159500000Y-110528000D02*
X159500000Y-111152000D01*
X159500000Y-111152000D02*
X158448000Y-112204000D01*
X158448000Y-112204000D02*
X155606000Y-112204000D01*
G04 #@! TO.N,Net-(C21-Pad2)*
X159702000Y-115050000D02*
X159703000Y-115051000D01*
X159703000Y-115051000D02*
X159703000Y-115570000D01*
X159702000Y-115050000D02*
X159702000Y-115570000D01*
X159500000Y-113628000D02*
X159500000Y-114328000D01*
X159500000Y-114328000D02*
X159702000Y-114530000D01*
X159702000Y-114530000D02*
X159702000Y-115050000D01*
G04 #@! TO.N,Net-(C21-Pad1)*
X158752000Y-115533000D02*
X158753000Y-115534000D01*
X158753000Y-115534000D02*
X158753000Y-115570000D01*
X158752000Y-115533000D02*
X158752000Y-116096000D01*
X158752000Y-116096000D02*
X159868000Y-117211000D01*
X159868000Y-117211000D02*
X159868000Y-118770000D01*
X159868000Y-118770000D02*
X160731000Y-119634000D01*
X160731000Y-119634000D02*
X161950000Y-119634000D01*
X161950000Y-119634000D02*
X162712000Y-118872000D01*
X162712000Y-118872000D02*
X162712000Y-117958000D01*
X162712000Y-117958000D02*
X162776000Y-117958000D01*
X162776000Y-117958000D02*
X164973000Y-115760000D01*
X158500000Y-113628000D02*
X158500000Y-114718000D01*
X158500000Y-114718000D02*
X158752000Y-114970000D01*
X158752000Y-114970000D02*
X158752000Y-115533000D01*
G04 #@! TO.N,Net-(C27-Pad2)*
X154656000Y-115108500D02*
X154655000Y-115107500D01*
X154655000Y-115107500D02*
X154655000Y-114808000D01*
X154656000Y-115108500D02*
X154656000Y-115409000D01*
X154656000Y-115409000D02*
X154686000Y-115439000D01*
X154686000Y-115439000D02*
X154686000Y-115633000D01*
X154656000Y-114808000D02*
X154656000Y-115108500D01*
X154686000Y-115634000D02*
X154686000Y-115633000D01*
G04 #@! TO.N,/24pinATX/PWOK*
X115418000Y-63500000D02*
X119278000Y-63500000D01*
X112928000Y-63500000D02*
X115418000Y-63500000D01*
X159000000Y-110528000D02*
X159000000Y-108513000D01*
X159000000Y-108513000D02*
X159360000Y-108153000D01*
X152273000Y-63080000D02*
X148629000Y-59436000D01*
X148629000Y-59436000D02*
X117551000Y-59436000D01*
X117551000Y-59436000D02*
X115718000Y-61269600D01*
X115718000Y-61269600D02*
X115418000Y-61569600D01*
X152273000Y-63080000D02*
X154838000Y-65645400D01*
X154838000Y-65645400D02*
X154838000Y-71475600D01*
X154838000Y-71475600D02*
X158699000Y-75336400D01*
X158699000Y-75336400D02*
X158699000Y-83058000D01*
X158699000Y-83058000D02*
X160223000Y-84582000D01*
X160223000Y-84582000D02*
X161595000Y-84582000D01*
X161595000Y-84582000D02*
X162255000Y-85242400D01*
X162255000Y-85242400D02*
X162255000Y-90271600D01*
X162255000Y-90271600D02*
X164084000Y-92100400D01*
X164084000Y-92100400D02*
X164084000Y-101498000D01*
X164084000Y-101498000D02*
X159563000Y-106020000D01*
X159563000Y-106020000D02*
X159004000Y-106020000D01*
G04 #@! TO.N,/24pinATX/PSON*
X116581000Y-68580000D02*
X119278000Y-68580000D01*
X112928000Y-67310000D02*
X113750000Y-67310000D01*
X113750000Y-67310000D02*
X115020000Y-68580000D01*
X115020000Y-68580000D02*
X116581000Y-68580000D01*
X116581000Y-68610800D02*
X116581000Y-68580000D01*
X152273000Y-68580000D02*
X150548000Y-66855000D01*
X150548000Y-66855000D02*
X150548000Y-63002000D01*
X150548000Y-63002000D02*
X147439000Y-59893200D01*
X147439000Y-59893200D02*
X118161000Y-59893200D01*
X118161000Y-59893200D02*
X116586000Y-61468000D01*
G04 #@! TO.N,3V3-RS*
X154685000Y-113030000D02*
X154686000Y-113029000D01*
X154685000Y-113030000D02*
X154686000Y-113030000D01*
X153518000Y-109169000D02*
X153197000Y-109489000D01*
X153197000Y-109489000D02*
X153197000Y-112066000D01*
X153197000Y-112066000D02*
X154160000Y-113030000D01*
X154160000Y-113030000D02*
X154685000Y-113030000D01*
X160800000Y-76796000D02*
X162705000Y-78701200D01*
X162705000Y-78701200D02*
X162705000Y-89816800D01*
X162705000Y-89816800D02*
X164534000Y-91645600D01*
X164534000Y-91645600D02*
X164534000Y-101685000D01*
X164534000Y-101685000D02*
X159234000Y-106985000D01*
X159234000Y-106985000D02*
X153518000Y-106985000D01*
G04 #@! TO.N,Net-(Q3-Pad4)*
X159023000Y-112979000D02*
X159075000Y-112927000D01*
X159075000Y-112927000D02*
X159816000Y-112927000D01*
X159816000Y-112927000D02*
X160071000Y-113182000D01*
X160071000Y-113182000D02*
X160071000Y-114198000D01*
X160071000Y-114198000D02*
X160579000Y-114706000D01*
X160579000Y-114706000D02*
X160579000Y-118567000D01*
X160579000Y-118567000D02*
X160985000Y-118974000D01*
X159000000Y-113002000D02*
X159023000Y-112979000D01*
X159000000Y-113628000D02*
X159000000Y-113002000D01*
X159000000Y-113002000D02*
X159023000Y-112979000D01*
G04 #@! TO.N,Net-(Q4-Pad4)*
X157924000Y-115270000D02*
X157925000Y-115271000D01*
X157925000Y-115271000D02*
X157925000Y-115570000D01*
X157924000Y-115270000D02*
X157924000Y-115570000D01*
X158000000Y-113628000D02*
X158000000Y-114895000D01*
X158000000Y-114895000D02*
X157924000Y-114970000D01*
X157924000Y-114970000D02*
X157924000Y-115270000D01*
X158000000Y-113628000D02*
X158000000Y-113002000D01*
X158000000Y-113002000D02*
X158348000Y-112655000D01*
X158348000Y-112655000D02*
X158695000Y-112655000D01*
X158695000Y-112655000D02*
X158872000Y-112477000D01*
X158872000Y-112477000D02*
X160002000Y-112477000D01*
X160002000Y-112477000D02*
X160696000Y-113171000D01*
X160696000Y-113171000D02*
X160696000Y-113798000D01*
G04 #@! TO.N,Net-(R10-Pad1)*
X155853000Y-109538000D02*
X155606000Y-109538000D01*
X155606000Y-109538000D02*
X155606000Y-109093000D01*
X158000000Y-110528000D02*
X158000000Y-111152000D01*
X158000000Y-111152000D02*
X157925000Y-111228000D01*
X157925000Y-111228000D02*
X157226000Y-111228000D01*
X157226000Y-111228000D02*
X157013000Y-111015000D01*
X157013000Y-111015000D02*
X157013000Y-110450000D01*
X157013000Y-110450000D02*
X156100000Y-109538000D01*
X156100000Y-109538000D02*
X155853000Y-109538000D01*
X155853000Y-109538000D02*
X155605000Y-109538000D01*
X155606000Y-109093000D02*
X155605000Y-109092000D01*
X155605000Y-109092000D02*
X155605000Y-108648000D01*
X155606000Y-109093000D02*
X155606000Y-108648000D01*
G04 #@! TO.N,Net-(R12-Pad1)*
X155576000Y-113980000D02*
X155576000Y-114178000D01*
X155576000Y-114178000D02*
X155606000Y-114208000D01*
X155606000Y-114208000D02*
X155606000Y-114920900D01*
X154686000Y-113980000D02*
X155576000Y-113980000D01*
X155576000Y-113979000D02*
X155576000Y-113980000D01*
X154686000Y-113979000D02*
X154686000Y-113980000D01*
X155606000Y-114920900D02*
X155605000Y-114919900D01*
X155605000Y-114919900D02*
X155605000Y-114808000D01*
X155606000Y-114920900D02*
X155606000Y-115409000D01*
X155606000Y-115409000D02*
X155576000Y-115439000D01*
X155576000Y-115439000D02*
X155576000Y-115633000D01*
X155576000Y-115634000D02*
X155576000Y-115633000D01*
G04 #@! TO.N,/3V3/EN*
X154656000Y-108633000D02*
X154655000Y-108634000D01*
X154655000Y-108634000D02*
X154655000Y-108648000D01*
X154656000Y-108633000D02*
X154656000Y-108648000D01*
X145610000Y-113628000D02*
X145610000Y-115079000D01*
X145610000Y-115079000D02*
X146812000Y-116281000D01*
X146812000Y-116281000D02*
X150012000Y-116281000D01*
X150012000Y-116281000D02*
X151892000Y-114402000D01*
X151892000Y-114402000D02*
X151892000Y-109867000D01*
X151892000Y-109867000D02*
X153636000Y-108124000D01*
X153636000Y-108124000D02*
X154160000Y-108124000D01*
X154160000Y-108124000D02*
X154656000Y-108618000D01*
X154656000Y-108618000D02*
X154656000Y-108633000D01*
G04 #@! TO.N,Net-(U4-Pad13)*
X119278000Y-67310000D02*
X120100000Y-67310000D01*
X120100000Y-67310000D02*
X120244000Y-67166300D01*
X120244000Y-67166300D02*
X120244000Y-62877700D01*
X120244000Y-62877700D02*
X119596000Y-62230000D01*
X119596000Y-62230000D02*
X119278000Y-62230000D01*
X112928000Y-62230000D02*
X119278000Y-62230000D01*
G04 #@! TO.N,Net-(U4-Pad1)*
X112928000Y-66040000D02*
X112107000Y-66040000D01*
X112107000Y-66040000D02*
X111912000Y-65845500D01*
X111912000Y-65845500D02*
X111912000Y-61658500D01*
X111912000Y-61658500D02*
X112611000Y-60960000D01*
X112611000Y-60960000D02*
X112928000Y-60960000D01*
G04 #@! TO.N,Net-(Q5-Pad2)*
X117124000Y-71374000D02*
X117124000Y-70824000D01*
X117124000Y-70824000D02*
X118302000Y-69646800D01*
X118302000Y-69646800D02*
X119634000Y-69646800D01*
X119634000Y-69646800D02*
X120294000Y-68986400D01*
X120294000Y-68986400D02*
X120294000Y-68173600D01*
X120294000Y-68173600D02*
X120107000Y-67985800D01*
X120107000Y-67985800D02*
X116462000Y-67985800D01*
X116462000Y-67985800D02*
X113246000Y-64770000D01*
X113246000Y-64770000D02*
X112928000Y-64770000D01*
G04 #@! TO.N,Net-(U4-Pad10)*
X119278000Y-64770000D02*
X118457000Y-64770000D01*
X118457000Y-64770000D02*
X118406000Y-64820800D01*
X118406000Y-64820800D02*
X118110000Y-64820800D01*
X118110000Y-64820800D02*
X117754000Y-65176400D01*
X117754000Y-65176400D02*
X117754000Y-65786000D01*
X117754000Y-65786000D02*
X118008000Y-66040000D01*
X118008000Y-66040000D02*
X119278000Y-66040000D01*
G04 #@! TO.N,PWOK*
X150049000Y-115187500D02*
X150049500Y-115187500D01*
X150049500Y-115187500D02*
X150051000Y-115189000D01*
X150049000Y-115187500D02*
X150050000Y-115189000D01*
X150048000Y-114236000D02*
X150048000Y-115186000D01*
X150048000Y-115186000D02*
X150049000Y-115187500D01*
X150048000Y-114236000D02*
X150543000Y-114236000D01*
X150543000Y-114236000D02*
X151442000Y-113337000D01*
X151442000Y-113337000D02*
X151442000Y-109989000D01*
X151442000Y-109989000D02*
X140310000Y-98856800D01*
X140310000Y-98856800D02*
X140310000Y-92228800D01*
X140310000Y-92228800D02*
X146202000Y-86336000D01*
X146202000Y-86336000D02*
X146202000Y-79502000D01*
X146202000Y-79502000D02*
X145644000Y-78943200D01*
X145644000Y-78943200D02*
X143053000Y-78943200D01*
X143053000Y-78943200D02*
X141834000Y-77724000D01*
X141834000Y-77724000D02*
X141834000Y-75488800D01*
X141834000Y-75488800D02*
X139705000Y-73360400D01*
X139705000Y-73360400D02*
X121771000Y-73360400D01*
X121771000Y-73360400D02*
X115502000Y-79629000D01*
X115502000Y-79629000D02*
X114300000Y-79629000D01*
G04 #@! TO.N,Net-(C33-Pad1)*
X164018000Y-59639200D02*
X164018000Y-60834500D01*
X164018000Y-60834500D02*
X163638000Y-61214000D01*
X164018000Y-59639200D02*
X174773000Y-59639200D01*
X174773000Y-59639200D02*
X175514000Y-60380000D01*
X175514000Y-60380000D02*
X175514000Y-61055000D01*
X167759000Y-74117200D02*
X167759000Y-73592200D01*
X167759000Y-73592200D02*
X166862000Y-72694800D01*
X166862000Y-72694800D02*
X166862000Y-62417200D01*
X166862000Y-62417200D02*
X165659000Y-61214000D01*
X165659000Y-61214000D02*
X163638000Y-61214000D01*
X186454000Y-73964800D02*
X186454000Y-72862000D01*
X186454000Y-72862000D02*
X184066000Y-70474000D01*
X184066000Y-70474000D02*
X180333000Y-70474000D01*
X180333000Y-70474000D02*
X176376000Y-66516500D01*
X176376000Y-66516500D02*
X175450000Y-66516500D01*
X176376000Y-66516500D02*
X176886000Y-66006400D01*
X176886000Y-66006400D02*
X176886000Y-65024000D01*
X176886000Y-65024000D02*
X177952000Y-63957200D01*
X177952000Y-63957200D02*
X177952000Y-61976000D01*
X177952000Y-61976000D02*
X177701000Y-61724500D01*
X177701000Y-61724500D02*
X176974000Y-61724500D01*
X176974000Y-61724500D02*
X176184000Y-61724500D01*
X176184000Y-61724500D02*
X175514000Y-61055000D01*
G04 #@! TO.N,Net-(C35-Pad1)*
X161480000Y-64516000D02*
X162006000Y-64516000D01*
X162006000Y-64516000D02*
X162154000Y-64367900D01*
X162154000Y-64367900D02*
X162154000Y-64008000D01*
X162154000Y-64008000D02*
X162408000Y-63754000D01*
X162408000Y-63754000D02*
X163638000Y-63754000D01*
X157924000Y-68453000D02*
X161480000Y-64897000D01*
X161480000Y-64897000D02*
X161480000Y-64516000D01*
G04 #@! TO.N,Net-(C37-Pad1)*
X161480000Y-61788000D02*
X162006000Y-61788000D01*
X162006000Y-61788000D02*
X162204000Y-61986900D01*
X162204000Y-61986900D02*
X162204000Y-62274900D01*
X162204000Y-62274900D02*
X162414000Y-62484000D01*
X162414000Y-62484000D02*
X163638000Y-62484000D01*
X157924000Y-63573000D02*
X159710000Y-61788000D01*
X159710000Y-61788000D02*
X161480000Y-61788000D01*
G04 #@! TO.N,/8pinVRM/SCL*
X191262000Y-79946500D02*
X190162000Y-79946500D01*
X190162000Y-79946500D02*
X189382000Y-79166900D01*
X189382000Y-79166900D02*
X189382000Y-76454000D01*
X189382000Y-76454000D02*
X188620000Y-75692000D01*
X188620000Y-75692000D02*
X185623000Y-75692000D01*
X185623000Y-75692000D02*
X185115000Y-75184000D01*
X185115000Y-75184000D02*
X185115000Y-72796400D01*
X185115000Y-72796400D02*
X183693000Y-71374000D01*
X183693000Y-71374000D02*
X179273000Y-71374000D01*
X179273000Y-71374000D02*
X178359000Y-72288400D01*
X178359000Y-72288400D02*
X178359000Y-72948800D01*
X178359000Y-72948800D02*
X177998000Y-73309500D01*
X177998000Y-73309500D02*
X176911000Y-73309500D01*
X175958000Y-73342500D02*
X175349000Y-73342500D01*
X175349000Y-73342500D02*
X174650000Y-72644000D01*
X174650000Y-72644000D02*
X173038000Y-72644000D01*
X176911000Y-73309500D02*
X175992000Y-73309500D01*
X175992000Y-73309500D02*
X175958000Y-73342500D01*
G04 #@! TO.N,/8pinVRM/SDA*
X191262000Y-74866500D02*
X190060000Y-74866500D01*
X190060000Y-74866500D02*
X189692000Y-75234800D01*
X189692000Y-75234800D02*
X185826000Y-75234800D01*
X185826000Y-75234800D02*
X185565000Y-74973600D01*
X185565000Y-74973600D02*
X185565000Y-72610000D01*
X185565000Y-72610000D02*
X183879000Y-70924000D01*
X183879000Y-70924000D02*
X178698000Y-70924000D01*
X178698000Y-70924000D02*
X177436000Y-69662000D01*
X177436000Y-69662000D02*
X176911000Y-69662000D01*
X175958000Y-69662000D02*
X176911000Y-69662000D01*
X175958000Y-69662000D02*
X174940000Y-69662000D01*
X174940000Y-69662000D02*
X174498000Y-70104000D01*
X174498000Y-70104000D02*
X173038000Y-70104000D01*
G04 #@! TO.N,Net-(D1-Pad2)*
X188654000Y-73964800D02*
X188654000Y-70025100D01*
X188654000Y-70025100D02*
X187506000Y-68877000D01*
X187506000Y-68877000D02*
X186556000Y-68877000D01*
G04 #@! TO.N,PSON*
X114300000Y-74549000D02*
X117899000Y-74549000D01*
X117899000Y-74549000D02*
X118074000Y-74374000D01*
G04 #@! TO.N,Net-(J23-Pad1)*
X175197000Y-79311500D02*
X176162000Y-79311500D01*
X176162000Y-79311500D02*
X177038000Y-78435200D01*
X177038000Y-78435200D02*
X177038000Y-74625200D01*
X177038000Y-74625200D02*
X176428000Y-74015600D01*
X176428000Y-74015600D02*
X172263000Y-74015600D01*
X175196000Y-79311500D02*
X175197000Y-79311500D01*
X163638000Y-65024000D02*
X165456000Y-65024000D01*
X165456000Y-65024000D02*
X166116000Y-65684400D01*
X166116000Y-65684400D02*
X166116000Y-72898800D01*
X166116000Y-72898800D02*
X166809000Y-73592200D01*
X166809000Y-73592200D02*
X166809000Y-74117200D01*
X166809000Y-74117200D02*
X166809000Y-74642200D01*
X166809000Y-74642200D02*
X166894000Y-74726800D01*
X166894000Y-74726800D02*
X168453000Y-74726800D01*
X168453000Y-74726800D02*
X169164000Y-74015600D01*
X169164000Y-74015600D02*
X170536000Y-74015600D01*
G04 #@! TO.N,Net-(J23-Pad4)*
X173927000Y-78041500D02*
X173926000Y-78041500D01*
X173926000Y-78041500D02*
X173533000Y-77647800D01*
X173533000Y-77647800D02*
X171196000Y-75311000D01*
X171196000Y-75311000D02*
X171196000Y-72644000D01*
X171196000Y-72644000D02*
X170282000Y-71729600D01*
X170282000Y-71729600D02*
X170282000Y-63347600D01*
X170282000Y-63347600D02*
X171145000Y-62484000D01*
X173533000Y-77647800D02*
X173507000Y-77647800D01*
X171145000Y-62484000D02*
X173038000Y-62484000D01*
X184056000Y-65677000D02*
X180862000Y-62484000D01*
X180862000Y-62484000D02*
X179578000Y-62484000D01*
G04 #@! TO.N,Net-(J23-Pad5)*
X175197000Y-76771500D02*
X176314000Y-76771500D01*
X176314000Y-76771500D02*
X176327000Y-76758800D01*
X175196000Y-76771500D02*
X175197000Y-76771500D01*
X173038000Y-63754000D02*
X171145000Y-63754000D01*
X184056000Y-68877000D02*
X184056000Y-67887100D01*
X184056000Y-67887100D02*
X179973000Y-63804800D01*
X179973000Y-63804800D02*
X179781000Y-63804800D01*
G04 #@! TD*
D39*
G04 #@! TO.N,5Vsb*
G36*
X129646000Y-63576200D02*
X129626000Y-63576200D01*
X129626000Y-65100200D01*
X129646000Y-65100200D01*
X129646000Y-65354200D01*
X129626000Y-65354200D01*
X129626000Y-66378450D01*
X129784750Y-66537200D01*
X129892187Y-66537200D01*
X129895240Y-67614800D01*
X128992912Y-67614800D01*
X128965000Y-67609248D01*
X128935783Y-67609248D01*
X128868691Y-67510480D01*
X128799809Y-67407391D01*
X128759038Y-67380149D01*
X128733809Y-67342391D01*
X128678753Y-67305603D01*
X128677012Y-67303889D01*
X128626831Y-67270910D01*
X128523765Y-67202043D01*
X128521295Y-67201552D01*
X128519191Y-67200169D01*
X128397577Y-67176943D01*
X128338541Y-67165200D01*
X128338428Y-67165200D01*
X128306765Y-67144043D01*
X128303998Y-67143493D01*
X128301643Y-67141948D01*
X128180287Y-67118885D01*
X128121541Y-67107200D01*
X128118800Y-67107200D01*
X128053467Y-67094784D01*
X127993721Y-67107200D01*
X125157537Y-67107200D01*
X125095000Y-67094761D01*
X125063299Y-67101066D01*
X124441209Y-66478977D01*
X124395152Y-66410048D01*
X124122094Y-66227596D01*
X123961982Y-66195748D01*
X123279184Y-65512950D01*
X128439000Y-65512950D01*
X128439000Y-66028510D01*
X128535673Y-66261899D01*
X128714302Y-66440527D01*
X128947691Y-66537200D01*
X129213250Y-66537200D01*
X129372000Y-66378450D01*
X129372000Y-65354200D01*
X128597750Y-65354200D01*
X128439000Y-65512950D01*
X123279184Y-65512950D01*
X122781952Y-65015719D01*
X122781952Y-63734950D01*
X128439000Y-63734950D01*
X128439000Y-64250510D01*
X128475322Y-64338200D01*
X128439000Y-64425890D01*
X128439000Y-64941450D01*
X128597750Y-65100200D01*
X129372000Y-65100200D01*
X129372000Y-63576200D01*
X128597750Y-63576200D01*
X128439000Y-63734950D01*
X122781952Y-63734950D01*
X122781952Y-63385700D01*
X129646000Y-63385700D01*
X129646000Y-63576200D01*
X129646000Y-63576200D01*
G37*
X129646000Y-63576200D02*
X129626000Y-63576200D01*
X129626000Y-65100200D01*
X129646000Y-65100200D01*
X129646000Y-65354200D01*
X129626000Y-65354200D01*
X129626000Y-66378450D01*
X129784750Y-66537200D01*
X129892187Y-66537200D01*
X129895240Y-67614800D01*
X128992912Y-67614800D01*
X128965000Y-67609248D01*
X128935783Y-67609248D01*
X128868691Y-67510480D01*
X128799809Y-67407391D01*
X128759038Y-67380149D01*
X128733809Y-67342391D01*
X128678753Y-67305603D01*
X128677012Y-67303889D01*
X128626831Y-67270910D01*
X128523765Y-67202043D01*
X128521295Y-67201552D01*
X128519191Y-67200169D01*
X128397577Y-67176943D01*
X128338541Y-67165200D01*
X128338428Y-67165200D01*
X128306765Y-67144043D01*
X128303998Y-67143493D01*
X128301643Y-67141948D01*
X128180287Y-67118885D01*
X128121541Y-67107200D01*
X128118800Y-67107200D01*
X128053467Y-67094784D01*
X127993721Y-67107200D01*
X125157537Y-67107200D01*
X125095000Y-67094761D01*
X125063299Y-67101066D01*
X124441209Y-66478977D01*
X124395152Y-66410048D01*
X124122094Y-66227596D01*
X123961982Y-66195748D01*
X123279184Y-65512950D01*
X128439000Y-65512950D01*
X128439000Y-66028510D01*
X128535673Y-66261899D01*
X128714302Y-66440527D01*
X128947691Y-66537200D01*
X129213250Y-66537200D01*
X129372000Y-66378450D01*
X129372000Y-65354200D01*
X128597750Y-65354200D01*
X128439000Y-65512950D01*
X123279184Y-65512950D01*
X122781952Y-65015719D01*
X122781952Y-63734950D01*
X128439000Y-63734950D01*
X128439000Y-64250510D01*
X128475322Y-64338200D01*
X128439000Y-64425890D01*
X128439000Y-64941450D01*
X128597750Y-65100200D01*
X129372000Y-65100200D01*
X129372000Y-63576200D01*
X128597750Y-63576200D01*
X128439000Y-63734950D01*
X122781952Y-63734950D01*
X122781952Y-63385700D01*
X129646000Y-63385700D01*
X129646000Y-63576200D01*
G04 #@! TO.N,5V*
G36*
X140149938Y-74879862D02*
X141074001Y-75803665D01*
X141074000Y-77649122D01*
X141059112Y-77723937D01*
X141074000Y-77798817D01*
X141074000Y-77798851D01*
X141089615Y-77877351D01*
X141118072Y-78020478D01*
X141118090Y-78020505D01*
X141118096Y-78020536D01*
X141201598Y-78145506D01*
X141243631Y-78208424D01*
X141243653Y-78208446D01*
X141286071Y-78271929D01*
X141349502Y-78314312D01*
X142462654Y-79427648D01*
X142505071Y-79491129D01*
X142631415Y-79575550D01*
X142756404Y-79659079D01*
X142756435Y-79659085D01*
X142756463Y-79659104D01*
X142913934Y-79690427D01*
X143052936Y-79718088D01*
X143127816Y-79703200D01*
X145288000Y-79703200D01*
X145288000Y-84328000D01*
X139446000Y-84328000D01*
X139397399Y-84337667D01*
X139356197Y-84365197D01*
X139328667Y-84406399D01*
X139319000Y-84455000D01*
X139319000Y-87992648D01*
X139114000Y-88487561D01*
X139114000Y-89058439D01*
X139319000Y-89553352D01*
X139319000Y-101727000D01*
X138438391Y-101727000D01*
X138430000Y-101725331D01*
X132207000Y-101725331D01*
X132207000Y-89635396D01*
X132256534Y-89585862D01*
X132475000Y-89058439D01*
X132475000Y-88487561D01*
X132256534Y-87960138D01*
X132207000Y-87910604D01*
X132207000Y-74804215D01*
X140149938Y-74879862D01*
X140149938Y-74879862D01*
G37*
X140149938Y-74879862D02*
X141074001Y-75803665D01*
X141074000Y-77649122D01*
X141059112Y-77723937D01*
X141074000Y-77798817D01*
X141074000Y-77798851D01*
X141089615Y-77877351D01*
X141118072Y-78020478D01*
X141118090Y-78020505D01*
X141118096Y-78020536D01*
X141201598Y-78145506D01*
X141243631Y-78208424D01*
X141243653Y-78208446D01*
X141286071Y-78271929D01*
X141349502Y-78314312D01*
X142462654Y-79427648D01*
X142505071Y-79491129D01*
X142631415Y-79575550D01*
X142756404Y-79659079D01*
X142756435Y-79659085D01*
X142756463Y-79659104D01*
X142913934Y-79690427D01*
X143052936Y-79718088D01*
X143127816Y-79703200D01*
X145288000Y-79703200D01*
X145288000Y-84328000D01*
X139446000Y-84328000D01*
X139397399Y-84337667D01*
X139356197Y-84365197D01*
X139328667Y-84406399D01*
X139319000Y-84455000D01*
X139319000Y-87992648D01*
X139114000Y-88487561D01*
X139114000Y-89058439D01*
X139319000Y-89553352D01*
X139319000Y-101727000D01*
X138438391Y-101727000D01*
X138430000Y-101725331D01*
X132207000Y-101725331D01*
X132207000Y-89635396D01*
X132256534Y-89585862D01*
X132475000Y-89058439D01*
X132475000Y-88487561D01*
X132256534Y-87960138D01*
X132207000Y-87910604D01*
X132207000Y-74804215D01*
X140149938Y-74879862D01*
G04 #@! TO.N,3V3*
G36*
X166093096Y-74938737D02*
X166093615Y-74939513D01*
X166093798Y-74940424D01*
X166177564Y-75065151D01*
X166261072Y-75190129D01*
X166312507Y-75224497D01*
X166346071Y-75274729D01*
X166410283Y-75317634D01*
X166410922Y-75318270D01*
X166472251Y-75359040D01*
X166597463Y-75442704D01*
X166598378Y-75442886D01*
X166599153Y-75443401D01*
X166746347Y-75472319D01*
X166819148Y-75486800D01*
X166820056Y-75486800D01*
X166895827Y-75501686D01*
X166969753Y-75486800D01*
X168378206Y-75486800D01*
X168453108Y-75501688D01*
X168595617Y-75473321D01*
X168749537Y-75442704D01*
X168749584Y-75442673D01*
X168749637Y-75442662D01*
X168872269Y-75360697D01*
X169000929Y-75274729D01*
X169043361Y-75211226D01*
X169451472Y-74803000D01*
X170001110Y-74803000D01*
X170006365Y-74808255D01*
X170350017Y-74950600D01*
X170436000Y-74950600D01*
X170436000Y-75236169D01*
X170421112Y-75311033D01*
X170447169Y-75442002D01*
X170480096Y-75607536D01*
X170480106Y-75607551D01*
X170480109Y-75607567D01*
X170559472Y-75726331D01*
X170648071Y-75858929D01*
X170711542Y-75901339D01*
X172720000Y-77909626D01*
X172720000Y-87909604D01*
X172669466Y-87960138D01*
X172451000Y-88487561D01*
X172451000Y-89058439D01*
X172669466Y-89585862D01*
X172720000Y-89636396D01*
X172720000Y-101600000D01*
X165608000Y-101600000D01*
X165608000Y-89553352D01*
X165813000Y-89058439D01*
X165813000Y-88487561D01*
X165608000Y-87992648D01*
X165608000Y-84455000D01*
X165598333Y-84406399D01*
X165570803Y-84365197D01*
X165529601Y-84337667D01*
X165481000Y-84328000D01*
X163465000Y-84328000D01*
X163465000Y-78776067D01*
X163479888Y-78701240D01*
X163465000Y-78626372D01*
X163465000Y-78626348D01*
X163448022Y-78540995D01*
X163420919Y-78404700D01*
X163420908Y-78404684D01*
X163420904Y-78404663D01*
X163333754Y-78274234D01*
X163295354Y-78216758D01*
X163295341Y-78216745D01*
X163252929Y-78153271D01*
X163189489Y-78110882D01*
X163068000Y-77989380D01*
X163068000Y-74803000D01*
X166066096Y-74803000D01*
X166093096Y-74938737D01*
X166093096Y-74938737D01*
G37*
X166093096Y-74938737D02*
X166093615Y-74939513D01*
X166093798Y-74940424D01*
X166177564Y-75065151D01*
X166261072Y-75190129D01*
X166312507Y-75224497D01*
X166346071Y-75274729D01*
X166410283Y-75317634D01*
X166410922Y-75318270D01*
X166472251Y-75359040D01*
X166597463Y-75442704D01*
X166598378Y-75442886D01*
X166599153Y-75443401D01*
X166746347Y-75472319D01*
X166819148Y-75486800D01*
X166820056Y-75486800D01*
X166895827Y-75501686D01*
X166969753Y-75486800D01*
X168378206Y-75486800D01*
X168453108Y-75501688D01*
X168595617Y-75473321D01*
X168749537Y-75442704D01*
X168749584Y-75442673D01*
X168749637Y-75442662D01*
X168872269Y-75360697D01*
X169000929Y-75274729D01*
X169043361Y-75211226D01*
X169451472Y-74803000D01*
X170001110Y-74803000D01*
X170006365Y-74808255D01*
X170350017Y-74950600D01*
X170436000Y-74950600D01*
X170436000Y-75236169D01*
X170421112Y-75311033D01*
X170447169Y-75442002D01*
X170480096Y-75607536D01*
X170480106Y-75607551D01*
X170480109Y-75607567D01*
X170559472Y-75726331D01*
X170648071Y-75858929D01*
X170711542Y-75901339D01*
X172720000Y-77909626D01*
X172720000Y-87909604D01*
X172669466Y-87960138D01*
X172451000Y-88487561D01*
X172451000Y-89058439D01*
X172669466Y-89585862D01*
X172720000Y-89636396D01*
X172720000Y-101600000D01*
X165608000Y-101600000D01*
X165608000Y-89553352D01*
X165813000Y-89058439D01*
X165813000Y-88487561D01*
X165608000Y-87992648D01*
X165608000Y-84455000D01*
X165598333Y-84406399D01*
X165570803Y-84365197D01*
X165529601Y-84337667D01*
X165481000Y-84328000D01*
X163465000Y-84328000D01*
X163465000Y-78776067D01*
X163479888Y-78701240D01*
X163465000Y-78626372D01*
X163465000Y-78626348D01*
X163448022Y-78540995D01*
X163420919Y-78404700D01*
X163420908Y-78404684D01*
X163420904Y-78404663D01*
X163333754Y-78274234D01*
X163295354Y-78216758D01*
X163295341Y-78216745D01*
X163252929Y-78153271D01*
X163189489Y-78110882D01*
X163068000Y-77989380D01*
X163068000Y-74803000D01*
X166066096Y-74803000D01*
X166093096Y-74938737D01*
G04 #@! TO.N,Net-(C11-Pad1)*
G36*
X139468582Y-104083621D02*
X139504194Y-104118077D01*
X139573000Y-104138331D01*
X141988000Y-104138331D01*
X141988000Y-104624153D01*
X141973112Y-104699000D01*
X141988000Y-104773847D01*
X141988000Y-104773851D01*
X142032096Y-104995536D01*
X142113000Y-105116618D01*
X142113000Y-118235331D01*
X134874000Y-118235331D01*
X134874000Y-118018280D01*
X134913440Y-117820000D01*
X134913440Y-113320000D01*
X134874000Y-113121720D01*
X134874000Y-106045000D01*
X134864333Y-105996399D01*
X134836803Y-105955197D01*
X134795601Y-105927667D01*
X134747000Y-105918000D01*
X131572000Y-105918000D01*
X131572000Y-102487331D01*
X138363458Y-102487331D01*
X139468582Y-104083621D01*
X139468582Y-104083621D01*
G37*
X139468582Y-104083621D02*
X139504194Y-104118077D01*
X139573000Y-104138331D01*
X141988000Y-104138331D01*
X141988000Y-104624153D01*
X141973112Y-104699000D01*
X141988000Y-104773847D01*
X141988000Y-104773851D01*
X142032096Y-104995536D01*
X142113000Y-105116618D01*
X142113000Y-118235331D01*
X134874000Y-118235331D01*
X134874000Y-118018280D01*
X134913440Y-117820000D01*
X134913440Y-113320000D01*
X134874000Y-113121720D01*
X134874000Y-106045000D01*
X134864333Y-105996399D01*
X134836803Y-105955197D01*
X134795601Y-105927667D01*
X134747000Y-105918000D01*
X131572000Y-105918000D01*
X131572000Y-102487331D01*
X138363458Y-102487331D01*
X139468582Y-104083621D01*
G04 #@! TO.N,Vmain*
G36*
X131201996Y-106631664D02*
X131445000Y-106680000D01*
X133985000Y-106680000D01*
X133985000Y-119176800D01*
X133994667Y-119225401D01*
X134022197Y-119266603D01*
X134063399Y-119294133D01*
X134112000Y-119303800D01*
X142604696Y-119303800D01*
X142666345Y-119452635D01*
X142929365Y-119715655D01*
X143273017Y-119858000D01*
X143644983Y-119858000D01*
X143988635Y-119715655D01*
X144251655Y-119452635D01*
X144313304Y-119303800D01*
X159310631Y-119303800D01*
X159320072Y-119317929D01*
X159383344Y-119360206D01*
X160140549Y-120118290D01*
X160183071Y-120181929D01*
X160307878Y-120265323D01*
X160434048Y-120349732D01*
X160434273Y-120349777D01*
X160434463Y-120349904D01*
X160583272Y-120379504D01*
X160730551Y-120408888D01*
X160805625Y-120394000D01*
X161875153Y-120394000D01*
X161950000Y-120408888D01*
X162024847Y-120394000D01*
X162024852Y-120394000D01*
X162246537Y-120349904D01*
X162497929Y-120181929D01*
X162540331Y-120118470D01*
X163196473Y-119462329D01*
X163259929Y-119419929D01*
X163314068Y-119338904D01*
X163337524Y-119303800D01*
X172212000Y-119303800D01*
X172260601Y-119294133D01*
X172301803Y-119266603D01*
X172329333Y-119225401D01*
X172339000Y-119176800D01*
X172339000Y-114374820D01*
X181116251Y-114374820D01*
X181116251Y-114766678D01*
X181266209Y-115128707D01*
X181543293Y-115405791D01*
X181905322Y-115555749D01*
X182297180Y-115555749D01*
X182337444Y-115539071D01*
X183927000Y-115539071D01*
X183927000Y-115930929D01*
X184076958Y-116292958D01*
X184354042Y-116570042D01*
X184716071Y-116720000D01*
X185107929Y-116720000D01*
X185469958Y-116570042D01*
X185747042Y-116292958D01*
X185897000Y-115930929D01*
X185897000Y-115539071D01*
X185747042Y-115177042D01*
X185469958Y-114899958D01*
X185107929Y-114750000D01*
X184716071Y-114750000D01*
X184354042Y-114899958D01*
X184076958Y-115177042D01*
X183927000Y-115539071D01*
X182337444Y-115539071D01*
X182659209Y-115405791D01*
X182936293Y-115128707D01*
X183086251Y-114766678D01*
X183086251Y-114374820D01*
X186737749Y-114374820D01*
X186737749Y-114766678D01*
X186887707Y-115128707D01*
X187164791Y-115405791D01*
X187526820Y-115555749D01*
X187918678Y-115555749D01*
X188280707Y-115405791D01*
X188557791Y-115128707D01*
X188707749Y-114766678D01*
X188707749Y-114374820D01*
X188557791Y-114012791D01*
X188280707Y-113735707D01*
X187918678Y-113585749D01*
X187526820Y-113585749D01*
X187164791Y-113735707D01*
X186887707Y-114012791D01*
X186737749Y-114374820D01*
X183086251Y-114374820D01*
X182936293Y-114012791D01*
X182659209Y-113735707D01*
X182297180Y-113585749D01*
X181905322Y-113585749D01*
X181543293Y-113735707D01*
X181266209Y-114012791D01*
X181116251Y-114374820D01*
X172339000Y-114374820D01*
X172339000Y-111564071D01*
X179952000Y-111564071D01*
X179952000Y-111955929D01*
X180101958Y-112317958D01*
X180379042Y-112595042D01*
X180741071Y-112745000D01*
X181132929Y-112745000D01*
X181494958Y-112595042D01*
X181772042Y-112317958D01*
X181922000Y-111955929D01*
X181922000Y-111564071D01*
X187902000Y-111564071D01*
X187902000Y-111955929D01*
X188051958Y-112317958D01*
X188329042Y-112595042D01*
X188691071Y-112745000D01*
X189082929Y-112745000D01*
X189444958Y-112595042D01*
X189722042Y-112317958D01*
X189872000Y-111955929D01*
X189872000Y-111564071D01*
X189722042Y-111202042D01*
X189444958Y-110924958D01*
X189082929Y-110775000D01*
X188691071Y-110775000D01*
X188329042Y-110924958D01*
X188051958Y-111202042D01*
X187902000Y-111564071D01*
X181922000Y-111564071D01*
X181772042Y-111202042D01*
X181494958Y-110924958D01*
X181132929Y-110775000D01*
X180741071Y-110775000D01*
X180379042Y-110924958D01*
X180101958Y-111202042D01*
X179952000Y-111564071D01*
X172339000Y-111564071D01*
X172339000Y-108753322D01*
X181116251Y-108753322D01*
X181116251Y-109145180D01*
X181266209Y-109507209D01*
X181543293Y-109784293D01*
X181905322Y-109934251D01*
X182297180Y-109934251D01*
X182659209Y-109784293D01*
X182936293Y-109507209D01*
X183086251Y-109145180D01*
X183086251Y-108753322D01*
X182936293Y-108391293D01*
X182659209Y-108114209D01*
X182297180Y-107964251D01*
X181905322Y-107964251D01*
X181543293Y-108114209D01*
X181266209Y-108391293D01*
X181116251Y-108753322D01*
X172339000Y-108753322D01*
X172339000Y-106807000D01*
X182063038Y-106807000D01*
X182063038Y-107109267D01*
X182072485Y-107157332D01*
X182099826Y-107198659D01*
X182140902Y-107226377D01*
X182189458Y-107236266D01*
X184069581Y-107244851D01*
X183927000Y-107589071D01*
X183927000Y-107980929D01*
X184076958Y-108342958D01*
X184354042Y-108620042D01*
X184716071Y-108770000D01*
X185107929Y-108770000D01*
X185148193Y-108753322D01*
X186737749Y-108753322D01*
X186737749Y-109145180D01*
X186887707Y-109507209D01*
X187164791Y-109784293D01*
X187526820Y-109934251D01*
X187918678Y-109934251D01*
X188280707Y-109784293D01*
X188557791Y-109507209D01*
X188707749Y-109145180D01*
X188707749Y-108753322D01*
X188557791Y-108391293D01*
X188280707Y-108114209D01*
X187918678Y-107964251D01*
X187526820Y-107964251D01*
X187164791Y-108114209D01*
X186887707Y-108391293D01*
X186737749Y-108753322D01*
X185148193Y-108753322D01*
X185469958Y-108620042D01*
X185747042Y-108342958D01*
X185897000Y-107980929D01*
X185897000Y-107589071D01*
X185757612Y-107252559D01*
X193092001Y-107286049D01*
X193092001Y-146431000D01*
X111835000Y-146431000D01*
X111835000Y-142128213D01*
X112837000Y-142128213D01*
X112837000Y-142937787D01*
X113146810Y-143685735D01*
X113719265Y-144258190D01*
X114467213Y-144568000D01*
X115276787Y-144568000D01*
X116024735Y-144258190D01*
X116597190Y-143685735D01*
X116907000Y-142937787D01*
X116907000Y-142128213D01*
X117037000Y-142128213D01*
X117037000Y-142937787D01*
X117346810Y-143685735D01*
X117919265Y-144258190D01*
X118667213Y-144568000D01*
X119476787Y-144568000D01*
X120224735Y-144258190D01*
X120797190Y-143685735D01*
X121107000Y-142937787D01*
X121107000Y-142128213D01*
X121237000Y-142128213D01*
X121237000Y-142937787D01*
X121546810Y-143685735D01*
X122119265Y-144258190D01*
X122867213Y-144568000D01*
X123676787Y-144568000D01*
X124424735Y-144258190D01*
X124997190Y-143685735D01*
X125307000Y-142937787D01*
X125307000Y-142128213D01*
X125437000Y-142128213D01*
X125437000Y-142937787D01*
X125746810Y-143685735D01*
X126319265Y-144258190D01*
X127067213Y-144568000D01*
X127876787Y-144568000D01*
X128624735Y-144258190D01*
X129197190Y-143685735D01*
X129507000Y-142937787D01*
X129507000Y-142128213D01*
X143938000Y-142128213D01*
X143938000Y-142937787D01*
X144247810Y-143685735D01*
X144820265Y-144258190D01*
X145568213Y-144568000D01*
X146377787Y-144568000D01*
X147125735Y-144258190D01*
X147698190Y-143685735D01*
X148008000Y-142937787D01*
X148008000Y-142128213D01*
X148138000Y-142128213D01*
X148138000Y-142937787D01*
X148447810Y-143685735D01*
X149020265Y-144258190D01*
X149768213Y-144568000D01*
X150577787Y-144568000D01*
X151325735Y-144258190D01*
X151898190Y-143685735D01*
X152208000Y-142937787D01*
X152208000Y-142128213D01*
X152338000Y-142128213D01*
X152338000Y-142937787D01*
X152647810Y-143685735D01*
X153220265Y-144258190D01*
X153968213Y-144568000D01*
X154777787Y-144568000D01*
X155525735Y-144258190D01*
X156098190Y-143685735D01*
X156408000Y-142937787D01*
X156408000Y-142128213D01*
X156538000Y-142128213D01*
X156538000Y-142937787D01*
X156847810Y-143685735D01*
X157420265Y-144258190D01*
X158168213Y-144568000D01*
X158977787Y-144568000D01*
X159725735Y-144258190D01*
X160298190Y-143685735D01*
X160608000Y-142937787D01*
X160608000Y-142128213D01*
X175039000Y-142128213D01*
X175039000Y-142937787D01*
X175348810Y-143685735D01*
X175921265Y-144258190D01*
X176669213Y-144568000D01*
X177478787Y-144568000D01*
X178226735Y-144258190D01*
X178799190Y-143685735D01*
X179109000Y-142937787D01*
X179109000Y-142128213D01*
X179239000Y-142128213D01*
X179239000Y-142937787D01*
X179548810Y-143685735D01*
X180121265Y-144258190D01*
X180869213Y-144568000D01*
X181678787Y-144568000D01*
X182426735Y-144258190D01*
X182999190Y-143685735D01*
X183309000Y-142937787D01*
X183309000Y-142128213D01*
X183439000Y-142128213D01*
X183439000Y-142937787D01*
X183748810Y-143685735D01*
X184321265Y-144258190D01*
X185069213Y-144568000D01*
X185878787Y-144568000D01*
X186626735Y-144258190D01*
X187199190Y-143685735D01*
X187509000Y-142937787D01*
X187509000Y-142128213D01*
X187639000Y-142128213D01*
X187639000Y-142937787D01*
X187948810Y-143685735D01*
X188521265Y-144258190D01*
X189269213Y-144568000D01*
X190078787Y-144568000D01*
X190826735Y-144258190D01*
X191399190Y-143685735D01*
X191709000Y-142937787D01*
X191709000Y-142128213D01*
X191399190Y-141380265D01*
X190826735Y-140807810D01*
X190078787Y-140498000D01*
X189269213Y-140498000D01*
X188521265Y-140807810D01*
X187948810Y-141380265D01*
X187639000Y-142128213D01*
X187509000Y-142128213D01*
X187199190Y-141380265D01*
X186626735Y-140807810D01*
X185878787Y-140498000D01*
X185069213Y-140498000D01*
X184321265Y-140807810D01*
X183748810Y-141380265D01*
X183439000Y-142128213D01*
X183309000Y-142128213D01*
X182999190Y-141380265D01*
X182426735Y-140807810D01*
X181678787Y-140498000D01*
X180869213Y-140498000D01*
X180121265Y-140807810D01*
X179548810Y-141380265D01*
X179239000Y-142128213D01*
X179109000Y-142128213D01*
X178799190Y-141380265D01*
X178226735Y-140807810D01*
X177478787Y-140498000D01*
X176669213Y-140498000D01*
X175921265Y-140807810D01*
X175348810Y-141380265D01*
X175039000Y-142128213D01*
X160608000Y-142128213D01*
X160298190Y-141380265D01*
X159725735Y-140807810D01*
X158977787Y-140498000D01*
X158168213Y-140498000D01*
X157420265Y-140807810D01*
X156847810Y-141380265D01*
X156538000Y-142128213D01*
X156408000Y-142128213D01*
X156098190Y-141380265D01*
X155525735Y-140807810D01*
X154777787Y-140498000D01*
X153968213Y-140498000D01*
X153220265Y-140807810D01*
X152647810Y-141380265D01*
X152338000Y-142128213D01*
X152208000Y-142128213D01*
X151898190Y-141380265D01*
X151325735Y-140807810D01*
X150577787Y-140498000D01*
X149768213Y-140498000D01*
X149020265Y-140807810D01*
X148447810Y-141380265D01*
X148138000Y-142128213D01*
X148008000Y-142128213D01*
X147698190Y-141380265D01*
X147125735Y-140807810D01*
X146377787Y-140498000D01*
X145568213Y-140498000D01*
X144820265Y-140807810D01*
X144247810Y-141380265D01*
X143938000Y-142128213D01*
X129507000Y-142128213D01*
X129197190Y-141380265D01*
X128624735Y-140807810D01*
X127876787Y-140498000D01*
X127067213Y-140498000D01*
X126319265Y-140807810D01*
X125746810Y-141380265D01*
X125437000Y-142128213D01*
X125307000Y-142128213D01*
X124997190Y-141380265D01*
X124424735Y-140807810D01*
X123676787Y-140498000D01*
X122867213Y-140498000D01*
X122119265Y-140807810D01*
X121546810Y-141380265D01*
X121237000Y-142128213D01*
X121107000Y-142128213D01*
X120797190Y-141380265D01*
X120224735Y-140807810D01*
X119476787Y-140498000D01*
X118667213Y-140498000D01*
X117919265Y-140807810D01*
X117346810Y-141380265D01*
X117037000Y-142128213D01*
X116907000Y-142128213D01*
X116597190Y-141380265D01*
X116024735Y-140807810D01*
X115276787Y-140498000D01*
X114467213Y-140498000D01*
X113719265Y-140807810D01*
X113146810Y-141380265D01*
X112837000Y-142128213D01*
X111835000Y-142128213D01*
X111835000Y-136628213D01*
X112837000Y-136628213D01*
X112837000Y-137437787D01*
X113146810Y-138185735D01*
X113719265Y-138758190D01*
X114467213Y-139068000D01*
X115276787Y-139068000D01*
X116024735Y-138758190D01*
X116597190Y-138185735D01*
X116907000Y-137437787D01*
X116907000Y-136628213D01*
X116717203Y-136170000D01*
X137208560Y-136170000D01*
X137208560Y-137770000D01*
X137257843Y-138017765D01*
X137398191Y-138227809D01*
X137608235Y-138368157D01*
X137856000Y-138417440D01*
X138343339Y-138417440D01*
X138862706Y-138764471D01*
X139418374Y-138875000D01*
X145102269Y-138875000D01*
X145568213Y-139068000D01*
X146377787Y-139068000D01*
X147125735Y-138758190D01*
X147698190Y-138185735D01*
X148008000Y-137437787D01*
X148008000Y-136628213D01*
X147870393Y-136296000D01*
X168132560Y-136296000D01*
X168132560Y-137896000D01*
X168181843Y-138143765D01*
X168322191Y-138353809D01*
X168532235Y-138494157D01*
X168780000Y-138543440D01*
X169267339Y-138543440D01*
X169786706Y-138890471D01*
X170342374Y-139001000D01*
X176507461Y-139001000D01*
X176669213Y-139068000D01*
X177478787Y-139068000D01*
X178226735Y-138758190D01*
X178799190Y-138185735D01*
X179109000Y-137437787D01*
X179109000Y-136628213D01*
X178799190Y-135880265D01*
X178226735Y-135307810D01*
X177478787Y-134998000D01*
X176669213Y-134998000D01*
X176203269Y-135191000D01*
X170342374Y-135191000D01*
X169786706Y-135301529D01*
X169267339Y-135648560D01*
X168780000Y-135648560D01*
X168532235Y-135697843D01*
X168322191Y-135838191D01*
X168181843Y-136048235D01*
X168132560Y-136296000D01*
X147870393Y-136296000D01*
X147698190Y-135880265D01*
X147125735Y-135307810D01*
X146377787Y-134998000D01*
X145568213Y-134998000D01*
X145406461Y-135065000D01*
X139418374Y-135065000D01*
X138862706Y-135175529D01*
X138343339Y-135522560D01*
X137856000Y-135522560D01*
X137608235Y-135571843D01*
X137398191Y-135712191D01*
X137257843Y-135922235D01*
X137208560Y-136170000D01*
X116717203Y-136170000D01*
X116597190Y-135880265D01*
X116024735Y-135307810D01*
X115276787Y-134998000D01*
X114467213Y-134998000D01*
X113719265Y-135307810D01*
X113146810Y-135880265D01*
X112837000Y-136628213D01*
X111835000Y-136628213D01*
X111835000Y-127650213D01*
X125373000Y-127650213D01*
X125373000Y-128459787D01*
X125682810Y-129207735D01*
X126255265Y-129780190D01*
X127003213Y-130090000D01*
X127812787Y-130090000D01*
X128560735Y-129780190D01*
X129133190Y-129207735D01*
X129443000Y-128459787D01*
X129443000Y-127650213D01*
X129133190Y-126902265D01*
X128560735Y-126329810D01*
X127812787Y-126020000D01*
X127003213Y-126020000D01*
X126255265Y-126329810D01*
X125682810Y-126902265D01*
X125373000Y-127650213D01*
X111835000Y-127650213D01*
X111835000Y-122150213D01*
X112773000Y-122150213D01*
X112773000Y-122959787D01*
X113082810Y-123707735D01*
X113655265Y-124280190D01*
X114403213Y-124590000D01*
X115212787Y-124590000D01*
X115960735Y-124280190D01*
X116533190Y-123707735D01*
X116843000Y-122959787D01*
X116843000Y-122150213D01*
X116973000Y-122150213D01*
X116973000Y-122959787D01*
X117282810Y-123707735D01*
X117855265Y-124280190D01*
X118603213Y-124590000D01*
X119412787Y-124590000D01*
X120160735Y-124280190D01*
X120733190Y-123707735D01*
X121043000Y-122959787D01*
X121043000Y-122150213D01*
X121173000Y-122150213D01*
X121173000Y-122959787D01*
X121482810Y-123707735D01*
X122055265Y-124280190D01*
X122803213Y-124590000D01*
X123612787Y-124590000D01*
X124360735Y-124280190D01*
X124933190Y-123707735D01*
X125243000Y-122959787D01*
X125243000Y-122150213D01*
X125373000Y-122150213D01*
X125373000Y-122959787D01*
X125682810Y-123707735D01*
X126255265Y-124280190D01*
X127003213Y-124590000D01*
X127812787Y-124590000D01*
X127910671Y-124549455D01*
X130463000Y-124549455D01*
X130463000Y-126910545D01*
X131366550Y-129091908D01*
X133036092Y-130761450D01*
X135217455Y-131665000D01*
X137578545Y-131665000D01*
X139759908Y-130761450D01*
X141429450Y-129091908D01*
X142026619Y-127650213D01*
X156483000Y-127650213D01*
X156483000Y-128459787D01*
X156792810Y-129207735D01*
X157365265Y-129780190D01*
X158113213Y-130090000D01*
X158922787Y-130090000D01*
X159670735Y-129780190D01*
X160243190Y-129207735D01*
X160553000Y-128459787D01*
X160553000Y-127650213D01*
X160243190Y-126902265D01*
X159670735Y-126329810D01*
X158922787Y-126020000D01*
X158113213Y-126020000D01*
X157365265Y-126329810D01*
X156792810Y-126902265D01*
X156483000Y-127650213D01*
X142026619Y-127650213D01*
X142333000Y-126910545D01*
X142333000Y-124549455D01*
X141429450Y-122368092D01*
X141211571Y-122150213D01*
X143883000Y-122150213D01*
X143883000Y-122959787D01*
X144192810Y-123707735D01*
X144765265Y-124280190D01*
X145513213Y-124590000D01*
X146322787Y-124590000D01*
X147070735Y-124280190D01*
X147643190Y-123707735D01*
X147953000Y-122959787D01*
X147953000Y-122150213D01*
X148083000Y-122150213D01*
X148083000Y-122959787D01*
X148392810Y-123707735D01*
X148965265Y-124280190D01*
X149713213Y-124590000D01*
X150522787Y-124590000D01*
X151270735Y-124280190D01*
X151843190Y-123707735D01*
X152153000Y-122959787D01*
X152153000Y-122150213D01*
X152283000Y-122150213D01*
X152283000Y-122959787D01*
X152592810Y-123707735D01*
X153165265Y-124280190D01*
X153913213Y-124590000D01*
X154722787Y-124590000D01*
X155470735Y-124280190D01*
X156043190Y-123707735D01*
X156353000Y-122959787D01*
X156353000Y-122150213D01*
X156483000Y-122150213D01*
X156483000Y-122959787D01*
X156792810Y-123707735D01*
X157365265Y-124280190D01*
X158113213Y-124590000D01*
X158922787Y-124590000D01*
X159020671Y-124549455D01*
X162213000Y-124549455D01*
X162213000Y-126910545D01*
X163116550Y-129091908D01*
X164786092Y-130761450D01*
X166967455Y-131665000D01*
X169328545Y-131665000D01*
X171509908Y-130761450D01*
X173179450Y-129091908D01*
X173776619Y-127650213D01*
X187594000Y-127650213D01*
X187594000Y-128459787D01*
X187903810Y-129207735D01*
X188476265Y-129780190D01*
X189224213Y-130090000D01*
X190033787Y-130090000D01*
X190781735Y-129780190D01*
X191354190Y-129207735D01*
X191664000Y-128459787D01*
X191664000Y-127650213D01*
X191354190Y-126902265D01*
X190781735Y-126329810D01*
X190033787Y-126020000D01*
X189224213Y-126020000D01*
X188476265Y-126329810D01*
X187903810Y-126902265D01*
X187594000Y-127650213D01*
X173776619Y-127650213D01*
X174083000Y-126910545D01*
X174083000Y-124549455D01*
X173179450Y-122368092D01*
X172961571Y-122150213D01*
X174994000Y-122150213D01*
X174994000Y-122959787D01*
X175303810Y-123707735D01*
X175876265Y-124280190D01*
X176624213Y-124590000D01*
X177433787Y-124590000D01*
X178181735Y-124280190D01*
X178754190Y-123707735D01*
X179064000Y-122959787D01*
X179064000Y-122150213D01*
X179194000Y-122150213D01*
X179194000Y-122959787D01*
X179503810Y-123707735D01*
X180076265Y-124280190D01*
X180824213Y-124590000D01*
X181633787Y-124590000D01*
X182381735Y-124280190D01*
X182954190Y-123707735D01*
X183264000Y-122959787D01*
X183264000Y-122150213D01*
X183394000Y-122150213D01*
X183394000Y-122959787D01*
X183703810Y-123707735D01*
X184276265Y-124280190D01*
X185024213Y-124590000D01*
X185833787Y-124590000D01*
X186581735Y-124280190D01*
X187154190Y-123707735D01*
X187464000Y-122959787D01*
X187464000Y-122150213D01*
X187594000Y-122150213D01*
X187594000Y-122959787D01*
X187903810Y-123707735D01*
X188476265Y-124280190D01*
X189224213Y-124590000D01*
X190033787Y-124590000D01*
X190781735Y-124280190D01*
X191354190Y-123707735D01*
X191664000Y-122959787D01*
X191664000Y-122150213D01*
X191354190Y-121402265D01*
X190781735Y-120829810D01*
X190033787Y-120520000D01*
X189224213Y-120520000D01*
X188476265Y-120829810D01*
X187903810Y-121402265D01*
X187594000Y-122150213D01*
X187464000Y-122150213D01*
X187154190Y-121402265D01*
X186581735Y-120829810D01*
X185833787Y-120520000D01*
X185024213Y-120520000D01*
X184276265Y-120829810D01*
X183703810Y-121402265D01*
X183394000Y-122150213D01*
X183264000Y-122150213D01*
X182954190Y-121402265D01*
X182381735Y-120829810D01*
X181633787Y-120520000D01*
X180824213Y-120520000D01*
X180076265Y-120829810D01*
X179503810Y-121402265D01*
X179194000Y-122150213D01*
X179064000Y-122150213D01*
X178754190Y-121402265D01*
X178181735Y-120829810D01*
X177433787Y-120520000D01*
X176624213Y-120520000D01*
X175876265Y-120829810D01*
X175303810Y-121402265D01*
X174994000Y-122150213D01*
X172961571Y-122150213D01*
X171509908Y-120698550D01*
X169328545Y-119795000D01*
X166967455Y-119795000D01*
X164786092Y-120698550D01*
X163116550Y-122368092D01*
X162213000Y-124549455D01*
X159020671Y-124549455D01*
X159670735Y-124280190D01*
X160243190Y-123707735D01*
X160553000Y-122959787D01*
X160553000Y-122150213D01*
X160243190Y-121402265D01*
X159670735Y-120829810D01*
X158922787Y-120520000D01*
X158113213Y-120520000D01*
X157365265Y-120829810D01*
X156792810Y-121402265D01*
X156483000Y-122150213D01*
X156353000Y-122150213D01*
X156043190Y-121402265D01*
X155470735Y-120829810D01*
X154722787Y-120520000D01*
X153913213Y-120520000D01*
X153165265Y-120829810D01*
X152592810Y-121402265D01*
X152283000Y-122150213D01*
X152153000Y-122150213D01*
X151843190Y-121402265D01*
X151270735Y-120829810D01*
X150522787Y-120520000D01*
X149713213Y-120520000D01*
X148965265Y-120829810D01*
X148392810Y-121402265D01*
X148083000Y-122150213D01*
X147953000Y-122150213D01*
X147643190Y-121402265D01*
X147070735Y-120829810D01*
X146322787Y-120520000D01*
X145513213Y-120520000D01*
X144765265Y-120829810D01*
X144192810Y-121402265D01*
X143883000Y-122150213D01*
X141211571Y-122150213D01*
X139759908Y-120698550D01*
X139191000Y-120462901D01*
X139191000Y-120341017D01*
X139048655Y-119997365D01*
X138785635Y-119734345D01*
X138441983Y-119592000D01*
X138070017Y-119592000D01*
X137726365Y-119734345D01*
X137640180Y-119820530D01*
X137578545Y-119795000D01*
X135217455Y-119795000D01*
X133036092Y-120698550D01*
X131366550Y-122368092D01*
X130463000Y-124549455D01*
X127910671Y-124549455D01*
X128560735Y-124280190D01*
X129133190Y-123707735D01*
X129443000Y-122959787D01*
X129443000Y-122150213D01*
X129133190Y-121402265D01*
X128560735Y-120829810D01*
X127812787Y-120520000D01*
X127003213Y-120520000D01*
X126255265Y-120829810D01*
X125682810Y-121402265D01*
X125373000Y-122150213D01*
X125243000Y-122150213D01*
X124933190Y-121402265D01*
X124360735Y-120829810D01*
X123612787Y-120520000D01*
X122803213Y-120520000D01*
X122055265Y-120829810D01*
X121482810Y-121402265D01*
X121173000Y-122150213D01*
X121043000Y-122150213D01*
X120733190Y-121402265D01*
X120160735Y-120829810D01*
X119412787Y-120520000D01*
X118603213Y-120520000D01*
X117855265Y-120829810D01*
X117282810Y-121402265D01*
X116973000Y-122150213D01*
X116843000Y-122150213D01*
X116533190Y-121402265D01*
X115960735Y-120829810D01*
X115212787Y-120520000D01*
X114403213Y-120520000D01*
X113655265Y-120829810D01*
X113082810Y-121402265D01*
X112773000Y-122150213D01*
X111835000Y-122150213D01*
X111835000Y-114374820D01*
X116219251Y-114374820D01*
X116219251Y-114766678D01*
X116369209Y-115128707D01*
X116646293Y-115405791D01*
X117008322Y-115555749D01*
X117400180Y-115555749D01*
X117440444Y-115539071D01*
X119030000Y-115539071D01*
X119030000Y-115930929D01*
X119179958Y-116292958D01*
X119457042Y-116570042D01*
X119819071Y-116720000D01*
X120210929Y-116720000D01*
X120572958Y-116570042D01*
X120850042Y-116292958D01*
X121000000Y-115930929D01*
X121000000Y-115539071D01*
X120850042Y-115177042D01*
X120572958Y-114899958D01*
X120210929Y-114750000D01*
X119819071Y-114750000D01*
X119457042Y-114899958D01*
X119179958Y-115177042D01*
X119030000Y-115539071D01*
X117440444Y-115539071D01*
X117762209Y-115405791D01*
X118039293Y-115128707D01*
X118189251Y-114766678D01*
X118189251Y-114374820D01*
X121840749Y-114374820D01*
X121840749Y-114766678D01*
X121990707Y-115128707D01*
X122267791Y-115405791D01*
X122629820Y-115555749D01*
X123021678Y-115555749D01*
X123383707Y-115405791D01*
X123660791Y-115128707D01*
X123810749Y-114766678D01*
X123810749Y-114374820D01*
X123660791Y-114012791D01*
X123383707Y-113735707D01*
X123021678Y-113585749D01*
X122629820Y-113585749D01*
X122267791Y-113735707D01*
X121990707Y-114012791D01*
X121840749Y-114374820D01*
X118189251Y-114374820D01*
X118039293Y-114012791D01*
X117762209Y-113735707D01*
X117400180Y-113585749D01*
X117008322Y-113585749D01*
X116646293Y-113735707D01*
X116369209Y-114012791D01*
X116219251Y-114374820D01*
X111835000Y-114374820D01*
X111835000Y-111564071D01*
X115055000Y-111564071D01*
X115055000Y-111955929D01*
X115204958Y-112317958D01*
X115482042Y-112595042D01*
X115844071Y-112745000D01*
X116235929Y-112745000D01*
X116597958Y-112595042D01*
X116875042Y-112317958D01*
X117025000Y-111955929D01*
X117025000Y-111564071D01*
X123005000Y-111564071D01*
X123005000Y-111955929D01*
X123154958Y-112317958D01*
X123432042Y-112595042D01*
X123794071Y-112745000D01*
X124185929Y-112745000D01*
X124547958Y-112595042D01*
X124825042Y-112317958D01*
X124975000Y-111955929D01*
X124975000Y-111564071D01*
X124825042Y-111202042D01*
X124547958Y-110924958D01*
X124185929Y-110775000D01*
X123794071Y-110775000D01*
X123432042Y-110924958D01*
X123154958Y-111202042D01*
X123005000Y-111564071D01*
X117025000Y-111564071D01*
X116875042Y-111202042D01*
X116597958Y-110924958D01*
X116235929Y-110775000D01*
X115844071Y-110775000D01*
X115482042Y-110924958D01*
X115204958Y-111202042D01*
X115055000Y-111564071D01*
X111835000Y-111564071D01*
X111835000Y-108753322D01*
X116219251Y-108753322D01*
X116219251Y-109145180D01*
X116369209Y-109507209D01*
X116646293Y-109784293D01*
X117008322Y-109934251D01*
X117400180Y-109934251D01*
X117762209Y-109784293D01*
X118039293Y-109507209D01*
X118189251Y-109145180D01*
X118189251Y-108753322D01*
X118039293Y-108391293D01*
X117762209Y-108114209D01*
X117400180Y-107964251D01*
X117008322Y-107964251D01*
X116646293Y-108114209D01*
X116369209Y-108391293D01*
X116219251Y-108753322D01*
X111835000Y-108753322D01*
X111835000Y-107519472D01*
X119045192Y-107552395D01*
X119030000Y-107589071D01*
X119030000Y-107980929D01*
X119179958Y-108342958D01*
X119457042Y-108620042D01*
X119819071Y-108770000D01*
X120210929Y-108770000D01*
X120251193Y-108753322D01*
X121840749Y-108753322D01*
X121840749Y-109145180D01*
X121990707Y-109507209D01*
X122267791Y-109784293D01*
X122629820Y-109934251D01*
X123021678Y-109934251D01*
X123383707Y-109784293D01*
X123660791Y-109507209D01*
X123810749Y-109145180D01*
X123810749Y-108753322D01*
X123660791Y-108391293D01*
X123383707Y-108114209D01*
X123021678Y-107964251D01*
X122629820Y-107964251D01*
X122267791Y-108114209D01*
X121990707Y-108391293D01*
X121840749Y-108753322D01*
X120251193Y-108753322D01*
X120572958Y-108620042D01*
X120850042Y-108342958D01*
X121000000Y-107980929D01*
X121000000Y-107589071D01*
X120988484Y-107561269D01*
X122681420Y-107568999D01*
X122730824Y-107559240D01*
X122771973Y-107531632D01*
X122799425Y-107490378D01*
X122809000Y-107441759D01*
X122807310Y-106553000D01*
X131084267Y-106553000D01*
X131201996Y-106631664D01*
X131201996Y-106631664D01*
G37*
X131201996Y-106631664D02*
X131445000Y-106680000D01*
X133985000Y-106680000D01*
X133985000Y-119176800D01*
X133994667Y-119225401D01*
X134022197Y-119266603D01*
X134063399Y-119294133D01*
X134112000Y-119303800D01*
X142604696Y-119303800D01*
X142666345Y-119452635D01*
X142929365Y-119715655D01*
X143273017Y-119858000D01*
X143644983Y-119858000D01*
X143988635Y-119715655D01*
X144251655Y-119452635D01*
X144313304Y-119303800D01*
X159310631Y-119303800D01*
X159320072Y-119317929D01*
X159383344Y-119360206D01*
X160140549Y-120118290D01*
X160183071Y-120181929D01*
X160307878Y-120265323D01*
X160434048Y-120349732D01*
X160434273Y-120349777D01*
X160434463Y-120349904D01*
X160583272Y-120379504D01*
X160730551Y-120408888D01*
X160805625Y-120394000D01*
X161875153Y-120394000D01*
X161950000Y-120408888D01*
X162024847Y-120394000D01*
X162024852Y-120394000D01*
X162246537Y-120349904D01*
X162497929Y-120181929D01*
X162540331Y-120118470D01*
X163196473Y-119462329D01*
X163259929Y-119419929D01*
X163314068Y-119338904D01*
X163337524Y-119303800D01*
X172212000Y-119303800D01*
X172260601Y-119294133D01*
X172301803Y-119266603D01*
X172329333Y-119225401D01*
X172339000Y-119176800D01*
X172339000Y-114374820D01*
X181116251Y-114374820D01*
X181116251Y-114766678D01*
X181266209Y-115128707D01*
X181543293Y-115405791D01*
X181905322Y-115555749D01*
X182297180Y-115555749D01*
X182337444Y-115539071D01*
X183927000Y-115539071D01*
X183927000Y-115930929D01*
X184076958Y-116292958D01*
X184354042Y-116570042D01*
X184716071Y-116720000D01*
X185107929Y-116720000D01*
X185469958Y-116570042D01*
X185747042Y-116292958D01*
X185897000Y-115930929D01*
X185897000Y-115539071D01*
X185747042Y-115177042D01*
X185469958Y-114899958D01*
X185107929Y-114750000D01*
X184716071Y-114750000D01*
X184354042Y-114899958D01*
X184076958Y-115177042D01*
X183927000Y-115539071D01*
X182337444Y-115539071D01*
X182659209Y-115405791D01*
X182936293Y-115128707D01*
X183086251Y-114766678D01*
X183086251Y-114374820D01*
X186737749Y-114374820D01*
X186737749Y-114766678D01*
X186887707Y-115128707D01*
X187164791Y-115405791D01*
X187526820Y-115555749D01*
X187918678Y-115555749D01*
X188280707Y-115405791D01*
X188557791Y-115128707D01*
X188707749Y-114766678D01*
X188707749Y-114374820D01*
X188557791Y-114012791D01*
X188280707Y-113735707D01*
X187918678Y-113585749D01*
X187526820Y-113585749D01*
X187164791Y-113735707D01*
X186887707Y-114012791D01*
X186737749Y-114374820D01*
X183086251Y-114374820D01*
X182936293Y-114012791D01*
X182659209Y-113735707D01*
X182297180Y-113585749D01*
X181905322Y-113585749D01*
X181543293Y-113735707D01*
X181266209Y-114012791D01*
X181116251Y-114374820D01*
X172339000Y-114374820D01*
X172339000Y-111564071D01*
X179952000Y-111564071D01*
X179952000Y-111955929D01*
X180101958Y-112317958D01*
X180379042Y-112595042D01*
X180741071Y-112745000D01*
X181132929Y-112745000D01*
X181494958Y-112595042D01*
X181772042Y-112317958D01*
X181922000Y-111955929D01*
X181922000Y-111564071D01*
X187902000Y-111564071D01*
X187902000Y-111955929D01*
X188051958Y-112317958D01*
X188329042Y-112595042D01*
X188691071Y-112745000D01*
X189082929Y-112745000D01*
X189444958Y-112595042D01*
X189722042Y-112317958D01*
X189872000Y-111955929D01*
X189872000Y-111564071D01*
X189722042Y-111202042D01*
X189444958Y-110924958D01*
X189082929Y-110775000D01*
X188691071Y-110775000D01*
X188329042Y-110924958D01*
X188051958Y-111202042D01*
X187902000Y-111564071D01*
X181922000Y-111564071D01*
X181772042Y-111202042D01*
X181494958Y-110924958D01*
X181132929Y-110775000D01*
X180741071Y-110775000D01*
X180379042Y-110924958D01*
X180101958Y-111202042D01*
X179952000Y-111564071D01*
X172339000Y-111564071D01*
X172339000Y-108753322D01*
X181116251Y-108753322D01*
X181116251Y-109145180D01*
X181266209Y-109507209D01*
X181543293Y-109784293D01*
X181905322Y-109934251D01*
X182297180Y-109934251D01*
X182659209Y-109784293D01*
X182936293Y-109507209D01*
X183086251Y-109145180D01*
X183086251Y-108753322D01*
X182936293Y-108391293D01*
X182659209Y-108114209D01*
X182297180Y-107964251D01*
X181905322Y-107964251D01*
X181543293Y-108114209D01*
X181266209Y-108391293D01*
X181116251Y-108753322D01*
X172339000Y-108753322D01*
X172339000Y-106807000D01*
X182063038Y-106807000D01*
X182063038Y-107109267D01*
X182072485Y-107157332D01*
X182099826Y-107198659D01*
X182140902Y-107226377D01*
X182189458Y-107236266D01*
X184069581Y-107244851D01*
X183927000Y-107589071D01*
X183927000Y-107980929D01*
X184076958Y-108342958D01*
X184354042Y-108620042D01*
X184716071Y-108770000D01*
X185107929Y-108770000D01*
X185148193Y-108753322D01*
X186737749Y-108753322D01*
X186737749Y-109145180D01*
X186887707Y-109507209D01*
X187164791Y-109784293D01*
X187526820Y-109934251D01*
X187918678Y-109934251D01*
X188280707Y-109784293D01*
X188557791Y-109507209D01*
X188707749Y-109145180D01*
X188707749Y-108753322D01*
X188557791Y-108391293D01*
X188280707Y-108114209D01*
X187918678Y-107964251D01*
X187526820Y-107964251D01*
X187164791Y-108114209D01*
X186887707Y-108391293D01*
X186737749Y-108753322D01*
X185148193Y-108753322D01*
X185469958Y-108620042D01*
X185747042Y-108342958D01*
X185897000Y-107980929D01*
X185897000Y-107589071D01*
X185757612Y-107252559D01*
X193092001Y-107286049D01*
X193092001Y-146431000D01*
X111835000Y-146431000D01*
X111835000Y-142128213D01*
X112837000Y-142128213D01*
X112837000Y-142937787D01*
X113146810Y-143685735D01*
X113719265Y-144258190D01*
X114467213Y-144568000D01*
X115276787Y-144568000D01*
X116024735Y-144258190D01*
X116597190Y-143685735D01*
X116907000Y-142937787D01*
X116907000Y-142128213D01*
X117037000Y-142128213D01*
X117037000Y-142937787D01*
X117346810Y-143685735D01*
X117919265Y-144258190D01*
X118667213Y-144568000D01*
X119476787Y-144568000D01*
X120224735Y-144258190D01*
X120797190Y-143685735D01*
X121107000Y-142937787D01*
X121107000Y-142128213D01*
X121237000Y-142128213D01*
X121237000Y-142937787D01*
X121546810Y-143685735D01*
X122119265Y-144258190D01*
X122867213Y-144568000D01*
X123676787Y-144568000D01*
X124424735Y-144258190D01*
X124997190Y-143685735D01*
X125307000Y-142937787D01*
X125307000Y-142128213D01*
X125437000Y-142128213D01*
X125437000Y-142937787D01*
X125746810Y-143685735D01*
X126319265Y-144258190D01*
X127067213Y-144568000D01*
X127876787Y-144568000D01*
X128624735Y-144258190D01*
X129197190Y-143685735D01*
X129507000Y-142937787D01*
X129507000Y-142128213D01*
X143938000Y-142128213D01*
X143938000Y-142937787D01*
X144247810Y-143685735D01*
X144820265Y-144258190D01*
X145568213Y-144568000D01*
X146377787Y-144568000D01*
X147125735Y-144258190D01*
X147698190Y-143685735D01*
X148008000Y-142937787D01*
X148008000Y-142128213D01*
X148138000Y-142128213D01*
X148138000Y-142937787D01*
X148447810Y-143685735D01*
X149020265Y-144258190D01*
X149768213Y-144568000D01*
X150577787Y-144568000D01*
X151325735Y-144258190D01*
X151898190Y-143685735D01*
X152208000Y-142937787D01*
X152208000Y-142128213D01*
X152338000Y-142128213D01*
X152338000Y-142937787D01*
X152647810Y-143685735D01*
X153220265Y-144258190D01*
X153968213Y-144568000D01*
X154777787Y-144568000D01*
X155525735Y-144258190D01*
X156098190Y-143685735D01*
X156408000Y-142937787D01*
X156408000Y-142128213D01*
X156538000Y-142128213D01*
X156538000Y-142937787D01*
X156847810Y-143685735D01*
X157420265Y-144258190D01*
X158168213Y-144568000D01*
X158977787Y-144568000D01*
X159725735Y-144258190D01*
X160298190Y-143685735D01*
X160608000Y-142937787D01*
X160608000Y-142128213D01*
X175039000Y-142128213D01*
X175039000Y-142937787D01*
X175348810Y-143685735D01*
X175921265Y-144258190D01*
X176669213Y-144568000D01*
X177478787Y-144568000D01*
X178226735Y-144258190D01*
X178799190Y-143685735D01*
X179109000Y-142937787D01*
X179109000Y-142128213D01*
X179239000Y-142128213D01*
X179239000Y-142937787D01*
X179548810Y-143685735D01*
X180121265Y-144258190D01*
X180869213Y-144568000D01*
X181678787Y-144568000D01*
X182426735Y-144258190D01*
X182999190Y-143685735D01*
X183309000Y-142937787D01*
X183309000Y-142128213D01*
X183439000Y-142128213D01*
X183439000Y-142937787D01*
X183748810Y-143685735D01*
X184321265Y-144258190D01*
X185069213Y-144568000D01*
X185878787Y-144568000D01*
X186626735Y-144258190D01*
X187199190Y-143685735D01*
X187509000Y-142937787D01*
X187509000Y-142128213D01*
X187639000Y-142128213D01*
X187639000Y-142937787D01*
X187948810Y-143685735D01*
X188521265Y-144258190D01*
X189269213Y-144568000D01*
X190078787Y-144568000D01*
X190826735Y-144258190D01*
X191399190Y-143685735D01*
X191709000Y-142937787D01*
X191709000Y-142128213D01*
X191399190Y-141380265D01*
X190826735Y-140807810D01*
X190078787Y-140498000D01*
X189269213Y-140498000D01*
X188521265Y-140807810D01*
X187948810Y-141380265D01*
X187639000Y-142128213D01*
X187509000Y-142128213D01*
X187199190Y-141380265D01*
X186626735Y-140807810D01*
X185878787Y-140498000D01*
X185069213Y-140498000D01*
X184321265Y-140807810D01*
X183748810Y-141380265D01*
X183439000Y-142128213D01*
X183309000Y-142128213D01*
X182999190Y-141380265D01*
X182426735Y-140807810D01*
X181678787Y-140498000D01*
X180869213Y-140498000D01*
X180121265Y-140807810D01*
X179548810Y-141380265D01*
X179239000Y-142128213D01*
X179109000Y-142128213D01*
X178799190Y-141380265D01*
X178226735Y-140807810D01*
X177478787Y-140498000D01*
X176669213Y-140498000D01*
X175921265Y-140807810D01*
X175348810Y-141380265D01*
X175039000Y-142128213D01*
X160608000Y-142128213D01*
X160298190Y-141380265D01*
X159725735Y-140807810D01*
X158977787Y-140498000D01*
X158168213Y-140498000D01*
X157420265Y-140807810D01*
X156847810Y-141380265D01*
X156538000Y-142128213D01*
X156408000Y-142128213D01*
X156098190Y-141380265D01*
X155525735Y-140807810D01*
X154777787Y-140498000D01*
X153968213Y-140498000D01*
X153220265Y-140807810D01*
X152647810Y-141380265D01*
X152338000Y-142128213D01*
X152208000Y-142128213D01*
X151898190Y-141380265D01*
X151325735Y-140807810D01*
X150577787Y-140498000D01*
X149768213Y-140498000D01*
X149020265Y-140807810D01*
X148447810Y-141380265D01*
X148138000Y-142128213D01*
X148008000Y-142128213D01*
X147698190Y-141380265D01*
X147125735Y-140807810D01*
X146377787Y-140498000D01*
X145568213Y-140498000D01*
X144820265Y-140807810D01*
X144247810Y-141380265D01*
X143938000Y-142128213D01*
X129507000Y-142128213D01*
X129197190Y-141380265D01*
X128624735Y-140807810D01*
X127876787Y-140498000D01*
X127067213Y-140498000D01*
X126319265Y-140807810D01*
X125746810Y-141380265D01*
X125437000Y-142128213D01*
X125307000Y-142128213D01*
X124997190Y-141380265D01*
X124424735Y-140807810D01*
X123676787Y-140498000D01*
X122867213Y-140498000D01*
X122119265Y-140807810D01*
X121546810Y-141380265D01*
X121237000Y-142128213D01*
X121107000Y-142128213D01*
X120797190Y-141380265D01*
X120224735Y-140807810D01*
X119476787Y-140498000D01*
X118667213Y-140498000D01*
X117919265Y-140807810D01*
X117346810Y-141380265D01*
X117037000Y-142128213D01*
X116907000Y-142128213D01*
X116597190Y-141380265D01*
X116024735Y-140807810D01*
X115276787Y-140498000D01*
X114467213Y-140498000D01*
X113719265Y-140807810D01*
X113146810Y-141380265D01*
X112837000Y-142128213D01*
X111835000Y-142128213D01*
X111835000Y-136628213D01*
X112837000Y-136628213D01*
X112837000Y-137437787D01*
X113146810Y-138185735D01*
X113719265Y-138758190D01*
X114467213Y-139068000D01*
X115276787Y-139068000D01*
X116024735Y-138758190D01*
X116597190Y-138185735D01*
X116907000Y-137437787D01*
X116907000Y-136628213D01*
X116717203Y-136170000D01*
X137208560Y-136170000D01*
X137208560Y-137770000D01*
X137257843Y-138017765D01*
X137398191Y-138227809D01*
X137608235Y-138368157D01*
X137856000Y-138417440D01*
X138343339Y-138417440D01*
X138862706Y-138764471D01*
X139418374Y-138875000D01*
X145102269Y-138875000D01*
X145568213Y-139068000D01*
X146377787Y-139068000D01*
X147125735Y-138758190D01*
X147698190Y-138185735D01*
X148008000Y-137437787D01*
X148008000Y-136628213D01*
X147870393Y-136296000D01*
X168132560Y-136296000D01*
X168132560Y-137896000D01*
X168181843Y-138143765D01*
X168322191Y-138353809D01*
X168532235Y-138494157D01*
X168780000Y-138543440D01*
X169267339Y-138543440D01*
X169786706Y-138890471D01*
X170342374Y-139001000D01*
X176507461Y-139001000D01*
X176669213Y-139068000D01*
X177478787Y-139068000D01*
X178226735Y-138758190D01*
X178799190Y-138185735D01*
X179109000Y-137437787D01*
X179109000Y-136628213D01*
X178799190Y-135880265D01*
X178226735Y-135307810D01*
X177478787Y-134998000D01*
X176669213Y-134998000D01*
X176203269Y-135191000D01*
X170342374Y-135191000D01*
X169786706Y-135301529D01*
X169267339Y-135648560D01*
X168780000Y-135648560D01*
X168532235Y-135697843D01*
X168322191Y-135838191D01*
X168181843Y-136048235D01*
X168132560Y-136296000D01*
X147870393Y-136296000D01*
X147698190Y-135880265D01*
X147125735Y-135307810D01*
X146377787Y-134998000D01*
X145568213Y-134998000D01*
X145406461Y-135065000D01*
X139418374Y-135065000D01*
X138862706Y-135175529D01*
X138343339Y-135522560D01*
X137856000Y-135522560D01*
X137608235Y-135571843D01*
X137398191Y-135712191D01*
X137257843Y-135922235D01*
X137208560Y-136170000D01*
X116717203Y-136170000D01*
X116597190Y-135880265D01*
X116024735Y-135307810D01*
X115276787Y-134998000D01*
X114467213Y-134998000D01*
X113719265Y-135307810D01*
X113146810Y-135880265D01*
X112837000Y-136628213D01*
X111835000Y-136628213D01*
X111835000Y-127650213D01*
X125373000Y-127650213D01*
X125373000Y-128459787D01*
X125682810Y-129207735D01*
X126255265Y-129780190D01*
X127003213Y-130090000D01*
X127812787Y-130090000D01*
X128560735Y-129780190D01*
X129133190Y-129207735D01*
X129443000Y-128459787D01*
X129443000Y-127650213D01*
X129133190Y-126902265D01*
X128560735Y-126329810D01*
X127812787Y-126020000D01*
X127003213Y-126020000D01*
X126255265Y-126329810D01*
X125682810Y-126902265D01*
X125373000Y-127650213D01*
X111835000Y-127650213D01*
X111835000Y-122150213D01*
X112773000Y-122150213D01*
X112773000Y-122959787D01*
X113082810Y-123707735D01*
X113655265Y-124280190D01*
X114403213Y-124590000D01*
X115212787Y-124590000D01*
X115960735Y-124280190D01*
X116533190Y-123707735D01*
X116843000Y-122959787D01*
X116843000Y-122150213D01*
X116973000Y-122150213D01*
X116973000Y-122959787D01*
X117282810Y-123707735D01*
X117855265Y-124280190D01*
X118603213Y-124590000D01*
X119412787Y-124590000D01*
X120160735Y-124280190D01*
X120733190Y-123707735D01*
X121043000Y-122959787D01*
X121043000Y-122150213D01*
X121173000Y-122150213D01*
X121173000Y-122959787D01*
X121482810Y-123707735D01*
X122055265Y-124280190D01*
X122803213Y-124590000D01*
X123612787Y-124590000D01*
X124360735Y-124280190D01*
X124933190Y-123707735D01*
X125243000Y-122959787D01*
X125243000Y-122150213D01*
X125373000Y-122150213D01*
X125373000Y-122959787D01*
X125682810Y-123707735D01*
X126255265Y-124280190D01*
X127003213Y-124590000D01*
X127812787Y-124590000D01*
X127910671Y-124549455D01*
X130463000Y-124549455D01*
X130463000Y-126910545D01*
X131366550Y-129091908D01*
X133036092Y-130761450D01*
X135217455Y-131665000D01*
X137578545Y-131665000D01*
X139759908Y-130761450D01*
X141429450Y-129091908D01*
X142026619Y-127650213D01*
X156483000Y-127650213D01*
X156483000Y-128459787D01*
X156792810Y-129207735D01*
X157365265Y-129780190D01*
X158113213Y-130090000D01*
X158922787Y-130090000D01*
X159670735Y-129780190D01*
X160243190Y-129207735D01*
X160553000Y-128459787D01*
X160553000Y-127650213D01*
X160243190Y-126902265D01*
X159670735Y-126329810D01*
X158922787Y-126020000D01*
X158113213Y-126020000D01*
X157365265Y-126329810D01*
X156792810Y-126902265D01*
X156483000Y-127650213D01*
X142026619Y-127650213D01*
X142333000Y-126910545D01*
X142333000Y-124549455D01*
X141429450Y-122368092D01*
X141211571Y-122150213D01*
X143883000Y-122150213D01*
X143883000Y-122959787D01*
X144192810Y-123707735D01*
X144765265Y-124280190D01*
X145513213Y-124590000D01*
X146322787Y-124590000D01*
X147070735Y-124280190D01*
X147643190Y-123707735D01*
X147953000Y-122959787D01*
X147953000Y-122150213D01*
X148083000Y-122150213D01*
X148083000Y-122959787D01*
X148392810Y-123707735D01*
X148965265Y-124280190D01*
X149713213Y-124590000D01*
X150522787Y-124590000D01*
X151270735Y-124280190D01*
X151843190Y-123707735D01*
X152153000Y-122959787D01*
X152153000Y-122150213D01*
X152283000Y-122150213D01*
X152283000Y-122959787D01*
X152592810Y-123707735D01*
X153165265Y-124280190D01*
X153913213Y-124590000D01*
X154722787Y-124590000D01*
X155470735Y-124280190D01*
X156043190Y-123707735D01*
X156353000Y-122959787D01*
X156353000Y-122150213D01*
X156483000Y-122150213D01*
X156483000Y-122959787D01*
X156792810Y-123707735D01*
X157365265Y-124280190D01*
X158113213Y-124590000D01*
X158922787Y-124590000D01*
X159020671Y-124549455D01*
X162213000Y-124549455D01*
X162213000Y-126910545D01*
X163116550Y-129091908D01*
X164786092Y-130761450D01*
X166967455Y-131665000D01*
X169328545Y-131665000D01*
X171509908Y-130761450D01*
X173179450Y-129091908D01*
X173776619Y-127650213D01*
X187594000Y-127650213D01*
X187594000Y-128459787D01*
X187903810Y-129207735D01*
X188476265Y-129780190D01*
X189224213Y-130090000D01*
X190033787Y-130090000D01*
X190781735Y-129780190D01*
X191354190Y-129207735D01*
X191664000Y-128459787D01*
X191664000Y-127650213D01*
X191354190Y-126902265D01*
X190781735Y-126329810D01*
X190033787Y-126020000D01*
X189224213Y-126020000D01*
X188476265Y-126329810D01*
X187903810Y-126902265D01*
X187594000Y-127650213D01*
X173776619Y-127650213D01*
X174083000Y-126910545D01*
X174083000Y-124549455D01*
X173179450Y-122368092D01*
X172961571Y-122150213D01*
X174994000Y-122150213D01*
X174994000Y-122959787D01*
X175303810Y-123707735D01*
X175876265Y-124280190D01*
X176624213Y-124590000D01*
X177433787Y-124590000D01*
X178181735Y-124280190D01*
X178754190Y-123707735D01*
X179064000Y-122959787D01*
X179064000Y-122150213D01*
X179194000Y-122150213D01*
X179194000Y-122959787D01*
X179503810Y-123707735D01*
X180076265Y-124280190D01*
X180824213Y-124590000D01*
X181633787Y-124590000D01*
X182381735Y-124280190D01*
X182954190Y-123707735D01*
X183264000Y-122959787D01*
X183264000Y-122150213D01*
X183394000Y-122150213D01*
X183394000Y-122959787D01*
X183703810Y-123707735D01*
X184276265Y-124280190D01*
X185024213Y-124590000D01*
X185833787Y-124590000D01*
X186581735Y-124280190D01*
X187154190Y-123707735D01*
X187464000Y-122959787D01*
X187464000Y-122150213D01*
X187594000Y-122150213D01*
X187594000Y-122959787D01*
X187903810Y-123707735D01*
X188476265Y-124280190D01*
X189224213Y-124590000D01*
X190033787Y-124590000D01*
X190781735Y-124280190D01*
X191354190Y-123707735D01*
X191664000Y-122959787D01*
X191664000Y-122150213D01*
X191354190Y-121402265D01*
X190781735Y-120829810D01*
X190033787Y-120520000D01*
X189224213Y-120520000D01*
X188476265Y-120829810D01*
X187903810Y-121402265D01*
X187594000Y-122150213D01*
X187464000Y-122150213D01*
X187154190Y-121402265D01*
X186581735Y-120829810D01*
X185833787Y-120520000D01*
X185024213Y-120520000D01*
X184276265Y-120829810D01*
X183703810Y-121402265D01*
X183394000Y-122150213D01*
X183264000Y-122150213D01*
X182954190Y-121402265D01*
X182381735Y-120829810D01*
X181633787Y-120520000D01*
X180824213Y-120520000D01*
X180076265Y-120829810D01*
X179503810Y-121402265D01*
X179194000Y-122150213D01*
X179064000Y-122150213D01*
X178754190Y-121402265D01*
X178181735Y-120829810D01*
X177433787Y-120520000D01*
X176624213Y-120520000D01*
X175876265Y-120829810D01*
X175303810Y-121402265D01*
X174994000Y-122150213D01*
X172961571Y-122150213D01*
X171509908Y-120698550D01*
X169328545Y-119795000D01*
X166967455Y-119795000D01*
X164786092Y-120698550D01*
X163116550Y-122368092D01*
X162213000Y-124549455D01*
X159020671Y-124549455D01*
X159670735Y-124280190D01*
X160243190Y-123707735D01*
X160553000Y-122959787D01*
X160553000Y-122150213D01*
X160243190Y-121402265D01*
X159670735Y-120829810D01*
X158922787Y-120520000D01*
X158113213Y-120520000D01*
X157365265Y-120829810D01*
X156792810Y-121402265D01*
X156483000Y-122150213D01*
X156353000Y-122150213D01*
X156043190Y-121402265D01*
X155470735Y-120829810D01*
X154722787Y-120520000D01*
X153913213Y-120520000D01*
X153165265Y-120829810D01*
X152592810Y-121402265D01*
X152283000Y-122150213D01*
X152153000Y-122150213D01*
X151843190Y-121402265D01*
X151270735Y-120829810D01*
X150522787Y-120520000D01*
X149713213Y-120520000D01*
X148965265Y-120829810D01*
X148392810Y-121402265D01*
X148083000Y-122150213D01*
X147953000Y-122150213D01*
X147643190Y-121402265D01*
X147070735Y-120829810D01*
X146322787Y-120520000D01*
X145513213Y-120520000D01*
X144765265Y-120829810D01*
X144192810Y-121402265D01*
X143883000Y-122150213D01*
X141211571Y-122150213D01*
X139759908Y-120698550D01*
X139191000Y-120462901D01*
X139191000Y-120341017D01*
X139048655Y-119997365D01*
X138785635Y-119734345D01*
X138441983Y-119592000D01*
X138070017Y-119592000D01*
X137726365Y-119734345D01*
X137640180Y-119820530D01*
X137578545Y-119795000D01*
X135217455Y-119795000D01*
X133036092Y-120698550D01*
X131366550Y-122368092D01*
X130463000Y-124549455D01*
X127910671Y-124549455D01*
X128560735Y-124280190D01*
X129133190Y-123707735D01*
X129443000Y-122959787D01*
X129443000Y-122150213D01*
X129133190Y-121402265D01*
X128560735Y-120829810D01*
X127812787Y-120520000D01*
X127003213Y-120520000D01*
X126255265Y-120829810D01*
X125682810Y-121402265D01*
X125373000Y-122150213D01*
X125243000Y-122150213D01*
X124933190Y-121402265D01*
X124360735Y-120829810D01*
X123612787Y-120520000D01*
X122803213Y-120520000D01*
X122055265Y-120829810D01*
X121482810Y-121402265D01*
X121173000Y-122150213D01*
X121043000Y-122150213D01*
X120733190Y-121402265D01*
X120160735Y-120829810D01*
X119412787Y-120520000D01*
X118603213Y-120520000D01*
X117855265Y-120829810D01*
X117282810Y-121402265D01*
X116973000Y-122150213D01*
X116843000Y-122150213D01*
X116533190Y-121402265D01*
X115960735Y-120829810D01*
X115212787Y-120520000D01*
X114403213Y-120520000D01*
X113655265Y-120829810D01*
X113082810Y-121402265D01*
X112773000Y-122150213D01*
X111835000Y-122150213D01*
X111835000Y-114374820D01*
X116219251Y-114374820D01*
X116219251Y-114766678D01*
X116369209Y-115128707D01*
X116646293Y-115405791D01*
X117008322Y-115555749D01*
X117400180Y-115555749D01*
X117440444Y-115539071D01*
X119030000Y-115539071D01*
X119030000Y-115930929D01*
X119179958Y-116292958D01*
X119457042Y-116570042D01*
X119819071Y-116720000D01*
X120210929Y-116720000D01*
X120572958Y-116570042D01*
X120850042Y-116292958D01*
X121000000Y-115930929D01*
X121000000Y-115539071D01*
X120850042Y-115177042D01*
X120572958Y-114899958D01*
X120210929Y-114750000D01*
X119819071Y-114750000D01*
X119457042Y-114899958D01*
X119179958Y-115177042D01*
X119030000Y-115539071D01*
X117440444Y-115539071D01*
X117762209Y-115405791D01*
X118039293Y-115128707D01*
X118189251Y-114766678D01*
X118189251Y-114374820D01*
X121840749Y-114374820D01*
X121840749Y-114766678D01*
X121990707Y-115128707D01*
X122267791Y-115405791D01*
X122629820Y-115555749D01*
X123021678Y-115555749D01*
X123383707Y-115405791D01*
X123660791Y-115128707D01*
X123810749Y-114766678D01*
X123810749Y-114374820D01*
X123660791Y-114012791D01*
X123383707Y-113735707D01*
X123021678Y-113585749D01*
X122629820Y-113585749D01*
X122267791Y-113735707D01*
X121990707Y-114012791D01*
X121840749Y-114374820D01*
X118189251Y-114374820D01*
X118039293Y-114012791D01*
X117762209Y-113735707D01*
X117400180Y-113585749D01*
X117008322Y-113585749D01*
X116646293Y-113735707D01*
X116369209Y-114012791D01*
X116219251Y-114374820D01*
X111835000Y-114374820D01*
X111835000Y-111564071D01*
X115055000Y-111564071D01*
X115055000Y-111955929D01*
X115204958Y-112317958D01*
X115482042Y-112595042D01*
X115844071Y-112745000D01*
X116235929Y-112745000D01*
X116597958Y-112595042D01*
X116875042Y-112317958D01*
X117025000Y-111955929D01*
X117025000Y-111564071D01*
X123005000Y-111564071D01*
X123005000Y-111955929D01*
X123154958Y-112317958D01*
X123432042Y-112595042D01*
X123794071Y-112745000D01*
X124185929Y-112745000D01*
X124547958Y-112595042D01*
X124825042Y-112317958D01*
X124975000Y-111955929D01*
X124975000Y-111564071D01*
X124825042Y-111202042D01*
X124547958Y-110924958D01*
X124185929Y-110775000D01*
X123794071Y-110775000D01*
X123432042Y-110924958D01*
X123154958Y-111202042D01*
X123005000Y-111564071D01*
X117025000Y-111564071D01*
X116875042Y-111202042D01*
X116597958Y-110924958D01*
X116235929Y-110775000D01*
X115844071Y-110775000D01*
X115482042Y-110924958D01*
X115204958Y-111202042D01*
X115055000Y-111564071D01*
X111835000Y-111564071D01*
X111835000Y-108753322D01*
X116219251Y-108753322D01*
X116219251Y-109145180D01*
X116369209Y-109507209D01*
X116646293Y-109784293D01*
X117008322Y-109934251D01*
X117400180Y-109934251D01*
X117762209Y-109784293D01*
X118039293Y-109507209D01*
X118189251Y-109145180D01*
X118189251Y-108753322D01*
X118039293Y-108391293D01*
X117762209Y-108114209D01*
X117400180Y-107964251D01*
X117008322Y-107964251D01*
X116646293Y-108114209D01*
X116369209Y-108391293D01*
X116219251Y-108753322D01*
X111835000Y-108753322D01*
X111835000Y-107519472D01*
X119045192Y-107552395D01*
X119030000Y-107589071D01*
X119030000Y-107980929D01*
X119179958Y-108342958D01*
X119457042Y-108620042D01*
X119819071Y-108770000D01*
X120210929Y-108770000D01*
X120251193Y-108753322D01*
X121840749Y-108753322D01*
X121840749Y-109145180D01*
X121990707Y-109507209D01*
X122267791Y-109784293D01*
X122629820Y-109934251D01*
X123021678Y-109934251D01*
X123383707Y-109784293D01*
X123660791Y-109507209D01*
X123810749Y-109145180D01*
X123810749Y-108753322D01*
X123660791Y-108391293D01*
X123383707Y-108114209D01*
X123021678Y-107964251D01*
X122629820Y-107964251D01*
X122267791Y-108114209D01*
X121990707Y-108391293D01*
X121840749Y-108753322D01*
X120251193Y-108753322D01*
X120572958Y-108620042D01*
X120850042Y-108342958D01*
X121000000Y-107980929D01*
X121000000Y-107589071D01*
X120988484Y-107561269D01*
X122681420Y-107568999D01*
X122730824Y-107559240D01*
X122771973Y-107531632D01*
X122799425Y-107490378D01*
X122809000Y-107441759D01*
X122807310Y-106553000D01*
X131084267Y-106553000D01*
X131201996Y-106631664D01*
G04 #@! TO.N,Net-(C21-Pad1)*
G36*
X171958000Y-106045000D02*
X170307000Y-106045000D01*
X170258399Y-106054667D01*
X170207830Y-106092664D01*
X169699830Y-106727664D01*
X169677018Y-106771654D01*
X169672000Y-106807000D01*
X169672000Y-106928923D01*
X169631191Y-106956191D01*
X169490843Y-107166235D01*
X169441560Y-107414000D01*
X169441560Y-111914000D01*
X169490843Y-112161765D01*
X169631191Y-112371809D01*
X169672000Y-112399077D01*
X169672000Y-113375720D01*
X169632560Y-113574000D01*
X169632560Y-118074000D01*
X169672000Y-118272280D01*
X169672000Y-118364000D01*
X162433000Y-118364000D01*
X162433000Y-105496801D01*
X165567802Y-102362000D01*
X171958000Y-102362000D01*
X171958000Y-106045000D01*
X171958000Y-106045000D01*
G37*
X171958000Y-106045000D02*
X170307000Y-106045000D01*
X170258399Y-106054667D01*
X170207830Y-106092664D01*
X169699830Y-106727664D01*
X169677018Y-106771654D01*
X169672000Y-106807000D01*
X169672000Y-106928923D01*
X169631191Y-106956191D01*
X169490843Y-107166235D01*
X169441560Y-107414000D01*
X169441560Y-111914000D01*
X169490843Y-112161765D01*
X169631191Y-112371809D01*
X169672000Y-112399077D01*
X169672000Y-113375720D01*
X169632560Y-113574000D01*
X169632560Y-118074000D01*
X169672000Y-118272280D01*
X169672000Y-118364000D01*
X162433000Y-118364000D01*
X162433000Y-105496801D01*
X165567802Y-102362000D01*
X171958000Y-102362000D01*
X171958000Y-106045000D01*
G04 #@! TO.N,Vmain*
G36*
X121121000Y-84246908D02*
X121091145Y-84397000D01*
X121121000Y-84547092D01*
X121121000Y-84547096D01*
X121209424Y-84991634D01*
X121378300Y-85244375D01*
X121040735Y-84906810D01*
X120292787Y-84597000D01*
X119483213Y-84597000D01*
X118735265Y-84906810D01*
X118162810Y-85479265D01*
X117853000Y-86227213D01*
X117853000Y-87036787D01*
X118162810Y-87784735D01*
X118735265Y-88357190D01*
X119483213Y-88667000D01*
X120292787Y-88667000D01*
X121040735Y-88357190D01*
X121613190Y-87784735D01*
X121923000Y-87036787D01*
X121923000Y-86227213D01*
X121648241Y-85563885D01*
X121673505Y-85580766D01*
X122515038Y-86422299D01*
X122517762Y-87854977D01*
X121673503Y-88699236D01*
X121546259Y-88784258D01*
X121461237Y-88911502D01*
X121461235Y-88911504D01*
X121209425Y-89288365D01*
X121091145Y-89883000D01*
X121121001Y-90033096D01*
X121121001Y-92145076D01*
X121040735Y-92064810D01*
X120292787Y-91755000D01*
X119483213Y-91755000D01*
X118735265Y-92064810D01*
X118162810Y-92637265D01*
X117853000Y-93385213D01*
X117853000Y-94194787D01*
X118162810Y-94942735D01*
X118735265Y-95515190D01*
X119483213Y-95825000D01*
X120292787Y-95825000D01*
X121040735Y-95515190D01*
X121121000Y-95434925D01*
X121121000Y-99296339D01*
X121091145Y-99446359D01*
X121121000Y-99596523D01*
X121121000Y-99596596D01*
X121151106Y-99747952D01*
X121209370Y-100041004D01*
X121209410Y-100041064D01*
X121209424Y-100041134D01*
X121379304Y-100295377D01*
X121461147Y-100417888D01*
X121461195Y-100417936D01*
X121546258Y-100545242D01*
X121673448Y-100630228D01*
X122543704Y-101500643D01*
X122554757Y-107314417D01*
X120883072Y-107306784D01*
X120850042Y-107227042D01*
X120572958Y-106949958D01*
X120210929Y-106800000D01*
X119819071Y-106800000D01*
X119457042Y-106949958D01*
X119179958Y-107227042D01*
X119150205Y-107298871D01*
X111835000Y-107265469D01*
X111835000Y-101785213D01*
X117853000Y-101785213D01*
X117853000Y-102594787D01*
X118162810Y-103342735D01*
X118735265Y-103915190D01*
X119483213Y-104225000D01*
X120292787Y-104225000D01*
X121040735Y-103915190D01*
X121613190Y-103342735D01*
X121923000Y-102594787D01*
X121923000Y-101785213D01*
X121613190Y-101037265D01*
X121040735Y-100464810D01*
X120292787Y-100155000D01*
X119483213Y-100155000D01*
X118735265Y-100464810D01*
X118162810Y-101037265D01*
X117853000Y-101785213D01*
X111835000Y-101785213D01*
X111835000Y-80897500D01*
X113514041Y-80889833D01*
X113720582Y-81027839D01*
X114153744Y-81114000D01*
X114446256Y-81114000D01*
X114879418Y-81027839D01*
X115096775Y-80882606D01*
X121121000Y-80855097D01*
X121121000Y-84246908D01*
X121121000Y-84246908D01*
G37*
X121121000Y-84246908D02*
X121091145Y-84397000D01*
X121121000Y-84547092D01*
X121121000Y-84547096D01*
X121209424Y-84991634D01*
X121378300Y-85244375D01*
X121040735Y-84906810D01*
X120292787Y-84597000D01*
X119483213Y-84597000D01*
X118735265Y-84906810D01*
X118162810Y-85479265D01*
X117853000Y-86227213D01*
X117853000Y-87036787D01*
X118162810Y-87784735D01*
X118735265Y-88357190D01*
X119483213Y-88667000D01*
X120292787Y-88667000D01*
X121040735Y-88357190D01*
X121613190Y-87784735D01*
X121923000Y-87036787D01*
X121923000Y-86227213D01*
X121648241Y-85563885D01*
X121673505Y-85580766D01*
X122515038Y-86422299D01*
X122517762Y-87854977D01*
X121673503Y-88699236D01*
X121546259Y-88784258D01*
X121461237Y-88911502D01*
X121461235Y-88911504D01*
X121209425Y-89288365D01*
X121091145Y-89883000D01*
X121121001Y-90033096D01*
X121121001Y-92145076D01*
X121040735Y-92064810D01*
X120292787Y-91755000D01*
X119483213Y-91755000D01*
X118735265Y-92064810D01*
X118162810Y-92637265D01*
X117853000Y-93385213D01*
X117853000Y-94194787D01*
X118162810Y-94942735D01*
X118735265Y-95515190D01*
X119483213Y-95825000D01*
X120292787Y-95825000D01*
X121040735Y-95515190D01*
X121121000Y-95434925D01*
X121121000Y-99296339D01*
X121091145Y-99446359D01*
X121121000Y-99596523D01*
X121121000Y-99596596D01*
X121151106Y-99747952D01*
X121209370Y-100041004D01*
X121209410Y-100041064D01*
X121209424Y-100041134D01*
X121379304Y-100295377D01*
X121461147Y-100417888D01*
X121461195Y-100417936D01*
X121546258Y-100545242D01*
X121673448Y-100630228D01*
X122543704Y-101500643D01*
X122554757Y-107314417D01*
X120883072Y-107306784D01*
X120850042Y-107227042D01*
X120572958Y-106949958D01*
X120210929Y-106800000D01*
X119819071Y-106800000D01*
X119457042Y-106949958D01*
X119179958Y-107227042D01*
X119150205Y-107298871D01*
X111835000Y-107265469D01*
X111835000Y-101785213D01*
X117853000Y-101785213D01*
X117853000Y-102594787D01*
X118162810Y-103342735D01*
X118735265Y-103915190D01*
X119483213Y-104225000D01*
X120292787Y-104225000D01*
X121040735Y-103915190D01*
X121613190Y-103342735D01*
X121923000Y-102594787D01*
X121923000Y-101785213D01*
X121613190Y-101037265D01*
X121040735Y-100464810D01*
X120292787Y-100155000D01*
X119483213Y-100155000D01*
X118735265Y-100464810D01*
X118162810Y-101037265D01*
X117853000Y-101785213D01*
X111835000Y-101785213D01*
X111835000Y-80897500D01*
X113514041Y-80889833D01*
X113720582Y-81027839D01*
X114153744Y-81114000D01*
X114446256Y-81114000D01*
X114879418Y-81027839D01*
X115096775Y-80882606D01*
X121121000Y-80855097D01*
X121121000Y-84246908D01*
G36*
X193092001Y-107032046D02*
X185517459Y-106997459D01*
X185469958Y-106949958D01*
X185107929Y-106800000D01*
X184716071Y-106800000D01*
X184354042Y-106949958D01*
X184312045Y-106991955D01*
X182317038Y-106982845D01*
X182317038Y-101996257D01*
X182528456Y-101784713D01*
X183385000Y-101784713D01*
X183385000Y-102594287D01*
X183694810Y-103342235D01*
X184267265Y-103914690D01*
X185015213Y-104224500D01*
X185824787Y-104224500D01*
X186572735Y-103914690D01*
X187145190Y-103342235D01*
X187455000Y-102594287D01*
X187455000Y-101784713D01*
X187145190Y-101036765D01*
X186572735Y-100464310D01*
X185824787Y-100154500D01*
X185015213Y-100154500D01*
X184267265Y-100464310D01*
X183694810Y-101036765D01*
X183385000Y-101784713D01*
X182528456Y-101784713D01*
X183565456Y-100747096D01*
X183761742Y-100615942D01*
X184098576Y-100111835D01*
X184187000Y-99667297D01*
X184187000Y-99551254D01*
X184193855Y-99516738D01*
X184187000Y-99482329D01*
X184187000Y-95434425D01*
X184267265Y-95514690D01*
X185015213Y-95824500D01*
X185824787Y-95824500D01*
X186572735Y-95514690D01*
X187145190Y-94942235D01*
X187455000Y-94194287D01*
X187455000Y-93384713D01*
X187145190Y-92636765D01*
X186572735Y-92064310D01*
X185824787Y-91754500D01*
X185015213Y-91754500D01*
X184267265Y-92064310D01*
X184187000Y-92144575D01*
X184187000Y-89525093D01*
X184216855Y-89375000D01*
X184187000Y-89224907D01*
X184187000Y-89224903D01*
X184098576Y-88780365D01*
X183761742Y-88276258D01*
X183634495Y-88191234D01*
X182317038Y-86873777D01*
X182317038Y-86227213D01*
X183385000Y-86227213D01*
X183385000Y-87036787D01*
X183694810Y-87784735D01*
X184267265Y-88357190D01*
X185015213Y-88667000D01*
X185824787Y-88667000D01*
X186572735Y-88357190D01*
X187145190Y-87784735D01*
X187455000Y-87036787D01*
X187455000Y-86227213D01*
X187145190Y-85479265D01*
X186572735Y-84906810D01*
X185824787Y-84597000D01*
X185015213Y-84597000D01*
X184267265Y-84906810D01*
X183694810Y-85479265D01*
X183385000Y-86227213D01*
X182317038Y-86227213D01*
X182317038Y-82038889D01*
X193092000Y-81989688D01*
X193092001Y-107032046D01*
X193092001Y-107032046D01*
G37*
X193092001Y-107032046D02*
X185517459Y-106997459D01*
X185469958Y-106949958D01*
X185107929Y-106800000D01*
X184716071Y-106800000D01*
X184354042Y-106949958D01*
X184312045Y-106991955D01*
X182317038Y-106982845D01*
X182317038Y-101996257D01*
X182528456Y-101784713D01*
X183385000Y-101784713D01*
X183385000Y-102594287D01*
X183694810Y-103342235D01*
X184267265Y-103914690D01*
X185015213Y-104224500D01*
X185824787Y-104224500D01*
X186572735Y-103914690D01*
X187145190Y-103342235D01*
X187455000Y-102594287D01*
X187455000Y-101784713D01*
X187145190Y-101036765D01*
X186572735Y-100464310D01*
X185824787Y-100154500D01*
X185015213Y-100154500D01*
X184267265Y-100464310D01*
X183694810Y-101036765D01*
X183385000Y-101784713D01*
X182528456Y-101784713D01*
X183565456Y-100747096D01*
X183761742Y-100615942D01*
X184098576Y-100111835D01*
X184187000Y-99667297D01*
X184187000Y-99551254D01*
X184193855Y-99516738D01*
X184187000Y-99482329D01*
X184187000Y-95434425D01*
X184267265Y-95514690D01*
X185015213Y-95824500D01*
X185824787Y-95824500D01*
X186572735Y-95514690D01*
X187145190Y-94942235D01*
X187455000Y-94194287D01*
X187455000Y-93384713D01*
X187145190Y-92636765D01*
X186572735Y-92064310D01*
X185824787Y-91754500D01*
X185015213Y-91754500D01*
X184267265Y-92064310D01*
X184187000Y-92144575D01*
X184187000Y-89525093D01*
X184216855Y-89375000D01*
X184187000Y-89224907D01*
X184187000Y-89224903D01*
X184098576Y-88780365D01*
X183761742Y-88276258D01*
X183634495Y-88191234D01*
X182317038Y-86873777D01*
X182317038Y-86227213D01*
X183385000Y-86227213D01*
X183385000Y-87036787D01*
X183694810Y-87784735D01*
X184267265Y-88357190D01*
X185015213Y-88667000D01*
X185824787Y-88667000D01*
X186572735Y-88357190D01*
X187145190Y-87784735D01*
X187455000Y-87036787D01*
X187455000Y-86227213D01*
X187145190Y-85479265D01*
X186572735Y-84906810D01*
X185824787Y-84597000D01*
X185015213Y-84597000D01*
X184267265Y-84906810D01*
X183694810Y-85479265D01*
X183385000Y-86227213D01*
X182317038Y-86227213D01*
X182317038Y-82038889D01*
X193092000Y-81989688D01*
X193092001Y-107032046D01*
G04 #@! TO.N,GND*
G36*
X157225113Y-113000886D02*
X157240000Y-113076295D01*
X157240000Y-113190459D01*
X157227560Y-113253000D01*
X157227560Y-114003000D01*
X157240000Y-114065543D01*
X157240001Y-114624579D01*
X157210076Y-114668729D01*
X157209549Y-114671289D01*
X157208096Y-114673464D01*
X157179075Y-114819364D01*
X157154582Y-114938375D01*
X157081843Y-115047235D01*
X157032560Y-115295000D01*
X157032560Y-115845000D01*
X157081843Y-116092765D01*
X157222191Y-116302809D01*
X157432235Y-116443157D01*
X157680000Y-116492440D01*
X158102833Y-116492440D01*
X158120272Y-116518515D01*
X158204072Y-116643929D01*
X158267669Y-116686423D01*
X159108000Y-117526002D01*
X159108001Y-118592600D01*
X144527841Y-118592600D01*
X144519000Y-118548154D01*
X144519000Y-114448550D01*
X144527191Y-114460809D01*
X144737235Y-114601157D01*
X144850001Y-114623587D01*
X144850001Y-115004149D01*
X144835112Y-115079000D01*
X144850001Y-115153852D01*
X144873104Y-115270000D01*
X144894097Y-115375537D01*
X145016115Y-115558149D01*
X145062072Y-115626929D01*
X145125528Y-115669329D01*
X146221671Y-116765473D01*
X146264071Y-116828929D01*
X146327527Y-116871329D01*
X146515462Y-116996904D01*
X146563605Y-117006480D01*
X146737148Y-117041000D01*
X146737152Y-117041000D01*
X146812000Y-117055888D01*
X146886848Y-117041000D01*
X149937051Y-117041000D01*
X150011794Y-117055888D01*
X150086745Y-117041000D01*
X150086852Y-117041000D01*
X150163676Y-117025719D01*
X150308346Y-116996982D01*
X150308431Y-116996925D01*
X150308537Y-116996904D01*
X150436038Y-116911711D01*
X150496315Y-116871458D01*
X150496386Y-116871387D01*
X150559929Y-116828929D01*
X150602274Y-116765556D01*
X152182935Y-115185736D01*
X153763560Y-116766362D01*
X153763560Y-116828000D01*
X153812843Y-117075765D01*
X153953191Y-117285809D01*
X154163235Y-117426157D01*
X154411000Y-117475440D01*
X154961000Y-117475440D01*
X155131000Y-117441625D01*
X155301000Y-117475440D01*
X155851000Y-117475440D01*
X156098765Y-117426157D01*
X156308809Y-117285809D01*
X156449157Y-117075765D01*
X156498440Y-116828000D01*
X156498440Y-116338000D01*
X156452691Y-116108000D01*
X156498440Y-115878000D01*
X156498440Y-115388000D01*
X156467606Y-115232986D01*
X156497440Y-115083000D01*
X156497440Y-114533000D01*
X156467208Y-114381014D01*
X156498440Y-114224000D01*
X156498440Y-113734000D01*
X156452691Y-113504000D01*
X156498440Y-113274000D01*
X156498440Y-112964000D01*
X157232505Y-112964000D01*
X157225113Y-113000886D01*
X157225113Y-113000886D01*
G37*
X157225113Y-113000886D02*
X157240000Y-113076295D01*
X157240000Y-113190459D01*
X157227560Y-113253000D01*
X157227560Y-114003000D01*
X157240000Y-114065543D01*
X157240001Y-114624579D01*
X157210076Y-114668729D01*
X157209549Y-114671289D01*
X157208096Y-114673464D01*
X157179075Y-114819364D01*
X157154582Y-114938375D01*
X157081843Y-115047235D01*
X157032560Y-115295000D01*
X157032560Y-115845000D01*
X157081843Y-116092765D01*
X157222191Y-116302809D01*
X157432235Y-116443157D01*
X157680000Y-116492440D01*
X158102833Y-116492440D01*
X158120272Y-116518515D01*
X158204072Y-116643929D01*
X158267669Y-116686423D01*
X159108000Y-117526002D01*
X159108001Y-118592600D01*
X144527841Y-118592600D01*
X144519000Y-118548154D01*
X144519000Y-114448550D01*
X144527191Y-114460809D01*
X144737235Y-114601157D01*
X144850001Y-114623587D01*
X144850001Y-115004149D01*
X144835112Y-115079000D01*
X144850001Y-115153852D01*
X144873104Y-115270000D01*
X144894097Y-115375537D01*
X145016115Y-115558149D01*
X145062072Y-115626929D01*
X145125528Y-115669329D01*
X146221671Y-116765473D01*
X146264071Y-116828929D01*
X146327527Y-116871329D01*
X146515462Y-116996904D01*
X146563605Y-117006480D01*
X146737148Y-117041000D01*
X146737152Y-117041000D01*
X146812000Y-117055888D01*
X146886848Y-117041000D01*
X149937051Y-117041000D01*
X150011794Y-117055888D01*
X150086745Y-117041000D01*
X150086852Y-117041000D01*
X150163676Y-117025719D01*
X150308346Y-116996982D01*
X150308431Y-116996925D01*
X150308537Y-116996904D01*
X150436038Y-116911711D01*
X150496315Y-116871458D01*
X150496386Y-116871387D01*
X150559929Y-116828929D01*
X150602274Y-116765556D01*
X152182935Y-115185736D01*
X153763560Y-116766362D01*
X153763560Y-116828000D01*
X153812843Y-117075765D01*
X153953191Y-117285809D01*
X154163235Y-117426157D01*
X154411000Y-117475440D01*
X154961000Y-117475440D01*
X155131000Y-117441625D01*
X155301000Y-117475440D01*
X155851000Y-117475440D01*
X156098765Y-117426157D01*
X156308809Y-117285809D01*
X156449157Y-117075765D01*
X156498440Y-116828000D01*
X156498440Y-116338000D01*
X156452691Y-116108000D01*
X156498440Y-115878000D01*
X156498440Y-115388000D01*
X156467606Y-115232986D01*
X156497440Y-115083000D01*
X156497440Y-114533000D01*
X156467208Y-114381014D01*
X156498440Y-114224000D01*
X156498440Y-113734000D01*
X156452691Y-113504000D01*
X156498440Y-113274000D01*
X156498440Y-112964000D01*
X157232505Y-112964000D01*
X157225113Y-113000886D01*
G36*
X147862787Y-115521000D02*
X147808463Y-115521000D01*
X147841001Y-115499258D01*
X147862787Y-115521000D01*
X147862787Y-115521000D01*
G37*
X147862787Y-115521000D02*
X147808463Y-115521000D01*
X147841001Y-115499258D01*
X147862787Y-115521000D01*
G36*
X150277810Y-113313560D02*
X150178002Y-113313560D01*
X150178002Y-113213752D01*
X150277810Y-113313560D01*
X150277810Y-113313560D01*
G37*
X150277810Y-113313560D02*
X150178002Y-113313560D01*
X150178002Y-113213752D01*
X150277810Y-113313560D01*
G36*
X150170500Y-111443000D02*
X150182250Y-111443000D01*
X150195000Y-111455750D01*
X150195000Y-111685250D01*
X150183250Y-111697000D01*
X150170500Y-111697000D01*
X150170500Y-112321250D01*
X150173500Y-112324250D01*
X150173500Y-112331000D01*
X150180250Y-112331000D01*
X150198000Y-112348750D01*
X150198000Y-112585000D01*
X150173500Y-112585000D01*
X150173500Y-112605000D01*
X149993440Y-112605000D01*
X149993440Y-112183000D01*
X149958324Y-112006459D01*
X149990440Y-111845000D01*
X149990440Y-111423000D01*
X150170500Y-111423000D01*
X150170500Y-111443000D01*
X150170500Y-111443000D01*
G37*
X150170500Y-111443000D02*
X150182250Y-111443000D01*
X150195000Y-111455750D01*
X150195000Y-111685250D01*
X150183250Y-111697000D01*
X150170500Y-111697000D01*
X150170500Y-112321250D01*
X150173500Y-112324250D01*
X150173500Y-112331000D01*
X150180250Y-112331000D01*
X150198000Y-112348750D01*
X150198000Y-112585000D01*
X150173500Y-112585000D01*
X150173500Y-112605000D01*
X149993440Y-112605000D01*
X149993440Y-112183000D01*
X149958324Y-112006459D01*
X149990440Y-111845000D01*
X149990440Y-111423000D01*
X150170500Y-111423000D01*
X150170500Y-111443000D01*
G36*
X154410000Y-109570440D02*
X154712560Y-109570440D01*
X154712560Y-109813000D01*
X154746176Y-109982000D01*
X154712560Y-110151000D01*
X154712560Y-110701000D01*
X154746375Y-110871000D01*
X154712560Y-111041000D01*
X154712560Y-111591000D01*
X154746176Y-111759999D01*
X154712560Y-111929000D01*
X154712560Y-112136560D01*
X154411000Y-112136560D01*
X154353214Y-112148054D01*
X153957000Y-111751429D01*
X153957000Y-109999197D01*
X154047635Y-109961655D01*
X154310655Y-109698635D01*
X154367275Y-109561942D01*
X154410000Y-109570440D01*
X154410000Y-109570440D01*
G37*
X154410000Y-109570440D02*
X154712560Y-109570440D01*
X154712560Y-109813000D01*
X154746176Y-109982000D01*
X154712560Y-110151000D01*
X154712560Y-110701000D01*
X154746375Y-110871000D01*
X154712560Y-111041000D01*
X154712560Y-111591000D01*
X154746176Y-111759999D01*
X154712560Y-111929000D01*
X154712560Y-112136560D01*
X154411000Y-112136560D01*
X154353214Y-112148054D01*
X153957000Y-111751429D01*
X153957000Y-109999197D01*
X154047635Y-109961655D01*
X154310655Y-109698635D01*
X154367275Y-109561942D01*
X154410000Y-109570440D01*
G36*
X148621755Y-108915557D02*
X148605235Y-108918843D01*
X148395191Y-109059191D01*
X148254843Y-109269235D01*
X148205560Y-109517000D01*
X148205560Y-110067000D01*
X148239176Y-110236000D01*
X148205560Y-110405000D01*
X148205560Y-110810000D01*
X147382440Y-110810000D01*
X147382440Y-110153000D01*
X147370000Y-110090459D01*
X147370000Y-109055846D01*
X147384888Y-108980999D01*
X147370000Y-108906152D01*
X147370000Y-108906148D01*
X147343603Y-108773441D01*
X147389440Y-108543000D01*
X147389440Y-107993000D01*
X147340157Y-107745235D01*
X147199809Y-107535191D01*
X146989765Y-107394843D01*
X146742000Y-107345560D01*
X146296000Y-107345560D01*
X146296000Y-107166017D01*
X146153655Y-106822365D01*
X145890635Y-106559345D01*
X145687008Y-106475000D01*
X146181199Y-106475000D01*
X148621755Y-108915557D01*
X148621755Y-108915557D01*
G37*
X148621755Y-108915557D02*
X148605235Y-108918843D01*
X148395191Y-109059191D01*
X148254843Y-109269235D01*
X148205560Y-109517000D01*
X148205560Y-110067000D01*
X148239176Y-110236000D01*
X148205560Y-110405000D01*
X148205560Y-110810000D01*
X147382440Y-110810000D01*
X147382440Y-110153000D01*
X147370000Y-110090459D01*
X147370000Y-109055846D01*
X147384888Y-108980999D01*
X147370000Y-108906152D01*
X147370000Y-108906148D01*
X147343603Y-108773441D01*
X147389440Y-108543000D01*
X147389440Y-107993000D01*
X147340157Y-107745235D01*
X147199809Y-107535191D01*
X146989765Y-107394843D01*
X146742000Y-107345560D01*
X146296000Y-107345560D01*
X146296000Y-107166017D01*
X146153655Y-106822365D01*
X145890635Y-106559345D01*
X145687008Y-106475000D01*
X146181199Y-106475000D01*
X148621755Y-108915557D01*
G36*
X150195000Y-110794250D02*
X150182250Y-110807000D01*
X150175002Y-110807000D01*
X150175002Y-110714440D01*
X150195000Y-110714440D01*
X150195000Y-110794250D01*
X150195000Y-110794250D01*
G37*
X150195000Y-110794250D02*
X150182250Y-110807000D01*
X150175002Y-110807000D01*
X150175002Y-110714440D01*
X150195000Y-110714440D01*
X150195000Y-110794250D01*
G36*
X157939000Y-75651213D02*
X157939001Y-82983148D01*
X157924112Y-83058000D01*
X157939001Y-83132852D01*
X157983097Y-83354537D01*
X158151072Y-83605929D01*
X158214528Y-83648329D01*
X159632673Y-85066476D01*
X159675071Y-85129929D01*
X159738524Y-85172327D01*
X159738526Y-85172329D01*
X159843746Y-85242634D01*
X159926463Y-85297904D01*
X160148148Y-85342000D01*
X160148152Y-85342000D01*
X160222999Y-85356888D01*
X160297846Y-85342000D01*
X160587224Y-85342000D01*
X161366200Y-86108412D01*
X161366200Y-103141481D01*
X159354840Y-105153286D01*
X159189983Y-105085000D01*
X158818017Y-105085000D01*
X158474365Y-105227345D01*
X158211345Y-105490365D01*
X158069000Y-105834017D01*
X158069000Y-106205983D01*
X158076877Y-106225000D01*
X154080290Y-106225000D01*
X154047635Y-106192345D01*
X153703983Y-106050000D01*
X153332017Y-106050000D01*
X152988365Y-106192345D01*
X152725345Y-106455365D01*
X152619872Y-106710000D01*
X152417017Y-106710000D01*
X152073365Y-106852345D01*
X151810345Y-107115365D01*
X151668000Y-107459017D01*
X151668000Y-107830983D01*
X151810345Y-108174635D01*
X152073365Y-108437655D01*
X152196162Y-108488519D01*
X151606076Y-109078266D01*
X143616443Y-101088490D01*
X143631162Y-92506800D01*
X143641154Y-92506800D01*
X143641154Y-96189800D01*
X143689490Y-96432804D01*
X143827141Y-96638813D01*
X144033150Y-96776464D01*
X144276154Y-96824800D01*
X160578800Y-96824800D01*
X160821804Y-96776464D01*
X161027813Y-96638813D01*
X161165464Y-96432804D01*
X161213800Y-96189800D01*
X161213800Y-92506800D01*
X161165464Y-92263796D01*
X161027813Y-92057787D01*
X160821804Y-91920136D01*
X160578800Y-91871800D01*
X144276154Y-91871800D01*
X144033150Y-91920136D01*
X143827141Y-92057787D01*
X143689490Y-92263796D01*
X143641154Y-92506800D01*
X143631162Y-92506800D01*
X143635501Y-89977722D01*
X146686496Y-86926314D01*
X146749929Y-86883929D01*
X146792343Y-86820452D01*
X146792362Y-86820433D01*
X146835281Y-86756191D01*
X146917904Y-86632537D01*
X146917909Y-86632511D01*
X146917924Y-86632489D01*
X146946166Y-86490453D01*
X146962000Y-86410852D01*
X146962000Y-86410823D01*
X146976888Y-86335948D01*
X146962000Y-86261128D01*
X146962000Y-79577123D01*
X146976888Y-79502555D01*
X146962000Y-79427426D01*
X146962000Y-79427148D01*
X146947334Y-79353418D01*
X146918116Y-79205975D01*
X146917959Y-79205740D01*
X146917904Y-79205463D01*
X146834190Y-79080176D01*
X146792676Y-79017950D01*
X146792481Y-79017755D01*
X146749929Y-78954071D01*
X146686702Y-78911824D01*
X146431000Y-78655756D01*
X146431000Y-75622056D01*
X146565726Y-75487316D01*
X146639933Y-75437733D01*
X146689541Y-75363489D01*
X146689557Y-75363473D01*
X146735639Y-75294499D01*
X146836419Y-75143670D01*
X146836424Y-75143646D01*
X146836435Y-75143629D01*
X146866754Y-74991166D01*
X146888000Y-74884356D01*
X146888000Y-74884328D01*
X146905415Y-74796755D01*
X146888000Y-74709227D01*
X146888000Y-74345800D01*
X156633519Y-74345800D01*
X157939000Y-75651213D01*
X157939000Y-75651213D01*
G37*
X157939000Y-75651213D02*
X157939001Y-82983148D01*
X157924112Y-83058000D01*
X157939001Y-83132852D01*
X157983097Y-83354537D01*
X158151072Y-83605929D01*
X158214528Y-83648329D01*
X159632673Y-85066476D01*
X159675071Y-85129929D01*
X159738524Y-85172327D01*
X159738526Y-85172329D01*
X159843746Y-85242634D01*
X159926463Y-85297904D01*
X160148148Y-85342000D01*
X160148152Y-85342000D01*
X160222999Y-85356888D01*
X160297846Y-85342000D01*
X160587224Y-85342000D01*
X161366200Y-86108412D01*
X161366200Y-103141481D01*
X159354840Y-105153286D01*
X159189983Y-105085000D01*
X158818017Y-105085000D01*
X158474365Y-105227345D01*
X158211345Y-105490365D01*
X158069000Y-105834017D01*
X158069000Y-106205983D01*
X158076877Y-106225000D01*
X154080290Y-106225000D01*
X154047635Y-106192345D01*
X153703983Y-106050000D01*
X153332017Y-106050000D01*
X152988365Y-106192345D01*
X152725345Y-106455365D01*
X152619872Y-106710000D01*
X152417017Y-106710000D01*
X152073365Y-106852345D01*
X151810345Y-107115365D01*
X151668000Y-107459017D01*
X151668000Y-107830983D01*
X151810345Y-108174635D01*
X152073365Y-108437655D01*
X152196162Y-108488519D01*
X151606076Y-109078266D01*
X143616443Y-101088490D01*
X143631162Y-92506800D01*
X143641154Y-92506800D01*
X143641154Y-96189800D01*
X143689490Y-96432804D01*
X143827141Y-96638813D01*
X144033150Y-96776464D01*
X144276154Y-96824800D01*
X160578800Y-96824800D01*
X160821804Y-96776464D01*
X161027813Y-96638813D01*
X161165464Y-96432804D01*
X161213800Y-96189800D01*
X161213800Y-92506800D01*
X161165464Y-92263796D01*
X161027813Y-92057787D01*
X160821804Y-91920136D01*
X160578800Y-91871800D01*
X144276154Y-91871800D01*
X144033150Y-91920136D01*
X143827141Y-92057787D01*
X143689490Y-92263796D01*
X143641154Y-92506800D01*
X143631162Y-92506800D01*
X143635501Y-89977722D01*
X146686496Y-86926314D01*
X146749929Y-86883929D01*
X146792343Y-86820452D01*
X146792362Y-86820433D01*
X146835281Y-86756191D01*
X146917904Y-86632537D01*
X146917909Y-86632511D01*
X146917924Y-86632489D01*
X146946166Y-86490453D01*
X146962000Y-86410852D01*
X146962000Y-86410823D01*
X146976888Y-86335948D01*
X146962000Y-86261128D01*
X146962000Y-79577123D01*
X146976888Y-79502555D01*
X146962000Y-79427426D01*
X146962000Y-79427148D01*
X146947334Y-79353418D01*
X146918116Y-79205975D01*
X146917959Y-79205740D01*
X146917904Y-79205463D01*
X146834190Y-79080176D01*
X146792676Y-79017950D01*
X146792481Y-79017755D01*
X146749929Y-78954071D01*
X146686702Y-78911824D01*
X146431000Y-78655756D01*
X146431000Y-75622056D01*
X146565726Y-75487316D01*
X146639933Y-75437733D01*
X146689541Y-75363489D01*
X146689557Y-75363473D01*
X146735639Y-75294499D01*
X146836419Y-75143670D01*
X146836424Y-75143646D01*
X146836435Y-75143629D01*
X146866754Y-74991166D01*
X146888000Y-74884356D01*
X146888000Y-74884328D01*
X146905415Y-74796755D01*
X146888000Y-74709227D01*
X146888000Y-74345800D01*
X156633519Y-74345800D01*
X157939000Y-75651213D01*
G36*
X158284097Y-108216463D02*
X158230085Y-108488000D01*
X158005017Y-108488000D01*
X157775821Y-108582936D01*
X157603000Y-108548560D01*
X157053000Y-108548560D01*
X156805235Y-108597843D01*
X156595191Y-108738191D01*
X156497440Y-108884485D01*
X156497440Y-108378229D01*
X156584537Y-108360904D01*
X156832830Y-108195000D01*
X158298438Y-108195000D01*
X158284097Y-108216463D01*
X158284097Y-108216463D01*
G37*
X158284097Y-108216463D02*
X158230085Y-108488000D01*
X158005017Y-108488000D01*
X157775821Y-108582936D01*
X157603000Y-108548560D01*
X157053000Y-108548560D01*
X156805235Y-108597843D01*
X156595191Y-108738191D01*
X156497440Y-108884485D01*
X156497440Y-108378229D01*
X156584537Y-108360904D01*
X156832830Y-108195000D01*
X158298438Y-108195000D01*
X158284097Y-108216463D01*
G04 #@! TO.N,Vmain*
G36*
X160451800Y-96062800D02*
X144403154Y-96062800D01*
X144403154Y-92633800D01*
X160451800Y-92633800D01*
X160451800Y-96062800D01*
X160451800Y-96062800D01*
G37*
X160451800Y-96062800D02*
X144403154Y-96062800D01*
X144403154Y-92633800D01*
X160451800Y-92633800D01*
X160451800Y-96062800D01*
G04 #@! TD*
M02*
